<svg width="96" height="96" viewBox="0 0 96 96" fill="none" xmlns="http://www.w3.org/2000/svg">
<g filter="url(#filter0_d_400_17568)">
<circle cx="48" cy="44" r="28" fill="#DADADB"/>
</g>
<g clip-path="url(#clip0_400_17568)">
<path d="M42.6683 56.5131C42.1557 56.1721 41.7014 55.7507 41.3228 55.2652C40.9064 54.764 40.5205 54.2381 40.1674 53.6905C39.3387 52.4765 38.6889 51.1497 38.2377 49.7507C37.6958 48.1257 37.4333 46.5681 37.4333 45.0447C37.4333 43.3433 37.8014 41.8581 38.5213 40.6101C39.0549 39.6346 39.8395 38.8195 40.7939 38.249C41.7187 37.6745 42.7814 37.3601 43.87 37.339C44.251 37.339 44.6614 37.3942 45.0969 37.4998C45.4097 37.5884 45.7907 37.7281 46.2563 37.902C46.8486 38.1303 47.1744 38.2701 47.2849 38.3042C47.6319 38.431 47.9235 38.4862 48.1527 38.4862C48.3265 38.4862 48.5719 38.431 48.8506 38.3465C49.0074 38.2912 49.3032 38.1937 49.7265 38.0125C50.1457 37.8598 50.4756 37.729 50.738 37.6315C51.1402 37.5128 51.5294 37.4031 51.8764 37.3479C52.2877 37.2831 52.7051 37.2659 53.1203 37.2967C53.8399 37.3437 54.5486 37.4962 55.2239 37.7493C56.328 38.1937 57.221 38.8876 57.8856 39.874C57.6047 40.0471 57.341 40.2468 57.0983 40.4703C56.5698 40.9388 56.1197 41.4888 55.765 42.0994C55.3013 42.9339 55.0609 43.8739 55.067 44.8286C55.0841 46.001 55.3847 47.0337 55.977 47.9266C56.4125 48.5884 56.9784 49.1544 57.6402 49.5898C57.979 49.8181 58.2707 49.975 58.5502 50.0806C58.4194 50.4868 58.2797 50.8801 58.1147 51.2701C57.7407 52.1447 57.2873 52.9831 56.7603 53.775C56.2907 54.4567 55.9226 54.9645 55.6431 55.3025C55.2076 55.8185 54.7884 56.2125 54.365 56.4872C53.8995 56.7959 53.3494 56.9608 52.7904 56.9608C52.4118 56.9754 52.0334 56.9296 51.6692 56.8251C51.3564 56.7195 51.0468 56.605 50.7421 56.4741C50.4253 56.3287 50.0987 56.2057 49.7647 56.1061C48.9389 55.894 48.0731 55.8926 47.2467 56.102C46.9079 56.1995 46.5821 56.3133 46.2604 56.453C45.8078 56.6432 45.5072 56.7707 45.3333 56.8251C44.9864 56.9267 44.6264 56.9901 44.2624 57.0112C43.6994 57.0112 43.1745 56.8503 42.6545 56.5245L42.6683 56.5131ZM50.0945 36.5135C49.3584 36.8815 48.6556 37.0383 47.9577 36.9871C47.848 36.2843 47.9577 35.5653 48.2494 34.778C48.4977 34.111 48.8646 33.4944 49.3324 32.958C49.8264 32.3933 50.4259 31.9305 51.0972 31.5954C51.8122 31.2273 52.4939 31.0283 53.1455 30.999C53.23 31.7351 53.1455 32.4591 52.8749 33.2415C52.6245 33.9332 52.2583 34.5772 51.7919 35.146C51.3158 35.7115 50.7315 36.1761 50.0734 36.5126L50.0945 36.5135Z" fill="#121421"/>
</g>
<defs>
<filter id="filter0_d_400_17568" x="0" y="0" width="96" height="96" filterUnits="userSpaceOnUse" color-interpolation-filters="sRGB">
<feFlood flood-opacity="0" result="BackgroundImageFix"/>
<feColorMatrix in="SourceAlpha" type="matrix" values="0 0 0 0 0 0 0 0 0 0 0 0 0 0 0 0 0 0 127 0" result="hardAlpha"/>
<feOffset dy="4"/>
<feGaussianBlur stdDeviation="10"/>
<feComposite in2="hardAlpha" operator="out"/>
<feColorMatrix type="matrix" values="0 0 0 0 0 0 0 0 0 0 0 0 0 0 0 0 0 0 0.02 0"/>
<feBlend mode="normal" in2="BackgroundImageFix" result="effect1_dropShadow_400_17568"/>
<feBlend mode="normal" in="SourceGraphic" in2="effect1_dropShadow_400_17568" result="shape"/>
</filter>
<clipPath id="clip0_400_17568">
<rect width="26" height="26" fill="white" transform="translate(35 31)"/>
</clipPath>
</defs>
</svg>
