<svg width="26" height="26" viewBox="0 0 26 26" fill="none" xmlns="http://www.w3.org/2000/svg">
<path d="M8.57989 14.5921C10.1074 14.5921 11.3316 15.8282 11.3316 17.3665V21.0596C11.3316 22.5871 10.1074 23.833 8.57989 23.833H4.91822C3.40156 23.833 2.16656 22.5871 2.16656 21.0596V17.3665C2.16656 15.8282 3.40156 14.5921 4.91822 14.5921H8.57989ZM21.0817 14.5921C22.5983 14.5921 23.8333 15.8282 23.8333 17.3665V21.0596C23.8333 22.5871 22.5983 23.833 21.0817 23.833H17.42C15.8925 23.833 14.6683 22.5871 14.6683 21.0596V17.3665C14.6683 15.8282 15.8925 14.5921 17.42 14.5921H21.0817ZM8.57989 2.16663C10.1074 2.16663 11.3316 3.41246 11.3316 4.94104V8.63413C11.3316 10.1725 10.1074 11.4075 8.57989 11.4075H4.91822C3.40156 11.4075 2.16656 10.1725 2.16656 8.63413V4.94104C2.16656 3.41246 3.40156 2.16663 4.91822 2.16663H8.57989ZM21.0817 2.16663C22.5983 2.16663 23.8333 3.41246 23.8333 4.94104V8.63413C23.8333 10.1725 22.5983 11.4075 21.0817 11.4075H17.42C15.8925 11.4075 14.6683 10.1725 14.6683 8.63413V4.94104C14.6683 3.41246 15.8925 2.16663 17.42 2.16663H21.0817Z" fill="#CACBCE"/>
</svg>
