<svg width="26" height="26" viewBox="0 0 26 26" fill="none" xmlns="http://www.w3.org/2000/svg">
<g clip-path="url(#clip0_221_3920)">
<path d="M7.66838 25.5131C7.15577 25.1721 6.70145 24.7507 6.32288 24.2652C5.90646 23.764 5.52064 23.2381 5.1675 22.6905C4.33882 21.4765 3.68895 20.1497 3.23782 18.7507C2.69588 17.1257 2.43344 15.5681 2.43344 14.0447C2.43344 12.3433 2.8015 10.8581 3.52138 9.61009C4.05501 8.63463 4.83959 7.81948 5.79394 7.24896C6.71882 6.6745 7.78151 6.36013 8.87007 6.33896C9.25113 6.33896 9.66144 6.39421 10.0969 6.49984C10.4098 6.5884 10.7908 6.72815 11.2564 6.90202C11.8487 7.13034 12.1745 7.27009 12.285 7.30421C12.6319 7.43096 12.9236 7.48621 13.1528 7.48621C13.3266 7.48621 13.572 7.43096 13.8507 7.34646C14.0075 7.29121 14.3033 7.19371 14.7266 7.01252C15.1458 6.85977 15.4757 6.72896 15.7381 6.63146C16.1403 6.51284 16.5295 6.40315 16.8764 6.3479C17.2877 6.28306 17.7051 6.26588 18.1204 6.29671C18.8399 6.34374 19.5487 6.49623 20.2239 6.74927C21.3281 7.19371 22.2211 7.88759 22.8857 8.87396C22.6048 9.0471 22.3411 9.24681 22.0984 9.47034C21.5699 9.93881 21.1198 10.4888 20.7651 11.0994C20.3014 11.9339 20.061 12.8739 20.0671 13.8286C20.0842 15.001 20.3848 16.0337 20.9771 16.9266C21.4126 17.5884 21.9785 18.1544 22.6403 18.5898C22.9791 18.8181 23.2708 18.975 23.5503 19.0806C23.4195 19.4868 23.2798 19.8801 23.1148 20.2701C22.7407 21.1447 22.2874 21.9831 21.7604 22.775C21.2908 23.4567 20.9227 23.9645 20.6432 24.3025C20.2077 24.8185 19.7884 25.2125 19.3651 25.4872C18.8996 25.7959 18.3495 25.9608 17.7905 25.9608C17.4119 25.9754 17.0334 25.9296 16.6693 25.8251C16.3564 25.7195 16.0469 25.605 15.7422 25.4741C15.4254 25.3287 15.0988 25.2057 14.7648 25.1061C13.939 24.894 13.0732 24.8926 12.2468 25.102C11.908 25.1995 11.5822 25.3133 11.2604 25.453C10.8079 25.6432 10.5073 25.7707 10.3334 25.8251C9.98644 25.9267 9.6265 25.9901 9.26251 26.0112C8.69944 26.0112 8.17457 25.8503 7.65457 25.5245L7.66838 25.5131ZM15.0946 5.51346C14.3585 5.88152 13.6557 6.03834 12.9578 5.98715C12.8481 5.28434 12.9578 4.56527 13.2494 3.77796C13.4978 3.11095 13.8647 2.49436 14.3325 1.95796C14.8265 1.39329 15.426 0.930454 16.0973 0.595398C16.8123 0.227336 17.4939 0.0282734 18.1456 -0.000976562C18.2301 0.735148 18.1456 1.45909 17.875 2.24152C17.6246 2.93319 17.2584 3.57722 16.7919 4.14602C16.3159 4.71147 15.7316 5.1761 15.0735 5.51265L15.0946 5.51346Z" fill="#0D0D26"/>
</g>
<defs>
<clipPath id="clip0_221_3920">
<rect width="26" height="26" fill="white"/>
</clipPath>
</defs>
</svg>
