<svg width="96" height="96" viewBox="0 0 96 96" fill="none" xmlns="http://www.w3.org/2000/svg">
<g filter="url(#filter0_d_400_17572)">
<circle cx="48" cy="44" r="28" fill="#DADADB"/>
</g>
<path fill-rule="evenodd" clip-rule="evenodd" d="M60.25 44.0737C60.25 37.3089 54.7648 31.8237 48 31.8237C41.2352 31.8237 35.75 37.3089 35.75 44.0737C35.75 50.1878 40.2289 55.2557 46.0859 56.1755V47.6158H42.9748V44.0737H46.0859V41.3749C46.0859 38.3053 47.9152 36.6083 50.713 36.6083C52.0534 36.6083 53.4556 36.8479 53.4556 36.8479V39.8628H51.9102C50.3893 39.8628 49.9135 40.8067 49.9135 41.7769V44.0737H53.3107L52.7682 47.6158H49.9141V56.1766C55.7711 55.2573 60.25 50.1894 60.25 44.0737Z" fill="#395185"/>
<defs>
<filter id="filter0_d_400_17572" x="0" y="0" width="96" height="96" filterUnits="userSpaceOnUse" color-interpolation-filters="sRGB">
<feFlood flood-opacity="0" result="BackgroundImageFix"/>
<feColorMatrix in="SourceAlpha" type="matrix" values="0 0 0 0 0 0 0 0 0 0 0 0 0 0 0 0 0 0 127 0" result="hardAlpha"/>
<feOffset dy="4"/>
<feGaussianBlur stdDeviation="10"/>
<feComposite in2="hardAlpha" operator="out"/>
<feColorMatrix type="matrix" values="0 0 0 0 0 0 0 0 0 0 0 0 0 0 0 0 0 0 0.02 0"/>
<feBlend mode="normal" in2="BackgroundImageFix" result="effect1_dropShadow_400_17572"/>
<feBlend mode="normal" in="SourceGraphic" in2="effect1_dropShadow_400_17572" result="shape"/>
</filter>
</defs>
</svg>
