<svg width="28" height="28" viewBox="0 0 28 28" fill="none" xmlns="http://www.w3.org/2000/svg">
<path d="M25.4398 11.7152H24.5V11.6668H14V16.3335H20.5934C19.6315 19.0501 17.0468 21.0002 14 21.0002C10.1343 21.0002 7 17.8659 7 14.0002C7 10.1344 10.1343 7.00016 14 7.00016C15.7844 7.00016 17.4078 7.67333 18.6439 8.77291L21.9438 5.473C19.8602 3.53108 17.073 2.3335 14 2.3335C7.55709 2.3335 2.33334 7.55725 2.33334 14.0002C2.33334 20.4431 7.55709 25.6668 14 25.6668C20.4429 25.6668 25.6667 20.4431 25.6667 14.0002C25.6667 13.2179 25.5862 12.4543 25.4398 11.7152Z" fill="#FFC107"/>
<path d="M3.67848 8.56991L7.51156 11.381C8.54873 8.81316 11.0606 7.00016 14 7.00016C15.7844 7.00016 17.4078 7.67333 18.6439 8.77291L21.9438 5.473C19.8601 3.53108 17.073 2.3335 14 2.3335C9.51882 2.3335 5.63265 4.86341 3.67848 8.56991Z" fill="#FF3D00"/>
<path d="M14 25.6671C17.0135 25.6671 19.7517 24.5138 21.8219 22.6384L18.2111 19.5829C17.0004 20.5036 15.521 21.0016 14 21.0004C10.9655 21.0004 8.38892 19.0655 7.41825 16.3652L3.61375 19.2965C5.54459 23.0747 9.46575 25.6671 14 25.6671Z" fill="#0E9D57"/>
<path d="M25.4398 11.7149H24.5V11.6665H14V16.3332H20.5934C20.1333 17.6261 19.3045 18.7559 18.2093 19.5829L18.2111 19.5818L21.8219 22.6373C21.5664 22.8694 25.6667 19.8332 25.6667 13.9998C25.6667 13.2176 25.5862 12.454 25.4398 11.7149Z" fill="#1976D2"/>
</svg>
