<svg width="96" height="96" viewBox="0 0 96 96" fill="none" xmlns="http://www.w3.org/2000/svg">
<g filter="url(#filter0_d_400_17560)">
<circle cx="48" cy="44" r="28" fill="#DADADB"/>
</g>
<path d="M59.4397 41.7152H58.4999V41.6668H47.9999V46.3335H54.5933C53.6314 49.0501 51.0467 51.0002 47.9999 51.0002C44.1342 51.0002 40.9999 47.8659 40.9999 44.0002C40.9999 40.1344 44.1342 37.0002 47.9999 37.0002C49.7843 37.0002 51.4078 37.6733 52.6438 38.7729L55.9438 35.473C53.8601 33.5311 51.0729 32.3335 47.9999 32.3335C41.557 32.3335 36.3333 37.5572 36.3333 44.0002C36.3333 50.4431 41.557 55.6668 47.9999 55.6668C54.4428 55.6668 59.6666 50.4431 59.6666 44.0002C59.6666 43.2179 59.5861 42.4543 59.4397 41.7152Z" fill="#FFC107"/>
<path d="M37.6785 38.5699L41.5115 41.381C42.5487 38.8132 45.0606 37.0002 48 37.0002C49.7844 37.0002 51.4078 37.6733 52.6439 38.7729L55.9438 35.473C53.8601 33.5311 51.073 32.3335 48 32.3335C43.5188 32.3335 39.6326 34.8634 37.6785 38.5699Z" fill="#FF3D00"/>
<path d="M48 55.6671C51.0135 55.6671 53.7517 54.5138 55.8219 52.6384L52.2111 49.5829C51.0004 50.5036 49.521 51.0016 48 51.0004C44.9655 51.0004 42.3889 49.0655 41.4183 46.3652L37.6138 49.2965C39.5446 53.0747 43.4658 55.6671 48 55.6671Z" fill="#0E9D57"/>
<path d="M59.4398 41.7149H58.5V41.6665H48V46.3332H54.5934C54.1333 47.6261 53.3045 48.7559 52.2093 49.5829L52.2111 49.5818L55.8219 52.6373C55.5664 52.8694 59.6667 49.8332 59.6667 43.9998C59.6667 43.2176 59.5862 42.454 59.4398 41.7149Z" fill="#1976D2"/>
<defs>
<filter id="filter0_d_400_17560" x="0" y="0" width="96" height="96" filterUnits="userSpaceOnUse" color-interpolation-filters="sRGB">
<feFlood flood-opacity="0" result="BackgroundImageFix"/>
<feColorMatrix in="SourceAlpha" type="matrix" values="0 0 0 0 0 0 0 0 0 0 0 0 0 0 0 0 0 0 127 0" result="hardAlpha"/>
<feOffset dy="4"/>
<feGaussianBlur stdDeviation="10"/>
<feComposite in2="hardAlpha" operator="out"/>
<feColorMatrix type="matrix" values="0 0 0 0 0 0 0 0 0 0 0 0 0 0 0 0 0 0 0.02 0"/>
<feBlend mode="normal" in2="BackgroundImageFix" result="effect1_dropShadow_400_17560"/>
<feBlend mode="normal" in="SourceGraphic" in2="effect1_dropShadow_400_17560" result="shape"/>
</filter>
</defs>
</svg>
