<svg width="15" height="16" viewBox="0 0 15 16" fill="none" xmlns="http://www.w3.org/2000/svg">
<path d="M2.85799 6.49188L2.85799 0.800907" stroke="#0E9D57" stroke-width="1.5" stroke-linecap="round" stroke-linejoin="round"/>
<path d="M11.6128 9.03024L11.6128 14.7212" stroke="#0E9D57" stroke-width="1.5" stroke-linecap="round" stroke-linejoin="round"/>
<path fill-rule="evenodd" clip-rule="evenodd" d="M11.6614 5.0431C12.8317 5.0431 13.7806 4.08734 13.7806 2.90865C13.7806 1.72995 12.8317 0.774194 11.6614 0.774193C10.4912 0.774193 9.54223 1.72995 9.54223 2.90865C9.54222 4.08734 10.4912 5.0431 11.6614 5.0431Z" stroke="#0E9D57" stroke-width="1.5" stroke-linecap="round" stroke-linejoin="round"/>
<path fill-rule="evenodd" clip-rule="evenodd" d="M2.8934 15.2256C4.06367 15.2256 5.0126 14.2705 5.0126 13.0918C5.0126 11.9124 4.06367 10.9567 2.8934 10.9567C1.72313 10.9567 0.774206 11.9124 0.774206 13.0918C0.774206 14.2705 1.72313 15.2256 2.8934 15.2256Z" stroke="#0E9D57" stroke-width="1.5" stroke-linecap="round" stroke-linejoin="round"/>
</svg>
