<svg width="23" height="23" viewBox="0 0 23 23" fill="none" xmlns="http://www.w3.org/2000/svg">
<path d="M21.8501 6.3249C21.8501 7.6974 21.3049 9.01368 20.3344 9.98418C19.3639 10.9547 18.0476 11.4999 16.6751 11.4999C15.3026 11.4999 13.9863 10.9547 13.0158 9.98418C12.0453 9.01368 11.5001 7.6974 11.5001 6.3249C11.5001 4.95241 12.0453 3.63613 13.0158 2.66562C13.9863 1.69512 15.3026 1.1499 16.6751 1.1499C18.0476 1.1499 19.3639 1.69512 20.3344 2.66562C21.3049 3.63613 21.8501 4.95241 21.8501 6.3249V6.3249ZM17.2501 4.0249C17.2501 3.8724 17.1895 3.72615 17.0817 3.61832C16.9739 3.51048 16.8276 3.4499 16.6751 3.4499C16.5226 3.4499 16.3763 3.51048 16.2685 3.61832C16.1607 3.72615 16.1001 3.8724 16.1001 4.0249V5.7499H14.3751C14.2226 5.7499 14.0763 5.81048 13.9685 5.91832C13.8607 6.02615 13.8001 6.1724 13.8001 6.3249C13.8001 6.4774 13.8607 6.62366 13.9685 6.73149C14.0763 6.83932 14.2226 6.8999 14.3751 6.8999H16.1001V8.6249C16.1001 8.7774 16.1607 8.92366 16.2685 9.03149C16.3763 9.13932 16.5226 9.1999 16.6751 9.1999C16.8276 9.1999 16.9739 9.13932 17.0817 9.03149C17.1895 8.92366 17.2501 8.7774 17.2501 8.6249V6.8999H18.9751C19.1276 6.8999 19.2739 6.83932 19.3817 6.73149C19.4895 6.62366 19.5501 6.4774 19.5501 6.3249C19.5501 6.1724 19.4895 6.02615 19.3817 5.91832C19.2739 5.81048 19.1276 5.7499 18.9751 5.7499H17.2501V4.0249ZM16.6751 12.6499C17.2583 12.6505 17.8388 12.5704 18.4001 12.4119V20.1249C18.4 20.2309 18.3706 20.3348 18.3152 20.4252C18.2597 20.5155 18.1803 20.5888 18.0859 20.6369C17.9914 20.685 17.8854 20.706 17.7797 20.6976C17.6741 20.6893 17.5727 20.6518 17.487 20.5895L11.5001 16.2356L5.5132 20.5895C5.42745 20.6518 5.32613 20.6893 5.22045 20.6976C5.11477 20.706 5.00883 20.685 4.91434 20.6369C4.81986 20.5888 4.7405 20.5155 4.68504 20.4252C4.62959 20.3348 4.60019 20.2309 4.6001 20.1249V5.1749C4.6001 4.4124 4.903 3.68114 5.44217 3.14197C5.98133 2.6028 6.7126 2.2999 7.4751 2.2999H11.7956C11.0323 3.22521 10.5478 4.34851 10.3987 5.53875C10.2496 6.72898 10.4421 7.93707 10.9536 9.02208C11.4651 10.1071 12.2746 11.0243 13.2877 11.6666C14.3007 12.309 15.4756 12.65 16.6751 12.6499V12.6499Z" fill="#DADADB"/>
</svg>
