<svg width="20" height="22" viewBox="0 0 20 22" fill="none" xmlns="http://www.w3.org/2000/svg">
<path fill-rule="evenodd" clip-rule="evenodd" d="M3.80075 17.065L3.36913 13.5692C2.22637 12.7566 1.34599 12.0878 0.287915 11.3176C-0.211641 7.63524 0.71109 5.63755 2.06544 3.74144C3.74996 1.59984 6.45866 0 9.70068 0C12.9428 0.0337682 15.66 1.66751 17.2599 3.80911C18.7581 5.8407 19.5623 8.39703 18.9781 11.4192L16.0578 13.5692L15.6259 17.065H10.9959C10.7081 17.2938 10.3188 17.5052 9.70068 17.5222C9.09124 17.5052 8.71028 17.2938 8.39712 17.065H3.80075Z" fill="#CC2229"/>
<path fill-rule="evenodd" clip-rule="evenodd" d="M9.70073 12.2147C9.45524 8.95569 9.38757 4.93486 9.18442 1.70986C8.83736 1.62517 8.34638 1.65063 7.94009 1.7183C7.5338 1.84533 7.23752 1.95535 6.89046 2.15005C7.52536 5.24815 8.26183 9.19274 8.88828 12.2655C8.03335 9.27743 6.89046 5.53599 6.04411 2.55634C5.63782 2.64103 5.23997 2.8695 4.95227 3.10655C4.64755 3.3436 4.46973 3.52142 4.19034 3.94459C5.41766 6.56873 6.89046 9.91233 8.12649 12.5194C6.69576 10.1492 4.96045 7.02581 3.52141 4.67262C3.24215 4.91811 3.03043 5.09593 2.75104 5.56989C2.51399 5.95086 2.39553 6.39949 2.34475 6.83124C3.91926 8.75282 5.79835 11.0552 7.38131 12.9681C5.73082 11.3767 3.69909 9.32822 2.06549 7.73682C1.90469 8.05842 1.80312 8.32937 1.75233 8.86256C1.6931 9.37887 1.79467 9.99675 1.90469 10.3693L5.09592 12.7395L5.43454 15.3721L8.94751 15.3974C9.20144 15.6937 9.286 15.846 9.70086 15.8713C10.0986 15.846 10.3273 15.6005 10.4289 15.3974H13.9331L14.2885 12.7564L17.4546 10.403C17.5729 10.0138 17.649 9.41264 17.6069 8.89633C17.5561 8.33768 17.4546 8.05829 17.3191 7.76201C15.677 9.34497 13.6369 11.3936 12.0033 12.9848C13.5945 11.0887 15.4569 8.77774 17.0481 6.83942C16.9636 6.4078 16.862 5.96747 16.6079 5.58664C16.3117 5.11255 16.1423 4.93486 15.8715 4.68093C14.4241 7.02568 12.6634 10.1747 11.2328 12.5278C12.5027 9.91219 13.9416 6.5686 15.1861 3.9785C14.9152 3.56363 14.7204 3.35204 14.4496 3.13201C14.128 2.88652 13.7301 2.65805 13.3407 2.56492C12.4519 5.53599 11.3601 9.31133 10.4966 12.274C11.0974 9.20118 11.8509 5.2905 12.4519 2.20097C12.1473 1.98081 11.851 1.87079 11.4529 1.75234C10.996 1.66765 10.5473 1.65077 10.1917 1.70999C9.9548 4.96032 9.94608 8.97271 9.70073 12.2147V12.2147Z" fill="#F6D330"/>
<path fill-rule="evenodd" clip-rule="evenodd" d="M0 20.7895H1.64218C1.61686 21.1536 1.79467 21.2382 1.87936 21.2975C1.97236 21.3313 2.65818 21.3651 2.99666 21.3058C3.13214 21.2805 3.25904 21.2297 3.25904 20.8149C3.25904 20.6372 3.21669 20.4425 3.01355 20.4C2.29396 20.3409 1.5914 20.417 0.871944 20.3492C0.152359 20.1885 0.0424783 20.0022 0 19.4351C0.0507864 18.6478 0.330178 18.4193 1.13432 18.3939C1.97217 18.3685 2.81059 18.3685 3.64844 18.3939C4.50337 18.3939 4.76574 18.7242 4.76574 19.4436H3.25904C3.25904 19.088 3.19137 18.9527 3.01355 18.9356C2.64718 18.9103 2.2795 18.9103 1.91313 18.9356C1.77766 18.9356 1.59997 19.0034 1.59997 19.325C1.59997 19.6296 1.67608 19.7059 1.87936 19.7315C2.49724 19.7567 3.1237 19.7652 3.73313 19.8073C4.74886 19.8667 4.78276 20.3153 4.81653 20.7893C4.83341 21.4666 4.58792 21.7034 4.41024 21.8137C4.241 21.8898 3.41984 21.9831 3.25904 21.9831H1.63387C1.26979 21.9831 0.812716 21.9407 0.414867 21.8222C0.0423444 21.7207 0 21.2213 0 20.7895V20.7895ZM15.4315 22H16.8704V18.411H15.4315V22V22ZM17.8354 22H19.2575V18.411H17.8354V22V22ZM14.5935 20.1207C14.5673 20.0085 14.5333 19.8982 14.4917 19.7907C14.2462 19.3928 13.3998 19.3928 12.5788 19.3758C11.9609 19.3758 11.0383 19.3928 10.7674 19.6551C10.6572 19.7737 10.598 19.9429 10.5642 20.1207C10.5219 20.3325 10.5302 20.5524 10.5302 20.6541C10.5302 20.8402 10.5472 21.5596 10.8943 21.7459C11.2159 21.9576 12.1893 21.9831 12.5616 21.9831C12.9595 21.9831 14.06 21.9407 14.221 21.7543C14.5085 21.6528 14.5764 21.2974 14.6356 21.0181H13.222C13.222 21.2974 13.0018 21.4668 12.5616 21.4411C12.1638 21.4666 11.9353 21.3735 11.9353 20.8742L14.6354 20.8825C14.6356 20.6372 14.6443 20.3747 14.5935 20.1207V20.1207ZM13.222 20.3662H11.9353C11.9353 20.2647 11.9523 20.1798 11.9777 20.1207C12.0705 19.8923 12.3077 19.8838 12.5615 19.8668C12.9509 19.8668 13.1203 19.9599 13.1881 20.1207C13.222 20.1885 13.2304 20.2731 13.222 20.3662ZM5.66301 22H7.06815V20.4762C7.10205 20.2648 7.15284 20.0954 7.66914 20.0954C8.15999 20.0871 8.29546 20.2223 8.29546 20.4762V22H9.7006V20.4762C9.7006 19.9768 9.69229 19.706 9.37055 19.5624C9.08272 19.376 8.66785 19.4014 8.27858 19.4014C7.87229 19.4014 7.41521 19.4522 7.06815 19.6216V18.4112H5.66301V22V22Z" fill="#CC2229"/>
</svg>
