<svg width="12" height="12" viewBox="0 0 12 12" fill="none" xmlns="http://www.w3.org/2000/svg">
<path d="M8.1516 2.1515C8.2623 2.03689 8.39471 1.94547 8.54112 1.88258C8.68752 1.81969 8.84499 1.78659 9.00432 1.7852C9.16366 1.78382 9.32167 1.81418 9.46915 1.87452C9.61662 1.93485 9.75061 2.02396 9.86328 2.13663C9.97595 2.2493 10.0651 2.38328 10.1254 2.53076C10.1857 2.67823 10.2161 2.83625 10.2147 2.99558C10.2133 3.15492 10.1802 3.31238 10.1173 3.45879C10.0544 3.60519 9.96302 3.73761 9.8484 3.8483L9.3726 4.3241L7.6758 2.6273L8.1516 2.1515V2.1515ZM6.8274 3.4757L1.8 8.5031V10.1999H3.4968L8.5248 5.1725L6.8268 3.4757H6.8274Z" fill="#5386E4"/>
</svg>
