<svg width="18" height="22" viewBox="0 0 18 22" fill="none" xmlns="http://www.w3.org/2000/svg">
<rect x="0.5" y="0.5" width="16.6" height="21" rx="1.5" stroke="#95969D"/>
<path fill-rule="evenodd" clip-rule="evenodd" d="M9.81527 5.71168C9.81527 6.02586 9.69046 6.32717 9.4683 6.54933C9.24614 6.77149 8.94483 6.89629 8.63065 6.89629C8.31648 6.89629 8.01517 6.77149 7.79301 6.54933C7.57085 6.32717 7.44604 6.02586 7.44604 5.71168C7.44604 5.3975 7.57085 5.09619 7.79301 4.87404C8.01517 4.65188 8.31648 4.52707 8.63065 4.52707C8.94483 4.52707 9.24614 4.65188 9.4683 4.87404C9.69046 5.09619 9.81527 5.3975 9.81527 5.71168V5.71168ZM9.22296 5.71168C9.22296 5.86877 9.16056 6.01943 9.04948 6.13051C8.9384 6.24158 8.78774 6.30399 8.63065 6.30399C8.47357 6.30399 8.32291 6.24158 8.21183 6.13051C8.10075 6.01943 8.03835 5.86877 8.03835 5.71168C8.03835 5.55459 8.10075 5.40394 8.21183 5.29286C8.32291 5.18178 8.47357 5.11938 8.63065 5.11938C8.78774 5.11938 8.9384 5.18178 9.04948 5.29286C9.16056 5.40394 9.22296 5.55459 9.22296 5.71168V5.71168Z" fill="#95969D"/>
<path d="M8.64995 7.19236L8.6499 7.14159C9.06256 7.1412 9.46987 7.23501 9.84079 7.41587C10.1918 7.58701 10.5014 7.83183 10.7488 8.13334C10.9791 7.8151 11.1349 7.4488 11.2043 7.06157C11.2775 6.65293 11.2524 6.23272 11.131 5.83572C11.0096 5.43872 10.7954 5.07634 10.5061 4.77857C10.2168 4.48079 9.8608 4.25617 9.46748 4.12331C9.07417 3.99044 8.65487 3.95315 8.24427 4.0145C7.83368 4.07586 7.4436 4.23411 7.10631 4.47615C6.76902 4.71819 6.49422 5.03707 6.30463 5.40641C6.11505 5.77574 6.01614 6.18491 6.01609 6.60006L8.64995 7.19236ZM8.64995 7.19236C9.05488 7.19198 9.45457 7.28403 9.81854 7.4615C10.1668 7.63132 10.4736 7.87505 10.7176 8.17547L6.01609 6.60006C6.01609 7.18388 6.20755 7.723 6.53087 8.15824C6.77804 7.84963 7.08988 7.59858 7.44472 7.42297C7.81942 7.23753 8.23192 7.14123 8.64999 7.14159L8.64995 7.19236ZM6.95092 8.66957C7.14191 8.39615 7.39613 8.1729 7.69195 8.01883C7.98776 7.86476 8.31641 7.78443 8.64995 7.78467C8.97931 7.7844 9.30399 7.86273 9.59702 8.01313C9.89005 8.16353 10.143 8.38167 10.3348 8.64943M6.95092 8.66957L6.98297 8.6302C6.99531 8.64025 7.00773 8.65017 7.02024 8.65998M6.95092 8.66957L6.99254 8.69865C7.00162 8.68564 7.01086 8.67275 7.02024 8.65998M6.95092 8.66957L8.63062 9.21466C8.04637 9.21554 7.47929 9.0199 7.02024 8.65998M10.3348 8.64943L10.3022 8.61045C10.29 8.62064 10.2777 8.63071 10.2653 8.64066M10.3348 8.64943L10.2935 8.679C10.2842 8.6661 10.2749 8.65332 10.2653 8.64066M10.3348 8.64943L10.2653 8.64066M10.2653 8.64066C10.0819 8.39695 9.84556 8.19776 9.57384 8.05829C9.288 7.91158 8.97128 7.83518 8.64999 7.83544H8.64991C8.32456 7.83521 8.00396 7.91357 7.7154 8.06386C7.44091 8.20682 7.20314 8.41084 7.02024 8.65998M8.6307 3.29161C6.80353 3.29161 5.32225 4.77289 5.32225 6.60006C5.32225 8.42722 6.80353 9.90851 8.6307 9.90851C10.4579 9.90851 11.9391 8.42722 11.9391 6.60006C11.9391 4.77289 10.4579 3.29161 8.6307 3.29161Z" fill="#95969D" stroke="#95969D" stroke-width="0.1"/>
<rect x="4.39965" y="13.1154" width="8.8" height="1.1" rx="0.541669" fill="#95969D"/>
<rect x="4.39965" y="15.9246" width="8.8" height="1.1" rx="0.541669" fill="#95969D"/>
</svg>
