<svg width="19" height="19" viewBox="0 0 19 19" fill="none" xmlns="http://www.w3.org/2000/svg">
<path d="M16.3696 10.3789C16.4089 10.0875 16.43 9.79394 16.4328 9.5C16.43 9.20606 16.4089 8.91255 16.3696 8.6211L18.3227 7.13135C18.4109 7.06572 18.4712 6.97071 18.492 6.8645C18.5128 6.75829 18.4927 6.64834 18.4355 6.55567L16.5862 3.43117C16.5326 3.33745 16.4457 3.26605 16.3418 3.23044C16.238 3.19482 16.1243 3.19744 16.0223 3.23781L13.7174 4.14308C13.2378 3.78646 12.7133 3.49109 12.1567 3.26418L11.8094 0.87795C11.7941 0.77236 11.7399 0.675799 11.6569 0.606266C11.5739 0.536733 11.4678 0.498972 11.3584 0.500021H7.65065C7.5412 0.498972 7.43509 0.536733 7.35211 0.606266C7.26912 0.675799 7.21491 0.77236 7.19959 0.87795L6.85228 3.26418C6.29499 3.48968 5.77033 3.78514 5.29161 4.14308L2.97767 3.23781C2.87566 3.19744 2.76202 3.19482 2.65816 3.23044C2.55431 3.26605 2.46741 3.33745 2.41385 3.43117L0.564499 6.55567C0.50731 6.64834 0.487193 6.75829 0.507997 6.8645C0.528802 6.97071 0.589067 7.06572 0.677264 7.13135L2.62584 8.6211C2.5867 8.91256 2.56562 9.20606 2.5627 9.5C2.56546 9.79394 2.58655 10.0875 2.62584 10.3789L0.677264 11.8686C0.589067 11.9343 0.528802 12.0293 0.507997 12.1355C0.487193 12.2417 0.50731 12.3517 0.564499 12.4443L2.41385 15.5688C2.46741 15.6626 2.55431 15.7339 2.65816 15.7696C2.76202 15.8052 2.87566 15.8026 2.97767 15.7622L5.28259 14.8569C5.7622 15.2135 6.28668 15.5089 6.84326 15.7358L7.19057 18.122C7.20589 18.2276 7.2601 18.3242 7.34308 18.3937C7.42607 18.4633 7.53218 18.501 7.64163 18.5H11.3403C11.4498 18.501 11.5559 18.4633 11.6389 18.3937C11.7219 18.3242 11.7761 18.2276 11.7914 18.122L12.1387 15.7358C12.696 15.5103 13.2207 15.2149 13.6994 14.8569L16.0043 15.7622C16.1063 15.8026 16.2199 15.8052 16.3238 15.7696C16.4276 15.7339 16.5145 15.6626 16.5681 15.5688L18.4175 12.4443C18.4746 12.3517 18.4948 12.2417 18.474 12.1355C18.4532 12.0293 18.3929 11.9343 18.3047 11.8686L16.3696 10.3789ZM9.5 12.6553C8.85927 12.6561 8.23268 12.4718 7.6995 12.1256C7.16632 11.7795 6.75051 11.287 6.5047 10.7105C6.25888 10.134 6.19411 9.49949 6.31856 8.88714C6.44301 8.27479 6.7511 7.71216 7.20385 7.27045C7.6566 6.82874 8.23365 6.52779 8.86201 6.40569C9.49036 6.28358 10.1418 6.34581 10.7338 6.5845C11.3258 6.82318 11.8319 7.2276 12.188 7.74657C12.544 8.26555 12.7341 8.87576 12.7341 9.5C12.7347 9.91415 12.6515 10.3243 12.4892 10.7071C12.327 11.0899 12.0888 11.4378 11.7885 11.7308C11.4881 12.0239 11.1314 12.2564 10.7387 12.415C10.346 12.5736 9.92509 12.6553 9.5 12.6553Z" stroke="#95969D" stroke-linecap="round" stroke-linejoin="round"/>
</svg>
