<svg width="20" height="20" viewBox="0 0 20 20" fill="none" xmlns="http://www.w3.org/2000/svg">
<path fill-rule="evenodd" clip-rule="evenodd" d="M13.6117 2.29199H6.38758C3.87008 2.29199 2.29175 4.07449 2.29175 6.59699V13.4037C2.29175 15.9262 3.86258 17.7087 6.38758 17.7087H13.6109C16.1367 17.7087 17.7084 15.9262 17.7084 13.4037V6.59699C17.7084 4.07449 16.1367 2.29199 13.6117 2.29199Z" stroke="#AFB0B6" stroke-linecap="round" stroke-linejoin="round"/>
<path fill-rule="evenodd" clip-rule="evenodd" d="M8.90757 10.0004C8.90757 10.8529 8.21674 11.5437 7.36424 11.5437C6.51174 11.5437 5.82091 10.8529 5.82091 10.0004C5.82091 9.14786 6.51174 8.45703 7.36424 8.45703H7.36674C8.21757 8.45786 8.90757 9.1487 8.90757 10.0004Z" stroke="#AFB0B6" stroke-linecap="round" stroke-linejoin="round"/>
<path d="M8.91 10.0005H14.175V11.5438" stroke="#AFB0B6" stroke-linecap="round" stroke-linejoin="round"/>
<path d="M11.8182 11.5438V10.0005" stroke="#AFB0B6" stroke-linecap="round" stroke-linejoin="round"/>
</svg>
