<svg width="26" height="26" viewBox="0 0 26 26" fill="none" xmlns="http://www.w3.org/2000/svg">
<path d="M8.02435 11.191L8.02435 4.36523" stroke="#0E9D57" stroke-width="1.5" stroke-linecap="round" stroke-linejoin="round"/>
<path d="M18.5246 14.2358L18.5246 21.0616" stroke="#0E9D57" stroke-width="1.5" stroke-linecap="round" stroke-linejoin="round"/>
<path fill-rule="evenodd" clip-rule="evenodd" d="M18.5832 9.45364C19.9869 9.45364 21.125 8.3073 21.125 6.89357C21.125 5.47984 19.9869 4.3335 18.5832 4.3335C17.1796 4.3335 16.0415 5.47984 16.0415 6.89357C16.0415 8.3073 17.1796 9.45364 18.5832 9.45364Z" stroke="#0E9D57" stroke-width="1.5" stroke-linecap="round" stroke-linejoin="round"/>
<path fill-rule="evenodd" clip-rule="evenodd" d="M8.06675 21.667C9.47037 21.667 10.6085 20.5216 10.6085 19.1078C10.6085 17.6932 9.47037 16.5469 8.06675 16.5469C6.66312 16.5469 5.52497 17.6932 5.52497 19.1078C5.52497 20.5216 6.66312 21.667 8.06675 21.667Z" stroke="#0E9D57" stroke-width="1.5" stroke-linecap="round" stroke-linejoin="round"/>
</svg>
