<svg width="10" height="10" viewBox="0 0 10 10" fill="none" xmlns="http://www.w3.org/2000/svg">
<path d="M9.58226 4.99991L8.56559 3.83741L8.70726 2.29991L7.20309 1.95825L6.41559 0.624913L4.99893 1.23325L3.58226 0.624913L2.79476 1.95408L1.29059 2.29158L1.43226 3.83325L0.415592 4.99991L1.43226 6.16241L1.29059 7.70408L2.79476 8.04575L3.58226 9.37491L4.99893 8.76242L6.41559 9.37075L7.20309 8.04158L8.70726 7.69991L8.56559 6.16241L9.58226 4.99991ZM3.90726 6.67075L2.91559 5.67075C2.87697 5.6322 2.84632 5.58641 2.82541 5.53601C2.8045 5.4856 2.79374 5.43157 2.79374 5.377C2.79374 5.32243 2.8045 5.26839 2.82541 5.21799C2.84632 5.16758 2.87697 5.12179 2.91559 5.08325L2.94476 5.05408C3.10726 4.89158 3.37393 4.89158 3.53643 5.05408L4.20726 5.72908L6.35309 3.57908C6.51559 3.41658 6.78226 3.41658 6.94476 3.57908L6.97393 3.60825C7.13643 3.77075 7.13643 4.03325 6.97393 4.19575L4.50726 6.67075C4.33643 6.83325 4.07393 6.83325 3.90726 6.67075V6.67075Z" fill="#5386E4"/>
</svg>
