<svg width="80" height="80" viewBox="0 0 80 80" fill="none" xmlns="http://www.w3.org/2000/svg">
<rect width="80" height="80" rx="40" fill="#DADADB"/>
<g clip-path="url(#clip0_400_15377)">
<path d="M28.7767 36.275C29.5565 33.9157 31.0614 31.863 33.0768 30.4097C35.0923 28.9563 37.5152 28.1766 40 28.1817C42.8167 28.1817 45.3633 29.1817 47.3633 30.8183L53.1833 25C49.6367 21.9083 45.0917 20 40 20C32.1167 20 25.33 24.4967 22.0667 31.0833L28.7767 36.275Z" fill="#EA4335"/>
<path d="M46.7334 50.0217C44.9168 51.1934 42.6101 51.8184 40.0001 51.8184C37.5252 51.8234 35.1114 51.0499 33.1005 49.6073C31.0896 48.1647 29.5833 46.126 28.7951 43.78L22.0618 48.8917C23.7138 52.2355 26.2705 55.049 29.4415 57.0126C32.6124 58.9762 36.2704 60.0112 40.0001 60C44.8884 60 49.5584 58.2617 53.0568 55L46.7351 50.0217H46.7334Z" fill="#0E9D57"/>
<path d="M53.0567 54.9999C56.715 51.5866 59.09 46.5066 59.09 39.9999C59.09 38.8166 58.9083 37.5449 58.6367 36.3633H40V44.0916H50.7267C50.1983 46.6899 48.7767 48.7016 46.735 50.0216L53.0567 54.9999Z" fill="#4A90E2"/>
<path d="M28.7949 43.7799C28.3872 42.5614 28.1801 41.2848 28.1816 39.9999C28.1816 38.6966 28.3899 37.4449 28.7766 36.2749L22.0666 31.0833C20.6939 33.8544 19.9863 36.9074 19.9999 39.9999C19.9999 43.1999 20.7416 46.2166 22.0616 48.8916L28.7949 43.7799Z" fill="#FBBC05"/>
</g>
<defs>
<clipPath id="clip0_400_15377">
<rect width="40" height="40" fill="white" transform="translate(20 20)"/>
</clipPath>
</defs>
</svg>
