<svg width="24" height="24" viewBox="0 0 24 24" fill="none" xmlns="http://www.w3.org/2000/svg">
<mask id="path-1-inside-1_349_4348" fill="white">
<path d="M17 6C17 6.55229 17.4477 7 18 7H21C21.5523 7 22 7.44772 22 8V16C22 16.5523 21.5523 17 21 17H18C17.4477 17 17 17.4477 17 18V19C17 19.2652 17.1054 19.5196 17.2929 19.7071C17.4804 19.8946 17.7348 20 18 20H19C19.5523 20 20 20.4477 20 21V21C20 21.5523 19.5523 22 19 22H17.5C16.95 22 16 21.55 16 21C16 21.55 15.05 22 14.5 22H13C12.4477 22 12 21.5523 12 21V21C12 20.4477 12.4477 20 13 20H14C14.2652 20 14.5196 19.8946 14.7071 19.7071C14.8946 19.5196 15 19.2652 15 19V5C15 4.73478 14.8946 4.48043 14.7071 4.29289C14.5196 4.10536 14.2652 4 14 4H13C12.4477 4 12 3.55228 12 3V3C12 2.44772 12.4477 2 13 2H14.5C15.05 2 16 2.45 16 3C16 2.45 16.95 2 17.5 2H19C19.5523 2 20 2.44772 20 3V3C20 3.55228 19.5523 4 19 4H18C17.7348 4 17.4804 4.10536 17.2929 4.29289C17.1054 4.48043 17 4.73478 17 5V6ZM2 8C2 7.44772 2.44772 7 3 7H12C12.5523 7 13 7.44772 13 8V8C13 8.55229 12.5523 9 12 9H5C4.44772 9 4 9.44772 4 10V14C4 14.5523 4.44772 15 5 15H12C12.5523 15 13 15.4477 13 16V16C13 16.5523 12.5523 17 12 17H3C2.44772 17 2 16.5523 2 16V8ZM19 15C19.5523 15 20 14.5523 20 14V10C20 9.44772 19.5523 9 19 9H18C17.4477 9 17 9.44772 17 10V14C17 14.5523 17.4477 15 18 15H19ZM8.5 12C8.5 11.6022 8.34197 11.2206 8.06066 10.9393C7.77936 10.658 7.39783 10.5 7 10.5C6.60218 10.5 6.22064 10.658 5.93934 10.9393C5.65804 11.2206 5.5 11.6022 5.5 12C5.5 12.3978 5.65804 12.7794 5.93934 13.0607C6.22064 13.342 6.60218 13.5 7 13.5C7.39783 13.5 7.77936 13.342 8.06066 13.0607C8.34197 12.7794 8.5 12.3978 8.5 12ZM13 10.89C12.39 10.33 11.44 10.38 10.88 11C10.32 11.6 10.37 12.55 11 13.11C11.55 13.63 12.43 13.63 13 13.11V10.89Z"/>
</mask>
<path d="M17 6C17 6.55229 17.4477 7 18 7H21C21.5523 7 22 7.44772 22 8V16C22 16.5523 21.5523 17 21 17H18C17.4477 17 17 17.4477 17 18V19C17 19.2652 17.1054 19.5196 17.2929 19.7071C17.4804 19.8946 17.7348 20 18 20H19C19.5523 20 20 20.4477 20 21V21C20 21.5523 19.5523 22 19 22H17.5C16.95 22 16 21.55 16 21C16 21.55 15.05 22 14.5 22H13C12.4477 22 12 21.5523 12 21V21C12 20.4477 12.4477 20 13 20H14C14.2652 20 14.5196 19.8946 14.7071 19.7071C14.8946 19.5196 15 19.2652 15 19V5C15 4.73478 14.8946 4.48043 14.7071 4.29289C14.5196 4.10536 14.2652 4 14 4H13C12.4477 4 12 3.55228 12 3V3C12 2.44772 12.4477 2 13 2H14.5C15.05 2 16 2.45 16 3C16 2.45 16.95 2 17.5 2H19C19.5523 2 20 2.44772 20 3V3C20 3.55228 19.5523 4 19 4H18C17.7348 4 17.4804 4.10536 17.2929 4.29289C17.1054 4.48043 17 4.73478 17 5V6ZM2 8C2 7.44772 2.44772 7 3 7H12C12.5523 7 13 7.44772 13 8V8C13 8.55229 12.5523 9 12 9H5C4.44772 9 4 9.44772 4 10V14C4 14.5523 4.44772 15 5 15H12C12.5523 15 13 15.4477 13 16V16C13 16.5523 12.5523 17 12 17H3C2.44772 17 2 16.5523 2 16V8ZM19 15C19.5523 15 20 14.5523 20 14V10C20 9.44772 19.5523 9 19 9H18C17.4477 9 17 9.44772 17 10V14C17 14.5523 17.4477 15 18 15H19ZM8.5 12C8.5 11.6022 8.34197 11.2206 8.06066 10.9393C7.77936 10.658 7.39783 10.5 7 10.5C6.60218 10.5 6.22064 10.658 5.93934 10.9393C5.65804 11.2206 5.5 11.6022 5.5 12C5.5 12.3978 5.65804 12.7794 5.93934 13.0607C6.22064 13.342 6.60218 13.5 7 13.5C7.39783 13.5 7.77936 13.342 8.06066 13.0607C8.34197 12.7794 8.5 12.3978 8.5 12ZM13 10.89C12.39 10.33 11.44 10.38 10.88 11C10.32 11.6 10.37 12.55 11 13.11C11.55 13.63 12.43 13.63 13 13.11V10.89Z" fill="#95969D"/>
<path d="M14 4V3.7V4ZM8.5 12H8.8H8.5ZM7 10.5V10.2V10.5ZM7 13.5V13.8V13.5ZM13 10.89H13.3V10.7582L13.2029 10.669L13 10.89ZM10.88 11L11.0993 11.2047L11.1026 11.2011L10.88 11ZM11 13.11L11.2062 12.8919L11.1993 12.8858L11 13.11ZM13 13.11L13.2022 13.3316L13.3 13.2424V13.11H13ZM18 7.3H21V6.7H18V7.3ZM21.7 8V16H22.3V8H21.7ZM21 16.7H18V17.3H21V16.7ZM16.7 18V19H17.3V18H16.7ZM16.7 19C16.7 19.3448 16.837 19.6754 17.0808 19.9192L17.505 19.495C17.3738 19.3637 17.3 19.1857 17.3 19H16.7ZM17.0808 19.9192C17.3246 20.163 17.6552 20.3 18 20.3V19.7C17.8144 19.7 17.6363 19.6263 17.505 19.495L17.0808 19.9192ZM18 20.3H19V19.7H18V20.3ZM19 21.7H17.5V22.3H19V21.7ZM17.5 21.7C17.2901 21.7 16.9674 21.6084 16.6965 21.4481C16.5638 21.3695 16.4584 21.283 16.3894 21.1985C16.3204 21.1141 16.3 21.0478 16.3 21H15.7C15.7 21.2272 15.7983 21.4234 15.9247 21.5781C16.051 21.7326 16.2175 21.8617 16.391 21.9644C16.7326 22.1666 17.1599 22.3 17.5 22.3V21.7ZM15.7 21C15.7 21.0478 15.6796 21.1141 15.6106 21.1985C15.5416 21.283 15.4362 21.3695 15.3035 21.4481C15.0326 21.6084 14.7099 21.7 14.5 21.7V22.3C14.8401 22.3 15.2674 22.1666 15.609 21.9644C15.7825 21.8617 15.9491 21.7326 16.0753 21.5781C16.2017 21.4234 16.3 21.2272 16.3 21H15.7ZM14.5 21.7H13V22.3H14.5V21.7ZM13 20.3H14V19.7H13V20.3ZM14 20.3C14.3448 20.3 14.6754 20.163 14.9192 19.9192L14.495 19.495C14.3637 19.6263 14.1857 19.7 14 19.7V20.3ZM14.9192 19.9192C15.163 19.6754 15.3 19.3448 15.3 19H14.7C14.7 19.1857 14.6263 19.3637 14.495 19.495L14.9192 19.9192ZM15.3 19V5H14.7V19H15.3ZM15.3 5C15.3 4.65522 15.163 4.32456 14.9192 4.08076L14.495 4.50503C14.6263 4.6363 14.7 4.81435 14.7 5H15.3ZM14.9192 4.08076C14.6754 3.83696 14.3448 3.7 14 3.7V4.3C14.1857 4.3 14.3637 4.37375 14.495 4.50503L14.9192 4.08076ZM14 3.7H13V4.3H14V3.7ZM13 2.3H14.5V1.7H13V2.3ZM14.5 2.3C14.7099 2.3 15.0326 2.39161 15.3035 2.55192C15.4362 2.63049 15.5416 2.71698 15.6106 2.80152C15.6796 2.88589 15.7 2.95221 15.7 3H16.3C16.3 2.77279 16.2017 2.57661 16.0753 2.42191C15.9491 2.26739 15.7825 2.13826 15.609 2.03558C15.2674 1.83339 14.8401 1.7 14.5 1.7V2.3ZM16.3 3C16.3 2.95221 16.3204 2.88589 16.3894 2.80152C16.4584 2.71698 16.5638 2.63049 16.6965 2.55192C16.9674 2.39161 17.2901 2.3 17.5 2.3V1.7C17.1599 1.7 16.7326 1.83339 16.391 2.03558C16.2175 2.13826 16.051 2.26739 15.9247 2.42191C15.7983 2.57661 15.7 2.77279 15.7 3H16.3ZM17.5 2.3H19V1.7H17.5V2.3ZM19 3.7H18V4.3H19V3.7ZM18 3.7C17.6552 3.7 17.3246 3.83696 17.0808 4.08076L17.505 4.50503C17.6363 4.37375 17.8144 4.3 18 4.3V3.7ZM17.0808 4.08076C16.837 4.32456 16.7 4.65522 16.7 5H17.3C17.3 4.81435 17.3738 4.6363 17.505 4.50503L17.0808 4.08076ZM16.7 5V6H17.3V5H16.7ZM3 7.3H12V6.7H3V7.3ZM12 8.7H5V9.3H12V8.7ZM3.7 10V14H4.3V10H3.7ZM5 15.3H12V14.7H5V15.3ZM12 16.7H3V17.3H12V16.7ZM2.3 16V8H1.7V16H2.3ZM20.3 14V10H19.7V14H20.3ZM19 8.7H18V9.3H19V8.7ZM16.7 10V14H17.3V10H16.7ZM18 15.3H19V14.7H18V15.3ZM8.8 12C8.8 11.5226 8.61036 11.0648 8.27279 10.7272L7.84853 11.1515C8.07357 11.3765 8.2 11.6817 8.2 12H8.8ZM8.27279 10.7272C7.93523 10.3896 7.47739 10.2 7 10.2V10.8C7.31826 10.8 7.62349 10.9264 7.84853 11.1515L8.27279 10.7272ZM7 10.2C6.52261 10.2 6.06477 10.3896 5.72721 10.7272L6.15147 11.1515C6.37652 10.9264 6.68174 10.8 7 10.8V10.2ZM5.72721 10.7272C5.38964 11.0648 5.2 11.5226 5.2 12H5.8C5.8 11.6817 5.92643 11.3765 6.15147 11.1515L5.72721 10.7272ZM5.2 12C5.2 12.4774 5.38964 12.9352 5.72721 13.2728L6.15147 12.8485C5.92643 12.6235 5.8 12.3183 5.8 12H5.2ZM5.72721 13.2728C6.06477 13.6104 6.52261 13.8 7 13.8V13.2C6.68174 13.2 6.37652 13.0736 6.15147 12.8485L5.72721 13.2728ZM7 13.8C7.47739 13.8 7.93523 13.6104 8.27279 13.2728L7.84853 12.8485C7.62349 13.0736 7.31826 13.2 7 13.2V13.8ZM8.27279 13.2728C8.61036 12.9352 8.8 12.4774 8.8 12H8.2C8.2 12.3183 8.07357 12.6235 7.84853 12.8485L8.27279 13.2728ZM13.2029 10.669C12.4679 9.99428 11.327 10.0575 10.6574 10.7989L11.1026 11.2011C11.553 10.7025 12.3121 10.6657 12.7971 11.111L13.2029 10.669ZM10.6607 10.7953C9.98223 11.5222 10.0485 12.6656 10.8007 13.3342L11.1993 12.8858C10.6915 12.4344 10.6578 11.6778 11.0993 11.2047L10.6607 10.7953ZM10.7939 13.328C11.4616 13.9592 12.5197 13.9542 13.2022 13.3316L12.7978 12.8884C12.3403 13.3058 11.6384 13.3008 11.2061 12.892L10.7939 13.328ZM13.3 13.11V10.89H12.7V13.11H13.3ZM16.7 14C16.7 14.718 17.282 15.3 18 15.3V14.7C17.6134 14.7 17.3 14.3866 17.3 14H16.7ZM18 8.7C17.282 8.7 16.7 9.28203 16.7 10H17.3C17.3 9.6134 17.6134 9.3 18 9.3V8.7ZM20.3 10C20.3 9.28203 19.718 8.7 19 8.7V9.3C19.3866 9.3 19.7 9.6134 19.7 10H20.3ZM19.7 14C19.7 14.3866 19.3866 14.7 19 14.7V15.3C19.718 15.3 20.3 14.718 20.3 14H19.7ZM3 16.7C2.6134 16.7 2.3 16.3866 2.3 16H1.7C1.7 16.718 2.28203 17.3 3 17.3V16.7ZM3.7 14C3.7 14.718 4.28203 15.3 5 15.3V14.7C4.6134 14.7 4.3 14.3866 4.3 14H3.7ZM5 8.7C4.28203 8.7 3.7 9.28203 3.7 10H4.3C4.3 9.6134 4.6134 9.3 5 9.3V8.7ZM12.7 8C12.7 8.3866 12.3866 8.7 12 8.7V9.3C12.718 9.3 13.3 8.71797 13.3 8H12.7ZM12.3 3C12.3 2.6134 12.6134 2.3 13 2.3V1.7C12.282 1.7 11.7 2.28203 11.7 3H12.3ZM13 3.7C12.6134 3.7 12.3 3.3866 12.3 3H11.7C11.7 3.71797 12.282 4.3 13 4.3V3.7ZM12 7.3C12.3866 7.3 12.7 7.6134 12.7 8H13.3C13.3 7.28203 12.718 6.7 12 6.7V7.3ZM19.7 21C19.7 21.3866 19.3866 21.7 19 21.7V22.3C19.718 22.3 20.3 21.718 20.3 21H19.7ZM21.7 16C21.7 16.3866 21.3866 16.7 21 16.7V17.3C21.718 17.3 22.3 16.718 22.3 16H21.7ZM19 2.3C19.3866 2.3 19.7 2.6134 19.7 3H20.3C20.3 2.28203 19.718 1.7 19 1.7V2.3ZM19.7 3C19.7 3.3866 19.3866 3.7 19 3.7V4.3C19.718 4.3 20.3 3.71797 20.3 3H19.7ZM18 16.7C17.282 16.7 16.7 17.282 16.7 18H17.3C17.3 17.6134 17.6134 17.3 18 17.3V16.7ZM3 6.7C2.28203 6.7 1.7 7.28203 1.7 8H2.3C2.3 7.6134 2.6134 7.3 3 7.3V6.7ZM19 20.3C19.3866 20.3 19.7 20.6134 19.7 21H20.3C20.3 20.282 19.718 19.7 19 19.7V20.3ZM12.7 16C12.7 16.3866 12.3866 16.7 12 16.7V17.3C12.718 17.3 13.3 16.718 13.3 16H12.7ZM12.3 21C12.3 20.6134 12.6134 20.3 13 20.3V19.7C12.282 19.7 11.7 20.282 11.7 21H12.3ZM12 15.3C12.3866 15.3 12.7 15.6134 12.7 16H13.3C13.3 15.282 12.718 14.7 12 14.7V15.3ZM13 21.7C12.6134 21.7 12.3 21.3866 12.3 21H11.7C11.7 21.718 12.282 22.3 13 22.3V21.7ZM21 7.3C21.3866 7.3 21.7 7.6134 21.7 8H22.3C22.3 7.28203 21.718 6.7 21 6.7V7.3ZM18 6.7C17.6134 6.7 17.3 6.3866 17.3 6H16.7C16.7 6.71797 17.282 7.3 18 7.3V6.7Z" fill="#FAFAFD" mask="url(#path-1-inside-1_349_4348)"/>
</svg>
