<svg width="256" height="96" viewBox="0 0 256 96" fill="none" xmlns="http://www.w3.org/2000/svg">
<g filter="url(#filter0_d_400_17233)">
<circle cx="128" cy="44" r="28" fill="#DADADB"/>
</g>
<path d="M139.44 41.7152H138.5V41.6668H128V46.3335H134.594C133.632 49.0501 131.047 51.0002 128 51.0002C124.134 51.0002 121 47.8659 121 44.0002C121 40.1344 124.134 37.0002 128 37.0002C129.785 37.0002 131.408 37.6733 132.644 38.7729L135.944 35.473C133.86 33.5311 131.073 32.3335 128 32.3335C121.557 32.3335 116.333 37.5572 116.333 44.0002C116.333 50.4431 121.557 55.6668 128 55.6668C134.443 55.6668 139.667 50.4431 139.667 44.0002C139.667 43.2179 139.586 42.4543 139.44 41.7152Z" fill="#FFC107"/>
<path d="M117.679 38.5699L121.512 41.381C122.549 38.8132 125.061 37.0002 128 37.0002C129.785 37.0002 131.408 37.6733 132.644 38.7729L135.944 35.473C133.86 33.5311 131.073 32.3335 128 32.3335C123.519 32.3335 119.633 34.8634 117.679 38.5699Z" fill="#FF3D00"/>
<path d="M128 55.6671C131.014 55.6671 133.752 54.5138 135.822 52.6384L132.211 49.5829C131 50.5036 129.521 51.0016 128 51.0004C124.966 51.0004 122.389 49.0655 121.418 46.3652L117.614 49.2965C119.545 53.0747 123.466 55.6671 128 55.6671Z" fill="#0E9D57"/>
<path d="M139.44 41.7149H138.5V41.6665H128V46.3332H134.593C134.133 47.6261 133.304 48.7559 132.209 49.5829L132.211 49.5818L135.822 52.6373C135.566 52.8694 139.667 49.8332 139.667 43.9998C139.667 43.2176 139.586 42.454 139.44 41.7149Z" fill="#1976D2"/>
<g filter="url(#filter1_d_400_17233)">
<circle cx="48" cy="44" r="28" fill="#DADADB"/>
</g>
<g clip-path="url(#clip0_400_17233)">
<path d="M42.6685 56.5131C42.1559 56.1721 41.7016 55.7507 41.323 55.2651C40.9066 54.764 40.5208 54.2381 40.1677 53.6905C39.339 52.4765 38.6891 51.1497 38.238 49.7507C37.696 48.1257 37.4336 46.5681 37.4336 45.0447C37.4336 43.3433 37.8017 41.8581 38.5215 40.6101C39.0552 39.6346 39.8397 38.8195 40.7941 38.249C41.719 37.6745 42.7817 37.3601 43.8702 37.339C44.2513 37.339 44.6616 37.3942 45.0971 37.4998C45.4099 37.5884 45.791 37.7281 46.2565 37.902C46.8488 38.1303 47.1747 38.2701 47.2852 38.3042C47.6321 38.431 47.9238 38.4862 48.1529 38.4862C48.3268 38.4862 48.5722 38.431 48.8508 38.3465C49.0077 38.2912 49.3034 38.1937 49.7267 38.0125C50.146 37.8598 50.4758 37.729 50.7383 37.6315C51.1405 37.5128 51.5297 37.4031 51.8766 37.3479C52.2879 37.2831 52.7053 37.2659 53.1205 37.2967C53.8401 37.3437 54.5489 37.4962 55.2241 37.7493C56.3283 38.1937 57.2212 38.8876 57.8858 39.874C57.6049 40.0471 57.3413 40.2468 57.0985 40.4703C56.5701 40.9388 56.12 41.4888 55.7652 42.0994C55.3015 42.9339 55.0611 43.8739 55.0673 44.8286C55.0843 46.001 55.385 47.0337 55.9773 47.9266C56.4127 48.5884 56.9787 49.1544 57.6405 49.5898C57.9793 49.8181 58.271 49.975 58.5505 50.0806C58.4197 50.4868 58.2799 50.8801 58.115 51.2701C57.7409 52.1447 57.2875 52.9831 56.7605 53.775C56.2909 54.4567 55.9228 54.9645 55.6433 55.3025C55.2078 55.8185 54.7886 56.2125 54.3653 56.4871C53.8997 56.7959 53.3497 56.9608 52.7907 56.9608C52.4121 56.9754 52.0336 56.9296 51.6694 56.8251C51.3566 56.7195 51.047 56.605 50.7423 56.4742C50.4256 56.3287 50.099 56.2057 49.7649 56.1061C48.9392 55.894 48.0734 55.8926 47.247 56.102C46.9082 56.1995 46.5823 56.3133 46.2606 56.453C45.808 56.6431 45.5074 56.7707 45.3335 56.8251C44.9866 56.9267 44.6267 56.9901 44.2627 57.0112C43.6996 57.0112 43.1747 56.8503 42.6547 56.5245L42.6685 56.5131ZM50.0948 36.5135C49.3587 36.8815 48.6558 37.0383 47.9579 36.9871C47.8482 36.2843 47.9579 35.5653 48.2496 34.778C48.4979 34.111 48.8649 33.4944 49.3327 32.958C49.8267 32.3933 50.4261 31.9305 51.0974 31.5954C51.8124 31.2273 52.4941 31.0283 53.1457 30.999C53.2302 31.7351 53.1457 32.4591 52.8752 33.2415C52.6248 33.9332 52.2585 34.5772 51.7921 35.146C51.316 35.7115 50.7318 36.1761 50.0737 36.5126L50.0948 36.5135Z" fill="#121421"/>
</g>
<g filter="url(#filter2_d_400_17233)">
<circle cx="208" cy="44" r="28" fill="#DADADB"/>
</g>
<path fill-rule="evenodd" clip-rule="evenodd" d="M220.25 44.0737C220.25 37.3089 214.765 31.8237 208 31.8237C201.235 31.8237 195.75 37.3089 195.75 44.0737C195.75 50.1878 200.229 55.2557 206.086 56.1755V47.6158H202.975V44.0737H206.086V41.3749C206.086 38.3053 207.915 36.6083 210.713 36.6083C212.053 36.6083 213.456 36.8479 213.456 36.8479V39.8628H211.91C210.389 39.8628 209.914 40.8067 209.914 41.7769V44.0737H213.311L212.768 47.6158H209.914V56.1766C215.771 55.2573 220.25 50.1894 220.25 44.0737V44.0737Z" fill="#395185"/>
<defs>
<filter id="filter0_d_400_17233" x="80" y="0" width="96" height="96" filterUnits="userSpaceOnUse" color-interpolation-filters="sRGB">
<feFlood flood-opacity="0" result="BackgroundImageFix"/>
<feColorMatrix in="SourceAlpha" type="matrix" values="0 0 0 0 0 0 0 0 0 0 0 0 0 0 0 0 0 0 127 0" result="hardAlpha"/>
<feOffset dy="4"/>
<feGaussianBlur stdDeviation="10"/>
<feComposite in2="hardAlpha" operator="out"/>
<feColorMatrix type="matrix" values="0 0 0 0 0 0 0 0 0 0 0 0 0 0 0 0 0 0 0.02 0"/>
<feBlend mode="normal" in2="BackgroundImageFix" result="effect1_dropShadow_400_17233"/>
<feBlend mode="normal" in="SourceGraphic" in2="effect1_dropShadow_400_17233" result="shape"/>
</filter>
<filter id="filter1_d_400_17233" x="0" y="0" width="96" height="96" filterUnits="userSpaceOnUse" color-interpolation-filters="sRGB">
<feFlood flood-opacity="0" result="BackgroundImageFix"/>
<feColorMatrix in="SourceAlpha" type="matrix" values="0 0 0 0 0 0 0 0 0 0 0 0 0 0 0 0 0 0 127 0" result="hardAlpha"/>
<feOffset dy="4"/>
<feGaussianBlur stdDeviation="10"/>
<feComposite in2="hardAlpha" operator="out"/>
<feColorMatrix type="matrix" values="0 0 0 0 0 0 0 0 0 0 0 0 0 0 0 0 0 0 0.02 0"/>
<feBlend mode="normal" in2="BackgroundImageFix" result="effect1_dropShadow_400_17233"/>
<feBlend mode="normal" in="SourceGraphic" in2="effect1_dropShadow_400_17233" result="shape"/>
</filter>
<filter id="filter2_d_400_17233" x="160" y="0" width="96" height="96" filterUnits="userSpaceOnUse" color-interpolation-filters="sRGB">
<feFlood flood-opacity="0" result="BackgroundImageFix"/>
<feColorMatrix in="SourceAlpha" type="matrix" values="0 0 0 0 0 0 0 0 0 0 0 0 0 0 0 0 0 0 127 0" result="hardAlpha"/>
<feOffset dy="4"/>
<feGaussianBlur stdDeviation="10"/>
<feComposite in2="hardAlpha" operator="out"/>
<feColorMatrix type="matrix" values="0 0 0 0 0 0 0 0 0 0 0 0 0 0 0 0 0 0 0.02 0"/>
<feBlend mode="normal" in2="BackgroundImageFix" result="effect1_dropShadow_400_17233"/>
<feBlend mode="normal" in="SourceGraphic" in2="effect1_dropShadow_400_17233" result="shape"/>
</filter>
<clipPath id="clip0_400_17233">
<rect width="26" height="26" fill="white" transform="translate(35 31)"/>
</clipPath>
</defs>
</svg>
