<svg width="44" height="44" viewBox="0 0 44 44" fill="none" xmlns="http://www.w3.org/2000/svg">
<path d="M43.5721 17.6913H41.8V17.6H22V26.4H34.4333C32.6194 31.5227 27.7453 35.2 22 35.2C14.7103 35.2 8.8 29.2897 8.8 22C8.8 14.7103 14.7103 8.8 22 8.8C25.3649 8.8 28.4262 10.0694 30.7571 12.1429L36.9798 5.9202C33.0506 2.2583 27.7948 0 22 0C9.8505 0 0 9.8505 0 22C0 34.1495 9.8505 44 22 44C34.1495 44 44 34.1495 44 22C44 20.5249 43.8482 19.085 43.5721 17.6913Z" fill="#FFC107"/>
<path d="M2.53711 11.7601L9.76521 17.061C11.721 12.2188 16.4576 8.8 22.0005 8.8C25.3654 8.8 28.4267 10.0694 30.7576 12.1429L36.9803 5.9202C33.0511 2.2583 27.7953 0 22.0005 0C13.5503 0 6.22211 4.7707 2.53711 11.7601Z" fill="#FF3D00"/>
<path d="M21.9996 44.0001C27.6822 44.0001 32.8456 41.8254 36.7495 38.2889L29.9405 32.5271C27.6575 34.2633 24.8678 35.2023 21.9996 35.2001C16.2774 35.2001 11.4187 31.5514 9.58826 26.4595L2.41406 31.987C6.05506 39.1117 13.4493 44.0001 21.9996 44.0001Z" fill="#4CAF50"/>
<path d="M43.5721 17.6914H41.8V17.6001H22V26.4001H34.4333C33.5656 28.8382 32.0027 30.9686 29.9376 32.5282L29.9409 32.526L36.7499 38.2878C36.2681 38.7256 44 33.0001 44 22.0001C44 20.525 43.8482 19.0851 43.5721 17.6914Z" fill="#1976D2"/>
</svg>
