<svg width="26" height="26" viewBox="0 0 26 26" fill="none" xmlns="http://www.w3.org/2000/svg">
<path d="M13 4.0625C11.2323 4.0625 9.50436 4.58668 8.0346 5.56874C6.56483 6.55081 5.41929 7.94665 4.74283 9.57977C4.06637 11.2129 3.88938 13.0099 4.23424 14.7436C4.57909 16.4773 5.43031 18.0698 6.68024 19.3198C7.93017 20.5697 9.52268 21.4209 11.2564 21.7658C12.9901 22.1106 14.7871 21.9336 16.4202 21.2572C18.0534 20.5807 19.4492 19.4352 20.4313 17.9654C21.4133 16.4956 21.9375 14.7677 21.9375 13C21.9375 10.6296 20.9959 8.35634 19.3198 6.68023C17.6437 5.00413 15.3704 4.0625 13 4.0625Z" stroke="#95969D" stroke-width="1.5" stroke-miterlimit="10"/>
<path d="M10.1562 10.2724C10.1562 10.2724 10.1989 9.38376 11.15 8.61849C11.7142 8.164 12.3906 8.03247 13 8.02333C13.555 8.01622 14.0507 8.10814 14.3472 8.24931C14.855 8.49103 15.8438 9.08111 15.8438 10.3359C15.8438 11.6562 14.9805 12.256 13.9968 12.9156C13.0132 13.5752 12.7461 14.2913 12.7461 15.0311" stroke="#95969D" stroke-width="1.5" stroke-miterlimit="10" stroke-linecap="round"/>
<path d="M12.9609 17.6719C12.9609 17.8186 12.842 17.9375 12.6953 17.9375C12.5486 17.9375 12.4297 17.8186 12.4297 17.6719C12.4297 17.5252 12.5486 17.4062 12.6953 17.4062C12.842 17.4062 12.9609 17.5252 12.9609 17.6719Z" fill="#FAFAFD" stroke="#95969D" stroke-width="1.5"/>
</svg>
