<svg width="128" height="104" viewBox="0 0 128 104" fill="none" xmlns="http://www.w3.org/2000/svg">
<mask id="mask0_244_2731" style="mask-type:alpha" maskUnits="userSpaceOnUse" x="0" y="0" width="128" height="105">
<path d="M0 0H128V104.448H0V0Z" fill="#34A853"/>
</mask>
<g mask="url(#mask0_244_2731)">
<g opacity="0.06">
<path d="M34.3316 55.5756L36.9115 51.7464L37.8538 54.9445L40.9392 54.1302L41.4851 57.0964L44.967 56.5194L42.3929 60.3486L34.3316 55.5756Z" fill="#0D0D26"/>
<path d="M42.393 60.7262C42.3183 60.7262 42.2436 60.7046 42.1804 60.6669L34.1249 55.8939C33.9353 55.7806 33.8836 55.5487 33.9985 55.3707L36.5726 51.5415C36.6587 51.4175 36.8139 51.3474 36.969 51.369C37.1241 51.3905 37.2563 51.4984 37.2965 51.644L38.1297 54.4809L40.8301 53.7689C40.9393 53.742 41.06 53.7582 41.1519 53.8121C41.2496 53.8714 41.3128 53.9631 41.3358 54.0656L41.8127 56.6597L44.8981 56.1474C45.0533 56.1204 45.2141 56.1851 45.3003 56.3092C45.3865 56.4332 45.3923 56.595 45.3061 56.719L42.732 60.5482C42.6573 60.6615 42.5251 60.7262 42.393 60.7262ZM34.8891 55.457L42.2666 59.8255L44.1397 57.0372L41.5541 57.4687C41.4507 57.4849 41.3415 57.4633 41.2553 57.404C41.1691 57.3447 41.1059 57.2584 41.0887 57.1613L40.6176 54.6049L37.9573 55.306C37.8539 55.333 37.7447 55.3222 37.6528 55.2737C37.5608 55.2251 37.4919 55.1442 37.4631 55.0471L36.7622 52.6687L34.8891 55.457Z" fill="#0D0D26"/>
<path d="M9.67098 10.8929C9.59629 10.7473 9.55607 10.4291 9.55607 10.4291L8.95277 2.75988L14.7387 8.20166L14.7272 8.20705C14.8536 8.31491 14.9685 8.43896 15.0432 8.58457C15.4799 9.47446 14.6295 10.7149 13.1472 11.3513C11.659 11.9877 10.1019 11.7828 9.67098 10.8929Z" fill="#0D0D26"/>
<path d="M11.435 12.1008C10.4525 12.1008 9.64232 11.7341 9.30907 11.0491C9.21714 10.8604 9.17117 10.5638 9.15968 10.4721L8.55064 2.78672C8.53914 2.63031 8.63108 2.4793 8.78621 2.41459C8.94135 2.34987 9.11946 2.37683 9.24012 2.49009L15.0261 7.93186C15.0491 7.95343 15.0663 7.975 15.0835 8.00197C15.2272 8.1368 15.3306 8.27703 15.4053 8.42804C15.6753 8.97815 15.5834 9.63073 15.1467 10.2671C14.7503 10.8496 14.0953 11.3566 13.3081 11.6909C12.6646 11.9714 12.0211 12.1008 11.435 12.1008ZM10.0388 10.7309C10.372 11.4159 11.7165 11.5453 12.9748 11.006C13.6241 10.7256 14.1527 10.3211 14.4687 9.85724C14.7503 9.44736 14.825 9.04826 14.6698 8.74084C14.6296 8.65995 14.5607 8.57365 14.4515 8.48197C14.4228 8.455 14.394 8.42264 14.3711 8.39028L9.42973 3.74132L9.95259 10.3912C9.96983 10.499 10.0101 10.677 10.0388 10.7309Z" fill="#0D0D26"/>
<path d="M11.5674 8.1259C13.0498 7.4895 14.6011 7.69444 15.0378 8.58432C15.4745 9.47421 14.6241 10.7147 13.1417 11.3511C11.6593 11.9875 10.108 11.7825 9.67128 10.8926C9.2346 9.99735 10.085 8.7623 11.5674 8.1259Z" fill="#0D0D26"/>
<path d="M11.4352 12.0952C11.2685 12.0952 11.1077 12.0844 10.9525 12.0629C10.1596 11.955 9.56781 11.5936 9.3035 11.0435C9.03345 10.4934 9.12538 9.84085 9.56206 9.20445C9.95852 8.62198 10.6135 8.11502 11.4007 7.78064C13.1129 7.04716 14.8711 7.333 15.4055 8.42782C15.9398 9.52265 15.0205 10.9572 13.3083 11.6907C12.6877 11.9604 12.0385 12.0952 11.4352 12.0952ZM11.7339 8.47097C11.0847 8.75142 10.5561 9.15591 10.2401 9.61973C9.95852 10.0296 9.88382 10.4287 10.039 10.7361C10.1883 11.0435 10.5561 11.2539 11.0732 11.324C11.6535 11.3995 12.3315 11.2916 12.975 11.0112C14.2333 10.4719 15.009 9.43636 14.6758 8.74602C14.3368 8.05569 12.9923 7.93165 11.7339 8.47097Z" fill="#0D0D26"/>
<path d="M120.684 86.8457L116.772 85.6053L115.961 81.8084L119.053 79.252L122.965 80.4871L123.781 84.2839L120.684 86.8457Z" fill="#0D0D26"/>
<path d="M120.684 87.2231C120.638 87.2231 120.598 87.2177 120.558 87.2016L116.645 85.9665C116.507 85.9234 116.409 85.8155 116.381 85.6807L115.565 81.8838C115.536 81.749 115.588 81.6142 115.691 81.5279L118.788 78.9661C118.897 78.8744 119.047 78.8474 119.185 78.8906L123.098 80.1256C123.235 80.1688 123.333 80.2766 123.362 80.4115L124.178 84.2083C124.206 84.3431 124.155 84.478 124.051 84.5643L120.954 87.126C120.874 87.1908 120.776 87.2231 120.684 87.2231ZM117.122 85.3193L120.592 86.4195L123.339 84.149L122.615 80.7782L119.144 79.678L116.398 81.9485L117.122 85.3193Z" fill="#0D0D26"/>
<path d="M120.684 87.2231C120.495 87.2231 120.328 87.0991 120.288 86.9211L119.518 83.34L115.829 82.175C115.617 82.1103 115.507 81.8946 115.576 81.695C115.645 81.4955 115.875 81.393 116.088 81.4577L120.001 82.6928C120.138 82.7359 120.236 82.8438 120.265 82.9786L121.081 86.7755C121.127 86.9804 120.983 87.18 120.765 87.2177C120.736 87.2177 120.707 87.2231 120.684 87.2231Z" fill="#0D0D26"/>
<path d="M119.868 83.4263C119.759 83.4263 119.644 83.3832 119.564 83.2969C119.414 83.1405 119.432 82.9032 119.598 82.7629L122.695 80.2011C122.862 80.0663 123.115 80.0771 123.264 80.2335C123.414 80.3899 123.396 80.6272 123.23 80.7674L120.133 83.3292C120.058 83.3939 119.966 83.4263 119.868 83.4263Z" fill="#0D0D26"/>
<path d="M72.1962 69.1233L72.2019 69.1341C72.2479 69.0856 72.2939 69.037 72.3456 68.9939C72.4145 68.9345 72.4835 68.8806 72.5697 68.8375C72.6386 68.8051 72.7363 68.7781 72.8282 68.7566C72.8684 68.7458 72.9144 68.735 72.9546 68.7296C72.9949 68.7188 73.0293 68.7134 73.0293 68.7134L73.2189 68.7188C73.2477 68.7188 73.2764 68.7188 73.3109 68.7242L78.4705 68.8914L75.6896 72.9741C75.6724 73.001 75.6551 73.0226 75.6379 73.0496L75.5345 73.2006L75.5287 73.1898C75.4827 73.2383 75.4368 73.2869 75.3851 73.33C75.3161 73.3894 75.2472 73.4433 75.161 73.4864C75.092 73.5188 74.9886 73.5458 74.8967 73.5673C74.8565 73.5781 74.8162 73.5889 74.7703 73.5943C74.7301 73.6051 74.6956 73.6105 74.6956 73.6105L74.506 73.6051C74.4772 73.6051 74.4485 73.6051 74.414 73.5997L69.2544 73.4325L72.0353 69.3498C72.0525 69.3229 72.0698 69.3013 72.087 69.2743L72.1962 69.1233Z" fill="#0D0D26"/>
<path d="M74.7013 73.9772C74.6955 73.9772 74.6898 73.9772 74.6898 73.9772L74.5002 73.9718C74.4427 73.9718 74.4082 73.9718 74.3738 73.9664L69.2543 73.8046C69.1107 73.7992 68.9785 73.7237 68.9096 73.605C68.8406 73.4864 68.8464 73.3408 68.9268 73.2275L71.7077 69.1448C71.7077 69.1394 71.7422 69.0963 71.7422 69.0963L71.8571 68.9237C71.8858 68.8806 71.9261 68.8428 71.9663 68.8159C72.0008 68.7835 72.0352 68.7457 72.0755 68.7188C72.1329 68.6648 72.2363 68.5839 72.3742 68.5138C72.3742 68.5138 72.38 68.5138 72.38 68.5084C72.4662 68.4653 72.5753 68.4275 72.7305 68.3952C72.8052 68.3736 72.8569 68.3628 72.9028 68.3574L72.9488 68.3466C72.9775 68.3412 73.0178 68.3359 73.0407 68.3412L73.2303 68.3466C73.2878 68.3466 73.3223 68.3466 73.351 68.352L78.4762 68.5192C78.6198 68.5246 78.752 68.6001 78.8209 68.7188C78.8899 68.8374 78.8841 68.983 78.8037 69.0963L76.0228 73.1736C76.0228 73.1736 76.0055 73.2006 75.9883 73.2275L75.8734 73.3947C75.8447 73.4379 75.8044 73.4756 75.7642 73.5026C75.7297 73.5403 75.6953 73.5727 75.655 73.605C75.5689 73.6859 75.4769 73.7507 75.3735 73.7992C75.362 73.8046 75.3505 73.81 75.3448 73.8154C75.2643 73.8531 75.1552 73.8909 75.0058 73.9286C74.9311 73.9502 74.8851 73.9556 74.8334 73.9664L74.7817 73.9772C74.753 73.9772 74.7242 73.9772 74.7013 73.9772ZM69.984 73.0711L74.437 73.2167L74.5116 73.5997L74.5231 73.2221L74.6668 73.2275L74.7645 73.2059C74.8966 73.1736 74.9483 73.1574 74.9656 73.1466C74.9713 73.1412 74.9771 73.1412 74.9828 73.1358C75.0173 73.1197 75.0575 73.0873 75.1092 73.0441C75.1552 73.0064 75.1839 72.974 75.2126 72.9417C75.2241 72.9309 75.2356 72.9147 75.2471 72.9039L75.2931 72.8392L75.3275 72.85C75.3448 72.8392 75.3678 72.8284 75.3907 72.823L75.3333 72.7907L77.7465 69.2419L73.2936 69.0963L73.2189 68.7134L73.2074 69.0909L73.0637 69.0855L72.966 69.1071C72.8224 69.1394 72.7707 69.161 72.7592 69.1664C72.7592 69.1664 72.7535 69.1664 72.7535 69.1718C72.7132 69.1934 72.673 69.2203 72.6213 69.2689C72.5753 69.3066 72.5466 69.339 72.5179 69.3714C72.5064 69.3821 72.4949 69.3983 72.4834 69.4091L72.4374 69.4738L72.4087 69.463C72.3857 69.4738 72.3685 69.4846 72.3455 69.49L72.4087 69.5278L69.984 73.0711Z" fill="#0D0D26"/>
<path d="M74.5863 73.9826C74.2243 73.9826 73.8451 73.8802 73.4601 73.6752C72.8511 73.3516 72.3052 72.7961 71.9203 72.1112C71.541 71.4262 71.3629 70.6928 71.4204 70.0348C71.4836 69.3175 71.8226 68.7728 72.3742 68.5031C72.5695 68.406 72.8166 68.4761 72.92 68.6595C73.0234 68.8429 72.9487 69.0748 72.7534 69.1719C72.3512 69.3714 72.2535 69.8406 72.2305 70.0995C72.1846 70.6119 72.3282 71.2051 72.6385 71.7606C72.9487 72.3161 73.3854 72.7638 73.8623 73.0172C74.1036 73.1467 74.5748 73.3354 74.977 73.1359C75.1723 73.0388 75.4137 73.1089 75.5228 73.2977C75.6263 73.481 75.5516 73.7076 75.3562 73.81C75.1149 73.9287 74.8563 73.9826 74.5863 73.9826Z" fill="#0D0D26"/>
<path d="M7.42447 74.9803L9.59635 67.624L6.52239 68.7188L5.96505 64.5444L3.76444 71.8091L6.7752 70.7358L7.42447 74.9803Z" fill="#0D0D26"/>
<path d="M7.42444 75.358C7.41295 75.358 7.4072 75.358 7.39571 75.358C7.2061 75.3472 7.05097 75.2124 7.02224 75.0344L6.44767 71.2591L3.90231 72.1652C3.75867 72.2191 3.59779 72.1868 3.48862 72.0897C3.37945 71.9926 3.33348 71.847 3.3737 71.7068L5.58006 64.4421C5.63177 64.2695 5.80989 64.1563 5.9995 64.167C6.18911 64.1832 6.34424 64.3181 6.36723 64.496L6.85561 68.1958L9.45268 67.2735C9.59633 67.225 9.75721 67.252 9.86638 67.349C9.97554 67.4461 10.0215 67.5917 9.98129 67.732L7.80941 75.0883C7.76344 75.2447 7.60256 75.358 7.42444 75.358ZM6.77517 70.3585C6.84412 70.3585 6.91882 70.3747 6.98202 70.4124C7.08544 70.4717 7.16014 70.5688 7.17737 70.6821L7.55085 73.1414L8.99877 68.2443L6.66026 69.0749C6.54535 69.118 6.41319 69.1018 6.30977 69.0479C6.20635 68.9886 6.13165 68.8861 6.12016 68.7729L5.80989 66.443L4.36771 71.1944L6.63153 70.3908C6.6775 70.3693 6.72921 70.3585 6.77517 70.3585Z" fill="#0D0D26"/>
<path d="M58.7338 60.0251C58.7338 60.0251 58.2224 58.7577 57.4467 56.9455C56.6366 55.0579 57.6191 53.7527 58.8659 53.51C60.2679 53.235 61.1298 54.3514 61.3136 55.5163C62.457 55.0147 63.9222 55.0795 64.4508 56.3307C64.9219 57.4471 64.3014 58.9302 62.1812 59.3401C60.1415 59.7284 58.7338 60.0251 58.7338 60.0251Z" fill="#0D0D26"/>
<path d="M58.7339 60.4026C58.5672 60.4026 58.4178 60.3055 58.3604 60.1599C58.3604 60.1599 57.849 58.8925 57.0733 57.0857C56.6424 56.0772 56.6424 55.1064 57.0791 54.346C57.4353 53.7204 58.0559 53.2835 58.7856 53.1379C59.4119 53.0138 60.0094 53.1217 60.5093 53.4453C61.0264 53.7797 61.4114 54.3352 61.6125 55.0039C62.3134 54.7936 63.0202 54.7936 63.6062 55.0093C64.1693 55.2197 64.5945 55.6296 64.8301 56.1905C65.1059 56.843 65.0599 57.5711 64.6979 58.1913C64.2613 58.9518 63.3936 59.4857 62.2617 59.7068C60.2335 60.0952 58.8258 60.3918 58.8258 60.3972C58.7913 60.4026 58.7626 60.4026 58.7339 60.4026ZM59.2854 53.8444C59.1763 53.8444 59.0614 53.8552 58.9464 53.8768C58.4523 53.9738 58.0271 54.2759 57.7858 54.7019C57.464 55.2628 57.4755 56.0125 57.8203 56.8053C58.3719 58.0889 58.7913 59.1028 58.9867 59.5882C59.521 59.4749 60.6529 59.243 62.1009 58.968C62.9972 58.7954 63.6637 58.3963 63.9912 57.8354C64.2383 57.4093 64.267 56.9131 64.0831 56.4709C63.928 56.1042 63.6694 55.8507 63.3075 55.7159C62.8076 55.5271 62.1296 55.581 61.4861 55.8615C61.3711 55.91 61.239 55.91 61.1241 55.8507C61.0149 55.7968 60.9345 55.6943 60.9172 55.5756C60.8138 54.923 60.4863 54.3568 60.0439 54.0709C59.8198 53.9199 59.567 53.8444 59.2854 53.8444Z" fill="#0D0D26"/>
<path d="M42.0885 39.1964C40.2786 39.1964 38.7847 37.8373 38.7387 36.1276C38.6928 34.391 40.1637 32.951 42.0081 32.9079C42.9101 32.8809 43.7548 33.1937 44.3983 33.7762C45.0475 34.3533 45.4153 35.1353 45.4383 35.9766C45.4842 37.7133 44.0191 39.1532 42.1689 39.1964C42.146 39.1964 42.1172 39.1964 42.0885 39.1964ZM42.0885 33.6629C42.0655 33.6629 42.0483 33.6629 42.0253 33.6629C41.3473 33.6791 40.7095 33.9434 40.2441 34.4018C39.773 34.8656 39.5259 35.4697 39.5431 36.1115C39.5776 37.4274 40.7325 38.4791 42.1517 38.4413C43.5537 38.409 44.6683 37.3088 44.6339 35.9928C44.6051 34.693 43.4675 33.6629 42.0885 33.6629Z" fill="#0D0D26"/>
<path d="M26.5174 48.3865C26.4485 48.3865 26.3795 48.3703 26.3163 48.3379C25.351 47.8202 24.6558 46.9842 24.357 45.9757C24.064 44.9672 24.2019 43.9155 24.7477 43.0094C25.2993 42.1034 26.1899 41.4508 27.2644 41.1703C28.3388 40.8899 29.4592 41.0247 30.4245 41.5371C30.6199 41.6395 30.6831 41.8715 30.5739 42.0494C30.4647 42.2328 30.2177 42.2921 30.0281 42.1897C29.2467 41.7744 28.3388 41.6665 27.477 41.893C26.6151 42.1195 25.8911 42.6427 25.4487 43.3762C24.5352 44.8863 25.0982 46.817 26.7128 47.6746C26.9081 47.777 26.9713 48.0089 26.8622 48.1869C26.7932 48.3164 26.6553 48.3865 26.5174 48.3865Z" fill="#0D0D26"/>
<path d="M49.3281 74.3547C49.2821 74.3547 49.2361 74.3493 49.1902 74.3332C48.9833 74.2631 48.8741 74.0473 48.9488 73.8478C49.5004 72.4078 50.6208 71.2536 52.0975 70.601C53.5741 69.9485 55.2347 69.8784 56.7688 70.3961C56.9756 70.4662 57.0848 70.6819 57.0101 70.8815C56.9354 71.0757 56.7056 71.1781 56.493 71.108C55.16 70.6604 53.7178 70.7197 52.4365 71.286C51.1552 71.8523 50.1842 72.8554 49.7015 74.1066C49.6441 74.2577 49.4947 74.3547 49.3281 74.3547Z" fill="#0D0D26"/>
<path d="M122.989 9.18304C122.856 9.18304 122.724 9.11832 122.65 9.00506L118.105 2.2797C117.984 2.10173 118.041 1.86982 118.231 1.75656C118.421 1.6433 118.668 1.69723 118.788 1.87521L123.333 8.60057C123.454 8.77855 123.396 9.01046 123.207 9.12372C123.138 9.16686 123.063 9.18304 122.989 9.18304Z" fill="#0D0D26"/>
<path d="M26.8276 66.0816C26.7644 66.0816 26.7012 66.0654 26.638 66.0384L20.1223 62.7647C19.9269 62.6677 19.8523 62.4358 19.9557 62.2524C20.0591 62.069 20.3062 61.9989 20.5015 62.096L27.0172 65.3697C27.2125 65.4668 27.2872 65.6987 27.1838 65.882C27.1091 66.0061 26.9712 66.0816 26.8276 66.0816Z" fill="#0D0D26"/>
<path d="M21.8233 67.5C21.7601 67.5 21.6969 67.4838 21.6337 67.4568C21.4383 67.3598 21.3636 67.1278 21.467 66.9445L24.9547 60.8286C25.0581 60.6452 25.3052 60.5751 25.5005 60.6722C25.6959 60.7692 25.7706 61.0011 25.6672 61.1845L22.1795 67.3004C22.1048 67.4245 21.9669 67.5 21.8233 67.5Z" fill="#0D0D26"/>
<path d="M36.5782 74.4304C36.4806 74.4304 36.3886 74.398 36.3082 74.3333C36.1416 74.1931 36.1301 73.9558 36.2737 73.7994L37.6297 72.3755C37.7791 72.2191 38.0319 72.203 38.1985 72.3432C38.3652 72.4834 38.3766 72.7207 38.233 72.8771L36.877 74.3009C36.8023 74.3872 36.6874 74.4304 36.5782 74.4304Z" fill="#0D0D26"/>
<path d="M32.091 79.1494C31.9933 79.1494 31.9014 79.117 31.8209 79.0523C31.6543 78.9121 31.6428 78.6748 31.7864 78.5184L33.1424 77.0945C33.2918 76.9381 33.5446 76.9274 33.7113 77.0622C33.8779 77.2024 33.8894 77.4397 33.7457 77.5961L32.3897 79.0199C32.3093 79.1062 32.2001 79.1494 32.091 79.1494Z" fill="#0D0D26"/>
<path d="M39.3076 76.9166C39.2789 76.9166 39.2502 76.9166 39.2272 76.9112L37.2334 76.5229C37.0151 76.4797 36.8772 76.2802 36.9231 76.0752C36.9691 75.8703 37.1817 75.7408 37.4 75.784L39.3938 76.1723C39.6121 76.2154 39.75 76.415 39.7041 76.6199C39.6639 76.7925 39.4972 76.9166 39.3076 76.9166Z" fill="#0D0D26"/>
<path d="M32.7114 75.6276C32.6827 75.6276 32.6539 75.6276 32.631 75.6222L30.6372 75.2339C30.4189 75.1907 30.281 74.9912 30.3269 74.7863C30.3729 74.5813 30.5855 74.4519 30.8038 74.495L32.7976 74.8833C33.0159 74.9265 33.1538 75.126 33.1079 75.331C33.0676 75.5035 32.901 75.6276 32.7114 75.6276Z" fill="#0D0D26"/>
<path d="M36.3888 79.991C36.2222 79.991 36.0613 79.8885 36.0038 79.7321L35.3661 77.9146C35.2971 77.715 35.412 77.5047 35.6246 77.44C35.8372 77.3752 36.0613 77.4831 36.1302 77.6827L36.768 79.5002C36.837 79.6997 36.7221 79.9101 36.5095 79.9748C36.4692 79.9802 36.429 79.991 36.3888 79.991Z" fill="#0D0D26"/>
<path d="M34.2801 73.9828C34.1135 73.9828 33.9526 73.8803 33.8951 73.7239L33.2573 71.9064C33.1884 71.7068 33.3033 71.4965 33.5159 71.4318C33.7285 71.367 33.9526 71.4749 34.0215 71.6745L34.6593 73.492C34.7283 73.6915 34.6133 73.9019 34.4008 73.9666C34.3605 73.9774 34.3203 73.9828 34.2801 73.9828Z" fill="#0D0D26"/>
<path d="M17.5713 33.0966C17.5598 33.0966 17.5483 33.0966 17.5368 33.0966C17.3185 33.075 17.1519 32.8916 17.1749 32.6867L17.7035 27.288L11.9463 26.7919C11.7279 26.7703 11.5613 26.5869 11.5843 26.382C11.6073 26.1716 11.7969 26.0206 12.0209 26.0422L18.1746 26.5707C18.393 26.5923 18.5596 26.7757 18.5366 26.9806L17.9735 32.7568C17.9563 32.9509 17.7782 33.0966 17.5713 33.0966Z" fill="#0D0D26"/>
<path d="M102.562 23.2108C102.528 23.2108 102.493 23.2055 102.459 23.2001L97.8624 22.0567C97.7302 22.0243 97.6268 21.9326 97.5808 21.8086C97.5406 21.69 97.5636 21.5551 97.6498 21.4527L99.9825 18.7075L95.9778 17.7097C95.7652 17.6558 95.633 17.4509 95.6905 17.2459C95.7479 17.0464 95.9605 16.9223 96.1846 16.9763L100.781 18.1196C100.913 18.152 101.017 18.2437 101.063 18.3677C101.103 18.4864 101.08 18.6212 100.994 18.7237L98.661 21.4688L102.666 22.4666C102.878 22.5205 103.011 22.7255 102.953 22.9304C102.901 23.0976 102.74 23.2108 102.562 23.2108Z" fill="#0D0D26"/>
<path d="M56.9124 44.827C56.8205 44.827 56.7285 44.8 56.6538 44.7407L53.419 42.2113C53.2466 42.0764 53.2236 41.8391 53.3673 41.6773C53.5109 41.5155 53.7637 41.494 53.9361 41.6288L56.8607 43.9209L59.3026 41.1758C59.4463 41.014 59.6991 40.9924 59.8715 41.1272L62.796 43.4194L65.238 40.6742C65.3816 40.5124 65.6344 40.4908 65.8068 40.6257C65.9792 40.7605 66.0022 40.9978 65.8585 41.1596L63.1638 44.196C63.0201 44.3578 62.7673 44.3794 62.5949 44.2445L59.6704 41.9524L57.2284 44.6976C57.1422 44.7839 57.0273 44.827 56.9124 44.827Z" fill="#0D0D26"/>
<path d="M4.36777 56.7026C4.17816 56.7026 4.01153 56.5786 3.97131 56.4006C3.92534 56.1957 4.06899 55.9961 4.28733 55.9584L8.00481 55.2626L7.26361 51.7732C7.21765 51.5683 7.36129 51.3687 7.57963 51.331L11.2971 50.6352L10.5559 47.1458C10.51 46.9409 10.6536 46.7413 10.8719 46.7036L14.5894 46.0078L13.8482 42.5184C13.8023 42.3135 13.9459 42.1139 14.1642 42.0762C14.3826 42.033 14.5952 42.1679 14.6354 42.3728L15.457 46.2344C15.503 46.4393 15.3593 46.6389 15.141 46.6766L11.4235 47.3723L12.1647 50.8618C12.2107 51.0667 12.067 51.2662 11.8487 51.304L8.13122 51.9997L8.87242 55.4891C8.91838 55.6941 8.77474 55.8936 8.5564 55.9314L4.44246 56.7026C4.41948 56.7026 4.39649 56.7026 4.36777 56.7026Z" fill="#0D0D26"/>
<path d="M83.4406 55.4516C83.4062 55.4516 83.3717 55.4462 83.3372 55.4408L77.7581 54.0493C77.5455 53.9954 77.4134 53.7905 77.4708 53.5855L78.9532 48.3487C78.9819 48.2516 79.0509 48.1707 79.1428 48.1168C79.2348 48.0682 79.3439 48.0521 79.4473 48.079L85.0264 49.4705C85.239 49.5244 85.3712 49.7293 85.3137 49.9343L83.8313 55.1711C83.7796 55.3437 83.6187 55.4516 83.4406 55.4516ZM78.3557 53.4129L83.1591 54.6102L84.4346 50.1015L79.6312 48.9042L78.3557 53.4129Z" fill="#0D0D26"/>
<path d="M110.555 73.2869C110.428 73.2869 110.302 73.2599 110.187 73.2006C109.796 73.0064 109.647 72.5534 109.848 72.1866C109.946 72.0087 110.112 71.8792 110.319 71.8199C110.526 71.7606 110.739 71.7768 110.928 71.8684C111.118 71.9601 111.256 72.1165 111.319 72.3107C111.382 72.4995 111.365 72.7044 111.267 72.8824C111.124 73.1412 110.848 73.2869 110.555 73.2869ZM110.555 72.5318V72.5372L110.911 72.7044L110.555 72.5318Z" fill="#0D0D26"/>
<path d="M115.369 25.8481L111.784 22.8009L115.306 22.4719L114.973 19.4625H118.179L118.156 16.1241L121.741 19.1713L115.369 25.8481Z" fill="#0D0D26"/>
<path d="M115.369 26.2256C115.272 26.2256 115.174 26.1932 115.099 26.1285L111.514 23.0813C111.393 22.9788 111.353 22.8224 111.399 22.6822C111.451 22.542 111.583 22.4395 111.744 22.4233L114.858 22.1321L114.565 19.5002C114.554 19.3923 114.588 19.2899 114.668 19.209C114.743 19.1281 114.852 19.0849 114.967 19.0849H117.771L117.754 16.124C117.754 15.973 117.846 15.8382 117.995 15.7789C118.139 15.7196 118.311 15.7411 118.426 15.8436L122.012 18.8908C122.178 19.031 122.19 19.2683 122.04 19.4247L115.668 26.1015C115.599 26.177 115.496 26.2202 115.387 26.2256C115.387 26.2256 115.381 26.2256 115.369 26.2256ZM112.726 23.0921L115.341 25.3141L121.173 19.1982L118.564 16.9762L118.581 19.4571C118.581 19.5595 118.541 19.6566 118.466 19.7267C118.392 19.7968 118.288 19.84 118.179 19.84H115.421L115.708 22.4341C115.72 22.5366 115.685 22.6337 115.622 22.7146C115.553 22.7901 115.456 22.844 115.352 22.8494L112.726 23.0921Z" fill="#0D0D26"/>
<path d="M123.563 62.7863C123.54 62.7863 123.523 62.7863 123.5 62.7809L118.156 61.972C118.007 61.9504 117.88 61.8479 117.834 61.7131L116.197 56.87C116.157 56.7459 116.185 56.6057 116.277 56.5086C116.369 56.4115 116.507 56.363 116.645 56.3846L121.989 57.199C122.138 57.2205 122.259 57.323 122.305 57.4578L123.942 62.301C123.982 62.425 123.954 62.5652 123.862 62.6623C123.793 62.7378 123.678 62.7863 123.563 62.7863ZM118.53 61.2654L122.983 61.9396L121.615 57.9001L117.162 57.2259L118.53 61.2654Z" fill="#0D0D26"/>
<path d="M81.2112 10.0514L89.9103 8.99975C90.5193 8.92425 91.1111 9.58762 91.2318 10.4829C91.3525 11.3728 90.9617 12.1602 90.3527 12.2303L81.6537 13.282C81.0446 13.3575 80.4528 12.6941 80.3321 11.7988C80.2115 10.909 80.6022 10.1269 81.2112 10.0514Z" fill="#0D0D26"/>
<path d="M81.5617 13.6702C80.7746 13.6702 80.0793 12.9044 79.9299 11.8527C79.861 11.3512 79.9299 10.855 80.131 10.4613C80.3551 10.019 80.7286 9.73319 81.1595 9.67926L89.8586 8.62758C90.7032 8.5305 91.4789 9.31791 91.634 10.4343C91.7029 10.9359 91.634 11.4321 91.4329 11.8258C91.2088 12.268 90.8353 12.5538 90.4044 12.6078L81.7054 13.6595C81.6594 13.6649 81.6077 13.6702 81.5617 13.6702ZM90.0022 9.37184C89.9907 9.37184 89.9735 9.37184 89.962 9.37184L81.2629 10.4235C81.1136 10.4397 80.9642 10.5691 80.8608 10.7795C80.7286 11.0437 80.6826 11.3943 80.7286 11.7503C80.8263 12.4622 81.2687 12.9422 81.602 12.9098L90.301 11.8581C90.4504 11.8419 90.5998 11.7125 90.7032 11.5022C90.8353 11.2379 90.8813 10.8873 90.8353 10.5314C90.7434 9.84645 90.3297 9.37184 90.0022 9.37184Z" fill="#0D0D26"/>
<path d="M91.2377 10.4829C91.3583 11.3781 90.9676 12.1602 90.3586 12.2303C89.7495 12.3058 89.1577 11.6424 89.0371 10.7471C88.9164 9.85185 89.3071 9.06983 89.9161 8.99972C90.5252 8.92961 91.117 9.59297 91.2377 10.4829Z" fill="#0D0D26"/>
<path d="M90.2664 12.6186C89.8814 12.6186 89.5022 12.4352 89.2034 12.1008C88.9047 11.7664 88.7036 11.3026 88.6346 10.801C88.5657 10.2995 88.6346 9.8033 88.8357 9.40959C89.0598 8.96735 89.4333 8.68151 89.8642 8.62758C90.7088 8.5305 91.4845 9.31791 91.6396 10.4343C91.7086 10.9359 91.6396 11.4321 91.4385 11.8258C91.2144 12.268 90.841 12.5538 90.41 12.6078C90.3641 12.6132 90.3124 12.6186 90.2664 12.6186ZM90.0021 9.37184C89.9906 9.37184 89.9734 9.37184 89.9619 9.37184C89.8125 9.38802 89.6631 9.51746 89.5597 9.7278C89.4275 9.99206 89.3816 10.3426 89.4275 10.6986C89.4792 11.0545 89.6171 11.3835 89.8182 11.61C89.9734 11.788 90.1572 11.8797 90.3009 11.8581C90.4503 11.8419 90.5997 11.7125 90.7031 11.5022C90.8352 11.2379 90.8812 10.8873 90.8352 10.5314C90.7433 9.84645 90.3296 9.37184 90.0021 9.37184Z" fill="#0D0D26"/>
<path d="M101.195 48.3326C101.344 48.2517 101.678 48.1923 101.678 48.1923L109.733 47.049L104.418 52.8521L104.412 52.8413C104.309 52.9707 104.188 53.084 104.033 53.1595C103.125 53.6287 101.752 52.933 100.971 51.6009C100.189 50.2687 100.287 48.8072 101.195 48.3326Z" fill="#0D0D26"/>
<path d="M103.407 53.6825C103.217 53.6825 103.016 53.6556 102.815 53.6016C101.976 53.3751 101.155 52.6956 100.62 51.7841C99.7124 50.2471 99.879 48.5859 100.999 48.0035C101.189 47.9064 101.505 47.8417 101.597 47.8201L109.67 46.6767C109.836 46.6552 110.003 46.7307 110.083 46.8655C110.164 47.0057 110.147 47.1729 110.037 47.297L104.723 53.1001C104.7 53.1216 104.677 53.1432 104.654 53.1594C104.522 53.305 104.384 53.4129 104.229 53.4884C103.981 53.6178 103.706 53.6825 103.407 53.6825ZM101.39 48.6668C100.689 49.0336 100.66 50.2902 101.327 51.4228C101.758 52.1563 102.413 52.7118 103.045 52.8843C103.257 52.9437 103.568 52.9814 103.849 52.8358C103.935 52.7927 104.016 52.7226 104.102 52.6147C104.131 52.5823 104.16 52.5554 104.194 52.5338L108.727 47.5828L101.746 48.5752C101.631 48.5859 101.448 48.6345 101.39 48.6668Z" fill="#0D0D26"/>
<path d="M104.263 49.891C105.05 51.2231 104.947 52.6846 104.039 53.1592C103.131 53.6285 101.758 52.9327 100.976 51.6006C100.189 50.2685 100.293 48.8069 101.201 48.3323C102.103 47.8631 103.476 48.5588 104.263 49.891Z" fill="#0D0D26"/>
<path d="M103.407 53.6825C103.217 53.6825 103.016 53.6555 102.815 53.6016C101.976 53.3751 101.155 52.6956 100.62 51.7841C99.7124 50.247 99.879 48.5859 100.999 48.0034C101.563 47.7122 102.263 47.7446 102.964 48.1059C103.608 48.4349 104.194 49.0066 104.613 49.7131C105.521 51.2502 105.355 52.9113 104.234 53.4938C103.981 53.6178 103.706 53.6825 103.407 53.6825ZM101.827 48.5643C101.666 48.5643 101.517 48.5967 101.39 48.6668C100.689 49.0282 100.66 50.2902 101.321 51.4227C101.752 52.1562 102.407 52.7117 103.039 52.8843C103.252 52.9436 103.562 52.9814 103.844 52.8358C104.545 52.4744 104.573 51.2124 103.913 50.0798C103.568 49.4974 103.097 49.0335 102.585 48.7747C102.315 48.6344 102.057 48.5643 101.827 48.5643Z" fill="#0D0D26"/>
<path d="M43.3756 16.9761L47.5872 16.701L49.943 19.9855L48.0986 23.545L43.887 23.8201L41.5255 20.5356L43.3756 16.9761Z" fill="#0D0D26"/>
<path d="M43.8869 24.1977C43.7547 24.1977 43.6283 24.133 43.5536 24.0305L41.1921 20.7461C41.1117 20.6328 41.1002 20.4926 41.1634 20.3685L43.0135 16.809C43.0767 16.685 43.2031 16.6095 43.3468 16.5987L47.5584 16.3236C47.7078 16.3128 47.8399 16.3775 47.9204 16.4908L50.2819 19.7753C50.3623 19.8885 50.3738 20.0288 50.3106 20.1528L48.4605 23.7123C48.3973 23.8364 48.2709 23.9119 48.1272 23.9227L43.9156 24.1977C43.9041 24.1977 43.8984 24.1977 43.8869 24.1977ZM41.9908 20.5034L44.0937 23.4265L47.8399 23.1784L49.489 20.0072L47.386 17.0841L43.6398 17.3322L41.9908 20.5034Z" fill="#0D0D26"/>
<path d="M45.737 20.6382C45.6049 20.6382 45.4784 20.5734 45.4038 20.471L43.0423 17.1865C42.9159 17.0139 42.9676 16.7766 43.1514 16.6634C43.3353 16.5501 43.5881 16.5932 43.7088 16.7658L45.9381 19.8669L49.9142 19.6081C50.1382 19.5919 50.3278 19.7483 50.3451 19.9586C50.3623 20.169 50.1957 20.3469 49.9716 20.3631L45.76 20.6382C45.7542 20.6382 45.7428 20.6382 45.737 20.6382Z" fill="#0D0D26"/>
<path d="M43.8867 24.1976C43.8293 24.1976 43.7661 24.1869 43.7086 24.1599C43.5075 24.0682 43.4271 23.8417 43.5248 23.6529L45.3749 20.0934C45.4726 19.9046 45.7139 19.8291 45.915 19.9208C46.1161 20.0125 46.1965 20.239 46.0988 20.4278L44.2487 23.9873C44.1798 24.1221 44.0361 24.1976 43.8867 24.1976Z" fill="#0D0D26"/>
<path d="M0.385876 37.4003L0.374384 37.3895C0.351401 37.4488 0.322673 37.5027 0.288199 37.5567C0.242233 37.6268 0.196267 37.6969 0.133064 37.7562C0.081352 37.8048 -0.00483448 37.8587 -0.079529 37.9018C-0.114003 37.9234 -0.148477 37.945 -0.188697 37.9612C-0.223171 37.9773 -0.2519 37.9935 -0.2519 37.9935L-0.424272 38.0367C-0.453001 38.0421 -0.475984 38.0529 -0.510459 38.0582L-5.25643 39.2555L-3.93491 34.8115C-3.92917 34.7846 -3.91768 34.7576 -3.91193 34.7306L-3.86597 34.5688L-3.85447 34.5796C-3.83149 34.5203 -3.80276 34.4664 -3.76829 34.4124C-3.72232 34.3423 -3.67636 34.2722 -3.61315 34.2129C-3.56144 34.1643 -3.47526 34.1104 -3.40056 34.0673C-3.36609 34.0457 -3.33161 34.0241 -3.29139 34.0079C-3.25117 33.9918 -3.22244 33.981 -3.22244 33.981L-3.05007 33.9378C-3.02134 33.9324 -2.99836 33.9216 -2.96963 33.9162L1.77634 32.7189L0.454824 37.163C0.449078 37.1899 0.437588 37.2169 0.431842 37.2439L0.385876 37.4003Z" fill="#0D0D26"/>
<path d="M-5.25638 39.6331C-5.35981 39.6331 -5.46323 39.5954 -5.54367 39.5199C-5.64709 39.4228 -5.68157 39.2826 -5.64709 39.1531L-4.32557 34.7091C-4.32557 34.7037 -4.30834 34.6552 -4.30834 34.6498L-4.25662 34.4664C-4.23939 34.4179 -4.2164 34.3747 -4.18768 34.337C-4.16469 34.2938 -4.14171 34.2561 -4.11873 34.2183C-4.06127 34.1213 -3.99232 34.035 -3.91763 33.9595C-3.91188 33.9541 -3.90614 33.9487 -3.90614 33.9433C-3.83719 33.8786 -3.74525 33.8192 -3.61885 33.7437C-3.55565 33.706 -3.51543 33.6844 -3.47521 33.6682L-3.43499 33.6466C-3.40626 33.6305 -3.37753 33.6197 -3.3488 33.6143L-3.17643 33.5711C-3.12472 33.555 -3.09599 33.5496 -3.06151 33.5442L1.64999 32.3523C1.78788 32.3199 1.93727 32.3577 2.0407 32.4494C2.14412 32.5464 2.17859 32.6867 2.14412 32.8161L0.822601 37.2601C0.822601 37.2655 0.805364 37.314 0.805364 37.3194L0.747906 37.5028C0.730669 37.5513 0.707687 37.5945 0.678958 37.6322C0.655975 37.6754 0.632992 37.7131 0.610009 37.7509C0.552551 37.848 0.483602 37.9343 0.408908 38.0044C0.403162 38.0098 0.397417 38.0152 0.391671 38.0206C0.322723 38.0799 0.236537 38.1446 0.104385 38.2201C0.0411819 38.2579 0.000961745 38.2794 -0.0392584 38.301L-0.0622418 38.328C-0.0909705 38.3441 -0.119699 38.3549 -0.148428 38.3603L-0.3208 38.4035C-0.372512 38.4197 -0.40124 38.425 -0.435714 38.4304L-5.14721 39.6223C-5.18169 39.6277 -5.21616 39.6331 -5.25638 39.6331ZM-3.60161 34.8763L-3.53841 34.8925L-4.67606 38.7217L-0.613831 37.697L-0.424222 38.0421L-0.527646 37.6754L-0.3208 37.5999C-0.211631 37.5352 -0.165665 37.5082 -0.154173 37.4974L-0.148428 37.492C-0.119699 37.4651 -0.0909703 37.4273 -0.0564959 37.3734C-0.0277673 37.3302 -0.0105298 37.2925 0.00670743 37.2547C0.0124532 37.2385 0.0181983 37.2278 0.0296898 37.2116L0.0526732 37.1415L0.0814014 37.1469C0.0986386 37.1307 0.11013 37.1145 0.127367 37.1037L0.0641639 37.0875L1.20182 33.2583L-3.15344 34.3747C-3.26836 34.4395 -3.30858 34.4718 -3.32007 34.4826L-3.32582 34.488C-3.35455 34.515 -3.38327 34.5527 -3.41775 34.6066C-3.44648 34.6498 -3.46371 34.6875 -3.48095 34.7253C-3.4867 34.7415 -3.49244 34.7523 -3.50393 34.7684L-3.52692 34.8385L-3.55565 34.8332C-3.56714 34.8493 -3.58437 34.8655 -3.60161 34.8763Z" fill="#0D0D26"/>
<path d="M0.133191 38.1393C0.0297674 38.1393 -0.0736557 38.1016 -0.154096 38.0261C-0.309231 37.8805 -0.309231 37.6378 -0.154096 37.4921C0.144682 37.2117 0.0987163 36.7694 0.041259 36.5268C-0.0679099 36.0521 -0.372434 35.556 -0.8206 35.1299C-1.26877 34.7092 -1.79163 34.4126 -2.29725 34.3101C-2.55581 34.2562 -3.02696 34.2077 -3.32574 34.4881C-3.48662 34.6337 -3.73943 34.6337 -3.89457 34.4881C-4.0497 34.3425 -4.0497 34.0998 -3.89457 33.9542C-3.46938 33.5605 -2.8431 33.4256 -2.11914 33.5767C-1.46412 33.7169 -0.797617 34.0782 -0.246027 34.6014C0.305563 35.1245 0.690526 35.7555 0.828424 36.3703C0.983558 37.0499 0.834169 37.6378 0.408985 38.0315C0.334291 38.1016 0.236614 38.1393 0.133191 38.1393Z" fill="#0D0D26"/>
<path d="M84.8137 25.1685L79.5162 30.6318L82.6878 30.9446L81.2226 34.7792L86.503 29.4022L83.4003 29.1002L84.8137 25.1685Z" fill="#0D0D26"/>
<path d="M81.2226 35.1568C81.1536 35.1568 81.0789 35.1406 81.0157 35.1028C80.8491 35.0112 80.7801 34.8224 80.8433 34.6552L82.1361 31.2737L79.4759 31.0094C79.3265 30.9932 79.1943 30.9015 79.1426 30.7667C79.0909 30.6319 79.1196 30.4862 79.2231 30.3784L84.5206 24.915C84.647 24.7802 84.8596 24.7532 85.0205 24.8449C85.1871 24.9366 85.2618 25.12 85.1986 25.2926L83.946 28.7766L86.5489 29.0355C86.6982 29.0516 86.8304 29.1433 86.8821 29.2782C86.9338 29.413 86.9051 29.564 86.8017 29.6665L81.5213 35.0381C81.4409 35.1136 81.3317 35.1568 81.2226 35.1568ZM80.3492 30.3352L82.7279 30.5725C82.8486 30.5833 82.9635 30.648 83.0267 30.7451C83.0899 30.8422 83.1072 30.9662 83.0669 31.0741L82.274 33.1559L85.6698 29.6988L83.3657 29.4723C83.2451 29.4615 83.1359 29.3968 83.0669 29.2997C82.998 29.2027 82.9865 29.084 83.0267 28.9761L83.8254 26.7541L80.3492 30.3352Z" fill="#0D0D26"/>
<path d="M34.5098 94.2613C34.5098 94.2613 33.1998 93.5224 31.2979 92.4923C29.3156 91.4191 29.218 89.7364 30.0856 88.771C31.0566 87.6815 32.5505 88.0806 33.5158 88.9382C34.1191 87.8218 35.3774 86.975 36.6817 87.6923C37.848 88.3287 38.3652 89.9413 36.8885 91.5809C35.4751 93.1503 34.5098 94.2613 34.5098 94.2613Z" fill="#0D0D26"/>
<path d="M34.5098 94.6387C34.4409 94.6387 34.3662 94.6226 34.303 94.5848C34.2915 94.5794 32.9757 93.8352 31.1026 92.8212C30.0511 92.2549 29.3789 91.4513 29.2123 90.5561C29.0744 89.828 29.2812 89.0891 29.7868 88.5282C30.2178 88.0428 30.7809 87.7732 31.4129 87.7354C32.0736 87.6977 32.7861 87.9242 33.4181 88.361C33.8548 87.7516 34.4409 87.3093 35.0787 87.1368C35.6877 86.9696 36.314 87.0451 36.8943 87.3633C37.5666 87.73 38.032 88.361 38.1641 89.0891C38.325 89.9844 37.986 90.9498 37.1988 91.8235C35.7969 93.3713 34.8316 94.4877 34.8201 94.4985C34.7454 94.5902 34.6247 94.6387 34.5098 94.6387ZM31.545 88.4905C31.5163 88.4905 31.4818 88.4905 31.4531 88.4905C31.0394 88.512 30.6832 88.69 30.3959 89.0136C30.0454 89.4019 29.9018 89.9197 29.9994 90.4266C30.1258 91.0954 30.6602 91.7102 31.4991 92.1686C32.8608 92.9021 33.9238 93.4954 34.4179 93.7704C34.7799 93.3552 35.5728 92.4545 36.584 91.3327C37.2103 90.637 37.4919 89.8873 37.3655 89.2185C37.2735 88.7116 36.9518 88.2747 36.4806 88.0159C36.0899 87.8001 35.6935 87.7516 35.297 87.8594C34.7454 88.0105 34.2168 88.4797 33.8778 89.1053C33.8203 89.2132 33.7112 89.2833 33.5905 89.3048C33.4641 89.3264 33.3377 89.2887 33.2458 89.2078C32.7229 88.7547 32.0966 88.4905 31.545 88.4905Z" fill="#0D0D26"/>
<path d="M2.33956 15.9352C2.31657 15.9352 2.29359 15.9352 2.27061 15.9298C0.633076 15.6656 -0.797612 14.8188 -1.75715 13.546C-2.71669 12.2732 -3.09016 10.7254 -2.80862 9.1829C-2.7684 8.97796 -2.56155 8.83774 -2.34321 8.87549C-2.12487 8.91324 -1.97549 9.1074 -2.01571 9.31234C-2.26277 10.6499 -1.93527 11.9982 -1.09639 13.1092C-0.257512 14.2202 0.983565 14.9537 2.41425 15.1856C2.63259 15.2233 2.78198 15.4175 2.74176 15.6224C2.70154 15.8058 2.52917 15.9352 2.33956 15.9352Z" fill="#0D0D26"/>
<path d="M102.217 7.49492C102.051 7.49492 101.89 7.39244 101.838 7.23604C101.769 7.03649 101.884 6.82616 102.091 6.75604C102.924 6.49717 103.596 5.94706 103.987 5.21358C104.378 4.4801 104.441 3.64415 104.165 2.86213C103.889 2.08011 103.303 1.4491 102.522 1.08236C101.741 0.715622 100.85 0.656297 100.017 0.915172C99.8042 0.979891 99.5801 0.872026 99.5112 0.677869C99.4423 0.47832 99.5572 0.267984 99.764 0.197872C100.798 -0.125722 101.907 -0.050217 102.884 0.408208C103.861 0.866633 104.585 1.65404 104.929 2.62483C105.274 3.59561 105.194 4.6365 104.705 5.55335C104.217 6.4702 103.378 7.14975 102.344 7.47334C102.304 7.48952 102.258 7.49492 102.217 7.49492Z" fill="#0D0D26"/>
<path d="M44.3465 8.00179C44.2431 8.00179 44.1454 7.96403 44.065 7.89392C43.9041 7.74831 43.9041 7.511 44.0592 7.35999L50.1727 1.44901C50.3278 1.298 50.5807 1.298 50.7415 1.44362C50.9024 1.58924 50.9024 1.82654 50.7473 1.97755L44.6338 7.88853C44.5591 7.95864 44.45 8.00179 44.3465 8.00179Z" fill="#0D0D26"/>
<path d="M9.68252 102.599C9.61357 102.454 9.56761 102.135 9.56761 102.135L8.97005 94.5094L14.7215 99.9242L14.71 99.9296C14.8364 100.037 14.9514 100.161 15.0203 100.307C15.4512 101.192 14.6066 102.427 13.13 103.058C11.6591 103.689 10.1135 103.484 9.68252 102.599Z" fill="#0D0D26"/>
<path d="M11.4349 103.807C10.4581 103.807 9.64798 103.441 9.31473 102.756C9.2228 102.572 9.17683 102.27 9.16534 102.184L8.56204 94.5418C8.55055 94.3854 8.64248 94.2344 8.79761 94.1696C8.95275 94.1049 9.13087 94.1373 9.25153 94.2451L15.003 99.6599C15.026 99.6815 15.0432 99.7031 15.0605 99.7301C15.2041 99.8649 15.3075 100.005 15.3822 100.151C15.9166 101.24 14.9973 102.669 13.2965 103.403C12.6645 103.673 12.021 103.807 11.4349 103.807ZM10.0502 102.443C10.3834 103.128 11.7164 103.252 12.969 102.713C14.2158 102.179 14.9915 101.148 14.6583 100.464C14.618 100.383 14.5491 100.302 14.4399 100.21C14.4112 100.183 14.3825 100.151 14.3595 100.118L9.44688 95.4964L9.96974 102.108C9.98698 102.211 10.0215 102.389 10.0502 102.443Z" fill="#0D0D26"/>
<path d="M11.573 99.8487C13.0496 99.2177 14.5895 99.4227 15.0261 100.307C15.4571 101.192 14.6124 102.421 13.1358 103.058C11.6591 103.689 10.1193 103.484 9.68261 102.599C9.25168 101.715 10.0963 100.48 11.573 99.8487Z" fill="#0D0D26"/>
<path d="M11.4407 103.802C11.2798 103.802 11.1189 103.791 10.9638 103.77C10.1708 103.667 9.59053 103.306 9.32048 102.756C9.05043 102.205 9.14236 101.558 9.57904 100.922C9.97549 100.345 10.6248 99.8379 11.4062 99.5035C13.1069 98.7754 14.8594 99.0558 15.388 100.151C15.658 100.701 15.5661 101.348 15.1294 101.984C14.733 102.561 14.0837 103.068 13.3023 103.403C12.6875 103.662 12.044 103.802 11.4407 103.802ZM13.2735 99.8594C12.8024 99.8594 12.2623 99.9673 11.7394 100.194C11.0959 100.469 10.5673 100.873 10.2513 101.337C9.96975 101.747 9.9008 102.141 10.0502 102.448C10.1996 102.756 10.5616 102.961 11.0729 103.031C11.6475 103.106 12.3198 102.998 12.9633 102.718C13.6068 102.443 14.1354 102.038 14.4514 101.574C14.733 101.17 14.8019 100.776 14.6525 100.469C14.4629 100.07 13.9286 99.8594 13.2735 99.8594Z" fill="#0D0D26"/>
<path d="M123.092 101.068C122.96 101.068 122.827 101.003 122.753 100.89L118.001 93.8514C117.88 93.6734 117.938 93.4415 118.127 93.3283C118.317 93.215 118.564 93.269 118.685 93.4469L123.437 100.485C123.557 100.663 123.5 100.895 123.31 101.008C123.241 101.051 123.166 101.068 123.092 101.068Z" fill="#0D0D26"/>
<path d="M102.212 99.4604C102.045 99.4604 101.884 99.3579 101.832 99.2015C101.763 99.002 101.878 98.7916 102.085 98.7269C103.935 98.1498 104.941 96.2622 104.326 94.5256C104.027 93.6842 103.395 92.9993 102.551 92.6056C101.706 92.2065 100.746 92.1418 99.8502 92.4222C99.6376 92.4869 99.4135 92.3791 99.3445 92.1849C99.2756 91.9854 99.3905 91.775 99.5973 91.7103C100.695 91.3652 101.873 91.4461 102.913 91.9314C103.953 92.4168 104.723 93.2582 105.09 94.2883C105.458 95.3238 105.372 96.424 104.855 97.4002C104.338 98.3764 103.441 99.0991 102.344 99.4442C102.298 99.455 102.252 99.4604 102.212 99.4604Z" fill="#0D0D26"/>
<path d="M44.335 99.7408C44.2316 99.7408 44.1339 99.7031 44.0535 99.6329C43.8926 99.4873 43.8926 99.25 44.0477 99.099L50.1842 93.1665C50.3393 93.0155 50.5921 93.0101 50.753 93.1611C50.9139 93.3067 50.9139 93.544 50.7587 93.695L44.6223 99.6276C44.5419 99.7031 44.4384 99.7408 44.335 99.7408Z" fill="#0D0D26"/>
<path d="M67.4442 16.4748C67.3293 16.4748 67.2201 16.4317 67.1396 16.34L65.8469 14.9108C65.7032 14.7544 65.7262 14.5117 65.8928 14.3768C66.0652 14.242 66.318 14.2636 66.4616 14.42L67.7544 15.8492C67.8981 16.0056 67.8751 16.2483 67.7085 16.3831C67.628 16.4424 67.5361 16.4748 67.4442 16.4748Z" fill="#0D0D26"/>
<path d="M63.1636 11.7448C63.0487 11.7448 62.9395 11.7016 62.8591 11.61L61.5663 10.1808C61.4226 10.0244 61.4456 9.78166 61.6123 9.64683C61.7789 9.51199 62.0374 9.53357 62.1811 9.68997L63.4739 11.1192C63.6175 11.2756 63.5945 11.5183 63.4279 11.6531C63.3475 11.7178 63.2555 11.7448 63.1636 11.7448Z" fill="#0D0D26"/>
<path d="M63.2097 17.1974C63.1638 17.1974 63.1178 17.192 63.0718 17.1758C62.865 17.1057 62.7558 16.8899 62.8305 16.6958L63.5028 14.9322C63.5775 14.738 63.8073 14.6356 64.0141 14.7057C64.221 14.7758 64.3302 14.9915 64.2555 15.1857L63.5832 16.9493C63.5315 17.1057 63.3764 17.1974 63.2097 17.1974Z" fill="#0D0D26"/>
<path d="M65.4334 11.3564C65.3874 11.3564 65.3415 11.351 65.2955 11.3348C65.0886 11.2647 64.9795 11.049 65.0542 10.8548L65.7264 9.09122C65.8011 8.89707 66.0309 8.7946 66.2378 8.86471C66.4446 8.93482 66.5538 9.15055 66.4791 9.34471L65.8069 11.1083C65.7494 11.2593 65.5943 11.3564 65.4334 11.3564Z" fill="#0D0D26"/>
<path d="M60.423 14.1231C60.2334 14.1231 60.061 13.9936 60.0265 13.8157C59.9863 13.6107 60.1299 13.4112 60.3483 13.3788L62.3133 13.0444C62.5316 13.0067 62.7442 13.1415 62.7787 13.3465C62.8189 13.5514 62.6753 13.7509 62.457 13.7833L60.4919 14.1177C60.4689 14.1177 60.446 14.1231 60.423 14.1231Z" fill="#0D0D26"/>
<path d="M66.9271 13.0067C66.7375 13.0067 66.5651 12.8773 66.5306 12.6993C66.4904 12.4944 66.634 12.2948 66.8524 12.2625L68.8174 11.9281C69.0357 11.8903 69.2483 12.0252 69.2828 12.2301C69.323 12.435 69.1794 12.6346 68.9611 12.6669L66.996 13.0013C66.973 13.0067 66.95 13.0067 66.9271 13.0067Z" fill="#0D0D26"/>
<path d="M95.6675 65.251C95.5239 65.251 95.386 65.1809 95.3113 65.0569L92.4844 60.1975C92.3752 60.0142 92.4499 59.7877 92.6453 59.6852C92.8406 59.5827 93.082 59.6528 93.1911 59.8362L95.8284 64.3611L100.649 61.8856C100.844 61.7832 101.086 61.8533 101.195 62.0366C101.304 62.22 101.229 62.4465 101.034 62.549L95.8572 65.2025C95.7997 65.2348 95.7307 65.251 95.6675 65.251Z" fill="#0D0D26"/>
<path d="M80.6825 91.721C80.6768 91.721 80.6768 91.721 80.6825 91.721C80.4584 91.721 80.2803 91.5484 80.2803 91.338L80.3263 86.6513C80.3263 86.5219 80.3952 86.4032 80.5101 86.3385C80.625 86.2684 80.7687 86.263 80.8951 86.3116L84.5034 87.8378L84.5436 83.7282C84.5436 83.5233 84.7275 83.3561 84.9458 83.3561C84.9458 83.3561 84.9458 83.3561 84.9516 83.3561C85.1757 83.3561 85.3538 83.5286 85.348 83.739L85.3021 88.4311C85.3021 88.5605 85.2331 88.6792 85.1182 88.7439C85.0033 88.814 84.8597 88.8248 84.7332 88.7709L81.1249 87.2446L81.0847 91.3542C81.079 91.5538 80.9008 91.721 80.6825 91.721Z" fill="#0D0D26"/>
<path d="M100.04 38.7865C99.9479 38.7865 99.8617 38.7595 99.787 38.7056L96.6728 36.3649C96.5005 36.2355 96.4717 35.9982 96.6096 35.8364C96.7475 35.6746 97.0003 35.6476 97.1727 35.7771L99.9709 37.8858L102.2 35.2701C102.269 35.1892 102.367 35.1407 102.47 35.1299C102.574 35.1191 102.683 35.1461 102.763 35.2108L105.561 37.3195L107.791 34.7038C107.929 34.542 108.182 34.5151 108.354 34.6445C108.526 34.7739 108.555 35.0112 108.417 35.173L105.935 38.0854C105.866 38.1609 105.768 38.2148 105.665 38.2256C105.561 38.2364 105.452 38.2094 105.372 38.1447L102.574 36.0359L100.344 38.6517C100.275 38.7326 100.178 38.7811 100.074 38.7919C100.069 38.7865 100.051 38.7865 100.04 38.7865Z" fill="#0D0D26"/>
<path d="M103.447 80.3574C103.298 80.3574 103.16 80.2819 103.085 80.1471L101.419 77.0405L98.1037 78.6046C97.9026 78.6963 97.6613 78.6208 97.5636 78.4374L95.8973 75.3255L92.582 76.8895C92.3809 76.9812 92.1396 76.9111 92.0419 76.7224L90.3757 73.6159L87.0604 75.1799C86.8593 75.2716 86.618 75.2015 86.5203 75.0127C86.4226 74.8293 86.4973 74.5974 86.6984 74.5057L90.3699 72.7691C90.5653 72.672 90.8123 72.7475 90.91 72.9363L92.5763 76.0482L95.8916 74.4842C96.0869 74.3871 96.334 74.4626 96.4317 74.6514L98.0979 77.7579L101.413 76.1938C101.614 76.0967 101.85 76.1722 101.953 76.361L103.803 79.8073C103.901 79.9906 103.826 80.2226 103.625 80.3142C103.574 80.3466 103.51 80.3574 103.447 80.3574Z" fill="#0D0D26"/>
<path d="M14.1871 86.0634C13.8768 86.0634 13.5665 85.9987 13.2735 85.8693C12.7506 85.6374 12.3599 85.2329 12.1588 84.7259C12.0841 84.5318 12.1933 84.3106 12.4002 84.2405C12.607 84.1704 12.8368 84.2729 12.9173 84.467C13.0379 84.7853 13.285 85.0387 13.6125 85.1843C13.94 85.33 14.3077 85.3461 14.6467 85.2275C15.3477 84.9902 15.7097 84.2621 15.4569 83.6041C15.3822 83.41 15.4914 83.1889 15.6982 83.1187C15.9051 83.0486 16.1349 83.1511 16.2153 83.3453C16.6175 84.3969 16.0372 85.5565 14.9225 85.934C14.6812 86.0203 14.4341 86.0634 14.1871 86.0634Z" fill="#0D0D26"/>
<path d="M15.8362 83.8523C15.6695 83.8523 15.5144 83.7553 15.4569 83.6043C15.0835 82.6335 14.2561 82.2074 13.624 82.0133C12.7335 81.7436 11.6877 81.7867 10.6822 82.1265C10.4754 82.1966 10.2456 82.0942 10.1651 81.9C10.0904 81.7058 10.1996 81.4901 10.4064 81.4146C11.5786 81.0155 12.8082 80.9724 13.8711 81.2906C15.003 81.6303 15.8362 82.3584 16.2154 83.34C16.2901 83.5341 16.1809 83.7553 15.9741 83.8254C15.9281 83.847 15.8821 83.8523 15.8362 83.8523Z" fill="#0D0D26"/>
<path d="M12.5381 84.9741C12.3715 84.9741 12.2164 84.877 12.1589 84.726C11.7797 83.7445 11.9233 82.682 12.5611 81.7436C13.1587 80.8645 14.1354 80.158 15.3076 79.7643C15.5144 79.6942 15.7442 79.7966 15.8247 79.9908C15.8994 80.1849 15.7902 80.4061 15.5833 80.4762C14.5778 80.816 13.7447 81.4146 13.2391 82.1535C12.8829 82.6766 12.5381 83.5018 12.9116 84.4726C12.9863 84.6667 12.8771 84.8878 12.6703 84.958C12.63 84.9633 12.5841 84.9741 12.5381 84.9741Z" fill="#0D0D26"/>
<path d="M15.4455 80.4924C15.2789 80.4924 15.1238 80.3953 15.0663 80.2443C14.9916 80.0501 15.1008 79.8344 15.3076 79.7589C15.8937 79.5594 16.5085 79.4677 17.1233 79.4785C17.3474 79.4839 17.5198 79.6564 17.5198 79.8614C17.514 80.0717 17.3359 80.2335 17.1118 80.2335C16.5947 80.2227 16.0718 80.3036 15.5834 80.4708C15.5375 80.487 15.4915 80.4924 15.4455 80.4924Z" fill="#0D0D26"/>
<path d="M9.28612 87.7246C8.97585 87.7246 8.66558 87.6599 8.37255 87.5305C7.84968 87.2986 7.45898 86.8941 7.25788 86.3871C7.18318 86.1929 7.29235 85.9718 7.49919 85.9017C7.70604 85.8316 7.93587 85.9341 8.01631 86.1282C8.13697 86.4464 8.38404 86.6999 8.71154 86.8455C9.03905 86.9911 9.40678 87.0073 9.74578 86.8887C10.4468 86.6514 10.8087 85.9233 10.5559 85.2653C10.4812 85.0712 10.5904 84.8554 10.7972 84.7799C11.0041 84.7098 11.2397 84.8123 11.3144 85.0064C11.7166 86.0581 11.1362 87.2177 10.0216 87.5952C9.78025 87.6815 9.53318 87.7246 9.28612 87.7246Z" fill="#0D0D26"/>
<path d="M10.935 85.5189C10.7684 85.5189 10.6132 85.4218 10.5558 85.2708C10.1823 84.3001 9.35493 83.874 8.7229 83.6798C7.83231 83.4102 6.78659 83.4533 5.78109 83.7931C5.57424 83.8632 5.34441 83.7607 5.26397 83.5666C5.18928 83.3724 5.29844 83.1567 5.50529 83.0812C6.67742 82.6821 7.90701 82.6389 8.96997 82.9571C10.1019 83.2969 10.935 84.025 11.3142 85.0066C11.3889 85.2007 11.2798 85.4218 11.0729 85.492C11.0269 85.5081 10.981 85.5189 10.935 85.5189Z" fill="#0D0D26"/>
<path d="M7.63702 86.6353C7.4704 86.6353 7.31526 86.5382 7.25781 86.3872C6.87859 85.4056 7.02223 84.3432 7.66001 83.4048C8.25756 82.5257 9.23434 81.8192 10.4065 81.4254C10.6133 81.3553 10.8431 81.4578 10.9236 81.652C10.9983 81.8461 10.8891 82.0672 10.6823 82.1373C9.67676 82.4771 8.84363 83.0758 8.338 83.8146C7.98177 84.3378 7.63702 85.163 8.0105 86.1337C8.08519 86.3279 7.97602 86.549 7.76918 86.6191C7.72896 86.6299 7.68299 86.6353 7.63702 86.6353Z" fill="#0D0D26"/>
<path d="M4.18391 84.6234C4.069 84.6234 3.95983 84.5803 3.87939 84.494C3.73575 84.3376 3.75298 84.1003 3.91961 83.9601C4.39076 83.5772 4.92511 83.2859 5.51118 83.0864C5.71802 83.0163 5.9536 83.1187 6.02829 83.3129C6.10299 83.507 5.99382 83.7228 5.78697 83.7983C5.29858 83.9655 4.85042 84.2136 4.44822 84.5318C4.36778 84.5911 4.27584 84.6234 4.18391 84.6234Z" fill="#0D0D26"/>
<path d="M70.6906 36.834C70.6102 36.834 70.5355 36.8232 70.4551 36.8016C70.0414 36.6776 69.8115 36.2623 69.9437 35.874C70.0758 35.4857 70.5125 35.2699 70.9262 35.394C71.3399 35.518 71.5697 35.9333 71.4376 36.3216C71.3342 36.6344 71.0239 36.834 70.6906 36.834ZM70.6964 36.0789C70.6906 36.0789 70.6791 36.0843 70.6791 36.0897L70.5815 36.4403L70.6964 36.0789Z" fill="#0D0D26"/>
<path d="M69.3405 89.2508C69.26 89.2508 69.1796 89.2401 69.0991 89.2131C68.6797 89.089 68.4441 88.663 68.5763 88.2693C68.6395 88.0751 68.7831 87.9187 68.9727 87.827C69.1623 87.7353 69.3807 87.7192 69.5818 87.7785C69.7829 87.8378 69.9495 87.9727 70.0529 88.1506C70.1506 88.3286 70.1678 88.5335 70.1046 88.7223C70.0414 88.9165 69.8978 89.0729 69.7082 89.1646C69.5933 89.2239 69.4669 89.2508 69.3405 89.2508ZM69.3405 88.4958L69.2198 88.8571L69.3405 88.4958Z" fill="#0D0D26"/>
<path d="M28.3103 30.098C28.2298 30.098 28.1494 30.0872 28.0747 30.0656C27.8736 30.0063 27.7127 29.8768 27.615 29.7043C27.5174 29.5317 27.5001 29.3321 27.5633 29.1434C27.6265 28.9546 27.7644 28.8036 27.9483 28.7119C28.1322 28.6202 28.3447 28.604 28.5458 28.6634C28.7469 28.7227 28.9078 28.8521 29.0055 29.0247C29.1032 29.1973 29.1204 29.3968 29.0572 29.5856C28.994 29.7744 28.8561 29.9254 28.6723 30.0171C28.5573 30.071 28.4309 30.098 28.3103 30.098ZM28.3103 29.3429C28.2988 29.3429 28.293 29.3483 28.2873 29.3591L28.316 29.3483C28.3103 29.3429 28.3103 29.3429 28.3103 29.3429Z" fill="#0D0D26"/>
<path d="M124.281 40.5608H117.455C117.231 40.5608 117.053 40.3936 117.053 40.1833C117.053 39.9729 117.231 39.8057 117.455 39.8057H124.281C124.505 39.8057 124.683 39.9729 124.683 40.1833C124.683 40.3936 124.499 40.5608 124.281 40.5608Z" fill="#0D0D26"/>
<path d="M120.868 43.7645C120.644 43.7645 120.466 43.5973 120.466 43.387V36.9798C120.466 36.7695 120.644 36.6023 120.868 36.6023C121.092 36.6023 121.27 36.7695 121.27 36.9798V43.387C121.27 43.5973 121.087 43.7645 120.868 43.7645Z" fill="#0D0D26"/>
<path d="M62.4227 83.8738H55.7462C55.5221 83.8738 55.344 83.7066 55.344 83.4962C55.344 83.2859 55.5221 83.1187 55.7462 83.1187H62.4227C62.6468 83.1187 62.8249 83.2859 62.8249 83.4962C62.8249 83.7012 62.6468 83.8738 62.4227 83.8738Z" fill="#0D0D26"/>
<path d="M59.0843 87.0074C58.8602 87.0074 58.6821 86.8402 58.6821 86.6299V80.3629C58.6821 80.1526 58.8602 79.9854 59.0843 79.9854C59.3084 79.9854 59.4865 80.1526 59.4865 80.3629V86.6299C59.4865 86.8402 59.3027 87.0074 59.0843 87.0074Z" fill="#0D0D26"/>
<path d="M60.7793 28.9061C60.6759 28.9061 60.5725 28.8683 60.492 28.7928C60.3369 28.6472 60.3369 28.4045 60.492 28.2589L65.2667 23.7771C65.4218 23.6315 65.6804 23.6315 65.8355 23.7771C65.9907 23.9228 65.9907 24.1654 65.8355 24.3111L61.0608 28.7928C60.9861 28.8683 60.8827 28.9061 60.7793 28.9061Z" fill="#0D0D26"/>
<path d="M65.554 28.9061C65.4506 28.9061 65.3472 28.8683 65.2667 28.7928L60.492 24.3111C60.3369 24.1654 60.3369 23.9228 60.492 23.7771C60.6471 23.6315 60.9057 23.6315 61.0608 23.7771L65.8355 28.2589C65.9907 28.4045 65.9907 28.6472 65.8355 28.7928C65.7608 28.8683 65.6574 28.9061 65.554 28.9061Z" fill="#0D0D26"/>
<path d="M25.7706 18.9232C25.6615 18.9232 25.5638 18.8855 25.4834 18.8099L21.6452 15.2073C21.4901 15.0616 21.4901 14.819 21.6452 14.6733L25.4834 11.0707C25.6328 10.9304 25.9028 10.9304 26.0522 11.0707L29.8903 14.6733C30.0455 14.819 30.0455 15.0616 29.8903 15.2073L26.0522 18.8099C25.9775 18.8801 25.8741 18.9232 25.7706 18.9232ZM22.4956 14.9376L25.7649 18.0064L29.0342 14.9376L25.7706 11.8689L22.4956 14.9376Z" fill="#0D0D26"/>
</g>
</g>
</svg>
