<svg width="33" height="41" viewBox="0 0 33 41" fill="none" xmlns="http://www.w3.org/2000/svg">
<path d="M28.875 41H4.125C3.03098 41 1.98177 40.5681 1.20818 39.7992C0.434597 39.0303 0 37.9875 0 36.9002V4.10162C0 3.01428 0.434597 1.97148 1.20818 1.20261C1.98177 0.433748 3.03098 0.00180377 4.125 0.00180377H18.5625C18.581 -0.000601255 18.5997 -0.000601255 18.6182 0.00180377H18.6306C18.65 0.00785443 18.6701 0.0119744 18.6904 0.0141033C18.8719 0.0264028 19.0513 0.061251 19.2246 0.118648H19.3112C19.3493 0.145131 19.3851 0.174608 19.4184 0.206795C19.6431 0.306098 19.8479 0.444997 20.0228 0.616777L32.3978 12.9162C32.5706 13.09 32.7104 13.2935 32.8103 13.5169C32.8282 13.5612 32.844 13.6063 32.8577 13.6522L32.8783 13.7096C32.9361 13.8797 32.9691 14.058 32.9794 14.2384C32.9812 14.2588 32.986 14.2789 32.9938 14.2979V14.3102C32.9971 14.3236 32.9992 14.3373 33 14.3512V36.9002C33 37.9875 32.5654 39.0303 31.7918 39.7992C31.0182 40.5681 29.969 41 28.875 41ZM21.4995 24.6007V34.8503H23.4383V30.6685H26.4495V28.9506H23.4383V26.3247H26.8125V24.6007H21.4995ZM13.8682 24.6007V34.8503H16.3556C16.8708 34.8756 17.3851 34.7856 17.8606 34.5869C18.3361 34.3882 18.7607 34.0859 19.1029 33.7023C19.8142 32.8002 20.1706 31.6714 20.1053 30.527V28.8666C20.1532 27.7343 19.7869 26.623 19.074 25.7384C18.4037 24.98 17.424 24.5618 16.4072 24.6007H13.8682V24.6007ZM6.1875 24.6007V34.8503H8.12625V31.2445H9.41737C10.2795 31.2916 11.121 30.9739 11.7356 30.3712C12.3211 29.72 12.625 28.8656 12.5813 27.9933C12.6195 27.1 12.3159 26.2255 11.7315 25.5457C11.446 25.2311 11.094 24.9831 10.7006 24.8198C10.3073 24.6564 9.88243 24.5816 9.45656 24.6007H6.1875ZM18.5625 4.10162V14.3512H28.875L18.5625 4.10162ZM16.3886 33.1324H15.807V26.3247H16.5124C16.7589 26.3103 17.0051 26.3575 17.2285 26.462C17.4519 26.5666 17.6453 26.7252 17.7911 26.9233C18.0943 27.5444 18.2242 28.2352 18.1665 28.924V30.7054C18.2119 31.3613 18.0696 32.0173 17.754 32.5933C17.5875 32.7865 17.3762 32.9365 17.1383 33.0305C16.9004 33.1244 16.6431 33.1594 16.3886 33.1324V33.1324ZM9.45656 29.5205H8.12419V26.3247H9.47512C9.64103 26.3265 9.80377 26.3701 9.94807 26.4515C10.0924 26.5329 10.2135 26.6494 10.3001 26.79C10.5229 27.157 10.6301 27.5792 10.6095 28.0077C10.6354 28.4063 10.5288 28.8024 10.3063 29.1351C10.2052 29.2613 10.0755 29.3619 9.92785 29.4289C9.7802 29.4959 9.61872 29.5273 9.45656 29.5205Z" fill="#DD2025"/>
</svg>
