<svg width="398" height="227" viewBox="0 0 398 227" fill="none" xmlns="http://www.w3.org/2000/svg">
<g filter="url(#filter0_ddddd_349_3473)">
<rect x="35.1651" y="18.0012" width="327.67" height="156.32" rx="24" fill="#5F4BB6"/>
</g>
<g opacity="0.06">
<mask id="mask0_349_3473" style="mask-type:alpha" maskUnits="userSpaceOnUse" x="35" y="18" width="328" height="157">
<rect x="35.1651" y="18.0012" width="327.67" height="156.32" rx="24" fill="#34A853"/>
</mask>
<g mask="url(#mask0_349_3473)">
<path d="M138.897 104.39L144.138 98.4378L146.053 103.409L152.321 102.143L153.43 106.754L160.504 105.857L155.275 111.809L138.897 104.39Z" fill="white"/>
<path d="M155.275 112.396C155.123 112.396 154.971 112.363 154.843 112.304L138.477 104.885C138.091 104.709 137.986 104.348 138.22 104.071L143.45 98.1192C143.625 97.9264 143.94 97.8174 144.255 97.8509C144.57 97.8845 144.839 98.0521 144.92 98.2785L146.613 102.688L152.1 101.582C152.321 101.54 152.567 101.565 152.753 101.649C152.952 101.741 153.08 101.883 153.127 102.043L154.096 106.075L160.364 105.279C160.68 105.237 161.007 105.337 161.182 105.53C161.357 105.723 161.368 105.975 161.193 106.167L155.964 112.12C155.812 112.296 155.543 112.396 155.275 112.396ZM140.029 104.206L155.018 110.996L158.824 106.662L153.57 107.333C153.36 107.358 153.139 107.324 152.963 107.232C152.788 107.14 152.66 107.006 152.625 106.855L151.668 102.881L146.263 103.971C146.053 104.013 145.831 103.996 145.644 103.921C145.457 103.845 145.317 103.719 145.259 103.568L143.835 99.8713L140.029 104.206Z" fill="white"/>
<path d="M41.5866 159.888C41.3532 159.888 41.1314 159.813 40.9679 159.687C40.7812 159.536 40.7228 159.318 40.8045 159.126L44.0614 151.656C44.1548 151.446 44.3999 151.287 44.7035 151.253L55.4547 149.971C55.7349 149.937 56.0151 150.013 56.2019 150.164C56.3886 150.315 56.447 150.532 56.3653 150.725L53.1084 158.195C53.015 158.405 52.7698 158.564 52.4663 158.597L41.715 159.88C41.6683 159.888 41.6216 159.888 41.5866 159.888ZM45.4622 152.352L42.754 158.564L51.6959 157.491L54.4041 151.279L45.4622 152.352Z" fill="white"/>
<path d="M55.7698 109.269L38.8316 103.216C37.6409 102.797 37.4307 101.372 38.3529 100.039C39.2752 98.7062 40.9795 97.9768 42.1702 98.396L59.1084 104.449C60.2991 104.876 60.5093 106.293 59.587 107.626C58.6648 108.959 56.9605 109.697 55.7698 109.269Z" fill="white"/>
<path d="M56.5054 109.982C56.1318 109.982 55.7583 109.923 55.4081 109.797L38.4698 103.745C36.8589 103.166 36.4853 101.431 37.6177 99.7876C38.7617 98.1444 40.9096 97.3061 42.5322 97.8845L59.4705 103.937C60.2876 104.231 60.8246 104.851 60.953 105.648C61.0581 106.36 60.8363 107.157 60.3226 107.903C59.4238 109.185 57.8945 109.982 56.5054 109.982ZM56.1318 108.749C56.7972 108.993 58.0813 108.481 58.8518 107.375C59.2253 106.838 59.3887 106.251 59.3187 105.773C59.2603 105.388 59.0502 105.103 58.735 104.985L41.7968 98.9324C41.1314 98.6893 39.8473 99.2007 39.0769 100.307C38.3064 101.414 38.5165 102.453 39.1819 102.697L56.1318 108.749Z" fill="white"/>
<path d="M38.3531 100.047C39.2753 98.7145 40.9796 97.9851 42.1703 98.4043C43.361 98.8235 43.5711 100.249 42.6489 101.582C41.7267 102.915 40.0224 103.644 38.8317 103.225C37.641 102.797 37.4309 101.372 38.3531 100.047Z" fill="white"/>
<path d="M39.5554 103.929C39.1702 103.929 38.7966 103.87 38.4581 103.753C36.8472 103.174 36.4736 101.439 37.6059 99.7959C38.1196 99.0498 38.8667 98.4462 39.7305 98.0773C40.6877 97.6498 41.7033 97.5911 42.5205 97.8761C43.3376 98.1695 43.8746 98.7899 44.003 99.5863C44.1081 100.299 43.8863 101.095 43.3726 101.841C42.859 102.588 42.1002 103.191 41.2481 103.56C40.6877 103.803 40.1041 103.929 39.5554 103.929ZM39.0768 100.307C38.3063 101.414 38.5165 102.453 39.1935 102.697C39.5087 102.806 39.9523 102.755 40.4192 102.554C41.0029 102.303 41.5399 101.858 41.9134 101.322C42.287 100.785 42.4504 100.198 42.3804 99.7205C42.322 99.3348 42.1119 99.0498 41.7967 98.9324C41.4815 98.8234 41.0379 98.8737 40.571 99.0749C39.999 99.3181 39.4503 99.7708 39.0768 100.307Z" fill="white"/>
<path d="M88.794 34.9331C88.6423 34.7067 88.5606 34.2121 88.5606 34.2121L87.3348 22.2908L99.0901 30.7497L99.0667 30.7581C99.3235 30.9258 99.557 31.1186 99.7088 31.3449C100.596 32.7282 98.8683 34.6564 95.8565 35.6457C92.8331 36.6349 89.6695 36.3163 88.794 34.9331Z" fill="white"/>
<path d="M92.378 36.8109C90.3818 36.8109 88.7358 36.2409 88.0588 35.1762C87.872 34.8827 87.7786 34.4216 87.7553 34.2791L86.5179 22.3327C86.4945 22.0896 86.6813 21.8548 86.9965 21.7542C87.3117 21.6536 87.6735 21.6956 87.9187 21.8716L99.6739 30.3305C99.7206 30.3641 99.7556 30.3976 99.7906 30.4395C100.082 30.6491 100.293 30.8671 100.444 31.1018C100.993 31.9569 100.806 32.9713 99.919 33.9606C99.1136 34.866 97.7828 35.654 96.1835 36.1738C94.8761 36.6097 93.5687 36.8109 92.378 36.8109ZM89.5413 34.6815C90.2184 35.7462 92.95 35.9474 95.5065 35.1091C96.8256 34.6731 97.8995 34.0444 98.5416 33.3234C99.1136 32.6863 99.2653 32.0659 98.9501 31.588C98.8684 31.4623 98.7283 31.3281 98.5065 31.1856C98.4482 31.1437 98.3898 31.0934 98.3431 31.0431L88.3039 23.8166L89.3662 34.1534C89.4012 34.321 89.4829 34.5977 89.5413 34.6815Z" fill="white"/>
<path d="M92.6467 30.6324C95.6585 29.6432 98.8103 29.9617 99.6975 31.345C100.585 32.7283 98.857 34.6565 95.8452 35.6457C92.8335 36.635 89.6816 36.3164 88.7944 34.9331C87.9072 33.5415 89.6349 31.6216 92.6467 30.6324Z" fill="white"/>
<path d="M92.3779 36.8026C92.0394 36.8026 91.7126 36.7859 91.3974 36.7523C89.7864 36.5847 88.5841 36.023 88.0471 35.1679C87.4984 34.3127 87.6852 33.2983 88.5724 32.3091C89.3779 31.4037 90.7086 30.6156 92.3079 30.0959C95.7866 28.9557 99.3587 29.4 100.444 31.1019C101.53 32.8037 99.6622 35.0337 96.1835 36.1739C94.9228 36.593 93.6037 36.8026 92.3779 36.8026ZM92.985 31.169C91.6659 31.6049 90.5919 32.2337 89.9499 32.9546C89.3779 33.5918 89.2261 34.2121 89.5413 34.69C89.8448 35.1679 90.5919 35.4948 91.6425 35.6038C92.8215 35.7212 94.199 35.5535 95.5064 35.1176C98.0629 34.2792 99.6389 32.6696 98.9618 31.5965C98.2731 30.5234 95.5415 30.3306 92.985 31.169Z" fill="white"/>
<path d="M314.338 152.997L306.388 151.069L304.742 145.167L311.022 141.193L318.972 143.113L320.63 149.015L314.338 152.997Z" fill="white"/>
<path d="M314.338 153.584C314.244 153.584 314.163 153.576 314.081 153.551L306.131 151.631C305.851 151.564 305.653 151.396 305.594 151.186L303.937 145.285C303.878 145.075 303.983 144.865 304.193 144.731L310.485 140.749C310.707 140.607 311.011 140.565 311.291 140.632L319.241 142.552C319.521 142.619 319.719 142.786 319.778 142.996L321.435 148.898C321.494 149.107 321.389 149.317 321.178 149.451L314.886 153.433C314.723 153.534 314.524 153.584 314.338 153.584ZM307.1 150.625L314.151 152.335L319.731 148.806L318.26 143.566L311.209 141.856L305.629 145.385L307.1 150.625Z" fill="white"/>
<path d="M314.338 153.584C313.953 153.584 313.614 153.391 313.533 153.115L311.968 147.548L304.474 145.737C304.042 145.637 303.82 145.301 303.96 144.991C304.1 144.681 304.567 144.522 304.999 144.622L312.949 146.542C313.229 146.609 313.428 146.777 313.486 146.986L315.144 152.888C315.237 153.207 314.945 153.517 314.501 153.576C314.443 153.576 314.385 153.584 314.338 153.584Z" fill="white"/>
<path d="M312.68 147.682C312.458 147.682 312.225 147.615 312.062 147.481C311.758 147.238 311.793 146.869 312.132 146.651L318.424 142.669C318.762 142.459 319.276 142.476 319.579 142.719C319.883 142.962 319.848 143.331 319.509 143.549L313.217 147.531C313.066 147.632 312.879 147.682 312.68 147.682Z" fill="white"/>
<path d="M215.825 125.449L215.837 125.466C215.93 125.391 216.024 125.315 216.129 125.248C216.269 125.156 216.409 125.072 216.584 125.005C216.724 124.955 216.922 124.913 217.109 124.879C217.191 124.862 217.284 124.846 217.366 124.837C217.448 124.821 217.518 124.812 217.518 124.812L217.903 124.821C217.961 124.821 218.02 124.821 218.09 124.829L228.573 125.089L222.923 131.435C222.888 131.477 222.853 131.511 222.817 131.552L222.607 131.787L222.596 131.77C222.502 131.846 222.409 131.921 222.304 131.988C222.164 132.081 222.024 132.164 221.849 132.232C221.709 132.282 221.498 132.324 221.312 132.357C221.23 132.374 221.148 132.391 221.055 132.399C220.973 132.416 220.903 132.424 220.903 132.424L220.518 132.416C220.459 132.416 220.401 132.416 220.331 132.408L209.848 132.148L215.498 125.801C215.533 125.759 215.568 125.726 215.603 125.684L215.825 125.449Z" fill="white"/>
<path d="M220.915 132.994C220.903 132.994 220.891 132.994 220.891 132.994L220.506 132.986C220.39 132.986 220.319 132.986 220.249 132.978L209.848 132.726C209.556 132.718 209.288 132.6 209.148 132.416C209.008 132.232 209.02 132.005 209.183 131.829L214.833 125.483C214.833 125.474 214.903 125.407 214.903 125.407L215.136 125.139C215.195 125.072 215.277 125.013 215.358 124.971C215.428 124.921 215.498 124.863 215.58 124.821C215.697 124.737 215.907 124.611 216.187 124.502C216.187 124.502 216.199 124.502 216.199 124.494C216.374 124.427 216.596 124.368 216.911 124.318C217.063 124.284 217.168 124.267 217.261 124.259L217.354 124.242C217.413 124.234 217.494 124.225 217.541 124.234L217.926 124.242C218.043 124.242 218.113 124.242 218.172 124.251L228.584 124.51C228.876 124.519 229.145 124.636 229.285 124.821C229.425 125.005 229.413 125.231 229.25 125.407L223.6 131.745C223.6 131.745 223.565 131.787 223.53 131.829L223.296 132.089C223.238 132.156 223.156 132.215 223.074 132.257C223.004 132.315 222.934 132.366 222.853 132.416C222.678 132.542 222.491 132.642 222.281 132.718C222.257 132.726 222.234 132.735 222.222 132.743C222.059 132.802 221.837 132.86 221.533 132.919C221.382 132.953 221.288 132.961 221.183 132.978L221.078 132.994C221.02 132.994 220.961 132.994 220.915 132.994ZM211.331 131.586L220.378 131.812L220.53 132.408L220.553 131.821L220.845 131.829L221.043 131.796C221.312 131.745 221.417 131.72 221.452 131.703C221.463 131.695 221.475 131.695 221.487 131.687C221.557 131.661 221.639 131.611 221.744 131.544C221.837 131.485 221.895 131.435 221.954 131.385C221.977 131.368 222 131.343 222.024 131.326L222.117 131.226L222.187 131.242C222.222 131.226 222.269 131.209 222.316 131.2L222.199 131.15L227.102 125.634L218.055 125.407L217.903 124.812L217.88 125.399L217.588 125.391L217.389 125.424C217.098 125.475 216.993 125.508 216.969 125.516C216.969 125.516 216.957 125.516 216.957 125.525C216.876 125.558 216.794 125.6 216.689 125.676C216.596 125.734 216.537 125.785 216.479 125.835C216.456 125.852 216.432 125.877 216.409 125.894L216.315 125.994L216.257 125.977C216.21 125.994 216.175 126.011 216.129 126.019L216.257 126.078L211.331 131.586Z" fill="white"/>
<path d="M220.681 133.003C219.946 133.003 219.175 132.843 218.393 132.525C217.156 132.022 216.047 131.158 215.265 130.094C214.494 129.029 214.132 127.889 214.249 126.866C214.378 125.751 215.066 124.904 216.187 124.485C216.584 124.334 217.086 124.443 217.296 124.728C217.506 125.013 217.354 125.374 216.957 125.525C216.14 125.835 215.942 126.564 215.895 126.967C215.802 127.763 216.094 128.685 216.724 129.549C217.354 130.412 218.241 131.108 219.21 131.502C219.701 131.703 220.658 131.997 221.475 131.686C221.872 131.536 222.362 131.645 222.584 131.938C222.794 132.223 222.642 132.575 222.245 132.734C221.755 132.919 221.23 133.003 220.681 133.003Z" fill="white"/>
<path d="M84.2298 134.554L88.6424 123.119L82.397 124.821L81.2647 118.332L76.7938 129.624L82.9107 127.956L84.2298 134.554Z" fill="white"/>
<path d="M84.2298 135.141C84.2065 135.141 84.1948 135.141 84.1715 135.141C83.7862 135.124 83.4711 134.914 83.4127 134.638L82.2453 128.769L77.074 130.178C76.7821 130.261 76.4553 130.211 76.2335 130.06C76.0117 129.909 75.9183 129.683 76 129.465L80.4826 118.172C80.5877 117.904 80.9496 117.728 81.3348 117.745C81.72 117.77 82.0352 117.98 82.0819 118.256L83.0742 124.007L88.3506 122.574C88.6424 122.498 88.9693 122.54 89.1911 122.691C89.4129 122.842 89.5063 123.068 89.4245 123.286L85.012 134.721C84.9186 134.964 84.5917 135.141 84.2298 135.141ZM82.9107 127.369C83.0508 127.369 83.2026 127.394 83.331 127.453C83.5411 127.545 83.6928 127.696 83.7279 127.872L84.4866 131.695L87.4284 124.083L82.6773 125.374C82.4438 125.441 82.1753 125.416 81.9652 125.332C81.7551 125.24 81.6033 125.08 81.5799 124.904L80.9496 121.283L78.0195 128.668L82.6189 127.419C82.7123 127.386 82.8173 127.369 82.9107 127.369Z" fill="white"/>
<path d="M188.474 111.306C188.474 111.306 187.435 109.336 185.859 106.52C184.213 103.585 186.209 101.556 188.743 101.179C191.591 100.752 193.342 102.487 193.715 104.298C196.039 103.518 199.015 103.619 200.089 105.564C201.046 107.299 199.786 109.605 195.478 110.242C191.334 110.845 188.474 111.306 188.474 111.306Z" fill="white"/>
<path d="M188.474 111.893C188.136 111.893 187.832 111.742 187.715 111.516C187.715 111.516 186.676 109.546 185.101 106.737C184.225 105.17 184.225 103.661 185.112 102.479C185.836 101.506 187.097 100.827 188.579 100.601C189.852 100.408 191.066 100.576 192.081 101.079C193.132 101.598 193.914 102.462 194.323 103.501C195.747 103.174 197.183 103.174 198.373 103.51C199.517 103.837 200.381 104.474 200.86 105.346C201.42 106.36 201.327 107.492 200.591 108.456C199.704 109.638 197.941 110.468 195.642 110.812C191.521 111.415 188.661 111.876 188.661 111.885C188.591 111.893 188.533 111.893 188.474 111.893ZM189.595 101.699C189.373 101.699 189.14 101.716 188.906 101.749C187.902 101.9 187.038 102.37 186.548 103.032C185.894 103.904 185.918 105.069 186.618 106.301C187.739 108.297 188.591 109.873 188.988 110.627C190.073 110.451 192.373 110.091 195.315 109.663C197.136 109.395 198.49 108.775 199.155 107.903C199.657 107.24 199.716 106.469 199.342 105.782C199.027 105.212 198.502 104.818 197.766 104.608C196.751 104.315 195.373 104.398 194.066 104.834C193.832 104.91 193.564 104.91 193.33 104.818C193.109 104.734 192.945 104.574 192.91 104.39C192.7 103.376 192.035 102.495 191.136 102.051C190.68 101.816 190.167 101.699 189.595 101.699Z" fill="white"/>
<path d="M154.656 78.9295C150.979 78.9295 147.944 76.8168 147.85 74.1593C147.757 71.4598 150.745 69.2214 154.493 69.1544C156.325 69.1124 158.041 69.5987 159.349 70.5041C160.668 71.4011 161.415 72.6167 161.462 73.9245C161.555 76.624 158.578 78.8624 154.82 78.9295C154.773 78.9295 154.714 78.9295 154.656 78.9295ZM154.656 70.328C154.609 70.328 154.574 70.328 154.528 70.328C153.15 70.3532 151.854 70.764 150.909 71.4766C149.952 72.1976 149.45 73.1365 149.485 74.1341C149.555 76.1797 151.901 77.8145 154.785 77.7558C157.633 77.7055 159.898 75.9953 159.827 73.9497C159.769 71.9293 157.458 70.328 154.656 70.328Z" fill="white"/>
<path d="M123.021 93.2149C122.881 93.2149 122.74 93.1897 122.612 93.1394C120.651 92.3346 119.238 91.0352 118.631 89.4675C118.036 87.8998 118.316 86.265 119.425 84.8566C120.546 83.4482 122.355 82.4338 124.538 81.9978C126.721 81.5619 128.997 81.7715 130.959 82.5679C131.356 82.7272 131.484 83.0877 131.262 83.3643C131.04 83.6494 130.538 83.7416 130.153 83.5823C128.566 82.9368 126.721 82.7691 124.97 83.1212C123.219 83.4733 121.748 84.2865 120.849 85.4267C118.993 87.774 120.137 90.7753 123.418 92.1083C123.814 92.2676 123.943 92.628 123.721 92.9047C123.581 93.1059 123.301 93.2149 123.021 93.2149Z" fill="white"/>
<path d="M169.365 133.581C169.271 133.581 169.178 133.573 169.084 133.548C168.664 133.439 168.442 133.103 168.594 132.793C169.715 130.555 171.991 128.761 174.991 127.746C177.991 126.732 181.365 126.623 184.482 127.428C184.902 127.537 185.124 127.872 184.972 128.182C184.82 128.484 184.353 128.643 183.921 128.534C181.213 127.839 178.283 127.931 175.68 128.811C173.077 129.691 171.104 131.251 170.123 133.196C170.007 133.43 169.703 133.581 169.365 133.581Z" fill="white"/>
<path d="M319.019 32.2756C318.75 32.2756 318.482 32.175 318.33 31.999L309.096 21.5448C308.851 21.2681 308.968 20.9077 309.353 20.7316C309.738 20.5555 310.24 20.6394 310.486 20.916L319.719 31.3702C319.964 31.6469 319.848 32.0073 319.462 32.1834C319.322 32.2505 319.171 32.2756 319.019 32.2756Z" fill="white"/>
<path d="M123.651 120.721C123.523 120.721 123.394 120.696 123.266 120.654L110.028 115.565C109.631 115.414 109.479 115.054 109.69 114.769C109.9 114.484 110.402 114.375 110.799 114.526L124.036 119.614C124.433 119.765 124.585 120.126 124.375 120.411C124.223 120.604 123.943 120.721 123.651 120.721Z" fill="white"/>
<path d="M113.484 122.926C113.355 122.926 113.227 122.901 113.099 122.859C112.702 122.708 112.55 122.347 112.76 122.062L119.846 112.556C120.056 112.27 120.558 112.161 120.955 112.312C121.352 112.463 121.503 112.824 121.293 113.109L114.208 122.616C114.056 122.808 113.776 122.926 113.484 122.926Z" fill="white"/>
<path d="M143.461 133.698C143.263 133.698 143.076 133.648 142.913 133.548C142.574 133.33 142.551 132.961 142.843 132.718L145.598 130.504C145.901 130.261 146.415 130.236 146.753 130.454C147.092 130.672 147.115 131.041 146.823 131.284L144.068 133.497C143.917 133.631 143.683 133.698 143.461 133.698Z" fill="white"/>
<path d="M134.344 141.034C134.146 141.034 133.959 140.984 133.796 140.883C133.457 140.665 133.434 140.296 133.726 140.053L136.481 137.84C136.784 137.597 137.298 137.58 137.636 137.79C137.975 138.008 137.998 138.376 137.706 138.62L134.951 140.833C134.788 140.967 134.566 141.034 134.344 141.034Z" fill="white"/>
<path d="M149.006 137.563C148.948 137.563 148.89 137.563 148.843 137.555L144.792 136.951C144.349 136.884 144.068 136.574 144.162 136.256C144.255 135.937 144.687 135.736 145.131 135.803L149.181 136.407C149.625 136.474 149.905 136.784 149.812 137.102C149.73 137.371 149.392 137.563 149.006 137.563Z" fill="white"/>
<path d="M135.605 135.56C135.547 135.56 135.488 135.56 135.442 135.551L131.391 134.948C130.947 134.881 130.667 134.57 130.76 134.252C130.854 133.933 131.286 133.732 131.729 133.799L135.78 134.403C136.224 134.47 136.504 134.78 136.41 135.099C136.329 135.367 135.99 135.56 135.605 135.56Z" fill="white"/>
<path d="M143.076 142.342C142.737 142.342 142.411 142.183 142.294 141.94L140.998 139.114C140.858 138.804 141.091 138.477 141.523 138.377C141.955 138.276 142.411 138.444 142.551 138.754L143.846 141.579C143.986 141.889 143.753 142.216 143.321 142.317C143.239 142.325 143.158 142.342 143.076 142.342Z" fill="white"/>
<path d="M138.792 133.003C138.453 133.003 138.126 132.843 138.01 132.6L136.714 129.775C136.574 129.465 136.807 129.138 137.239 129.037C137.671 128.937 138.126 129.104 138.266 129.415L139.562 132.24C139.702 132.55 139.469 132.877 139.037 132.978C138.955 132.994 138.873 133.003 138.792 133.003Z" fill="white"/>
<path d="M104.845 69.4478C104.822 69.4478 104.798 69.4478 104.775 69.4478C104.332 69.4143 103.993 69.1292 104.04 68.8106L105.114 60.4188L93.4168 59.6475C92.9732 59.614 92.6347 59.329 92.6814 59.0104C92.7281 58.6834 93.1133 58.4487 93.5686 58.4822L106.071 59.3038C106.514 59.3373 106.853 59.6224 106.806 59.941L105.662 68.9196C105.627 69.2214 105.265 69.4478 104.845 69.4478Z" fill="white"/>
<path d="M277.52 54.0809C277.45 54.0809 277.38 54.0725 277.31 54.0642L267.971 52.2869C267.702 52.2366 267.492 52.094 267.399 51.9012C267.317 51.7168 267.364 51.5072 267.539 51.3479L272.278 47.0807L264.142 45.5298C263.71 45.446 263.441 45.1274 263.558 44.8088C263.675 44.4986 264.107 44.3058 264.562 44.3896L273.901 46.1669C274.169 46.2172 274.38 46.3598 274.473 46.5526C274.555 46.737 274.508 46.9466 274.333 47.1059L269.593 51.3731L277.73 52.924C278.162 53.0078 278.43 53.3264 278.314 53.645C278.208 53.9049 277.882 54.0809 277.52 54.0809Z" fill="white"/>
<path d="M184.774 87.6819C184.587 87.6819 184.4 87.64 184.248 87.5478L177.676 83.616C177.326 83.4064 177.279 83.0375 177.571 82.786C177.863 82.5345 178.377 82.501 178.727 82.7105L184.669 86.2735L189.63 82.0063C189.922 81.7548 190.435 81.7213 190.786 81.9309L196.727 85.4939L201.689 81.2267C201.981 80.9752 202.494 80.9416 202.844 81.1512C203.195 81.3608 203.241 81.7297 202.949 81.9812L197.475 86.7011C197.183 86.9526 196.669 86.9861 196.319 86.7765L190.377 83.2136L185.416 87.4807C185.241 87.6149 185.007 87.6819 184.774 87.6819Z" fill="white"/>
<path d="M78.0196 106.142C77.6344 106.142 77.2958 105.949 77.2141 105.673C77.1207 105.354 77.4126 105.044 77.8561 104.985L85.4089 103.904L83.903 98.4797C83.8096 98.1611 84.1015 97.8509 84.5451 97.7923L92.0978 96.7108L90.5919 91.2867C90.4985 90.9681 90.7904 90.6579 91.234 90.5993L98.7867 89.5178L97.2808 84.0937C97.1875 83.7751 97.4793 83.4649 97.9229 83.4063C98.3665 83.3392 98.7984 83.5488 98.8801 83.8673L100.549 89.8699C100.643 90.1885 100.351 90.4987 99.9074 90.5573L92.3546 91.6388L93.8605 97.0629C93.9539 97.3815 93.6621 97.6917 93.2185 97.7503L85.6657 98.8318L87.1716 104.256C87.265 104.574 86.9732 104.885 86.5296 104.943L78.1713 106.142C78.1246 106.142 78.0779 106.142 78.0196 106.142Z" fill="white"/>
<path d="M238.67 104.197C238.6 104.197 238.53 104.189 238.46 104.18L227.125 102.018C226.693 101.934 226.425 101.615 226.542 101.297L229.553 93.1562C229.612 93.0053 229.752 92.8796 229.939 92.7958C230.125 92.7203 230.347 92.6952 230.557 92.7371L241.892 94.9C242.324 94.9838 242.593 95.3024 242.476 95.621L239.464 103.761C239.359 104.03 239.032 104.197 238.67 104.197ZM228.339 101.028L238.098 102.889L240.69 95.8809L230.931 94.0197L228.339 101.028Z" fill="white"/>
<path d="M293.758 131.921C293.501 131.921 293.244 131.879 293.011 131.787C292.217 131.485 291.913 130.781 292.322 130.211C292.52 129.934 292.859 129.733 293.279 129.641C293.699 129.549 294.131 129.574 294.516 129.716C294.902 129.859 295.182 130.102 295.31 130.404C295.439 130.697 295.404 131.016 295.205 131.293C294.913 131.695 294.353 131.921 293.758 131.921ZM293.758 130.748V130.756L294.481 131.016L293.758 130.748Z" fill="white"/>
<path d="M303.54 58.1805L296.256 53.4438L303.412 52.9324L302.734 48.2544H309.248L309.202 43.0651L316.486 47.8017L303.54 58.1805Z" fill="white"/>
<path d="M303.54 58.7673C303.341 58.7673 303.143 58.717 302.991 58.6164L295.707 53.8797C295.462 53.7205 295.38 53.4773 295.473 53.2594C295.579 53.0414 295.847 52.8821 296.174 52.857L302.501 52.4043L301.906 48.3131C301.882 48.1455 301.952 47.9862 302.116 47.8604C302.267 47.7347 302.489 47.6676 302.723 47.6676H308.419L308.384 43.0651C308.384 42.8303 308.571 42.6208 308.875 42.5285C309.166 42.4363 309.517 42.4699 309.75 42.6291L317.034 47.3658C317.373 47.5838 317.396 47.9526 317.093 48.1958L304.147 58.5745C304.007 58.6918 303.797 58.7589 303.575 58.7673C303.575 58.7673 303.563 58.7673 303.54 58.7673ZM298.17 53.8965L303.482 57.3505L315.33 47.8437L310.03 44.3897L310.065 48.2461C310.065 48.4053 309.984 48.5562 309.832 48.6652C309.68 48.7742 309.47 48.8413 309.248 48.8413H303.645L304.229 52.8737C304.252 53.033 304.182 53.1839 304.053 53.3097C303.913 53.427 303.715 53.5109 303.505 53.5193L298.17 53.8965Z" fill="white"/>
<path d="M320.186 115.599C320.14 115.599 320.105 115.599 320.058 115.59L309.202 114.333C308.898 114.299 308.641 114.14 308.548 113.93L305.221 106.402C305.139 106.209 305.198 105.991 305.384 105.84C305.571 105.689 305.851 105.614 306.131 105.648L316.988 106.913C317.291 106.947 317.536 107.106 317.63 107.316L320.957 114.844C321.038 115.037 320.98 115.255 320.793 115.406C320.653 115.523 320.42 115.599 320.186 115.599ZM309.96 113.235L319.007 114.282L316.229 108.003L307.182 106.955L309.96 113.235Z" fill="white"/>
<path d="M234.141 33.6254L251.815 31.9906C253.052 31.8732 254.254 32.9044 254.499 34.2961C254.745 35.6793 253.951 36.9033 252.713 37.0123L235.04 38.6471C233.802 38.7645 232.6 37.7333 232.355 36.3416C232.11 34.9584 232.903 33.7428 234.141 33.6254Z" fill="white"/>
<path d="M234.853 39.2506C233.254 39.2506 231.841 38.0602 231.538 36.4254C231.398 35.6457 231.538 34.8744 231.946 34.2625C232.402 33.575 233.16 33.1307 234.036 33.0469L251.71 31.4121C253.426 31.2612 255.001 32.4852 255.317 34.2205C255.457 35.0002 255.317 35.7715 254.908 36.3835C254.453 37.0709 253.694 37.5152 252.818 37.5991L235.145 39.2338C235.051 39.2422 234.946 39.2506 234.853 39.2506ZM252.001 32.569C251.978 32.569 251.943 32.569 251.92 32.569L234.246 34.2038C233.942 34.2289 233.639 34.4301 233.429 34.7571C233.16 35.1679 233.067 35.7128 233.16 36.2661C233.359 37.3727 234.258 38.1188 234.935 38.0685L252.608 36.4338C252.912 36.4086 253.215 36.2074 253.426 35.8805C253.694 35.4697 253.787 34.9248 253.694 34.3714C253.507 33.3067 252.667 32.569 252.001 32.569Z" fill="white"/>
<path d="M254.511 34.296C254.756 35.6876 253.962 36.9032 252.725 37.0122C251.488 37.1296 250.285 36.0984 250.04 34.7068C249.795 33.3151 250.589 32.0995 251.826 31.9905C253.064 31.8815 254.266 32.9127 254.511 34.296Z" fill="white"/>
<path d="M252.538 37.6158C251.756 37.6158 250.986 37.3308 250.379 36.811C249.772 36.2913 249.363 35.5703 249.223 34.7906C249.083 34.011 249.223 33.2397 249.631 32.6277C250.087 31.9402 250.846 31.4959 251.721 31.4121C253.437 31.2612 255.013 32.4852 255.328 34.2205C255.468 35.0002 255.328 35.7715 254.92 36.3835C254.464 37.0709 253.706 37.5152 252.83 37.5991C252.737 37.6075 252.632 37.6158 252.538 37.6158ZM252.001 32.569C251.978 32.569 251.943 32.569 251.919 32.569C251.616 32.5942 251.312 32.7954 251.102 33.1223C250.834 33.5331 250.74 34.078 250.834 34.6313C250.939 35.1846 251.219 35.696 251.628 36.0481C251.943 36.3248 252.316 36.4673 252.608 36.4338C252.912 36.4086 253.215 36.2074 253.425 35.8805C253.694 35.4697 253.787 34.9248 253.694 34.3714C253.507 33.3067 252.667 32.569 252.001 32.569Z" fill="white"/>
<path d="M274.741 93.131C275.045 93.0053 275.722 92.9131 275.722 92.9131L292.088 91.1358L281.29 100.156L281.278 100.14C281.068 100.341 280.823 100.517 280.508 100.634C278.664 101.364 275.874 100.282 274.286 98.2114C272.698 96.1407 272.897 93.8688 274.741 93.131Z" fill="white"/>
<path d="M279.236 101.447C278.85 101.447 278.442 101.406 278.033 101.322C276.329 100.97 274.66 99.9133 273.574 98.4965C271.73 96.1072 272.068 93.5251 274.344 92.6197C274.73 92.4688 275.372 92.3682 275.558 92.3347L291.96 90.5574C292.298 90.5238 292.637 90.6412 292.8 90.8508C292.964 91.0687 292.929 91.3286 292.707 91.5215L281.909 100.542C281.862 100.576 281.815 100.609 281.769 100.634C281.5 100.861 281.22 101.028 280.905 101.146C280.403 101.347 279.843 101.447 279.236 101.447ZM275.138 93.6509C273.714 94.2209 273.656 96.1743 275.01 97.9348C275.885 99.0749 277.216 99.9384 278.5 100.207C278.932 100.299 279.562 100.358 280.134 100.131C280.31 100.064 280.473 99.9552 280.648 99.7875C280.706 99.7372 280.765 99.6953 280.835 99.6618L290.045 91.9658L275.862 93.5083C275.628 93.5251 275.255 93.6006 275.138 93.6509Z" fill="white"/>
<path d="M280.975 95.5539C282.574 97.6246 282.364 99.8965 280.52 100.634C278.675 101.364 275.885 100.282 274.298 98.2115C272.698 96.1407 272.908 93.8688 274.753 93.1311C276.586 92.4017 279.376 93.4832 280.975 95.5539Z" fill="white"/>
<path d="M279.236 101.448C278.85 101.448 278.442 101.406 278.033 101.322C276.329 100.97 274.66 99.9134 273.574 98.4966C271.73 96.1073 272.068 93.5252 274.344 92.6197C275.488 92.167 276.913 92.2173 278.337 92.779C279.644 93.2904 280.835 94.1791 281.687 95.2773C283.531 97.6666 283.193 100.249 280.917 101.154C280.403 101.347 279.843 101.448 279.236 101.448ZM276.025 93.4916C275.699 93.4916 275.395 93.5419 275.138 93.6509C273.714 94.2126 273.656 96.1743 274.998 97.9349C275.874 99.075 277.204 99.9385 278.488 100.207C278.92 100.299 279.551 100.358 280.123 100.131C281.547 99.5696 281.605 97.6079 280.263 95.8474C279.562 94.942 278.605 94.221 277.566 93.8186C277.018 93.6006 276.492 93.4916 276.025 93.4916Z" fill="white"/>
<path d="M157.271 44.3896L165.828 43.9621L170.614 49.0676L166.867 54.6007L158.31 55.0282L153.512 49.9227L157.271 44.3896Z" fill="white"/>
<path d="M158.31 55.6151C158.041 55.6151 157.784 55.5145 157.633 55.3552L152.835 50.2497C152.671 50.0736 152.648 49.8557 152.777 49.6629L156.535 44.1298C156.664 43.937 156.921 43.8196 157.212 43.8028L165.769 43.3753C166.073 43.3585 166.341 43.4591 166.505 43.6352L171.302 48.7407C171.466 48.9167 171.489 49.1347 171.361 49.3275L167.602 54.8606C167.473 55.0534 167.217 55.1708 166.925 55.1876L158.368 55.6151C158.345 55.6151 158.333 55.6151 158.31 55.6151ZM154.458 49.8724L158.73 54.4163L166.341 54.0306L169.691 49.1012L165.419 44.5573L157.808 44.943L154.458 49.8724Z" fill="white"/>
<path d="M162.069 50.082C161.8 50.082 161.543 49.9814 161.392 49.8222L156.594 44.7166C156.337 44.4484 156.442 44.0795 156.816 43.9034C157.189 43.7274 157.703 43.7945 157.948 44.0627L162.477 48.8832L170.555 48.4808C171.011 48.4557 171.396 48.6988 171.431 49.0257C171.466 49.3527 171.127 49.6293 170.672 49.6545L162.115 50.082C162.104 50.082 162.08 50.082 162.069 50.082Z" fill="white"/>
<path d="M158.31 55.615C158.193 55.615 158.064 55.5983 157.948 55.5564C157.539 55.4138 157.376 55.0617 157.574 54.7683L161.333 49.2352C161.531 48.9418 162.022 48.8244 162.43 48.967C162.839 49.1095 163.002 49.4616 162.804 49.755L159.045 55.2881C158.905 55.4977 158.613 55.615 158.31 55.615Z" fill="white"/>
<path d="M69.9296 76.1378L69.9063 76.1211C69.8596 76.2133 69.8012 76.2971 69.7312 76.3809C69.6378 76.4899 69.5444 76.5989 69.416 76.6911C69.3109 76.7666 69.1358 76.8504 68.9841 76.9175C68.914 76.951 68.844 76.9845 68.7623 77.0097C68.6922 77.0348 68.6339 77.06 68.6339 77.06L68.2837 77.1271C68.2253 77.1354 68.1786 77.1522 68.1086 77.1606L58.4663 79.0217L61.1512 72.1138C61.1628 72.0718 61.1862 72.0299 61.1979 71.988L61.2912 71.7365L61.3146 71.7533C61.3613 71.6611 61.4197 71.5772 61.4897 71.4934C61.5831 71.3844 61.6765 71.2754 61.8049 71.1832C61.9099 71.1077 62.085 71.0239 62.2368 70.9568C62.3068 70.9233 62.3769 70.8898 62.4586 70.8646C62.5403 70.8395 62.5987 70.8227 62.5987 70.8227L62.9489 70.7556C63.0073 70.7473 63.0539 70.7305 63.1123 70.7221L72.7546 68.861L70.0697 75.7689C70.058 75.8109 70.0347 75.8528 70.023 75.8947L69.9296 76.1378Z" fill="white"/>
<path d="M58.4664 79.6085C58.2563 79.6085 58.0462 79.5498 57.8827 79.4325C57.6726 79.2816 57.6026 79.0636 57.6726 78.8624L60.3575 71.9544C60.3575 71.946 60.3925 71.8706 60.3925 71.8622L60.4976 71.5772C60.5326 71.5017 60.5793 71.4346 60.6377 71.376C60.6844 71.3089 60.7311 71.2502 60.7778 71.1915C60.8945 71.0406 61.0346 70.9065 61.1863 70.7891C61.198 70.7807 61.2097 70.7723 61.2097 70.764C61.3498 70.6634 61.5365 70.5711 61.7934 70.4538C61.9218 70.3951 62.0035 70.3616 62.0852 70.3364L62.1669 70.3029C62.2253 70.2777 62.2836 70.261 62.342 70.2526L62.6922 70.1855C62.7973 70.1604 62.8556 70.152 62.9257 70.1436L72.498 68.2908C72.7781 68.2405 73.0816 68.2992 73.2918 68.4417C73.5019 68.5926 73.5719 68.8106 73.5019 69.0118L70.817 75.9198C70.817 75.9282 70.7819 76.0036 70.7819 76.012L70.6652 76.297C70.6302 76.3725 70.5835 76.4396 70.5251 76.4982C70.4784 76.5653 70.4317 76.624 70.3851 76.6827C70.2683 76.8336 70.1282 76.9677 69.9765 77.0767C69.9648 77.0851 69.9531 77.0935 69.9415 77.1019C69.8014 77.1941 69.6263 77.2947 69.3578 77.412C69.2294 77.4707 69.1477 77.5043 69.0659 77.5378L69.0193 77.5797C68.9609 77.6049 68.9025 77.6216 68.8441 77.63L68.4939 77.6971C68.3889 77.7222 68.3305 77.7306 68.2605 77.739L58.6882 79.5917C58.6182 79.6001 58.5481 79.6085 58.4664 79.6085ZM61.8284 72.2143L61.9568 72.2395L59.6454 78.1917L67.8986 76.5988L68.2838 77.1354L68.0737 76.5653L68.4939 76.4479C68.7157 76.3473 68.8091 76.3054 68.8325 76.2887L68.8441 76.2803C68.9025 76.2384 68.9609 76.1797 69.0309 76.0958C69.0893 76.0288 69.1243 75.9701 69.1593 75.9114C69.171 75.8863 69.1827 75.8695 69.206 75.8443L69.2527 75.7354L69.3111 75.7437C69.3461 75.7186 69.3695 75.6934 69.4045 75.6767L69.2761 75.6515L71.5874 69.6993L62.7389 71.4346C62.5054 71.5352 62.4237 71.5855 62.4004 71.6023L62.3887 71.6107C62.3303 71.6526 62.272 71.7113 62.2019 71.7951C62.1436 71.8622 62.1085 71.9209 62.0735 71.9796C62.0618 72.0047 62.0502 72.0215 62.0268 72.0466L61.9801 72.1556L61.9218 72.1472C61.8984 72.1724 61.8634 72.1975 61.8284 72.2143Z" fill="white"/>
<path d="M69.4162 77.2864C69.2061 77.2864 68.996 77.2277 68.8325 77.1104C68.5174 76.884 68.5174 76.5067 68.8325 76.2804C69.4396 75.8445 69.3462 75.157 69.2294 74.7798C69.0076 74.042 68.3889 73.2707 67.4784 72.6084C66.5679 71.9545 65.5056 71.4934 64.4783 71.3342C63.953 71.2503 62.9958 71.1749 62.3888 71.6108C62.0619 71.8372 61.5483 71.8372 61.2331 71.6108C60.9179 71.3845 60.9179 71.0072 61.2331 70.7808C62.0969 70.1689 63.3693 69.9593 64.8402 70.194C66.171 70.412 67.5251 70.9737 68.6458 71.7869C69.7664 72.6001 70.5485 73.5809 70.8287 74.5366C71.1439 75.593 70.8404 76.5067 69.9765 77.1187C69.8248 77.2277 69.6263 77.2864 69.4162 77.2864Z" fill="white"/>
<path d="M241.46 57.1241L230.697 65.6165L237.141 66.1028L234.164 72.0634L244.892 63.7051L238.588 63.2356L241.46 57.1241Z" fill="white"/>
<path d="M234.164 72.6502C234.024 72.6502 233.872 72.6251 233.744 72.5664C233.405 72.4239 233.265 72.1304 233.394 71.8705L236.02 66.6141L230.615 66.2033C230.312 66.1782 230.043 66.0357 229.938 65.8261C229.833 65.6165 229.892 65.3901 230.102 65.2225L240.865 56.73C241.122 56.5204 241.554 56.4785 241.88 56.621C242.219 56.7636 242.371 57.0486 242.242 57.3169L239.697 62.7326L244.986 63.135C245.289 63.1601 245.558 63.3027 245.663 63.5122C245.768 63.7218 245.709 63.9566 245.499 64.1158L234.771 72.4658C234.608 72.5831 234.386 72.6502 234.164 72.6502ZM232.39 65.1554L237.223 65.5243C237.468 65.541 237.701 65.6416 237.83 65.7925C237.958 65.9434 237.993 66.1363 237.911 66.3039L236.3 69.5399L243.2 64.1662L238.518 63.814C238.273 63.7973 238.051 63.6967 237.911 63.5458C237.771 63.3949 237.748 63.2104 237.83 63.0428L239.452 59.5888L232.39 65.1554Z" fill="white"/>
<path d="M139.259 164.525C139.259 164.525 136.597 163.376 132.733 161.775C128.706 160.107 128.507 157.491 130.27 155.99C132.243 154.297 135.278 154.917 137.239 156.25C138.465 154.515 141.021 153.199 143.671 154.314C146.041 155.303 147.091 157.81 144.091 160.358C141.22 162.798 139.259 164.525 139.259 164.525Z" fill="white"/>
<path d="M139.259 165.111C139.119 165.111 138.967 165.086 138.838 165.028C138.815 165.019 136.142 163.862 132.336 162.286C130.2 161.406 128.834 160.157 128.496 158.765C128.216 157.633 128.636 156.485 129.663 155.613C130.539 154.858 131.683 154.439 132.967 154.381C134.309 154.322 135.757 154.674 137.041 155.353C137.928 154.406 139.119 153.718 140.414 153.45C141.652 153.19 142.924 153.307 144.103 153.802C145.469 154.372 146.415 155.353 146.683 156.485C147.01 157.876 146.321 159.377 144.722 160.735C141.874 163.141 139.912 164.877 139.889 164.893C139.737 165.036 139.492 165.111 139.259 165.111ZM133.235 155.554C133.177 155.554 133.107 155.554 133.048 155.554C132.208 155.588 131.484 155.864 130.9 156.367C130.188 156.971 129.897 157.776 130.095 158.564C130.352 159.603 131.437 160.559 133.142 161.272C135.908 162.412 138.068 163.334 139.072 163.762C139.807 163.116 141.418 161.716 143.473 159.972C144.745 158.891 145.317 157.726 145.06 156.686C144.874 155.898 144.22 155.219 143.263 154.817C142.469 154.481 141.663 154.406 140.858 154.573C139.737 154.808 138.663 155.537 137.975 156.51C137.858 156.678 137.636 156.787 137.391 156.82C137.134 156.854 136.877 156.795 136.69 156.669C135.628 155.965 134.356 155.554 133.235 155.554Z" fill="white"/>
<path d="M50.9604 51.7587C50.8903 51.7587 50.8086 51.7503 50.7269 51.7335C50.295 51.6413 50.0381 51.3144 50.1666 51.0042C50.365 50.5179 50.2833 50.0149 49.9448 49.5706C49.6062 49.1263 49.0459 48.8077 48.3805 48.6736C47.7034 48.5311 47.003 48.5897 46.3843 48.8329C45.7656 49.076 45.3221 49.4784 45.1353 49.9562C45.0069 50.2664 44.5516 50.4509 44.1197 50.3586C43.6878 50.2664 43.4426 49.9395 43.5594 49.6293C43.8745 48.8412 44.5983 48.1957 45.5905 47.8017C46.5828 47.4077 47.7385 47.3155 48.8241 47.5418C49.9214 47.7682 50.8203 48.2879 51.3689 49.0005C51.9176 49.7131 52.046 50.5431 51.7308 51.3227C51.6374 51.591 51.3106 51.7587 50.9604 51.7587Z" fill="white"/>
<path d="M50.6452 56.8308C50.5752 56.8308 50.4934 56.8224 50.4117 56.8056C48.0537 56.311 46.0458 55.3469 44.7501 54.081C43.3726 52.7229 42.9407 51.1468 43.5477 49.6378C43.6761 49.3276 44.1314 49.1431 44.5633 49.2354C44.9952 49.3276 45.252 49.6545 45.1236 49.9647C44.5283 51.4402 45.3104 52.6474 46.0692 53.3936C47.1548 54.4499 48.8475 55.2631 50.867 55.6822C51.2989 55.7745 51.5557 56.1014 51.4273 56.4116C51.3339 56.6631 51.0071 56.8308 50.6452 56.8308Z" fill="white"/>
<path d="M43.8978 55.1121C42.8355 55.1121 41.7266 55.0032 40.6059 54.7684C40.174 54.6762 39.9288 54.3492 40.0456 54.0391C40.174 53.7289 40.6293 53.5444 41.0612 53.6366C45.2987 54.5169 49.2093 53.3851 50.1665 51.0126C50.2949 50.7024 50.7502 50.5264 51.1821 50.6102C51.614 50.7024 51.8708 51.0294 51.7424 51.3396C50.7852 53.6953 47.6684 55.1121 43.8978 55.1121Z" fill="white"/>
<path d="M40.8393 54.7852C40.7693 54.7852 40.6876 54.7768 40.6059 54.76C39.4385 54.5169 38.3412 54.1229 37.3723 53.5947C37.0104 53.4019 36.9404 53.0331 37.2089 52.7732C37.4774 52.5133 37.991 52.463 38.3529 52.6558C39.17 53.1001 40.0806 53.4271 41.0611 53.6283C41.493 53.7205 41.7499 54.0474 41.6215 54.3576C41.5164 54.6175 41.1895 54.7852 40.8393 54.7852Z" fill="white"/>
<path d="M60.7659 53.8043C60.6959 53.8043 60.6142 53.7959 60.5324 53.7791C60.1005 53.6869 59.8554 53.3599 59.9721 53.0497C60.1706 52.5635 60.0889 52.0605 59.7503 51.6162C59.4118 51.1718 58.8515 50.8533 58.1861 50.7191C57.509 50.5766 56.8086 50.6353 56.1899 50.8784C55.5712 51.1215 55.1276 51.524 54.9408 52.0018C54.8124 52.312 54.3572 52.4964 53.9252 52.4042C53.4933 52.312 53.2482 51.985 53.3649 51.6749C53.6801 50.8868 54.4039 50.2413 55.3961 49.8473C56.3884 49.4532 57.544 49.361 58.6297 49.5874C59.727 49.8137 60.6258 50.3335 61.1745 51.0461C61.7231 51.7587 61.8516 52.5887 61.5364 53.3683C61.4547 53.6366 61.1278 53.8043 60.7659 53.8043Z" fill="white"/>
<path d="M60.4624 58.8679C60.3807 58.8679 60.3107 58.8595 60.229 58.8427C55.1043 57.778 52.1509 54.6929 53.3766 51.6749C53.505 51.3647 53.9603 51.1886 54.3922 51.2725C54.8241 51.3647 55.0693 51.6916 54.9525 52.0018C53.9953 54.3827 56.4584 56.8391 60.6959 57.7193C61.1278 57.8116 61.373 58.1385 61.2562 58.4487C61.1395 58.7002 60.8126 58.8679 60.4624 58.8679Z" fill="white"/>
<path d="M53.657 57.1409C52.5947 57.1409 51.4974 57.0319 50.4234 56.8055C49.9915 56.7133 49.7347 56.3864 49.8631 56.0762C49.9915 55.766 50.4468 55.5899 50.8787 55.6738C52.8865 56.0929 54.9294 56.0594 56.6337 55.5816C57.8361 55.2462 59.3887 54.5252 59.984 53.0498C60.1124 52.7396 60.5677 52.5635 60.9996 52.6473C61.4315 52.7396 61.6767 53.0665 61.5599 53.3767C60.9529 54.8857 59.412 56.0594 57.2408 56.6714C56.1318 56.9816 54.9177 57.1409 53.657 57.1409Z" fill="white"/>
<path d="M62.9958 59.1277C62.062 59.1277 61.1398 59.0355 60.2409 58.8427C59.809 58.7505 59.5638 58.4235 59.6806 58.1133C59.809 57.8032 60.2526 57.6187 60.6962 57.7109C61.6767 57.9121 62.6923 57.9876 63.7079 57.9205C64.1515 57.8954 64.5484 58.1301 64.5951 58.4571C64.6301 58.784 64.3033 59.0607 63.848 59.0942C63.5562 59.1194 63.276 59.1277 62.9958 59.1277Z" fill="white"/>
<path d="M42.3919 134.487C41.0728 134.487 39.7421 134.227 38.5514 133.69C35.166 132.164 34.1504 128.945 36.275 126.522C38.3996 124.091 42.8706 123.353 46.2559 124.888C49.6412 126.413 50.6568 129.633 48.5322 132.055C47.1664 133.623 44.8084 134.487 42.3919 134.487ZM42.4153 125.265C40.5475 125.265 38.7265 125.936 37.6642 127.151C36.0182 129.029 36.812 131.519 39.4269 132.701C40.6993 133.271 42.1935 133.456 43.6527 133.221C45.1119 132.978 46.3609 132.349 47.1547 131.435C48.8007 129.557 48.0069 127.067 45.392 125.885C44.4582 125.466 43.4309 125.265 42.4153 125.265Z" fill="white"/>
<path d="M339.331 159.93C339.097 159.93 338.875 159.855 338.712 159.729C338.525 159.578 338.467 159.36 338.548 159.168L341.829 151.631C341.922 151.421 342.167 151.262 342.471 151.228L353.315 149.929C353.596 149.895 353.876 149.971 354.062 150.122C354.249 150.273 354.308 150.491 354.226 150.683L350.946 158.22C350.852 158.43 350.607 158.589 350.304 158.623L339.459 159.922C339.412 159.93 339.377 159.93 339.331 159.93ZM343.241 152.327L340.51 158.606L349.545 157.524L352.276 151.245L343.241 152.327Z" fill="white"/>
<path d="M353.164 108.934L337.264 103.258C336.156 102.864 335.945 101.531 336.809 100.282C337.673 99.033 339.272 98.3455 340.393 98.7395L356.292 104.415C357.401 104.809 357.611 106.142 356.748 107.391C355.872 108.64 354.273 109.336 353.164 108.934Z" fill="white"/>
<path d="M353.853 109.638C353.479 109.638 353.129 109.579 352.802 109.462L336.903 103.786C336.12 103.51 335.607 102.915 335.49 102.152C335.385 101.481 335.595 100.718 336.085 100.022C336.576 99.3181 337.288 98.7397 338.093 98.3959C339.004 98.0019 339.973 97.9432 340.755 98.2199L356.654 103.895C357.436 104.172 357.95 104.767 358.067 105.53C358.172 106.201 357.962 106.964 357.471 107.66C356.841 108.573 355.825 109.269 354.751 109.529C354.448 109.596 354.144 109.638 353.853 109.638ZM339.704 99.2175C339.471 99.2175 339.202 99.2762 338.934 99.4019C338.397 99.6367 337.895 100.047 337.545 100.55C337.206 101.045 337.043 101.59 337.113 102.034C337.171 102.386 337.358 102.646 337.626 102.739L353.526 108.414C353.712 108.481 353.958 108.481 354.226 108.414C354.891 108.255 355.569 107.769 356 107.14C356.339 106.645 356.502 106.1 356.432 105.656C356.386 105.304 356.187 105.044 355.919 104.952L340.019 99.2762C339.938 99.2343 339.821 99.2175 339.704 99.2175Z" fill="white"/>
<path d="M336.821 100.282C337.685 99.0331 339.284 98.3456 340.404 98.7397C341.513 99.1337 341.724 100.467 340.86 101.716C339.996 102.965 338.397 103.652 337.276 103.258C336.155 102.864 335.957 101.531 336.821 100.282Z" fill="white"/>
<path d="M337.953 103.954C337.591 103.954 337.241 103.896 336.903 103.778C336.12 103.501 335.607 102.906 335.49 102.143C335.385 101.473 335.595 100.71 336.085 100.014C337.171 98.4546 339.226 97.6582 340.755 98.2115C342.296 98.7648 342.658 100.416 341.572 101.976C340.732 103.208 339.272 103.954 337.953 103.954ZM339.716 99.2175C339.074 99.2175 338.128 99.7038 337.556 100.542C337.218 101.037 337.054 101.582 337.124 102.026C337.183 102.378 337.37 102.638 337.638 102.73C338.245 102.948 339.436 102.445 340.124 101.456C340.813 100.467 340.65 99.4774 340.043 99.2678C339.938 99.2343 339.833 99.2175 339.716 99.2175Z" fill="white"/>
<path d="M348.774 51.7336C348.704 51.7336 348.623 51.7252 348.553 51.7084C348.121 51.6162 347.864 51.2892 347.992 50.9791C348.401 49.9647 347.584 48.9 346.171 48.6065C344.759 48.3131 343.276 48.9 342.868 49.9144C342.739 50.2245 342.296 50.4006 341.852 50.3168C341.42 50.2245 341.163 49.8976 341.292 49.5874C341.957 47.9526 344.35 47.0053 346.627 47.4832C348.903 47.961 350.222 49.6712 349.557 51.3144C349.452 51.5659 349.125 51.7336 348.774 51.7336Z" fill="white"/>
<path d="M348.459 56.8643C348.389 56.8643 348.307 56.8559 348.226 56.8391C345.844 56.3445 343.801 55.3636 342.494 54.081C341.093 52.7061 340.661 51.1132 341.28 49.5791C341.408 49.2689 341.852 49.0844 342.296 49.1767C342.728 49.2689 342.973 49.5958 342.856 49.906C342.249 51.4067 343.043 52.6306 343.813 53.3851C344.91 54.4582 346.638 55.2882 348.681 55.7074C349.113 55.7996 349.37 56.1265 349.241 56.4367C349.136 56.705 348.809 56.8643 348.459 56.8643Z" fill="white"/>
<path d="M341.619 55.1288C340.545 55.1288 339.424 55.0115 338.28 54.7767C337.848 54.6845 337.603 54.3575 337.72 54.0474C337.848 53.7372 338.292 53.5527 338.736 53.645C343.031 54.542 347 53.3935 347.981 50.979C348.109 50.6688 348.553 50.4844 348.997 50.5766C349.429 50.6688 349.685 50.9958 349.557 51.306C348.588 53.6953 345.425 55.1288 341.619 55.1288Z" fill="white"/>
<path d="M338.513 54.802C338.443 54.802 338.362 54.7936 338.28 54.7768C337.101 54.5337 335.992 54.1313 335 53.5947C334.638 53.4019 334.568 53.0331 334.836 52.7732C335.105 52.5133 335.618 52.463 335.98 52.6558C336.809 53.1085 337.731 53.4355 338.724 53.645C339.156 53.7373 339.401 54.0642 339.284 54.3744C339.191 54.6343 338.864 54.802 338.513 54.802Z" fill="white"/>
<path d="M358.721 53.8043C358.65 53.8043 358.569 53.7959 358.487 53.7792C358.055 53.687 357.81 53.36 357.927 53.0498C358.335 52.0354 357.518 50.9707 356.106 50.6773C354.693 50.3839 353.211 50.9707 352.802 51.9851C352.674 52.2953 352.23 52.4797 351.786 52.3875C351.355 52.2953 351.109 51.9683 351.226 51.6582C351.88 50.0234 354.285 49.0761 356.549 49.5539C357.658 49.7803 358.569 50.3084 359.117 51.0294C359.666 51.7504 359.794 52.5887 359.479 53.3768C359.398 53.6367 359.071 53.8043 358.721 53.8043Z" fill="white"/>
<path d="M358.405 58.9349C358.335 58.9349 358.254 58.9265 358.172 58.9098C355.79 58.4151 353.748 57.4343 352.44 56.1516C351.039 54.7767 350.607 53.1839 351.226 51.6497C351.355 51.3395 351.798 51.1551 352.242 51.2473C352.674 51.3395 352.919 51.6665 352.802 51.9767C352.195 53.4773 352.989 54.7013 353.759 55.4558C354.857 56.5289 356.584 57.3588 358.627 57.778C359.059 57.8702 359.304 58.1972 359.187 58.5074C359.082 58.7673 358.756 58.9349 358.405 58.9349Z" fill="white"/>
<path d="M351.506 57.1828C350.432 57.1828 349.323 57.0654 348.226 56.839C347.794 56.7468 347.549 56.4199 347.666 56.1097C347.794 55.7995 348.238 55.6151 348.681 55.7073C350.724 56.1348 352.802 56.1013 354.518 55.6151C355.732 55.2713 357.319 54.5504 357.915 53.0413C358.043 52.7311 358.499 52.5467 358.93 52.6389C359.362 52.7311 359.619 53.0581 359.491 53.3683C358.872 54.8941 357.319 56.0845 355.113 56.7049C354.016 57.0319 352.778 57.1828 351.506 57.1828Z" fill="white"/>
<path d="M360.974 59.2032C360.028 59.2032 359.094 59.111 358.184 58.9182C357.752 58.826 357.507 58.499 357.623 58.1888C357.752 57.8786 358.195 57.6942 358.639 57.7864C359.631 57.996 360.658 58.0715 361.697 58.0044C362.141 57.9792 362.538 58.214 362.584 58.5409C362.62 58.8679 362.293 59.1445 361.837 59.1781C361.546 59.1948 361.254 59.2032 360.974 59.2032Z" fill="white"/>
<path d="M340.206 134.235C338.957 134.235 337.685 133.992 336.552 133.481C333.342 132.03 332.361 128.97 334.381 126.657C336.4 124.343 340.661 123.647 343.883 125.097C347.105 126.548 348.074 129.608 346.054 131.921C344.747 133.414 342.494 134.235 340.206 134.235ZM337.416 132.483C339.867 133.59 343.124 133.053 344.665 131.293C345.412 130.437 345.646 129.423 345.342 128.442C345.027 127.461 344.198 126.623 343.008 126.086C341.817 125.55 340.404 125.382 339.039 125.6C337.673 125.827 336.506 126.422 335.758 127.277C334.218 129.046 334.965 131.376 337.416 132.483Z" fill="white"/>
<path d="M73.8989 42.7716C73.8522 42.7716 73.8055 42.7716 73.7588 42.7632C70.4319 42.3525 67.5252 41.0363 65.5757 39.0578C63.6262 37.0793 62.8674 34.6732 63.4394 32.2755C63.5212 31.957 63.9414 31.739 64.385 31.7977C64.8286 31.8564 65.1321 32.1582 65.0504 32.4767C64.5484 34.5558 65.2138 36.6517 66.9181 38.3787C68.6225 40.1057 71.144 41.2458 74.0507 41.6063C74.4942 41.665 74.7978 41.9668 74.716 42.2854C74.6343 42.5704 74.2841 42.7716 73.8989 42.7716Z" fill="white"/>
<path d="M276.819 29.6515C276.481 29.6515 276.154 29.4923 276.049 29.2491C275.909 28.939 276.142 28.612 276.562 28.503C278.255 28.1006 279.621 27.2455 280.415 26.1053C281.208 24.9652 281.337 23.6658 280.776 22.4502C280.216 21.2346 279.025 20.2537 277.438 19.6836C275.85 19.1135 274.041 19.0213 272.348 19.4237C271.916 19.5243 271.461 19.3567 271.321 19.0549C271.181 18.7447 271.414 18.4177 271.835 18.3087C273.936 17.8057 276.189 17.9231 278.173 18.6357C280.158 19.3483 281.629 20.5723 282.329 22.0813C283.029 23.5903 282.866 25.2083 281.874 26.6335C280.882 28.0587 279.177 29.115 277.076 29.618C276.994 29.6432 276.901 29.6515 276.819 29.6515Z" fill="white"/>
<path d="M159.244 30.4396C159.034 30.4396 158.835 30.3809 158.672 30.2719C158.345 30.0456 158.345 29.6767 158.66 29.4419L171.081 20.2537C171.396 20.0189 171.909 20.0189 172.236 20.2453C172.563 20.4716 172.563 20.8405 172.248 21.0753L159.827 30.2635C159.676 30.3725 159.454 30.4396 159.244 30.4396Z" fill="white"/>
<path d="M88.8172 177.485C88.6771 177.259 88.5837 176.764 88.5837 176.764L87.3697 164.91L99.0549 173.327L99.0315 173.335C99.2883 173.503 99.5218 173.696 99.6619 173.922C100.537 175.297 98.8214 177.217 95.8213 178.198C92.8329 179.179 89.6927 178.86 88.8172 177.485Z" fill="white"/>
<path d="M92.3776 179.363C90.3931 179.363 88.7472 178.793 88.0701 177.729C87.8833 177.443 87.7899 176.974 87.7666 176.84L86.5409 164.96C86.5175 164.717 86.7043 164.483 87.0195 164.382C87.3347 164.281 87.6965 164.332 87.9417 164.499L99.6269 172.916C99.6736 172.95 99.7086 172.983 99.7436 173.025C100.035 173.235 100.246 173.453 100.397 173.679C101.483 175.373 99.6152 177.594 96.1598 178.735C94.8757 179.154 93.5683 179.363 92.3776 179.363ZM89.5643 177.242C90.2414 178.307 92.9496 178.5 95.4944 177.661C98.0276 176.831 99.6035 175.23 98.9264 174.166C98.8447 174.04 98.7047 173.914 98.4829 173.772C98.4245 173.73 98.3661 173.679 98.3194 173.629L88.3386 166.444L89.4009 176.722C89.4359 176.882 89.5059 177.158 89.5643 177.242Z" fill="white"/>
<path d="M92.6579 173.21C95.658 172.229 98.7865 172.548 99.6737 173.922C100.549 175.297 98.8332 177.209 95.8331 178.198C92.833 179.179 89.7045 178.86 88.8173 177.485C87.9418 176.111 89.6578 174.191 92.6579 173.21Z" fill="white"/>
<path d="M92.3893 179.355C92.0625 179.355 91.7356 179.338 91.4204 179.305C89.8095 179.145 88.6305 178.584 88.0818 177.728C87.5332 176.873 87.7199 175.867 88.6071 174.878C89.4126 173.981 90.7317 173.193 92.3193 172.673C95.7747 171.541 99.3351 171.977 100.409 173.679C100.958 174.534 100.771 175.54 99.8837 176.53C99.0783 177.427 97.7592 178.215 96.1716 178.734C94.9225 179.137 93.6151 179.355 92.3893 179.355ZM96.1132 173.227C95.156 173.227 94.0587 173.394 92.9964 173.746C91.6889 174.174 90.615 174.803 89.9729 175.524C89.4009 176.161 89.2608 176.773 89.5644 177.251C89.8679 177.728 90.6033 178.047 91.6422 178.156C92.8096 178.273 94.1754 178.106 95.4828 177.67C96.7902 177.242 97.8642 176.613 98.5063 175.892C99.0783 175.264 99.2183 174.652 98.9148 174.174C98.5296 173.553 97.444 173.227 96.1132 173.227Z" fill="white"/>
<path d="M319.229 175.104C318.961 175.104 318.692 175.004 318.54 174.828L308.886 163.887C308.641 163.611 308.758 163.25 309.143 163.074C309.529 162.898 310.031 162.982 310.276 163.259L319.93 174.199C320.175 174.476 320.058 174.836 319.673 175.012C319.533 175.079 319.381 175.104 319.229 175.104Z" fill="white"/>
<path d="M276.807 172.606C276.469 172.606 276.142 172.447 276.037 172.204C275.897 171.894 276.13 171.567 276.55 171.466C280.309 170.569 282.352 167.635 281.103 164.935C280.496 163.627 279.212 162.563 277.496 161.951C275.78 161.33 273.831 161.23 272.009 161.666C271.578 161.766 271.122 161.599 270.982 161.297C270.842 160.987 271.076 160.66 271.496 160.559C273.725 160.023 276.119 160.148 278.231 160.903C280.344 161.657 281.909 162.965 282.656 164.566C283.403 166.176 283.228 167.886 282.177 169.404C281.127 170.921 279.305 172.044 277.076 172.581C276.982 172.598 276.889 172.606 276.807 172.606Z" fill="white"/>
<path d="M159.22 173.042C159.01 173.042 158.812 172.983 158.648 172.874C158.322 172.648 158.322 172.279 158.637 172.045L171.104 162.823C171.419 162.588 171.933 162.58 172.26 162.814C172.587 163.041 172.587 163.41 172.271 163.644L159.804 172.866C159.641 172.983 159.43 173.042 159.22 173.042Z" fill="white"/>
<path d="M206.171 43.61C205.937 43.61 205.716 43.5429 205.552 43.4004L202.926 41.1788C202.634 40.9357 202.68 40.5584 203.019 40.3488C203.369 40.1392 203.883 40.1728 204.175 40.4159L206.801 42.6375C207.093 42.8806 207.046 43.2579 206.708 43.4675C206.544 43.5597 206.358 43.61 206.171 43.61Z" fill="white"/>
<path d="M197.474 36.2577C197.241 36.2577 197.019 36.1906 196.856 36.0481L194.229 33.8265C193.937 33.5833 193.984 33.2061 194.322 32.9965C194.661 32.7869 195.186 32.8205 195.478 33.0636L198.105 35.2852C198.396 35.5283 198.35 35.9056 198.011 36.1152C197.848 36.2158 197.661 36.2577 197.474 36.2577Z" fill="white"/>
<path d="M197.568 44.7335C197.474 44.7335 197.381 44.7251 197.288 44.7C196.867 44.591 196.646 44.2557 196.797 43.9538L198.163 41.2125C198.315 40.9107 198.782 40.7514 199.202 40.8604C199.622 40.9693 199.844 41.3047 199.692 41.6065L198.327 44.3479C198.222 44.591 197.906 44.7335 197.568 44.7335Z" fill="white"/>
<path d="M202.086 35.6542C201.992 35.6542 201.899 35.6458 201.806 35.6206C201.385 35.5116 201.163 35.1763 201.315 34.8745L202.681 32.1331C202.833 31.8313 203.3 31.672 203.72 31.781C204.14 31.89 204.362 32.2253 204.21 32.5271L202.844 35.2685C202.728 35.5033 202.413 35.6542 202.086 35.6542Z" fill="white"/>
<path d="M191.906 39.9548C191.521 39.9548 191.171 39.7536 191.101 39.477C191.019 39.1584 191.311 38.8482 191.754 38.7979L195.747 38.2781C196.19 38.2195 196.622 38.429 196.692 38.7476C196.774 39.0662 196.482 39.3764 196.039 39.4267L192.046 39.9464C192 39.9464 191.953 39.9548 191.906 39.9548Z" fill="white"/>
<path d="M205.121 38.2195C204.735 38.2195 204.385 38.0183 204.315 37.7416C204.233 37.423 204.525 37.1129 204.969 37.0626L208.961 36.5428C209.405 36.4841 209.837 36.6937 209.907 37.0123C209.988 37.3308 209.697 37.641 209.253 37.6913L205.261 38.2111C205.214 38.2195 205.167 38.2195 205.121 38.2195Z" fill="white"/>
<path d="M263.512 119.43C263.22 119.43 262.94 119.321 262.788 119.128L257.044 111.575C256.823 111.29 256.974 110.938 257.371 110.778C257.768 110.619 258.259 110.728 258.48 111.013L263.838 118.047L273.633 114.199C274.029 114.039 274.52 114.148 274.741 114.433C274.963 114.718 274.812 115.071 274.415 115.23L263.897 119.355C263.78 119.405 263.64 119.43 263.512 119.43Z" fill="white"/>
<path d="M233.067 160.576C233.055 160.576 233.055 160.576 233.067 160.576C232.612 160.576 232.25 160.308 232.25 159.981L232.343 152.696C232.343 152.494 232.483 152.31 232.717 152.209C232.95 152.1 233.242 152.092 233.499 152.167L240.83 154.54L240.911 148.152C240.911 147.833 241.285 147.573 241.729 147.573C241.729 147.573 241.729 147.573 241.74 147.573C242.196 147.573 242.557 147.842 242.546 148.168L242.452 155.462C242.452 155.663 242.312 155.848 242.079 155.948C241.845 156.057 241.554 156.074 241.297 155.99L233.966 153.618L233.884 160.006C233.872 160.316 233.51 160.576 233.067 160.576Z" fill="white"/>
<path d="M272.395 78.2923C272.208 78.2923 272.033 78.2504 271.881 78.1666L265.554 74.5281C265.204 74.3269 265.146 73.9581 265.426 73.7066C265.706 73.4551 266.219 73.4132 266.57 73.6144L272.255 76.8923L276.784 72.8263C276.924 72.7006 277.123 72.6251 277.333 72.6083C277.543 72.5916 277.765 72.6335 277.928 72.7341L283.613 76.012L288.142 71.946C288.422 71.6945 288.936 71.6526 289.286 71.8538C289.637 72.055 289.695 72.4239 289.415 72.6754L284.372 77.2025C284.232 77.3198 284.033 77.4037 283.823 77.4204C283.613 77.4372 283.391 77.3953 283.228 77.2947L277.543 74.0168L273.013 78.0827C272.873 78.2085 272.675 78.2839 272.465 78.3007C272.453 78.2923 272.418 78.2923 272.395 78.2923Z" fill="white"/>
<path d="M279.318 142.912C279.014 142.912 278.734 142.795 278.582 142.585L275.197 137.756L268.461 140.187C268.053 140.33 267.562 140.213 267.364 139.927L263.979 135.09L257.243 137.521C256.834 137.664 256.344 137.555 256.146 137.262L252.76 132.433L246.025 134.864C245.616 135.006 245.126 134.897 244.927 134.604C244.729 134.319 244.881 133.958 245.289 133.816L252.749 131.116C253.146 130.966 253.647 131.083 253.846 131.376L257.231 136.214L263.967 133.782C264.364 133.632 264.866 133.749 265.064 134.042L268.449 138.871L275.185 136.44C275.594 136.289 276.072 136.406 276.282 136.7L280.041 142.057C280.24 142.342 280.088 142.702 279.679 142.845C279.574 142.895 279.446 142.912 279.318 142.912Z" fill="white"/>
<path d="M97.9694 151.782C97.339 151.782 96.7086 151.681 96.1133 151.48C95.051 151.119 94.2572 150.491 93.8486 149.703C93.6969 149.401 93.9187 149.057 94.3389 148.948C94.7592 148.839 95.2261 148.998 95.3895 149.3C95.6347 149.795 96.1366 150.189 96.802 150.415C97.4674 150.642 98.2145 150.667 98.9033 150.482C100.327 150.113 101.063 148.982 100.549 147.959C100.397 147.657 100.619 147.313 101.04 147.204C101.46 147.095 101.927 147.255 102.09 147.556C102.907 149.191 101.728 150.994 99.4636 151.58C98.9733 151.715 98.4713 151.782 97.9694 151.782Z" fill="white"/>
<path d="M101.32 148.345C100.981 148.345 100.666 148.194 100.549 147.959C99.7905 146.45 98.1095 145.788 96.8254 145.486C95.0161 145.067 92.8915 145.134 90.8486 145.662C90.4284 145.771 89.9614 145.612 89.798 145.31C89.6462 145.008 89.868 144.673 90.2883 144.555C92.6697 143.935 95.1678 143.868 97.3274 144.362C99.6271 144.891 101.32 146.022 102.09 147.548C102.242 147.85 102.02 148.194 101.6 148.303C101.507 148.336 101.413 148.345 101.32 148.345Z" fill="white"/>
<path d="M94.6193 150.088C94.2807 150.088 93.9655 149.937 93.8488 149.703C93.0784 148.177 93.3702 146.525 94.6659 145.067C95.88 143.7 97.8645 142.602 100.246 141.99C100.666 141.881 101.133 142.04 101.296 142.342C101.448 142.644 101.226 142.987 100.806 143.096C98.7633 143.625 97.0707 144.555 96.0434 145.704C95.3197 146.517 94.6193 147.8 95.378 149.309C95.5298 149.61 95.308 149.954 94.8877 150.063C94.806 150.071 94.7126 150.088 94.6193 150.088Z" fill="white"/>
<path d="M100.526 143.122C100.187 143.122 99.8722 142.971 99.7555 142.736C99.6037 142.434 99.8255 142.099 100.246 141.981C101.436 141.671 102.686 141.529 103.935 141.545C104.39 141.554 104.74 141.822 104.74 142.141C104.728 142.468 104.367 142.719 103.911 142.719C102.861 142.702 101.798 142.828 100.806 143.088C100.713 143.113 100.619 143.122 100.526 143.122Z" fill="white"/>
<path d="M88.012 154.364C87.3816 154.364 86.7513 154.263 86.1559 154.062C85.0936 153.701 84.2998 153.073 83.8913 152.285C83.7395 151.983 83.9613 151.639 84.3816 151.53C84.8018 151.421 85.2687 151.58 85.4322 151.882C85.6773 152.377 86.1793 152.771 86.8447 152.997C87.5101 153.224 88.2572 153.249 88.9459 153.064C90.3701 152.695 91.1055 151.564 90.5919 150.541C90.4401 150.239 90.6619 149.904 91.0822 149.786C91.5024 149.677 91.981 149.837 92.1328 150.138C92.9499 151.773 91.7709 153.576 89.5062 154.163C89.0159 154.297 88.514 154.364 88.012 154.364Z" fill="white"/>
<path d="M91.3621 150.935C91.0236 150.935 90.7084 150.784 90.5917 150.549C89.8329 149.04 88.1519 148.378 86.8678 148.076C85.0584 147.657 82.9339 147.724 80.891 148.252C80.4708 148.361 80.0038 148.202 79.8404 147.9C79.6886 147.598 79.9104 147.263 80.3307 147.146C82.7121 146.525 85.2102 146.458 87.3698 146.953C89.6695 147.481 91.3621 148.613 92.1326 150.139C92.2843 150.44 92.0625 150.784 91.6423 150.893C91.5489 150.918 91.4555 150.935 91.3621 150.935Z" fill="white"/>
<path d="M84.6618 152.67C84.3232 152.67 84.0081 152.52 83.8913 152.285C83.1209 150.759 83.4127 149.107 84.7085 147.649C85.9225 146.282 87.907 145.184 90.2884 144.572C90.7086 144.463 91.1756 144.622 91.339 144.924C91.4908 145.226 91.269 145.57 90.8487 145.679C88.8059 146.207 87.1132 147.137 86.0859 148.286C85.3622 149.099 84.6618 150.382 85.4205 151.891C85.5723 152.193 85.3505 152.536 84.9303 152.645C84.8485 152.662 84.7552 152.67 84.6618 152.67Z" fill="white"/>
<path d="M77.6461 149.543C77.4126 149.543 77.1908 149.476 77.0274 149.342C76.7356 149.099 76.7706 148.73 77.1091 148.512C78.0663 147.917 79.152 147.464 80.3427 147.154C80.7629 147.045 81.2415 147.204 81.3933 147.506C81.545 147.808 81.3233 148.143 80.903 148.261C79.9108 148.521 79.0002 148.906 78.1831 149.401C78.0196 149.493 77.8329 149.543 77.6461 149.543Z" fill="white"/>
<path d="M212.767 75.2576C212.603 75.2576 212.452 75.2408 212.288 75.2073C211.448 75.0145 210.981 74.3689 211.249 73.7653C211.518 73.1617 212.405 72.8264 213.245 73.0192C214.086 73.212 214.553 73.8575 214.284 74.4612C214.074 74.9474 213.444 75.2576 212.767 75.2576ZM212.778 74.0839C212.767 74.0839 212.743 74.0923 212.743 74.1007L212.545 74.6456L212.778 74.0839Z" fill="white"/>
<path d="M66.6729 92.167C66.5094 92.167 66.346 92.1502 66.1826 92.1083C65.3187 91.9155 64.8401 91.2448 65.1086 90.6245C65.237 90.3227 65.5289 90.0795 65.9141 89.937C66.2993 89.7945 66.7429 89.761 67.1632 89.8616C67.5834 89.9538 67.9219 90.1634 68.1204 90.44C68.3188 90.7167 68.3539 91.0352 68.2254 91.3371C68.0153 91.8484 67.3616 92.167 66.6729 92.167Z" fill="white"/>
<path d="M210.024 156.736C209.86 156.736 209.697 156.72 209.533 156.678C208.681 156.485 208.202 155.823 208.471 155.211C208.599 154.909 208.891 154.666 209.276 154.523C209.662 154.381 210.105 154.355 210.514 154.448C210.922 154.54 211.261 154.75 211.471 155.026C211.67 155.303 211.705 155.621 211.576 155.915C211.448 156.217 211.156 156.46 210.771 156.602C210.537 156.694 210.28 156.736 210.024 156.736ZM210.024 155.563L209.778 156.124L210.024 155.563Z" fill="white"/>
<path d="M126.663 64.7866C126.5 64.7866 126.336 64.7699 126.185 64.7363C125.776 64.6441 125.449 64.4429 125.251 64.1746C125.052 63.9064 125.017 63.5962 125.146 63.3027C125.274 63.0093 125.554 62.7746 125.928 62.6321C126.301 62.4896 126.733 62.4644 127.142 62.5566C127.55 62.6488 127.877 62.85 128.076 63.1183C128.274 63.3866 128.309 63.6968 128.181 63.9902C128.052 64.2836 127.772 64.5184 127.399 64.6609C127.165 64.7447 126.908 64.7866 126.663 64.7866ZM126.663 63.6129C126.64 63.6129 126.628 63.6213 126.616 63.6381L126.675 63.6213C126.663 63.6129 126.663 63.6129 126.663 63.6129Z" fill="white"/>
<path d="M331.358 65.7506C331.194 65.7506 331.031 65.7339 330.856 65.692C330.436 65.5997 330.086 65.3902 329.887 65.1051C329.689 64.8201 329.642 64.5015 329.782 64.1997C329.91 63.8979 330.202 63.6548 330.599 63.5039C330.996 63.353 331.44 63.3278 331.86 63.4284C332.735 63.6296 333.214 64.2919 332.934 64.9207C332.712 65.4237 332.058 65.7506 331.358 65.7506ZM331.37 64.5602L331.346 64.5686C331.358 64.577 331.37 64.5686 331.37 64.5602Z" fill="white"/>
<path d="M321.645 81.0505H307.777C307.322 81.0505 306.96 80.7906 306.96 80.4636C306.96 80.1367 307.322 79.8768 307.777 79.8768H321.645C322.101 79.8768 322.463 80.1367 322.463 80.4636C322.463 80.7906 322.089 81.0505 321.645 81.0505Z" fill="white"/>
<path d="M314.711 86.0303C314.256 86.0303 313.894 85.7705 313.894 85.4435V75.484C313.894 75.157 314.256 74.8971 314.711 74.8971C315.166 74.8971 315.528 75.157 315.528 75.484V85.4435C315.528 85.7705 315.155 86.0303 314.711 86.0303Z" fill="white"/>
<path d="M195.969 148.378H182.404C181.949 148.378 181.587 148.118 181.587 147.791C181.587 147.464 181.949 147.204 182.404 147.204H195.969C196.424 147.204 196.786 147.464 196.786 147.791C196.786 148.11 196.424 148.378 195.969 148.378Z" fill="white"/>
<path d="M189.186 153.249C188.731 153.249 188.369 152.989 188.369 152.662V142.92C188.369 142.593 188.731 142.334 189.186 142.334C189.641 142.334 190.003 142.593 190.003 142.92V152.662C190.003 152.989 189.63 153.249 189.186 153.249Z" fill="white"/>
<path d="M192.63 62.9339C192.42 62.9339 192.21 62.8752 192.046 62.7578C191.731 62.5315 191.731 62.1542 192.046 61.9279L201.747 54.9612C202.062 54.7349 202.587 54.7349 202.903 54.9612C203.218 55.1876 203.218 55.5648 202.903 55.7912L193.202 62.7578C193.05 62.8752 192.84 62.9339 192.63 62.9339Z" fill="white"/>
<path d="M202.331 62.9339C202.12 62.9339 201.91 62.8752 201.747 62.7578L192.046 55.7912C191.731 55.5648 191.731 55.1876 192.046 54.9612C192.361 54.7349 192.887 54.7349 193.202 54.9612L202.903 61.9279C203.218 62.1542 203.218 62.5315 202.903 62.7578C202.751 62.8752 202.541 62.9339 202.331 62.9339Z" fill="white"/>
<path d="M121.503 47.416C121.282 47.416 121.083 47.3574 120.92 47.24L113.122 41.6398C112.807 41.4135 112.807 41.0362 113.122 40.8099L120.92 35.2097C121.223 34.9918 121.772 34.9918 122.075 35.2097L129.873 40.8099C130.188 41.0362 130.188 41.4135 129.873 41.6398L122.075 47.24C121.924 47.349 121.713 47.416 121.503 47.416ZM114.849 41.2207L121.492 45.9909L128.134 41.2207L121.503 36.4505L114.849 41.2207Z" fill="white"/>
</g>
</g>
<defs>
<filter id="filter0_ddddd_349_3473" x="7.64502e-06" y="-1.72013e-05" width="398" height="226.65" filterUnits="userSpaceOnUse" color-interpolation-filters="sRGB">
<feFlood flood-opacity="0" result="BackgroundImageFix"/>
<feColorMatrix in="SourceAlpha" type="matrix" values="0 0 0 0 0 0 0 0 0 0 0 0 0 0 0 0 0 0 127 0" result="hardAlpha"/>
<feOffset dy="1.13458"/>
<feGaussianBlur stdDeviation="1.16225"/>
<feColorMatrix type="matrix" values="0 0 0 0 0.32549 0 0 0 0 0.52549 0 0 0 0 0.894118 0 0 0 0.0337375 0"/>
<feBlend mode="normal" in2="BackgroundImageFix" result="effect1_dropShadow_349_3473"/>
<feColorMatrix in="SourceAlpha" type="matrix" values="0 0 0 0 0 0 0 0 0 0 0 0 0 0 0 0 0 0 127 0" result="hardAlpha"/>
<feOffset dy="2.72654"/>
<feGaussianBlur stdDeviation="2.79304"/>
<feColorMatrix type="matrix" values="0 0 0 0 0.32549 0 0 0 0 0.52549 0 0 0 0 0.894118 0 0 0 0.0484671 0"/>
<feBlend mode="normal" in2="effect1_dropShadow_349_3473" result="effect2_dropShadow_349_3473"/>
<feColorMatrix in="SourceAlpha" type="matrix" values="0 0 0 0 0 0 0 0 0 0 0 0 0 0 0 0 0 0 127 0" result="hardAlpha"/>
<feOffset dy="5.13384"/>
<feGaussianBlur stdDeviation="5.25905"/>
<feColorMatrix type="matrix" values="0 0 0 0 0.32549 0 0 0 0 0.52549 0 0 0 0 0.894118 0 0 0 0.06 0"/>
<feBlend mode="normal" in2="effect2_dropShadow_349_3473" result="effect3_dropShadow_349_3473"/>
<feColorMatrix in="SourceAlpha" type="matrix" values="0 0 0 0 0 0 0 0 0 0 0 0 0 0 0 0 0 0 127 0" result="hardAlpha"/>
<feOffset dy="9.15789"/>
<feGaussianBlur stdDeviation="9.38125"/>
<feColorMatrix type="matrix" values="0 0 0 0 0.32549 0 0 0 0 0.52549 0 0 0 0 0.894118 0 0 0 0.0715329 0"/>
<feBlend mode="normal" in2="effect3_dropShadow_349_3473" result="effect4_dropShadow_349_3473"/>
<feColorMatrix in="SourceAlpha" type="matrix" values="0 0 0 0 0 0 0 0 0 0 0 0 0 0 0 0 0 0 127 0" result="hardAlpha"/>
<feOffset dy="17.1288"/>
<feGaussianBlur stdDeviation="17.5466"/>
<feColorMatrix type="matrix" values="0 0 0 0 0.32549 0 0 0 0 0.52549 0 0 0 0 0.894118 0 0 0 0.0862625 0"/>
<feBlend mode="normal" in2="effect4_dropShadow_349_3473" result="effect5_dropShadow_349_3473"/>
<feBlend mode="normal" in="SourceGraphic" in2="effect5_dropShadow_349_3473" result="shape"/>
</filter>
</defs>
</svg>
