<svg width="89" height="72" viewBox="0 0 89 72" fill="none" xmlns="http://www.w3.org/2000/svg">
<mask id="mask0_342_5622" style="mask-type:alpha" maskUnits="userSpaceOnUse" x="0" y="0" width="89" height="73">
<path d="M0 0H88.7799V72.4444H0V0Z" fill="#34A853"/>
</mask>
<g mask="url(#mask0_342_5622)">
<g opacity="0.06">
<path d="M23.8136 38.547L25.6029 35.8911L26.2565 38.1093L28.3966 37.5444L28.7752 39.6018L31.1902 39.2016L29.4048 41.8575L23.8136 38.547Z" fill="#0D0D26"/>
<path d="M29.4041 42.1191C29.3523 42.1191 29.3005 42.1041 29.2567 42.0779L23.6694 38.7674C23.5379 38.6888 23.5021 38.528 23.5818 38.4045L25.3671 35.7486C25.4269 35.6626 25.5345 35.614 25.6421 35.6289C25.7497 35.6439 25.8414 35.7187 25.8693 35.8197L26.4471 37.7873L28.3202 37.2935C28.3959 37.2748 28.4796 37.2861 28.5433 37.3235C28.6111 37.3646 28.6549 37.4282 28.6709 37.4993L29.0016 39.2986L31.1417 38.9432C31.2493 38.9245 31.3609 38.9694 31.4206 39.0554C31.4804 39.1415 31.4844 39.2537 31.4246 39.3397L29.6393 41.9956C29.5875 42.0742 29.4958 42.1191 29.4041 42.1191ZM24.1995 38.4644L29.3165 41.4944L30.6156 39.5604L28.8223 39.8597C28.7506 39.8709 28.6749 39.8559 28.6151 39.8148C28.5553 39.7736 28.5115 39.7138 28.4995 39.6465L28.1727 37.8734L26.3276 38.3596C26.2558 38.3784 26.1801 38.3709 26.1164 38.3372C26.0526 38.3035 26.0048 38.2474 25.9848 38.1801L25.4986 36.5304L24.1995 38.4644Z" fill="#0D0D26"/>
<path d="M6.70812 7.55586C6.65631 7.45484 6.62841 7.23411 6.62841 7.23411L6.20991 1.91408L10.2236 5.68898L10.2156 5.69272C10.3033 5.76755 10.383 5.8536 10.4348 5.95461C10.7377 6.57191 10.1478 7.4324 9.11951 7.87386C8.0872 8.31532 7.00706 8.17316 6.70812 7.55586Z" fill="#0D0D26"/>
<path d="M7.93178 8.39299C7.25031 8.39299 6.6884 8.13862 6.45726 7.66355C6.39349 7.53263 6.36161 7.32689 6.35364 7.2633L5.93121 1.93279C5.92324 1.82431 5.987 1.71957 6.09461 1.67468C6.20221 1.62979 6.32575 1.6485 6.40943 1.72705L10.4225 5.50142C10.4385 5.51639 10.4504 5.53135 10.4624 5.55005C10.562 5.64357 10.6337 5.74083 10.6855 5.84557C10.8729 6.22712 10.8091 6.67975 10.5062 7.12115C10.2312 7.52515 9.77693 7.87677 9.23095 8.1087C8.78461 8.30321 8.33827 8.39299 7.93178 8.39299ZM6.96338 7.44285C7.19452 7.91792 8.12705 8.0077 8.99981 7.63363C9.45014 7.43911 9.81678 7.15856 10.036 6.83686C10.2312 6.55256 10.283 6.27575 10.1754 6.06253C10.1475 6.00642 10.0997 5.94657 10.024 5.88298C10.0041 5.86427 9.98416 5.84183 9.96821 5.81938L6.54095 2.5949L6.9036 7.20719C6.91556 7.282 6.94345 7.40544 6.96338 7.44285Z" fill="#0D0D26"/>
<path d="M8.02417 5.63608C9.05249 5.19462 10.1286 5.33678 10.4316 5.95409C10.7345 6.57139 10.1446 7.43187 9.11626 7.87334C8.08794 8.3148 7.01178 8.17263 6.70887 7.55533C6.40595 6.93429 6.99584 6.07755 8.02417 5.63608Z" fill="#0D0D26"/>
<path d="M7.93246 8.38965C7.81687 8.38965 7.70527 8.38217 7.59765 8.3672C7.04762 8.29238 6.63709 8.04172 6.45374 7.66011C6.26641 7.27851 6.33018 6.82582 6.6331 6.38435C6.90812 5.9803 7.36249 5.62863 7.90854 5.39667C9.0963 4.88786 10.3159 5.08615 10.6866 5.84562C11.0573 6.60509 10.4196 7.60025 9.23181 8.10906C8.80135 8.29612 8.35096 8.38965 7.93246 8.38965ZM8.13972 5.87555C7.68933 6.07009 7.32264 6.35068 7.10342 6.67243C6.90812 6.95676 6.8563 7.23361 6.96392 7.44686C7.06755 7.66011 7.32264 7.80602 7.68135 7.85466C8.08392 7.90703 8.55423 7.83221 9.00064 7.63766C9.87352 7.26354 10.4116 6.54523 10.1804 6.06635C9.94526 5.58747 9.01259 5.50142 8.13972 5.87555Z" fill="#0D0D26"/>
<path d="M83.7077 60.2362L80.9934 59.3757L80.4314 56.7419L82.5757 54.9685L85.29 55.8253L85.856 58.4591L83.7077 60.2362Z" fill="#0D0D26"/>
<path d="M83.707 60.4981C83.6751 60.4981 83.6472 60.4943 83.6193 60.4831L80.905 59.6264C80.8093 59.5964 80.7416 59.5216 80.7216 59.4281L80.1557 56.7943C80.1357 56.7007 80.1716 56.6072 80.2434 56.5473L82.3917 54.7703C82.4674 54.7067 82.571 54.688 82.6667 54.7179L85.381 55.5746C85.4766 55.6046 85.5444 55.6794 85.5643 55.7729L86.1303 58.4067C86.1502 58.5003 86.1144 58.5938 86.0426 58.6537L83.8943 60.4307C83.8385 60.4756 83.7707 60.4981 83.707 60.4981ZM81.2358 59.1774L83.6432 59.9406L85.5484 58.3656L85.0462 56.0273L82.6388 55.2641L80.7336 56.8392L81.2358 59.1774Z" fill="#0D0D26"/>
<path d="M83.7078 60.4979C83.5763 60.4979 83.4607 60.4119 83.4328 60.2884L82.8987 57.8043L80.3399 56.9961C80.1924 56.9513 80.1167 56.8016 80.1645 56.6632C80.2123 56.5248 80.3718 56.4537 80.5192 56.4986L83.2335 57.3553C83.3292 57.3852 83.3969 57.4601 83.4169 57.5536L83.9829 60.1874C84.0147 60.3296 83.9151 60.468 83.7636 60.4942C83.7437 60.4942 83.7238 60.4979 83.7078 60.4979Z" fill="#0D0D26"/>
<path d="M83.1408 57.8642C83.0651 57.8642 82.9854 57.8343 82.9296 57.7744C82.826 57.6659 82.8379 57.5013 82.9535 57.404L85.1018 55.627C85.2174 55.5334 85.3928 55.5409 85.4964 55.6494C85.6 55.7579 85.5881 55.9225 85.4725 56.0198L83.3242 57.7969C83.2724 57.8418 83.2086 57.8642 83.1408 57.8642Z" fill="#0D0D26"/>
<path d="M50.0729 47.9436L50.0769 47.9511C50.1088 47.9174 50.1406 47.8838 50.1765 47.8538C50.2243 47.8127 50.2722 47.7753 50.332 47.7453C50.3798 47.7229 50.4475 47.7042 50.5113 47.6892C50.5392 47.6817 50.5711 47.6743 50.599 47.6705C50.6269 47.663 50.6508 47.6593 50.6508 47.6593L50.7823 47.663C50.8023 47.663 50.8222 47.663 50.8461 47.6668L54.4253 47.7827L52.4962 50.6149C52.4843 50.6336 52.4723 50.6485 52.4604 50.6672L52.3886 50.772L52.3846 50.7645C52.3527 50.7982 52.3208 50.8319 52.285 50.8618C52.2371 50.9029 52.1893 50.9403 52.1295 50.9703C52.0817 50.9927 52.01 51.0114 51.9462 51.0264C51.9183 51.0339 51.8904 51.0414 51.8585 51.0451C51.8306 51.0526 51.8067 51.0563 51.8067 51.0563L51.6752 51.0526C51.6552 51.0526 51.6353 51.0526 51.6114 51.0488L48.0322 50.9329L49.9613 48.1008C49.9732 48.082 49.9852 48.0671 49.9972 48.0484L50.0729 47.9436Z" fill="#0D0D26"/>
<path d="M51.8112 51.3102C51.8072 51.3102 51.8032 51.3102 51.8032 51.3102L51.6717 51.3065C51.6318 51.3065 51.6079 51.3065 51.584 51.3027L48.0332 51.1905C47.9336 51.1868 47.8419 51.1344 47.7941 51.0521C47.7463 50.9698 47.7503 50.8688 47.8061 50.7903L49.7349 47.9586C49.7349 47.9548 49.7588 47.9249 49.7588 47.9249L49.8385 47.8052C49.8584 47.7753 49.8863 47.7491 49.9142 47.7304C49.9381 47.7079 49.962 47.6817 49.9899 47.663C50.0298 47.6256 50.1015 47.5695 50.1972 47.5209C50.1972 47.5209 50.2012 47.5209 50.2012 47.5171C50.2609 47.4872 50.3366 47.461 50.4442 47.4386C50.4961 47.4236 50.5319 47.4161 50.5638 47.4124L50.5957 47.4049C50.6156 47.4012 50.6435 47.3974 50.6594 47.4012L50.791 47.4049C50.8308 47.4049 50.8547 47.4049 50.8747 47.4087L54.4294 47.5246C54.5291 47.5284 54.6207 47.5807 54.6686 47.663C54.7164 47.7453 54.7124 47.8463 54.6566 47.9249L52.7278 50.7529C52.7278 50.7529 52.7158 50.7716 52.7039 50.7903L52.6242 50.9062C52.6042 50.9362 52.5763 50.9623 52.5484 50.981C52.5245 51.0072 52.5006 51.0297 52.4727 51.0521C52.4129 51.1082 52.3492 51.1531 52.2774 51.1868C52.2695 51.1905 52.2615 51.1943 52.2575 51.198C52.2017 51.2242 52.126 51.2504 52.0224 51.2766C51.9706 51.2915 51.9387 51.2953 51.9028 51.3027L51.867 51.3102C51.847 51.3102 51.8271 51.3102 51.8112 51.3102ZM48.5393 50.6818L51.6279 50.7828L51.6797 51.0484L51.6876 50.7865L51.7873 50.7903L51.855 50.7753C51.9467 50.7529 51.9825 50.7416 51.9945 50.7342C51.9985 50.7304 52.0025 50.7304 52.0064 50.7267C52.0304 50.7155 52.0583 50.693 52.0941 50.6631C52.126 50.6369 52.1459 50.6145 52.1659 50.592C52.1738 50.5845 52.1818 50.5733 52.1898 50.5658L52.2216 50.5209L52.2456 50.5284C52.2575 50.5209 52.2735 50.5135 52.2894 50.5097L52.2495 50.4873L53.9233 48.0259L50.8348 47.9249L50.783 47.6593L50.775 47.9211L50.6754 47.9174L50.6076 47.9324C50.508 47.9548 50.4721 47.9698 50.4642 47.9735C50.4642 47.9735 50.4602 47.9735 50.4602 47.9773C50.4323 47.9922 50.4044 48.0109 50.3685 48.0446C50.3366 48.0708 50.3167 48.0932 50.2968 48.1157C50.2888 48.1231 50.2809 48.1344 50.2729 48.1418L50.241 48.1867L50.2211 48.1793C50.2051 48.1867 50.1932 48.1942 50.1772 48.198L50.2211 48.2241L48.5393 50.6818Z" fill="#0D0D26"/>
<path d="M51.7314 51.3143C51.4803 51.3143 51.2173 51.2432 50.9502 51.1011C50.5277 50.8766 50.1491 50.4912 49.8821 50.0161C49.619 49.541 49.4954 49.0322 49.5353 48.5757C49.5791 48.0782 49.8143 47.7003 50.1969 47.5132C50.3324 47.4459 50.5038 47.4945 50.5756 47.6217C50.6473 47.7489 50.5955 47.9098 50.46 47.9771C50.181 48.1156 50.1132 48.441 50.0973 48.6206C50.0654 48.976 50.165 49.3876 50.3803 49.7729C50.5955 50.1583 50.8984 50.4688 51.2292 50.6446C51.3966 50.7344 51.7235 50.8654 52.0025 50.7269C52.138 50.6596 52.3054 50.7082 52.3811 50.8392C52.4529 50.9664 52.401 51.1235 52.2655 51.1946C52.0981 51.2769 51.9188 51.3143 51.7314 51.3143Z" fill="#0D0D26"/>
<path d="M5.1491 52.0058L6.6555 46.9035L4.52342 47.6628L4.13686 44.7675L2.61053 49.8063L4.69877 49.0619L5.1491 52.0058Z" fill="#0D0D26"/>
<path d="M5.14797 52.2676C5.14 52.2676 5.13601 52.2676 5.12804 52.2676C4.99653 52.2602 4.88893 52.1666 4.86901 52.0432L4.47049 49.4247L2.70505 50.0531C2.60542 50.0905 2.49383 50.0681 2.41811 50.0008C2.34239 49.9334 2.31051 49.8324 2.33841 49.7352L3.86872 44.6964C3.90459 44.5767 4.02813 44.4982 4.15964 44.5057C4.29115 44.5169 4.39875 44.6104 4.41469 44.7338L4.75344 47.3L6.55474 46.6603C6.65437 46.6266 6.76596 46.6454 6.84168 46.7127C6.9174 46.78 6.94928 46.881 6.92138 46.9783L5.41498 52.0806C5.3831 52.1891 5.27151 52.2676 5.14797 52.2676ZM4.69764 48.8C4.74547 48.8 4.79727 48.8112 4.84111 48.8374C4.91284 48.8786 4.96465 48.9459 4.97661 49.0244L5.23564 50.7302L6.23991 47.3336L4.61794 47.9097C4.53824 47.9396 4.44658 47.9284 4.37484 47.891C4.30311 47.8499 4.2513 47.7788 4.24333 47.7002L4.02813 46.0842L3.02785 49.3798L4.59801 48.8224C4.6299 48.8075 4.66576 48.8 4.69764 48.8Z" fill="#0D0D26"/>
<path d="M40.7377 41.6336C40.7377 41.6336 40.3829 40.7544 39.8449 39.4973C39.2829 38.1879 39.9644 37.2825 40.8293 37.1142C41.8019 36.9234 42.3997 37.6978 42.5273 38.5059C43.3204 38.158 44.3368 38.2029 44.7035 39.0708C45.0303 39.8453 44.5999 40.8741 43.1291 41.1584C41.7142 41.4278 40.7377 41.6336 40.7377 41.6336Z" fill="#0D0D26"/>
<path d="M40.738 41.8955C40.6224 41.8955 40.5188 41.8282 40.4789 41.7271C40.4789 41.7271 40.1242 40.8479 39.5861 39.5946C39.2872 38.895 39.2872 38.2216 39.5901 37.6941C39.8372 37.2601 40.2677 36.9571 40.7738 36.8561C41.2083 36.77 41.6228 36.8448 41.9696 37.0693C42.3283 37.3013 42.5953 37.6866 42.7348 38.1505C43.2211 38.0046 43.7113 38.0046 44.1179 38.1543C44.5085 38.3002 44.8034 38.5845 44.9669 38.9736C45.1582 39.4263 45.1263 39.9313 44.8752 40.3616C44.5723 40.8891 43.9704 41.2595 43.1852 41.4129C41.7783 41.6822 40.8018 41.888 40.8018 41.8918C40.7778 41.8955 40.7579 41.8955 40.738 41.8955ZM41.1206 37.3462C41.0449 37.3462 40.9652 37.3536 40.8854 37.3686C40.5427 37.436 40.2477 37.6455 40.0803 37.941C39.8571 38.3301 39.8651 38.8501 40.1042 39.4001C40.4869 40.2905 40.7778 40.9939 40.9134 41.3306C41.284 41.252 42.0692 41.0911 43.0736 40.9003C43.6954 40.7806 44.1577 40.5038 44.3849 40.1147C44.5563 39.8191 44.5763 39.4749 44.4487 39.1681C44.3411 38.9137 44.1617 38.7379 43.9106 38.6444C43.5639 38.5134 43.0936 38.5508 42.6471 38.7454C42.5674 38.7791 42.4758 38.7791 42.3961 38.7379C42.3203 38.7005 42.2645 38.6294 42.2526 38.5471C42.1808 38.0944 41.9536 37.7016 41.6467 37.5033C41.4913 37.3985 41.3159 37.3462 41.1206 37.3462Z" fill="#0D0D26"/>
<path d="M29.1928 27.187C27.9373 27.187 26.901 26.2442 26.8691 25.0582C26.8372 23.8536 27.8576 22.8546 29.137 22.8247C29.7628 22.806 30.3487 23.023 30.7951 23.427C31.2455 23.8274 31.5006 24.3698 31.5165 24.9535C31.5484 26.1581 30.532 27.1571 29.2486 27.187C29.2327 27.187 29.2127 27.187 29.1928 27.187ZM29.1928 23.3485C29.1769 23.3485 29.1649 23.3485 29.149 23.3485C28.6787 23.3597 28.2362 23.543 27.9134 23.861C27.5866 24.1828 27.4152 24.6018 27.4271 25.047C27.451 25.9599 28.2522 26.6894 29.2367 26.6632C30.2092 26.6408 30.9824 25.8776 30.9585 24.9647C30.9386 24.0631 30.1494 23.3485 29.1928 23.3485Z" fill="#0D0D26"/>
<path d="M18.3936 33.5611C18.3458 33.5611 18.2979 33.5499 18.2541 33.5275C17.5845 33.1683 17.1022 32.5884 16.895 31.8888C16.6917 31.1892 16.7873 30.4596 17.166 29.8311C17.5486 29.2026 18.1664 28.7499 18.9117 28.5554C19.6571 28.3608 20.4343 28.4544 21.1039 28.8098C21.2394 28.8809 21.2833 29.0417 21.2075 29.1652C21.1318 29.2924 20.9604 29.3335 20.8289 29.2625C20.2868 28.9744 19.6571 28.8996 19.0592 29.0567C18.4614 29.2138 17.9591 29.5767 17.6522 30.0855C17.0185 31.1331 17.4091 32.4724 18.5291 33.0673C18.6646 33.1384 18.7085 33.2992 18.6327 33.4227C18.5849 33.5125 18.4893 33.5611 18.3936 33.5611Z" fill="#0D0D26"/>
<path d="M34.2143 51.5724C34.1824 51.5724 34.1505 51.5687 34.1186 51.5575C33.9751 51.5088 33.8994 51.3592 33.9512 51.2208C34.3338 50.2219 35.1111 49.4212 36.1354 48.9685C37.1597 48.5159 38.3116 48.4672 39.3758 48.8264C39.5193 48.875 39.595 49.0247 39.5432 49.1631C39.4914 49.2978 39.332 49.3689 39.1845 49.3202C38.2598 49.0097 37.2594 49.0509 36.3706 49.4437C35.4817 49.8365 34.8081 50.5324 34.4733 51.4003C34.4335 51.5051 34.3298 51.5724 34.2143 51.5724Z" fill="#0D0D26"/>
<path d="M85.3055 6.36998C85.2138 6.36998 85.1222 6.32508 85.0704 6.24651L81.9176 1.5812C81.8339 1.45774 81.8738 1.29687 82.0053 1.21831C82.1368 1.13974 82.3082 1.17715 82.3919 1.30061L85.5447 5.96592C85.6284 6.08938 85.5885 6.25026 85.457 6.32882C85.4091 6.35875 85.3573 6.36998 85.3055 6.36998Z" fill="#0D0D26"/>
<path d="M18.6087 45.834C18.5649 45.834 18.521 45.8228 18.4772 45.8041L13.9573 43.5331C13.8218 43.4658 13.77 43.3049 13.8418 43.1777C13.9135 43.0505 14.0849 43.0019 14.2204 43.0692L18.7403 45.3401C18.8758 45.4075 18.9276 45.5684 18.8558 45.6956C18.804 45.7816 18.7084 45.834 18.6087 45.834Z" fill="#0D0D26"/>
<path d="M15.1375 46.8181C15.0936 46.8181 15.0498 46.8069 15.0059 46.7882C14.8704 46.7208 14.8186 46.56 14.8903 46.4328L17.3097 42.1902C17.3814 42.063 17.5528 42.0144 17.6883 42.0817C17.8239 42.1491 17.8757 42.3099 17.8039 42.4371L15.3846 46.6797C15.3328 46.7657 15.2371 46.8181 15.1375 46.8181Z" fill="#0D0D26"/>
<path d="M25.3726 51.6244C25.3049 51.6244 25.2411 51.602 25.1853 51.5571C25.0697 51.4598 25.0617 51.2952 25.1614 51.1867L26.102 50.199C26.2056 50.0905 26.381 50.0793 26.4966 50.1766C26.6122 50.2738 26.6202 50.4384 26.5205 50.5469L25.5799 51.5346C25.5281 51.5945 25.4483 51.6244 25.3726 51.6244Z" fill="#0D0D26"/>
<path d="M22.2598 54.8976C22.192 54.8976 22.1282 54.8752 22.0724 54.8303C21.9569 54.733 21.9489 54.5684 22.0485 54.4599L22.9892 53.4722C23.0928 53.3637 23.2682 53.3563 23.3838 53.4498C23.4993 53.5471 23.5073 53.7117 23.4077 53.8202L22.467 54.8079C22.4112 54.8677 22.3355 54.8976 22.2598 54.8976Z" fill="#0D0D26"/>
<path d="M27.2641 53.3489C27.2441 53.3489 27.2242 53.3489 27.2083 53.3452L25.8252 53.0758C25.6738 53.0459 25.5781 52.9074 25.61 52.7653C25.6419 52.6231 25.7893 52.5333 25.9408 52.5632L27.3239 52.8326C27.4753 52.8625 27.571 53.001 27.5391 53.1431C27.5112 53.2629 27.3956 53.3489 27.2641 53.3489Z" fill="#0D0D26"/>
<path d="M22.6875 52.4548C22.6676 52.4548 22.6476 52.4548 22.6317 52.451L21.2486 52.1816C21.0972 52.1517 21.0015 52.0133 21.0334 51.8711C21.0653 51.729 21.2128 51.6392 21.3642 51.6691L22.7473 51.9385C22.8987 51.9684 22.9944 52.1068 22.9625 52.249C22.9346 52.3687 22.819 52.4548 22.6875 52.4548Z" fill="#0D0D26"/>
<path d="M25.24 55.4814C25.1244 55.4814 25.0128 55.4103 24.9729 55.3018L24.5305 54.041C24.4827 53.9026 24.5624 53.7567 24.7099 53.7118C24.8573 53.6669 25.0128 53.7417 25.0606 53.8802L25.503 55.1409C25.5509 55.2794 25.4711 55.4253 25.3237 55.4702C25.2958 55.4739 25.2679 55.4814 25.24 55.4814Z" fill="#0D0D26"/>
<path d="M23.7778 51.3142C23.6622 51.3142 23.5506 51.2432 23.5107 51.1347L23.0683 49.8739C23.0205 49.7354 23.1002 49.5895 23.2477 49.5446C23.3951 49.4997 23.5506 49.5746 23.5984 49.713L24.0408 50.9738C24.0887 51.1122 24.009 51.2581 23.8615 51.303C23.8336 51.3105 23.8057 51.3142 23.7778 51.3142Z" fill="#0D0D26"/>
<path d="M12.189 22.9562C12.1811 22.9562 12.1731 22.9562 12.1651 22.9562C12.0137 22.9412 11.8981 22.814 11.914 22.6718L12.2807 18.9269L8.287 18.5827C8.13554 18.5677 8.01995 18.4405 8.03589 18.2983C8.05184 18.1524 8.18336 18.0477 8.33881 18.0627L12.6076 18.4293C12.759 18.4443 12.8746 18.5715 12.8587 18.7136L12.468 22.7205C12.4561 22.8552 12.3325 22.9562 12.189 22.9562Z" fill="#0D0D26"/>
<path d="M71.1375 16.0994C71.1136 16.0994 71.0897 16.0957 71.0658 16.0919L67.8772 15.2988C67.7855 15.2763 67.7138 15.2127 67.6819 15.1267C67.654 15.0444 67.6699 14.9508 67.7297 14.8798L69.3479 12.9755L66.5699 12.2834C66.4224 12.2459 66.3307 12.1038 66.3706 11.9616C66.4104 11.8232 66.5579 11.7371 66.7133 11.7745L69.9019 12.5677C69.9936 12.5901 70.0654 12.6537 70.0972 12.7398C70.1251 12.8221 70.1092 12.9156 70.0494 12.9867L68.4312 14.891L71.2093 15.5831C71.3567 15.6205 71.4484 15.7627 71.4086 15.9049C71.3727 16.0208 71.2611 16.0994 71.1375 16.0994Z" fill="#0D0D26"/>
<path d="M39.474 31.0917C39.4103 31.0917 39.3465 31.073 39.2947 31.0319L37.051 29.2775C36.9315 29.184 36.9155 29.0194 37.0152 28.9071C37.1148 28.7949 37.2902 28.78 37.4097 28.8735L39.4382 30.4633L41.1319 28.5593C41.2315 28.447 41.4069 28.4321 41.5264 28.5256L43.5549 30.1154L45.2486 28.2114C45.3482 28.0992 45.5236 28.0842 45.6431 28.1777C45.7627 28.2712 45.7786 28.4358 45.679 28.548L43.8099 30.6541C43.7103 30.7663 43.535 30.7812 43.4154 30.6877L41.3869 29.0979L39.6932 31.0019C39.6334 31.0618 39.5537 31.0917 39.474 31.0917Z" fill="#0D0D26"/>
<path d="M3.03021 39.3286C2.8987 39.3286 2.78313 39.2426 2.75523 39.1191C2.72335 38.977 2.82298 38.8386 2.97442 38.8124L5.55284 38.3299L5.03875 35.9096C5.00687 35.7675 5.1065 35.6291 5.25794 35.6029L7.83636 35.1203L7.32227 32.7001C7.29039 32.5579 7.39002 32.4195 7.54145 32.3934L10.1199 31.9108L9.60578 29.4906C9.5739 29.3484 9.67353 29.21 9.82497 29.1838C9.97641 29.1539 10.1239 29.2474 10.1518 29.3896L10.7216 32.0679C10.7535 32.2101 10.6539 32.3485 10.5025 32.3747L7.92403 32.8572L8.43812 35.2774C8.47 35.4196 8.37037 35.558 8.21894 35.5842L5.64051 36.0667L6.1546 38.487C6.18649 38.6291 6.08686 38.7675 5.93542 38.7937L3.08202 39.3286C3.06608 39.3286 3.05014 39.3286 3.03021 39.3286Z" fill="#0D0D26"/>
<path d="M57.8745 38.4616C57.8505 38.4616 57.8266 38.4578 57.8027 38.4541L53.9326 37.4888C53.7851 37.4514 53.6934 37.3093 53.7333 37.1671L54.7616 33.5344C54.7815 33.467 54.8293 33.4109 54.8931 33.3735C54.9569 33.3398 55.0326 33.3286 55.1044 33.3473L58.9745 34.3125C59.122 34.3499 59.2137 34.4921 59.1738 34.6343L58.1455 38.267C58.1096 38.3867 57.998 38.4616 57.8745 38.4616ZM54.3471 37.0474L57.6792 37.8779L58.564 34.7503L55.2319 33.9197L54.3471 37.0474Z" fill="#0D0D26"/>
<path d="M76.6809 50.8314C76.5932 50.8314 76.5055 50.8127 76.4258 50.7715C76.1547 50.6369 76.0511 50.3226 76.1906 50.0682C76.2584 49.9447 76.374 49.8549 76.5174 49.8138C76.6609 49.7726 76.8084 49.7839 76.9399 49.8475C77.0715 49.9111 77.1671 50.0196 77.211 50.1542C77.2548 50.2852 77.2428 50.4274 77.1751 50.5508C77.0754 50.7304 76.8841 50.8314 76.6809 50.8314ZM76.6809 50.3076V50.3114L76.928 50.4274L76.6809 50.3076Z" fill="#0D0D26"/>
<path d="M80.0196 17.9281L77.5328 15.8146L79.9758 15.5864L79.7446 13.4991H81.9684L81.9524 11.1836L84.4392 13.2971L80.0196 17.9281Z" fill="#0D0D26"/>
<path d="M80.0192 18.1899C79.9514 18.1899 79.8837 18.1674 79.8318 18.1225L77.3451 16.009C77.2614 15.938 77.2335 15.8295 77.2654 15.7322C77.3013 15.635 77.3929 15.5639 77.5045 15.5527L79.6645 15.3507L79.4612 13.5252C79.4533 13.4504 79.4772 13.3793 79.533 13.3232C79.5848 13.2671 79.6605 13.2372 79.7402 13.2372H81.685L81.673 11.1835C81.673 11.0788 81.7368 10.9853 81.8404 10.9441C81.94 10.903 82.0596 10.9179 82.1393 10.989L84.626 13.1025C84.7416 13.1998 84.7496 13.3644 84.646 13.4728L80.2264 18.1038C80.1786 18.1562 80.1068 18.1861 80.0311 18.1899C80.0311 18.1899 80.0271 18.1899 80.0192 18.1899ZM78.186 16.0165L79.9992 17.5577L84.0442 13.3157L82.2349 11.7746L82.2469 13.4953C82.2469 13.5664 82.219 13.6337 82.1672 13.6823C82.1154 13.7309 82.0436 13.7609 81.9679 13.7609H80.055L80.2543 15.5601C80.2623 15.6312 80.2383 15.6986 80.1945 15.7547C80.1467 15.807 80.0789 15.8444 80.0072 15.8482L78.186 16.0165Z" fill="#0D0D26"/>
<path d="M85.7024 43.5487C85.6865 43.5487 85.6745 43.5487 85.6586 43.545L81.9518 42.9838C81.8482 42.9688 81.7605 42.8977 81.7286 42.8042L80.5927 39.4446C80.5648 39.3585 80.5847 39.2613 80.6485 39.1939C80.7123 39.1266 80.8079 39.0929 80.9036 39.1079L84.6103 39.6728C84.7139 39.6878 84.7976 39.7589 84.8295 39.8524L85.9655 43.212C85.9934 43.2981 85.9734 43.3953 85.9097 43.4627C85.8618 43.515 85.7821 43.5487 85.7024 43.5487ZM82.2109 42.4937L85.2999 42.9613L84.3512 40.1592L81.2623 39.6915L82.2109 42.4937Z" fill="#0D0D26"/>
<path d="M56.328 6.97147L62.3616 6.24203C62.784 6.18966 63.1945 6.64977 63.2782 7.27073C63.3619 7.88794 63.0909 8.43409 62.6685 8.48272L56.6349 9.21215C56.2124 9.26452 55.802 8.80442 55.7183 8.18346C55.6346 7.56624 55.9056 7.02384 56.328 6.97147Z" fill="#0D0D26"/>
<path d="M56.5707 9.48149C56.0248 9.48149 55.5426 8.95031 55.4389 8.22087C55.3911 7.87299 55.4389 7.52884 55.5784 7.25577C55.7339 6.94903 55.9929 6.75077 56.2918 6.71337L62.3254 5.98393C62.9112 5.9166 63.4492 6.46274 63.5568 7.23707C63.6046 7.58495 63.5568 7.9291 63.4173 8.20217C63.2619 8.50891 63.0028 8.70716 62.704 8.74457L56.6704 9.47401C56.6385 9.47775 56.6026 9.48149 56.5707 9.48149ZM62.425 6.50015C62.417 6.50015 62.4051 6.50015 62.3971 6.50015L56.3635 7.22958C56.2599 7.24081 56.1563 7.33058 56.0845 7.47647C55.9929 7.65977 55.961 7.90291 55.9929 8.1498C56.0606 8.64357 56.3675 8.9765 56.5986 8.95405L62.6322 8.22461C62.7358 8.21339 62.8395 8.12361 62.9112 7.97773C63.0028 7.79443 63.0347 7.55129 63.0028 7.3044C62.9391 6.82933 62.6521 6.50015 62.425 6.50015Z" fill="#0D0D26"/>
<path d="M63.281 7.27083C63.3647 7.89187 63.0936 8.43435 62.6712 8.48298C62.2487 8.53536 61.8381 8.07519 61.7544 7.45415C61.6707 6.8331 61.9418 6.29062 62.3643 6.24199C62.7867 6.19335 63.1973 6.65352 63.281 7.27083Z" fill="#0D0D26"/>
<path d="M62.6072 8.75244C62.3401 8.75244 62.0771 8.62524 61.8698 8.39328C61.6625 8.16133 61.523 7.83958 61.4752 7.49165C61.4274 7.14371 61.4752 6.79952 61.6147 6.52641C61.7702 6.21963 62.0292 6.02134 62.3282 5.98393C62.9141 5.91659 63.4521 6.46281 63.5598 7.23724C63.6076 7.58518 63.5598 7.92937 63.4203 8.20248C63.2648 8.50926 63.0057 8.70755 62.7068 8.74496C62.6749 8.7487 62.6391 8.75244 62.6072 8.75244ZM62.4238 6.50022C62.4158 6.50022 62.4039 6.50022 62.3959 6.50022C62.2923 6.51144 62.1887 6.60123 62.1169 6.74714C62.0252 6.93046 61.9934 7.17364 62.0252 7.42056C62.0611 7.66748 62.1568 7.8957 62.2963 8.05283C62.4039 8.17629 62.5314 8.23989 62.6311 8.22493C62.7347 8.2137 62.8383 8.12391 62.9101 7.97801C63.0018 7.79468 63.0336 7.55151 63.0018 7.30458C62.938 6.82945 62.651 6.50022 62.4238 6.50022Z" fill="#0D0D26"/>
<path d="M70.1866 33.5232C70.2902 33.4671 70.5214 33.4259 70.5214 33.4259L76.1094 32.6328L72.4226 36.6583L72.4186 36.6509C72.3469 36.7407 72.2632 36.8192 72.1556 36.8716C71.5258 37.1971 70.5732 36.7145 70.0311 35.7904C69.4891 34.8663 69.5568 33.8524 70.1866 33.5232Z" fill="#0D0D26"/>
<path d="M71.7209 37.2339C71.5893 37.2339 71.4499 37.2152 71.3104 37.1778C70.7285 37.0206 70.1587 36.5493 69.788 35.9171C69.1584 34.851 69.2739 33.6989 70.0511 33.2949C70.1826 33.2276 70.4017 33.1827 70.4655 33.1677L76.0647 32.3747C76.1803 32.3597 76.2959 32.4121 76.3516 32.5056C76.4074 32.6029 76.3955 32.7188 76.3198 32.8049L72.6335 36.8299C72.6175 36.8448 72.6016 36.8598 72.5856 36.871C72.494 36.972 72.3983 37.0468 72.2907 37.0992C72.1194 37.189 71.9281 37.2339 71.7209 37.2339ZM70.322 33.755C69.8359 34.0094 69.8159 34.881 70.2782 35.6665C70.5771 36.1752 71.0314 36.5605 71.4698 36.6802C71.6172 36.7214 71.8324 36.7476 72.0277 36.6466C72.0875 36.6166 72.1433 36.568 72.2031 36.4932C72.223 36.4708 72.2429 36.4521 72.2668 36.4371L75.4111 33.0031L70.5691 33.6914C70.4894 33.6989 70.3619 33.7326 70.322 33.755Z" fill="#0D0D26"/>
<path d="M72.3144 34.6043C72.8605 35.5284 72.7887 36.5423 72.159 36.8715C71.5292 37.197 70.5766 36.7144 70.0346 35.7903C69.4885 34.8662 69.5603 33.8523 70.19 33.5231C70.8158 33.1976 71.7684 33.6802 72.3144 34.6043Z" fill="#0D0D26"/>
<path d="M71.7212 37.2345C71.5896 37.2345 71.4501 37.2158 71.3106 37.1784C70.7287 37.0213 70.1588 36.5499 69.7881 35.9176C69.1583 34.8513 69.2739 33.699 70.0511 33.295C70.4417 33.093 70.928 33.1154 71.4143 33.3661C71.8607 33.5943 72.2672 33.9909 72.5582 34.481C73.1879 35.5472 73.0723 36.6995 72.2951 37.1036C72.1198 37.1896 71.9284 37.2345 71.7212 37.2345ZM70.6251 33.6841C70.5135 33.6841 70.4099 33.7065 70.3222 33.7552C69.8359 34.0058 69.816 34.8813 70.2743 35.6669C70.5733 36.1757 71.0277 36.5611 71.4661 36.6808C71.6136 36.722 71.8288 36.7481 72.0241 36.6471C72.5104 36.3965 72.5303 35.521 72.0719 34.7354C71.8328 34.3313 71.5059 34.0096 71.1512 33.83C70.9639 33.7327 70.7845 33.6841 70.6251 33.6841Z" fill="#0D0D26"/>
<path d="M30.085 11.7746L33.0066 11.5838L34.6407 13.8622L33.3613 16.3314L30.4398 16.5222L28.8016 14.2438L30.085 11.7746Z" fill="#0D0D26"/>
<path d="M30.4396 16.7842C30.348 16.7842 30.2603 16.7393 30.2085 16.6682L28.5703 14.3898C28.5145 14.3112 28.5065 14.2139 28.5504 14.1279L29.8338 11.6587C29.8776 11.5726 29.9653 11.5202 30.065 11.5128L32.9865 11.322C33.0901 11.3145 33.1818 11.3594 33.2376 11.4379L34.8758 13.7163C34.9316 13.7949 34.9395 13.8922 34.8957 13.9782L33.6123 16.4474C33.5684 16.5335 33.4808 16.5859 33.3811 16.5934L30.4596 16.7842C30.4516 16.7842 30.4476 16.7842 30.4396 16.7842ZM29.1243 14.2214L30.5831 16.2492L33.1818 16.0771L34.3257 13.8772L32.8669 11.8495L30.2682 12.0216L29.1243 14.2214Z" fill="#0D0D26"/>
<path d="M31.725 14.3149C31.6333 14.3149 31.5456 14.27 31.4938 14.1989L29.8557 11.9205C29.768 11.8008 29.8039 11.6362 29.9314 11.5576C30.059 11.479 30.2343 11.509 30.318 11.6287L31.8645 13.7799L34.6226 13.6003C34.7781 13.5891 34.9096 13.6976 34.9216 13.8435C34.9335 13.9894 34.8179 14.1128 34.6625 14.1241L31.7409 14.3149C31.737 14.3149 31.729 14.3149 31.725 14.3149Z" fill="#0D0D26"/>
<path d="M30.4376 16.7837C30.3977 16.7837 30.3539 16.7762 30.314 16.7575C30.1745 16.6939 30.1187 16.5368 30.1865 16.4058L31.4699 13.9366C31.5376 13.8057 31.705 13.7533 31.8445 13.8169C31.984 13.8805 32.0398 14.0376 31.9721 14.1686L30.6887 16.6378C30.6408 16.7313 30.5412 16.7837 30.4376 16.7837Z" fill="#0D0D26"/>
<path d="M0.268386 25.9413L0.260415 25.9338C0.244472 25.9749 0.224543 26.0124 0.200628 26.0498C0.168742 26.0984 0.136856 26.147 0.0930129 26.1882C0.0571411 26.2219 -0.00264548 26.2593 -0.0544603 26.2892C-0.0783748 26.3042 -0.102289 26.3191 -0.130189 26.3304C-0.154104 26.3416 -0.174033 26.3528 -0.174033 26.3528L-0.293605 26.3827C-0.313534 26.3865 -0.329477 26.394 -0.353392 26.3977L-3.64562 27.2283L-2.7289 24.1455C-2.72491 24.1268 -2.71694 24.1081 -2.71296 24.0894L-2.68107 23.9771L-2.6731 23.9846C-2.65716 23.9435 -2.63723 23.906 -2.61331 23.8686C-2.58143 23.82 -2.54954 23.7714 -2.5057 23.7302C-2.46983 23.6965 -2.41004 23.6591 -2.35822 23.6292C-2.33431 23.6142 -2.3104 23.5993 -2.2825 23.588C-2.2546 23.5768 -2.23467 23.5693 -2.23467 23.5693L-2.11509 23.5394C-2.09517 23.5357 -2.07922 23.5282 -2.05929 23.5244L1.23294 22.6939L0.316215 25.7767C0.312229 25.7954 0.304258 25.8141 0.300272 25.8328L0.268386 25.9413Z" fill="#0D0D26"/>
<path d="M-3.6468 27.4901C-3.71854 27.4901 -3.79029 27.4639 -3.84609 27.4115C-3.91783 27.3442 -3.94174 27.2469 -3.91783 27.1571L-3.00111 24.0744C-3.00111 24.0706 -2.98915 24.037 -2.98915 24.0332L-2.95328 23.906C-2.94132 23.8723 -2.92538 23.8424 -2.90545 23.8162C-2.88951 23.7863 -2.87356 23.7601 -2.85762 23.7339C-2.81776 23.6666 -2.76993 23.6067 -2.71812 23.5543C-2.71413 23.5506 -2.71015 23.5469 -2.71015 23.5431C-2.66232 23.4982 -2.59855 23.4571 -2.51086 23.4047C-2.46702 23.3785 -2.43912 23.3635 -2.41122 23.3523L-2.38331 23.3373C-2.36339 23.3261 -2.34346 23.3186 -2.32353 23.3149L-2.20396 23.285C-2.16808 23.2737 -2.14816 23.27 -2.12424 23.2663L1.14408 22.4395C1.23973 22.417 1.34336 22.4432 1.41511 22.5068C1.48685 22.5741 1.51077 22.6714 1.48685 22.7612L0.570128 25.844C0.570128 25.8477 0.558171 25.8814 0.558171 25.8851L0.518313 26.0123C0.506356 26.046 0.490413 26.0759 0.470484 26.1021C0.454541 26.132 0.438598 26.1582 0.422655 26.1844C0.382797 26.2518 0.334968 26.3116 0.283153 26.3603C0.279168 26.364 0.275182 26.3677 0.271197 26.3715C0.223368 26.4126 0.163581 26.4575 0.071909 26.5099C0.0280657 26.5361 0.000165465 26.5511 -0.0277348 26.566L-0.0436782 26.5847C-0.0636069 26.596 -0.0835355 26.6034 -0.103464 26.6072L-0.223037 26.6371C-0.258909 26.6483 -0.278837 26.6521 -0.302752 26.6558L-3.57107 27.4826C-3.59498 27.4864 -3.6189 27.4901 -3.6468 27.4901ZM-2.4989 24.1904L-2.45506 24.2016L-3.24424 26.8578L-0.42631 26.147L-0.29478 26.3864L-0.366524 26.132L-0.223037 26.0797C-0.147308 26.0348 -0.115422 26.0161 -0.10745 26.0086L-0.103464 26.0048C-0.0835355 25.9861 -0.0636068 25.9599 -0.0396923 25.9225C-0.0197636 25.8926 -0.00780607 25.8664 0.00415119 25.8402C0.00813694 25.829 0.0121223 25.8215 0.0200938 25.8103L0.0360372 25.7617L0.0559656 25.7654C0.0679229 25.7542 0.0758944 25.743 0.0878516 25.7355L0.0440081 25.7243L0.833188 23.068L-2.18801 23.8424C-2.26773 23.8873 -2.29563 23.9098 -2.3036 23.9172L-2.30759 23.921C-2.32751 23.9397 -2.34744 23.9659 -2.37136 24.0033C-2.39129 24.0332 -2.40324 24.0594 -2.4152 24.0856C-2.41919 24.0968 -2.42317 24.1043 -2.43114 24.1155L-2.44709 24.1642L-2.46702 24.1604C-2.47499 24.1716 -2.48694 24.1829 -2.4989 24.1904Z" fill="#0D0D26"/>
<path d="M0.0933187 26.4535C0.0215752 26.4535 -0.0501683 26.4273 -0.105969 26.375C-0.213584 26.274 -0.213584 26.1056 -0.105969 26.0046C0.10129 25.81 0.0694043 25.5033 0.0295468 25.3349C-0.0461825 25.0057 -0.257427 24.6615 -0.568316 24.3659C-0.879205 24.0741 -1.24191 23.8683 -1.59265 23.7973C-1.77201 23.7599 -2.09884 23.7262 -2.3061 23.9207C-2.4177 24.0217 -2.59308 24.0217 -2.70069 23.9207C-2.80831 23.8197 -2.80831 23.6514 -2.70069 23.5503C-2.40575 23.2772 -1.9713 23.1837 -1.4691 23.2885C-1.01472 23.3857 -0.552373 23.6364 -0.169741 23.9993C0.212891 24.3622 0.479936 24.7999 0.575594 25.2264C0.68321 25.6978 0.57958 26.1056 0.284635 26.3787C0.23282 26.4273 0.165062 26.4535 0.0933187 26.4535Z" fill="#0D0D26"/>
<path d="M58.8273 17.4567L55.1525 21.2466L57.3526 21.4635L56.3362 24.1236L59.9991 20.3936L57.8468 20.184L58.8273 17.4567Z" fill="#0D0D26"/>
<path d="M56.3368 24.3846C56.289 24.3846 56.2372 24.3734 56.1933 24.3472C56.0777 24.2836 56.0299 24.1527 56.0738 24.0367L56.9704 21.6913L55.1253 21.508C55.0217 21.4968 54.93 21.4332 54.8941 21.3397C54.8583 21.2461 54.8782 21.1451 54.9499 21.0703L58.6243 17.281C58.712 17.1875 58.8594 17.1688 58.971 17.2324C59.0866 17.296 59.1384 17.4231 59.0945 17.5429L58.2258 19.9593L60.0311 20.1389C60.1347 20.1501 60.2263 20.2137 60.2622 20.3072C60.2981 20.4007 60.2781 20.5055 60.2064 20.5766L56.544 24.3023C56.4882 24.3547 56.4125 24.3846 56.3368 24.3846ZM55.731 21.0404L57.3809 21.205C57.4646 21.2125 57.5443 21.2574 57.5881 21.3247C57.632 21.392 57.6439 21.4781 57.616 21.5529L57.0661 22.9968L59.4213 20.599L57.8233 20.4419C57.7396 20.4344 57.6638 20.3895 57.616 20.3222C57.5682 20.2549 57.5602 20.1726 57.5881 20.0978L58.1421 18.5566L55.731 21.0404Z" fill="#0D0D26"/>
<path d="M23.9358 65.3795C23.9358 65.3795 23.027 64.867 21.7078 64.1524C20.3327 63.4079 20.2649 62.2406 20.8668 61.5709C21.5404 60.8152 22.5767 61.0921 23.2463 61.6869C23.6648 60.9125 24.5376 60.3251 25.4424 60.8227C26.2515 61.2642 26.6102 62.3828 25.5859 63.5201C24.6054 64.6088 23.9358 65.3795 23.9358 65.3795Z" fill="#0D0D26"/>
<path d="M23.9365 65.6414C23.8887 65.6414 23.8369 65.6302 23.7931 65.604C23.7851 65.6003 22.8723 65.084 21.573 64.3806C20.8436 63.9878 20.3773 63.4303 20.2617 62.8093C20.166 62.3042 20.3095 61.7917 20.6603 61.4026C20.9592 61.0659 21.3498 60.8788 21.7882 60.8526C22.2466 60.8264 22.7408 60.9836 23.1792 61.2866C23.4822 60.8639 23.8887 60.5571 24.3311 60.4374C24.7536 60.3214 25.1881 60.3738 25.5906 60.5945C26.057 60.8489 26.3798 61.2866 26.4715 61.7917C26.5831 62.4127 26.3479 63.0824 25.8019 63.6885C24.8293 64.7622 24.1597 65.5367 24.1518 65.5441C24.1 65.6077 24.0163 65.6414 23.9365 65.6414ZM21.8799 61.3764C21.86 61.3764 21.8361 61.3764 21.8161 61.3764C21.5291 61.3914 21.282 61.5148 21.0827 61.7393C20.8396 62.0087 20.74 62.3678 20.8077 62.7195C20.8954 63.1834 21.2661 63.6099 21.848 63.9279C22.7926 64.4367 23.53 64.8483 23.8728 65.0391C24.1239 64.751 24.6739 64.1262 25.3754 63.348C25.8098 62.8654 26.0051 62.3454 25.9175 61.8815C25.8537 61.5298 25.6305 61.2268 25.3037 61.0472C25.0326 60.8975 24.7576 60.8639 24.4826 60.9387C24.1 61.0434 23.7333 61.3689 23.4981 61.8029C23.4583 61.8777 23.3825 61.9264 23.2988 61.9413C23.2111 61.9563 23.1234 61.9301 23.0597 61.874C22.697 61.5597 22.2625 61.3764 21.8799 61.3764Z" fill="#0D0D26"/>
<path d="M1.62399 11.0533C1.60805 11.0533 1.5921 11.0533 1.57616 11.0495C0.440222 10.8662 -0.552231 10.2788 -1.21785 9.39592C-1.88347 8.51299 -2.14255 7.43925 -1.94724 6.36926C-1.91934 6.2271 -1.77586 6.12983 -1.6244 6.15601C-1.47294 6.1822 -1.36931 6.31689 -1.39721 6.45905C-1.5686 7.38688 -1.34141 8.32218 -0.759489 9.09288C-0.177569 9.86357 0.683353 10.3724 1.67581 10.5332C1.82726 10.5594 1.93089 10.6941 1.90299 10.8363C1.87509 10.9635 1.75552 11.0533 1.62399 11.0533Z" fill="#0D0D26"/>
<path d="M70.8963 5.19914C70.7808 5.19914 70.6692 5.12806 70.6333 5.01956C70.5855 4.88114 70.6652 4.73523 70.8087 4.6866C71.3866 4.50702 71.8529 4.12541 72.124 3.6166C72.395 3.1078 72.4388 2.52791 72.2475 1.98543C72.0562 1.44295 71.6497 1.00523 71.1076 0.750823C70.5655 0.496419 69.9477 0.455266 69.3698 0.634845C69.2223 0.67974 69.0669 0.604915 69.0191 0.470231C68.9712 0.331805 69.051 0.185897 69.1944 0.137261C69.9119 -0.0872122 70.6811 -0.034835 71.3587 0.283169C72.0363 0.601174 72.5385 1.14739 72.7776 1.82081C73.0168 2.49424 72.961 3.21629 72.6222 3.8523C72.2834 4.48831 71.7015 4.95971 70.984 5.18418C70.9561 5.1954 70.9242 5.19914 70.8963 5.19914Z" fill="#0D0D26"/>
<path d="M30.7596 5.55072C30.6879 5.55072 30.6201 5.52453 30.5643 5.4759C30.4527 5.37488 30.4527 5.21027 30.5603 5.10551L34.8011 1.00513C34.9088 0.900376 35.0841 0.900376 35.1957 1.00139C35.3073 1.1024 35.3073 1.26702 35.1997 1.37177L30.9589 5.47215C30.9071 5.52079 30.8313 5.55072 30.7596 5.55072Z" fill="#0D0D26"/>
<path d="M6.71617 71.1629C6.66835 71.0618 6.63646 70.8411 6.63646 70.8411L6.22194 65.551L10.2117 69.3072L10.2037 69.311C10.2914 69.3858 10.3711 69.4718 10.4189 69.5728C10.7179 70.1864 10.132 71.0431 9.10763 71.4809C8.08727 71.9186 7.01511 71.7764 6.71617 71.1629Z" fill="#0D0D26"/>
<path d="M7.9313 72C7.25382 72 6.69191 71.7457 6.46077 71.2706C6.397 71.1434 6.36512 70.9339 6.35715 70.8741L5.9387 65.5735C5.93073 65.465 5.9945 65.3603 6.1021 65.3154C6.2097 65.2705 6.33324 65.2929 6.41693 65.3678L10.4061 69.1234C10.4221 69.1384 10.434 69.1533 10.446 69.172C10.5456 69.2656 10.6173 69.3628 10.6691 69.4638C11.0398 70.2194 10.4021 71.2107 9.22251 71.7195C8.78414 71.9065 8.33779 72 7.9313 72ZM6.97087 71.0536C7.20201 71.5287 8.12658 71.6147 8.99535 71.2407C9.86014 70.8703 10.3981 70.1559 10.167 69.6808C10.1391 69.6247 10.0913 69.5686 10.0156 69.505C9.99564 69.4863 9.97571 69.4638 9.95977 69.4414L6.55243 66.2356L6.91508 70.8217C6.92703 70.8928 6.95094 71.0162 6.97087 71.0536Z" fill="#0D0D26"/>
<path d="M8.02697 69.2541C9.0513 68.8164 10.1195 68.9586 10.4224 69.5721C10.7213 70.1857 10.1354 71.0387 9.11109 71.4802C8.08675 71.9179 7.01857 71.7757 6.71565 71.1622C6.41672 70.5486 7.00263 69.6919 8.02697 69.2541Z" fill="#0D0D26"/>
<path d="M7.93535 71.9965C7.82375 71.9965 7.71215 71.989 7.60454 71.9741C7.0545 71.903 6.65194 71.6523 6.46461 71.2707C6.27728 70.8891 6.34105 70.4402 6.64397 69.9987C6.91899 69.5984 7.36938 69.2467 7.91144 69.0148C9.09122 68.5097 10.3069 68.7042 10.6736 69.4637C10.8609 69.8453 10.7971 70.2943 10.4942 70.7357C10.2192 71.136 9.7688 71.4877 9.22674 71.7197C8.80026 71.8992 8.35386 71.9965 7.93535 71.9965ZM9.20681 69.2617C8.87998 69.2617 8.50532 69.3365 8.14261 69.4936C7.69621 69.6844 7.32952 69.965 7.1103 70.2868C6.915 70.5711 6.86717 70.8442 6.9708 71.0575C7.07443 71.2707 7.32553 71.4129 7.68027 71.4615C8.07884 71.5139 8.54517 71.4391 8.99158 71.2445C9.43798 71.0537 9.80467 70.7731 10.0239 70.4514C10.2192 70.1708 10.267 69.8977 10.1634 69.6844C10.0319 69.4076 9.66118 69.2617 9.20681 69.2617Z" fill="#0D0D26"/>
<path d="M85.3755 70.1003C85.2838 70.1003 85.1922 70.0554 85.1404 69.9769L81.8441 65.0946C81.7604 64.9711 81.8003 64.8102 81.9318 64.7317C82.0634 64.6531 82.2347 64.6905 82.3184 64.814L85.6147 69.6963C85.6984 69.8197 85.6585 69.9806 85.527 70.0592C85.4791 70.0891 85.4273 70.1003 85.3755 70.1003Z" fill="#0D0D26"/>
<path d="M70.8919 68.9857C70.7763 68.9857 70.6647 68.9146 70.6288 68.8061C70.581 68.6676 70.6607 68.5217 70.8042 68.4768C72.0876 68.0765 72.7851 66.7671 72.3586 65.5624C72.1514 64.9788 71.7129 64.5037 71.127 64.2306C70.5411 63.9537 69.8755 63.9088 69.2537 64.1034C69.1062 64.1482 68.9508 64.0734 68.903 63.9387C68.8551 63.8003 68.9349 63.6544 69.0783 63.6095C69.8396 63.3701 70.6567 63.4262 71.3781 63.7629C72.0995 64.0996 72.6336 64.6832 72.8887 65.3978C73.1438 66.1161 73.084 66.8793 72.7253 67.5565C72.3666 68.2337 71.7448 68.735 70.9835 68.9744C70.9516 68.9819 70.9198 68.9857 70.8919 68.9857Z" fill="#0D0D26"/>
<path d="M30.7514 69.1802C30.6797 69.1802 30.6119 69.154 30.5561 69.1054C30.4445 69.0044 30.4445 68.8398 30.5521 68.735L34.8089 64.6197C34.9165 64.5149 35.0919 64.5112 35.2035 64.6159C35.3151 64.7169 35.3151 64.8815 35.2075 64.9863L30.9507 69.1016C30.8949 69.154 30.8232 69.1802 30.7514 69.1802Z" fill="#0D0D26"/>
<path d="M46.7808 11.427C46.7011 11.427 46.6254 11.397 46.5696 11.3334L45.6728 10.342C45.5731 10.2335 45.5891 10.0652 45.7046 9.97164C45.8242 9.87811 45.9996 9.89307 46.0992 10.0016L46.996 10.993C47.0957 11.1015 47.0797 11.2698 46.9641 11.3634C46.9083 11.4045 46.8446 11.427 46.7808 11.427Z" fill="#0D0D26"/>
<path d="M43.8111 8.14635C43.7314 8.14635 43.6557 8.11642 43.5999 8.05282L42.7031 7.0614C42.6034 6.9529 42.6194 6.78455 42.735 6.69102C42.8505 6.59748 43.0299 6.61245 43.1295 6.72094L44.0263 7.71237C44.126 7.82087 44.11 7.98922 43.9944 8.08275C43.9386 8.12765 43.8749 8.14635 43.8111 8.14635Z" fill="#0D0D26"/>
<path d="M43.8394 11.9283C43.8075 11.9283 43.7756 11.9246 43.7437 11.9134C43.6003 11.8647 43.5245 11.7151 43.5763 11.5804L44.0427 10.357C44.0945 10.2223 44.2539 10.1512 44.3974 10.1999C44.5409 10.2485 44.6166 10.3982 44.5648 10.5328L44.0985 11.7562C44.0626 11.8647 43.955 11.9283 43.8394 11.9283Z" fill="#0D0D26"/>
<path d="M45.3824 7.8771C45.3505 7.8771 45.3186 7.87336 45.2867 7.86213C45.1432 7.8135 45.0675 7.66385 45.1193 7.52916L45.5856 6.30578C45.6375 6.1711 45.7969 6.10002 45.9404 6.14865C46.0839 6.19729 46.1596 6.34694 46.1078 6.48162L45.6414 7.705C45.6016 7.80976 45.494 7.8771 45.3824 7.8771Z" fill="#0D0D26"/>
<path d="M41.9075 9.7959C41.776 9.7959 41.6564 9.70611 41.6325 9.58265C41.6046 9.44049 41.7042 9.30206 41.8557 9.27961L43.2188 9.04766C43.3703 9.02147 43.5177 9.115 43.5416 9.25717C43.5695 9.39933 43.4699 9.53776 43.3184 9.56021L41.9553 9.79216C41.9394 9.79216 41.9234 9.7959 41.9075 9.7959Z" fill="#0D0D26"/>
<path d="M46.4209 9.02162C46.2894 9.02162 46.1698 8.93183 46.1459 8.80837C46.118 8.66621 46.2176 8.52778 46.3691 8.50533L47.7322 8.27338C47.8837 8.24719 48.0311 8.34072 48.055 8.48289C48.0829 8.62505 47.9833 8.76348 47.8318 8.78593L46.4687 9.01788C46.4528 9.02162 46.4368 9.02162 46.4209 9.02162Z" fill="#0D0D26"/>
<path d="M66.354 45.2581C66.2544 45.2581 66.1587 45.2095 66.1069 45.1234L64.1459 41.7526C64.0702 41.6254 64.122 41.4682 64.2575 41.3971C64.3931 41.3261 64.5605 41.3747 64.6362 41.5019L66.4656 44.6408L69.8097 42.9236C69.9452 42.8525 70.1126 42.9011 70.1883 43.0283C70.2641 43.1555 70.2122 43.3127 70.0767 43.3837L66.4856 45.2244C66.4457 45.2469 66.3979 45.2581 66.354 45.2581Z" fill="#0D0D26"/>
<path d="M55.9611 63.6177C55.9571 63.6177 55.9571 63.6177 55.9611 63.6177C55.8057 63.6177 55.6821 63.498 55.6821 63.3521L55.714 60.101C55.714 60.0112 55.7618 59.9289 55.8416 59.884C55.9213 59.8354 56.0209 59.8316 56.1086 59.8653L58.6117 60.924L58.6396 58.0732C58.6396 57.9311 58.7671 57.8151 58.9186 57.8151C58.9186 57.8151 58.9186 57.8151 58.9226 57.8151C59.078 57.8151 59.2015 57.9348 59.1976 58.0807L59.1657 61.3356C59.1657 61.4254 59.1178 61.5077 59.0381 61.5526C58.9584 61.6012 58.8588 61.6087 58.7711 61.5713L56.268 60.5125L56.2401 63.3633C56.2361 63.5018 56.1126 63.6177 55.9611 63.6177Z" fill="#0D0D26"/>
<path d="M69.3878 26.9019C69.324 26.9019 69.2642 26.8832 69.2124 26.8458L67.0525 25.2224C66.9329 25.1326 66.913 24.968 67.0086 24.8558C67.1043 24.7435 67.2796 24.7248 67.3992 24.8146L69.34 26.2772L70.8862 24.463C70.934 24.4069 71.0018 24.3732 71.0735 24.3657C71.1453 24.3583 71.221 24.377 71.2768 24.4218L73.2176 25.8845L74.7638 24.0702C74.8595 23.958 75.0348 23.9393 75.1544 24.0291C75.2739 24.1189 75.2938 24.2834 75.1982 24.3957L73.4766 26.4156C73.4288 26.468 73.361 26.5054 73.2893 26.5129C73.2176 26.5204 73.1418 26.5017 73.086 26.4568L71.1453 24.9942L69.599 26.8084C69.5512 26.8645 69.4834 26.8982 69.4117 26.9057C69.4077 26.9019 69.3958 26.9019 69.3878 26.9019Z" fill="#0D0D26"/>
<path d="M71.7513 55.7353C71.6477 55.7353 71.5521 55.6829 71.5002 55.5894L70.3445 53.4348L68.0451 54.5196C67.9056 54.5832 67.7382 54.5308 67.6705 54.4036L66.5148 52.2452L64.2153 53.33C64.0758 53.3936 63.9084 53.345 63.8407 53.2141L62.685 51.0594L60.3855 52.1442C60.2461 52.2078 60.0787 52.1592 60.0109 52.0282C59.9432 51.9011 59.995 51.7402 60.1345 51.6766L62.681 50.4721C62.8165 50.4048 62.9879 50.4571 63.0556 50.5881L64.2113 52.7465L66.5108 51.6617C66.6463 51.5943 66.8176 51.6467 66.8854 51.7776L68.0411 53.9323L70.3406 52.8475C70.48 52.7801 70.6434 52.8325 70.7152 52.9634L71.9984 55.3537C72.0661 55.4809 72.0143 55.6418 71.8749 55.7054C71.839 55.7278 71.7951 55.7353 71.7513 55.7353Z" fill="#0D0D26"/>
<path d="M9.83912 59.6933C9.62389 59.6933 9.40866 59.6484 9.20538 59.5586C8.84268 59.3978 8.57165 59.1172 8.43215 58.7655C8.38033 58.6308 8.45606 58.4774 8.59955 58.4288C8.74304 58.3801 8.90247 58.4512 8.95827 58.5859C9.04197 58.8066 9.21335 58.9825 9.44054 59.0835C9.66773 59.1845 9.92282 59.1957 10.158 59.1134C10.6442 58.9488 10.8953 58.4437 10.72 57.9873C10.6682 57.8526 10.7439 57.6992 10.8874 57.6506C11.0309 57.602 11.1903 57.673 11.2461 57.8077C11.5251 58.5373 11.1225 59.3416 10.3493 59.6035C10.1819 59.6634 10.0105 59.6933 9.83912 59.6933Z" fill="#0D0D26"/>
<path d="M10.9832 58.1597C10.8676 58.1597 10.76 58.0924 10.7201 57.9876C10.461 57.3142 9.8871 57.0187 9.44867 56.884C8.83088 56.6969 8.10547 56.7269 7.40796 56.9626C7.26448 57.0112 7.10505 56.9401 7.04924 56.8054C6.99743 56.6707 7.07316 56.5211 7.21665 56.4687C8.02974 56.1919 8.88269 56.1619 9.62005 56.3827C10.4052 56.6184 10.9832 57.1234 11.2462 57.8043C11.2981 57.939 11.2223 58.0924 11.0788 58.141C11.047 58.156 11.0151 58.1597 10.9832 58.1597Z" fill="#0D0D26"/>
<path d="M8.6967 58.9379C8.58112 58.9379 8.4735 58.8705 8.43365 58.7658C8.17059 58.0849 8.27023 57.3478 8.71265 56.6969C9.12717 56.087 9.80474 55.5969 10.6178 55.3238C10.7613 55.2752 10.9208 55.3463 10.9766 55.481C11.0284 55.6156 10.9526 55.769 10.8092 55.8177C10.1116 56.0534 9.53371 56.4686 9.18297 56.9812C8.93585 57.3441 8.69671 57.9165 8.95578 58.5899C9.00759 58.7246 8.93186 58.878 8.78838 58.9266C8.76048 58.9304 8.72859 58.9379 8.6967 58.9379Z" fill="#0D0D26"/>
<path d="M10.7115 55.8289C10.5959 55.8289 10.4883 55.7616 10.4484 55.6568C10.3966 55.5222 10.4723 55.3725 10.6158 55.3201C11.0224 55.1817 11.4488 55.1181 11.8753 55.1256C12.0308 55.1293 12.1503 55.2491 12.1503 55.3912C12.1464 55.5371 12.0228 55.6494 11.8673 55.6494C11.5086 55.6419 11.1459 55.698 10.8071 55.814C10.7753 55.8252 10.7434 55.8289 10.7115 55.8289Z" fill="#0D0D26"/>
<path d="M6.44077 60.8454C6.22554 60.8454 6.01031 60.8005 5.80703 60.7107C5.44433 60.5498 5.1733 60.2692 5.0338 59.9176C4.98198 59.7829 5.05771 59.6295 5.2012 59.5809C5.34469 59.5322 5.50412 59.6033 5.55992 59.738C5.64362 59.9587 5.81501 60.1346 6.04219 60.2356C6.26938 60.3366 6.52447 60.3478 6.75963 60.2655C7.24589 60.1009 7.49699 59.5958 7.32162 59.1394C7.26981 59.0047 7.34554 58.8551 7.48902 58.8027C7.63251 58.7541 7.79592 58.8251 7.84774 58.9598C8.12674 59.6894 7.72418 60.4937 6.95095 60.7556C6.78354 60.8155 6.61216 60.8454 6.44077 60.8454Z" fill="#0D0D26"/>
<path d="M7.5848 59.3155C7.46922 59.3155 7.3616 59.2482 7.32174 59.1434C7.06267 58.47 6.48872 58.1744 6.05029 58.0398C5.4325 57.8527 4.70709 57.8826 4.00958 58.1183C3.8661 58.167 3.70667 58.0959 3.65087 57.9612C3.59905 57.8265 3.67478 57.6769 3.81827 57.6245C4.63136 57.3476 5.48431 57.3177 6.22168 57.5384C7.00687 57.7741 7.5848 58.2792 7.84786 58.9601C7.89968 59.0948 7.82395 59.2482 7.68046 59.2968C7.64858 59.308 7.61669 59.3155 7.5848 59.3155Z" fill="#0D0D26"/>
<path d="M5.29655 60.0899C5.18096 60.0899 5.07334 60.0226 5.03349 59.9178C4.77043 59.2369 4.87007 58.4999 5.31249 57.8489C5.72701 57.2391 6.40458 56.749 7.21768 56.4759C7.36116 56.4273 7.52059 56.4984 7.57639 56.633C7.62821 56.7677 7.55248 56.9211 7.40899 56.9698C6.71149 57.2055 6.13355 57.6207 5.78281 58.1333C5.53569 58.4962 5.29654 59.0686 5.55562 59.742C5.60743 59.8767 5.5317 60.0301 5.38822 60.0787C5.36032 60.0862 5.32843 60.0899 5.29655 60.0899Z" fill="#0D0D26"/>
<path d="M2.90258 58.6945C2.82286 58.6945 2.74714 58.6646 2.69134 58.6047C2.59169 58.4962 2.60365 58.3316 2.71924 58.2343C3.04607 57.9687 3.41674 57.7667 3.82329 57.6282C3.96678 57.5796 4.13019 57.6507 4.18201 57.7854C4.23382 57.9201 4.15809 58.0697 4.0146 58.1221C3.67582 58.2381 3.36493 58.4102 3.08592 58.6309C3.03012 58.672 2.96635 58.6945 2.90258 58.6945Z" fill="#0D0D26"/>
<path d="M49.0311 25.5479C48.9753 25.5479 48.9235 25.5404 48.8677 25.5255C48.5807 25.4394 48.4213 25.1514 48.5129 24.882C48.6046 24.6126 48.9075 24.463 49.1945 24.549C49.4815 24.6351 49.6409 24.9231 49.5492 25.1925C49.4775 25.4095 49.2623 25.5479 49.0311 25.5479ZM49.0351 25.0242C49.0311 25.0242 49.0231 25.0279 49.0231 25.0316L48.9554 25.2748L49.0351 25.0242Z" fill="#0D0D26"/>
<path d="M48.096 61.9038C48.0402 61.9038 47.9844 61.8963 47.9286 61.8776C47.6377 61.7915 47.4743 61.496 47.5659 61.2229C47.6098 61.0882 47.7094 60.9797 47.8409 60.9161C47.9725 60.8525 48.1239 60.8413 48.2634 60.8824C48.4029 60.9236 48.5185 61.0171 48.5903 61.1406C48.658 61.264 48.67 61.4062 48.6261 61.5371C48.5823 61.6718 48.4826 61.7803 48.3511 61.8439C48.2714 61.8851 48.1837 61.9038 48.096 61.9038ZM48.096 61.38L48.0123 61.6307L48.096 61.38Z" fill="#0D0D26"/>
<path d="M19.6384 20.8758C19.5826 20.8758 19.5268 20.8684 19.475 20.8534C19.3355 20.8122 19.2239 20.7224 19.1562 20.6027C19.0884 20.483 19.0764 20.3446 19.1203 20.2136C19.1641 20.0827 19.2598 19.9779 19.3873 19.9143C19.5149 19.8507 19.6624 19.8395 19.8019 19.8807C19.9414 19.9218 20.053 20.0116 20.1207 20.1313C20.1885 20.2511 20.2004 20.3895 20.1566 20.5204C20.1127 20.6514 20.0171 20.7561 19.8895 20.8197C19.8098 20.8571 19.7221 20.8758 19.6384 20.8758ZM19.6384 20.3521C19.6305 20.3521 19.6265 20.3558 19.6225 20.3633L19.6424 20.3558C19.6384 20.3521 19.6384 20.3521 19.6384 20.3521Z" fill="#0D0D26"/>
<path d="M86.2019 28.1328H81.4668C81.3114 28.1328 81.1878 28.0168 81.1878 27.8709C81.1878 27.725 81.3114 27.6091 81.4668 27.6091H86.2019C86.3573 27.6091 86.4809 27.725 86.4809 27.8709C86.4809 28.0168 86.3534 28.1328 86.2019 28.1328Z" fill="#0D0D26"/>
<path d="M83.8352 30.3553C83.6798 30.3553 83.5562 30.2393 83.5562 30.0934V25.6488C83.5562 25.5029 83.6798 25.3869 83.8352 25.3869C83.9907 25.3869 84.1142 25.5029 84.1142 25.6488V30.0934C84.1142 30.2393 83.9867 30.3553 83.8352 30.3553Z" fill="#0D0D26"/>
<path d="M43.2975 58.1743H38.6661C38.5106 58.1743 38.3871 58.0583 38.3871 57.9124C38.3871 57.7665 38.5106 57.6505 38.6661 57.6505H43.2975C43.453 57.6505 43.5765 57.7665 43.5765 57.9124C43.5765 58.0546 43.453 58.1743 43.2975 58.1743Z" fill="#0D0D26"/>
<path d="M40.9806 60.3483C40.8252 60.3483 40.7016 60.2324 40.7016 60.0865V55.7391C40.7016 55.5932 40.8252 55.4773 40.9806 55.4773C41.136 55.4773 41.2596 55.5932 41.2596 55.7391V60.0865C41.2596 60.2324 41.1321 60.3483 40.9806 60.3483Z" fill="#0D0D26"/>
<path d="M42.1564 20.0495C42.0846 20.0495 42.0129 20.0234 41.9571 19.971C41.8495 19.87 41.8495 19.7016 41.9571 19.6006L45.2692 16.4916C45.3769 16.3906 45.5562 16.3906 45.6638 16.4916C45.7715 16.5927 45.7715 16.761 45.6638 16.862L42.3517 19.971C42.2999 20.0234 42.2281 20.0495 42.1564 20.0495Z" fill="#0D0D26"/>
<path d="M45.4685 20.0495C45.3968 20.0495 45.325 20.0234 45.2692 19.971L41.9571 16.862C41.8495 16.761 41.8495 16.5927 41.9571 16.4916C42.0647 16.3906 42.2441 16.3906 42.3517 16.4916L45.6638 19.6006C45.7715 19.7016 45.7715 19.87 45.6638 19.971C45.612 20.0234 45.5403 20.0495 45.4685 20.0495Z" fill="#0D0D26"/>
<path d="M17.8747 13.1257C17.799 13.1257 17.7312 13.0995 17.6754 13.0471L15.0129 10.548C14.9053 10.447 14.9053 10.2786 15.0129 10.1776L17.6754 7.67844C17.779 7.58117 17.9664 7.58117 18.07 7.67844L20.7325 10.1776C20.8401 10.2786 20.8401 10.447 20.7325 10.548L18.07 13.0471C18.0182 13.0957 17.9464 13.1257 17.8747 13.1257ZM15.6028 10.3609L17.8707 12.4897L20.1386 10.3609L17.8747 8.23215L15.6028 10.3609Z" fill="#0D0D26"/>
</g>
</g>
</svg>
