<svg width="449" height="450" viewBox="0 0 449 450" fill="none" xmlns="http://www.w3.org/2000/svg">
<path d="M156.276 89.7646L144.269 78.5214" stroke="white" stroke-opacity="0.15" stroke-width="5" stroke-miterlimit="10" stroke-linecap="round" stroke-linejoin="round"/>
<path d="M144.639 90.1419L155.906 78.144" stroke="white" stroke-opacity="0.15" stroke-width="5" stroke-miterlimit="10" stroke-linecap="round" stroke-linejoin="round"/>
<path d="M170.078 262.297L158.063 251.046" stroke="white" stroke-opacity="0.15" stroke-width="5" stroke-miterlimit="10" stroke-linecap="round" stroke-linejoin="round"/>
<path d="M158.441 262.666L169.7 250.676" stroke="white" stroke-opacity="0.15" stroke-width="5" stroke-miterlimit="10" stroke-linecap="round" stroke-linejoin="round"/>
<path d="M23.955 358.689L11.948 347.438" stroke="white" stroke-opacity="0.15" stroke-width="5" stroke-miterlimit="10" stroke-linecap="round" stroke-linejoin="round"/>
<path d="M12.3181 359.059L23.5771 347.069" stroke="white" stroke-opacity="0.15" stroke-width="5" stroke-miterlimit="10" stroke-linecap="round" stroke-linejoin="round"/>
<path d="M18.7113 73.348L6.70434 62.1047" stroke="white" stroke-opacity="0.15" stroke-width="5" stroke-miterlimit="10" stroke-linecap="round" stroke-linejoin="round"/>
<path d="M7.07446 73.7253L18.3335 61.7352" stroke="white" stroke-opacity="0.15" stroke-width="5" stroke-miterlimit="10" stroke-linecap="round" stroke-linejoin="round"/>
<path d="M445.782 89.4737L433.775 78.2226" stroke="white" stroke-opacity="0.15" stroke-width="5" stroke-miterlimit="10" stroke-linecap="round" stroke-linejoin="round"/>
<path d="M434.145 89.8432L445.404 77.8531" stroke="white" stroke-opacity="0.15" stroke-width="5" stroke-miterlimit="10" stroke-linecap="round" stroke-linejoin="round"/>
<path d="M304.107 150.643L292.101 139.4" stroke="white" stroke-opacity="0.15" stroke-width="5" stroke-miterlimit="10" stroke-linecap="round" stroke-linejoin="round"/>
<path d="M292.471 151.02L303.738 139.03" stroke="white" stroke-opacity="0.15" stroke-width="5" stroke-miterlimit="10" stroke-linecap="round" stroke-linejoin="round"/>
<path d="M362.654 284.154L350.647 272.911" stroke="white" stroke-opacity="0.15" stroke-width="5" stroke-miterlimit="10" stroke-linecap="round" stroke-linejoin="round"/>
<path d="M351.017 284.531L362.284 272.541" stroke="white" stroke-opacity="0.15" stroke-width="5" stroke-miterlimit="10" stroke-linecap="round" stroke-linejoin="round"/>
<path d="M353.332 392.914L341.325 381.671" stroke="white" stroke-opacity="0.15" stroke-width="5" stroke-miterlimit="10" stroke-linecap="round" stroke-linejoin="round"/>
<path d="M341.695 393.292L352.954 381.301" stroke="white" stroke-opacity="0.15" stroke-width="5" stroke-miterlimit="10" stroke-linecap="round" stroke-linejoin="round"/>
<path d="M245.514 107.769L237.246 93.4835L229.003 107.777L220.759 122.063L237.27 122.047L253.781 122.04L245.514 107.769Z" stroke="white" stroke-opacity="0.15" stroke-width="5" stroke-miterlimit="10" stroke-linecap="round" stroke-linejoin="round"/>
<path d="M218.177 282.314L209.91 268.036L201.666 282.322L193.423 296.608L209.933 296.6L226.444 296.592L218.177 282.314Z" stroke="white" stroke-opacity="0.15" stroke-width="5" stroke-miterlimit="10" stroke-linecap="round" stroke-linejoin="round"/>
<path d="M312.934 335.912L304.667 321.634L296.423 335.92L288.172 350.214L304.682 350.198L321.201 350.19L312.934 335.912Z" stroke="white" stroke-opacity="0.15" stroke-width="5" stroke-miterlimit="10" stroke-linecap="round" stroke-linejoin="round"/>
<path d="M367.433 226.287L371.701 210.35L355.749 214.635L339.798 218.912L351.482 230.564L363.166 242.224L367.433 226.287Z" stroke="white" stroke-opacity="0.15" stroke-width="5" stroke-miterlimit="10" stroke-linecap="round" stroke-linejoin="round"/>
<path d="M95.8552 41.293L100.123 25.356L84.1789 29.6409L68.2195 33.9181L79.9115 45.5701L91.5957 57.23L95.8552 41.293Z" stroke="white" stroke-opacity="0.15" stroke-width="5" stroke-miterlimit="10" stroke-linecap="round" stroke-linejoin="round"/>
<path d="M84.5491 385.594L88.8086 369.657L72.8649 373.942L56.9133 378.22L68.5975 389.872L80.2817 401.531L84.5491 385.594Z" stroke="white" stroke-opacity="0.15" stroke-width="5" stroke-miterlimit="10" stroke-linecap="round" stroke-linejoin="round"/>
<path d="M384.164 59.0934L398.463 50.8379L384.157 42.606L369.843 34.3662L369.858 50.8536L369.866 67.3489L384.164 59.0934Z" stroke="white" stroke-opacity="0.15" stroke-width="5" stroke-miterlimit="10" stroke-linecap="round" stroke-linejoin="round"/>
<path d="M84.1789 223.849L98.4849 215.594L84.171 207.362L69.865 199.122L69.8807 215.618L69.8886 232.105L84.1789 223.849Z" stroke="white" stroke-opacity="0.15" stroke-width="5" stroke-miterlimit="10" stroke-linecap="round" stroke-linejoin="round"/>
<path d="M273.425 196.85C273.425 203.761 267.819 209.359 260.898 209.359C253.977 209.359 248.372 203.761 248.372 196.85C248.372 189.939 253.977 184.341 260.898 184.341C267.819 184.341 273.425 189.939 273.425 196.85Z" stroke="white" stroke-opacity="0.15" stroke-width="5" stroke-miterlimit="10" stroke-linecap="round" stroke-linejoin="round"/>
<path d="M210.122 57.23C210.122 64.141 204.516 69.739 197.596 69.739C190.675 69.739 185.069 64.141 185.069 57.23C185.069 50.319 190.683 44.7209 197.596 44.7209C204.509 44.7131 210.122 50.319 210.122 57.23Z" stroke="white" stroke-opacity="0.15" stroke-width="5" stroke-miterlimit="10" stroke-linecap="round" stroke-linejoin="round"/>
<path d="M218.114 426.487C218.114 433.398 212.508 438.996 205.587 438.996C198.667 438.996 193.061 433.398 193.061 426.487C193.061 419.576 198.674 413.978 205.587 413.978C212.508 413.97 218.114 419.576 218.114 426.487Z" stroke="white" stroke-opacity="0.15" stroke-width="5" stroke-miterlimit="10" stroke-linecap="round" stroke-linejoin="round"/>
<path d="M251.623 407.782C251.623 400.871 257.237 395.273 264.15 395.273C271.071 395.273 276.676 400.871 276.676 407.782" stroke="white" stroke-opacity="0.15" stroke-width="5" stroke-miterlimit="10" stroke-linecap="round" stroke-linejoin="round"/>
<path d="M151.623 215.618C151.623 208.707 157.237 203.109 164.149 203.109C171.062 203.109 176.676 208.707 176.676 215.618" stroke="white" stroke-opacity="0.15" stroke-width="5" stroke-miterlimit="10" stroke-linecap="round" stroke-linejoin="round"/>
<path d="M19.8059 114.028C19.8059 107.117 25.3882 101.519 32.2774 101.519C39.1667 101.519 44.7489 107.117 44.7489 114.028" stroke="white" stroke-opacity="0.15" stroke-width="5" stroke-miterlimit="10" stroke-linecap="round" stroke-linejoin="round"/>
<path d="M335.625 134.517C328.704 134.517 323.098 128.943 323.098 122.063C323.098 115.184 328.704 109.609 335.625 109.609" stroke="white" stroke-opacity="0.15" stroke-width="5" stroke-miterlimit="10" stroke-linecap="round" stroke-linejoin="round"/>
<path d="M33.9307 426.424C27.0099 426.424 21.404 420.849 21.404 413.97C21.404 407.09 27.0178 401.516 33.9307 401.516" stroke="white" stroke-opacity="0.15" stroke-width="5" stroke-miterlimit="10" stroke-linecap="round" stroke-linejoin="round"/>
<path d="M168.377 28.5166C161.457 28.5166 155.851 22.9422 155.851 16.0626C155.851 9.18305 161.457 3.60863 168.377 3.60863" stroke="white" stroke-opacity="0.15" stroke-width="5" stroke-miterlimit="10" stroke-linecap="round" stroke-linejoin="round"/>
<path d="M40.198 294.831C40.198 301.742 34.5922 307.34 27.6714 307.34C20.7507 307.34 15.1448 301.742 15.1448 294.831C15.1448 287.92 20.7585 282.322 27.6714 282.322C34.5843 282.322 40.198 287.92 40.198 294.831Z" stroke="white" stroke-opacity="0.15" stroke-width="5" stroke-miterlimit="10" stroke-linecap="round" stroke-linejoin="round"/>
<path d="M426.563 309.125C426.563 316.036 420.957 321.634 414.036 321.634C407.116 321.634 401.51 316.036 401.51 309.125C401.51 302.214 407.116 296.616 414.036 296.616C420.957 296.608 426.563 302.214 426.563 309.125Z" stroke="white" stroke-opacity="0.15" stroke-width="5" stroke-miterlimit="10" stroke-linecap="round" stroke-linejoin="round"/>
<path d="M416.831 109.617H391.912V134.501H416.831V109.617Z" stroke="white" stroke-opacity="0.15" stroke-width="5" stroke-miterlimit="10" stroke-linecap="round" stroke-linejoin="round"/>
<path d="M135.041 122.063H110.122V146.948H135.041V122.063Z" stroke="white" stroke-opacity="0.15" stroke-width="5" stroke-miterlimit="10" stroke-linecap="round" stroke-linejoin="round"/>
<path d="M133.797 280.954H108.878V305.838H133.797V280.954Z" stroke="white" stroke-opacity="0.15" stroke-width="5" stroke-miterlimit="10" stroke-linecap="round" stroke-linejoin="round"/>
<path d="M416.831 401.531H391.912V426.416H416.831V401.531Z" stroke="white" stroke-opacity="0.15" stroke-width="5" stroke-miterlimit="10" stroke-linecap="round" stroke-linejoin="round"/>
<path d="M313.445 3.61646H288.526V28.5009H313.445V3.61646Z" stroke="white" stroke-opacity="0.15" stroke-width="5" stroke-miterlimit="10" stroke-linecap="round" stroke-linejoin="round"/>
<path d="M252.71 256.675C247.269 256.675 248.206 247.044 241.262 247.044" stroke="white" stroke-opacity="0.15" stroke-width="5" stroke-miterlimit="10" stroke-linecap="round" stroke-linejoin="round"/>
<path d="M275.598 256.675C270.157 256.675 271.094 247.044 264.15 247.044" stroke="white" stroke-opacity="0.15" stroke-width="5" stroke-miterlimit="10" stroke-linecap="round" stroke-linejoin="round"/>
<path d="M252.71 256.675C258.15 256.675 257.213 247.044 264.158 247.044" stroke="white" stroke-opacity="0.15" stroke-width="5" stroke-miterlimit="10" stroke-linecap="round" stroke-linejoin="round"/>
<path d="M275.598 256.675C281.038 256.675 280.101 247.044 287.046 247.044" stroke="white" stroke-opacity="0.15" stroke-width="5" stroke-miterlimit="10" stroke-linecap="round" stroke-linejoin="round"/>
<path d="M317.918 436.118C312.477 436.118 313.414 426.479 306.47 426.479" stroke="white" stroke-opacity="0.15" stroke-width="5" stroke-miterlimit="10" stroke-linecap="round" stroke-linejoin="round"/>
<path d="M340.806 436.118C335.365 436.118 336.302 426.487 329.358 426.487" stroke="white" stroke-opacity="0.15" stroke-width="5" stroke-miterlimit="10" stroke-linecap="round" stroke-linejoin="round"/>
<path d="M317.918 436.118C323.358 436.118 322.421 426.487 329.366 426.487" stroke="white" stroke-opacity="0.15" stroke-width="5" stroke-miterlimit="10" stroke-linecap="round" stroke-linejoin="round"/>
<path d="M340.806 436.118C346.246 436.118 345.309 426.479 352.253 426.487" stroke="white" stroke-opacity="0.15" stroke-width="5" stroke-miterlimit="10" stroke-linecap="round" stroke-linejoin="round"/>
<path d="M349.128 177.414C343.687 177.414 344.624 167.783 337.68 167.783" stroke="white" stroke-opacity="0.15" stroke-width="5" stroke-miterlimit="10" stroke-linecap="round" stroke-linejoin="round"/>
<path d="M372.024 177.414C366.583 177.414 367.52 167.783 360.576 167.783" stroke="white" stroke-opacity="0.15" stroke-width="5" stroke-miterlimit="10" stroke-linecap="round" stroke-linejoin="round"/>
<path d="M349.128 177.414C354.568 177.414 353.631 167.783 360.576 167.783" stroke="white" stroke-opacity="0.15" stroke-width="5" stroke-miterlimit="10" stroke-linecap="round" stroke-linejoin="round"/>
<path d="M372.024 177.414C377.464 177.414 376.527 167.783 383.472 167.783" stroke="white" stroke-opacity="0.15" stroke-width="5" stroke-miterlimit="10" stroke-linecap="round" stroke-linejoin="round"/>
<path d="M30.8208 165.77C25.3802 165.77 26.3172 156.139 19.3728 156.139" stroke="white" stroke-opacity="0.15" stroke-width="5" stroke-miterlimit="10" stroke-linecap="round" stroke-linejoin="round"/>
<path d="M53.7089 165.77C48.2684 165.77 49.2053 156.139 42.261 156.139" stroke="white" stroke-opacity="0.15" stroke-width="5" stroke-miterlimit="10" stroke-linecap="round" stroke-linejoin="round"/>
<path d="M30.8208 165.77C36.2613 165.77 35.3244 156.139 42.2688 156.139" stroke="white" stroke-opacity="0.15" stroke-width="5" stroke-miterlimit="10" stroke-linecap="round" stroke-linejoin="round"/>
<path d="M53.7087 165.77C59.1493 165.77 58.2123 156.139 65.1567 156.139" stroke="white" stroke-opacity="0.15" stroke-width="5" stroke-miterlimit="10" stroke-linecap="round" stroke-linejoin="round"/>
<path d="M254.607 36.7878C254.607 42.2207 244.962 41.2851 244.962 48.2197" stroke="white" stroke-opacity="0.15" stroke-width="5" stroke-miterlimit="10" stroke-linecap="round" stroke-linejoin="round"/>
<path d="M254.607 13.9319C254.607 19.3648 244.962 18.4292 244.962 25.3638" stroke="white" stroke-opacity="0.15" stroke-width="5" stroke-miterlimit="10" stroke-linecap="round" stroke-linejoin="round"/>
<path d="M254.607 36.7878C254.607 31.3549 244.962 32.2906 244.962 25.356" stroke="white" stroke-opacity="0.15" stroke-width="5" stroke-miterlimit="10" stroke-linecap="round" stroke-linejoin="round"/>
<path d="M254.607 13.9319C254.607 8.499 244.962 9.43462 244.962 2.5" stroke="white" stroke-opacity="0.15" stroke-width="5" stroke-miterlimit="10" stroke-linecap="round" stroke-linejoin="round"/>
<path d="M184.423 156.351C184.423 161.784 174.779 160.848 174.779 167.783" stroke="white" stroke-opacity="0.15" stroke-width="5" stroke-miterlimit="10" stroke-linecap="round" stroke-linejoin="round"/>
<path d="M184.423 133.495C184.423 138.928 174.779 137.992 174.779 144.927" stroke="white" stroke-opacity="0.15" stroke-width="5" stroke-miterlimit="10" stroke-linecap="round" stroke-linejoin="round"/>
<path d="M184.423 156.351C184.423 150.918 174.779 151.854 174.779 144.919" stroke="white" stroke-opacity="0.15" stroke-width="5" stroke-miterlimit="10" stroke-linecap="round" stroke-linejoin="round"/>
<path d="M184.423 133.495C184.423 128.062 174.779 128.998 174.779 122.063" stroke="white" stroke-opacity="0.15" stroke-width="5" stroke-miterlimit="10" stroke-linecap="round" stroke-linejoin="round"/>
<path d="M374.669 347.352C374.669 352.785 365.024 351.849 365.024 358.784" stroke="white" stroke-opacity="0.15" stroke-width="5" stroke-miterlimit="10" stroke-linecap="round" stroke-linejoin="round"/>
<path d="M374.669 324.496C374.669 329.929 365.024 328.993 365.024 335.928" stroke="white" stroke-opacity="0.15" stroke-width="5" stroke-miterlimit="10" stroke-linecap="round" stroke-linejoin="round"/>
<path d="M374.669 347.352C374.669 341.919 365.024 342.854 365.024 335.92" stroke="white" stroke-opacity="0.15" stroke-width="5" stroke-miterlimit="10" stroke-linecap="round" stroke-linejoin="round"/>
<path d="M374.669 324.496C374.669 319.063 365.024 319.999 365.024 313.064" stroke="white" stroke-opacity="0.15" stroke-width="5" stroke-miterlimit="10" stroke-linecap="round" stroke-linejoin="round"/>
<path d="M138.624 365.364C138.624 370.797 128.979 369.862 128.979 376.796" stroke="white" stroke-opacity="0.15" stroke-width="5" stroke-miterlimit="10" stroke-linecap="round" stroke-linejoin="round"/>
<path d="M138.624 342.509C138.624 347.941 128.979 347.006 128.979 353.94" stroke="white" stroke-opacity="0.15" stroke-width="5" stroke-miterlimit="10" stroke-linecap="round" stroke-linejoin="round"/>
<path d="M138.624 365.365C138.624 359.932 128.979 360.867 128.979 353.933" stroke="white" stroke-opacity="0.15" stroke-width="5" stroke-miterlimit="10" stroke-linecap="round" stroke-linejoin="round"/>
<path d="M138.624 342.509C138.624 337.076 128.979 338.011 128.979 331.077" stroke="white" stroke-opacity="0.15" stroke-width="5" stroke-miterlimit="10" stroke-linecap="round" stroke-linejoin="round"/>
<path d="M280.141 282.322H308.383" stroke="white" stroke-opacity="0.15" stroke-width="5" stroke-miterlimit="10" stroke-linecap="round" stroke-linejoin="round"/>
<path d="M2.5 200.829H30.742" stroke="white" stroke-opacity="0.15" stroke-width="5" stroke-miterlimit="10" stroke-linecap="round" stroke-linejoin="round"/>
<path d="M282.251 69.739H310.493" stroke="white" stroke-opacity="0.15" stroke-width="5" stroke-miterlimit="10" stroke-linecap="round" stroke-linejoin="round"/>
<path d="M393.573 6.09309H421.815" stroke="white" stroke-opacity="0.15" stroke-width="5" stroke-miterlimit="10" stroke-linecap="round" stroke-linejoin="round"/>
<path d="M115.09 426.424H143.332" stroke="white" stroke-opacity="0.15" stroke-width="5" stroke-miterlimit="10" stroke-linecap="round" stroke-linejoin="round"/>
<path d="M187.604 371.945L207.571 351.998" stroke="white" stroke-opacity="0.15" stroke-width="5" stroke-miterlimit="10" stroke-linecap="round" stroke-linejoin="round"/>
<path d="M22.2937 26.0321L42.2686 6.09309" stroke="white" stroke-opacity="0.15" stroke-width="5" stroke-miterlimit="10" stroke-linecap="round" stroke-linejoin="round"/>
<path d="M407.69 230.462L427.657 210.523" stroke="white" stroke-opacity="0.15" stroke-width="5" stroke-miterlimit="10" stroke-linecap="round" stroke-linejoin="round"/>
<g opacity="0.3">
<path opacity="0.3" d="M263.48 118.274L255.213 103.988L246.97 118.274L238.718 132.567L255.229 132.552L271.747 132.544L263.48 118.274Z" stroke="white" stroke-opacity="0.15" stroke-miterlimit="10"/>
<path opacity="0.3" d="M236.144 292.818L227.877 278.532L219.633 292.826L211.382 307.112L227.893 307.104L244.411 307.096L236.144 292.818Z" stroke="white" stroke-opacity="0.15" stroke-miterlimit="10"/>
<path opacity="0.3" d="M330.901 346.416L322.634 332.138L314.39 346.424L306.139 360.718L322.649 360.702L339.168 360.694L330.901 346.416Z" stroke="white" stroke-opacity="0.15" stroke-miterlimit="10"/>
<path opacity="0.3" d="M385.393 236.791L389.66 220.854L373.716 225.139L357.765 229.416L369.449 241.068L381.133 252.728L385.393 236.791Z" stroke="white" stroke-opacity="0.15" stroke-miterlimit="10"/>
<path opacity="0.3" d="M113.822 51.7972L118.082 35.8601L102.138 40.1451L86.1865 44.4222L97.8707 56.0743L109.555 67.7263L113.822 51.7972Z" stroke="white" stroke-opacity="0.15" stroke-miterlimit="10"/>
<path opacity="0.3" d="M102.508 396.099L106.776 380.162L90.8319 384.447L74.8804 388.724L86.5645 400.376L98.2487 412.036L102.508 396.099Z" stroke="white" stroke-opacity="0.15" stroke-miterlimit="10"/>
<path opacity="0.3" d="M402.132 69.5975L416.43 61.342L402.124 53.1101L387.81 44.8704L387.826 61.3578L387.834 77.853L402.132 69.5975Z" stroke="white" stroke-opacity="0.15" stroke-miterlimit="10"/>
<path opacity="0.3" d="M102.146 234.354L116.444 226.098L102.138 217.866L87.8242 209.627L87.8399 226.114L87.8478 242.609L102.146 234.354Z" stroke="white" stroke-opacity="0.15" stroke-miterlimit="10"/>
<path opacity="0.3" d="M291.392 207.354C291.392 214.265 285.786 219.863 278.865 219.863C271.944 219.863 266.339 214.265 266.339 207.354C266.339 200.443 271.944 194.845 278.865 194.845C285.778 194.837 291.392 200.443 291.392 207.354Z" stroke="white" stroke-opacity="0.15" stroke-miterlimit="10"/>
<path opacity="0.3" d="M228.082 67.7263C228.082 74.6373 222.476 80.2354 215.555 80.2354C208.634 80.2354 203.028 74.6373 203.028 67.7263C203.028 60.8153 208.642 55.2173 215.555 55.2173C222.476 55.2173 228.082 60.8231 228.082 67.7263Z" stroke="white" stroke-opacity="0.15" stroke-miterlimit="10"/>
<path opacity="0.3" d="M236.081 436.991C236.081 443.902 230.475 449.5 223.554 449.5C216.634 449.5 211.028 443.902 211.028 436.991C211.028 430.08 216.642 424.482 223.554 424.482C230.467 424.474 236.081 430.08 236.081 436.991Z" stroke="white" stroke-opacity="0.15" stroke-miterlimit="10"/>
<path opacity="0.3" d="M269.59 418.286C269.59 411.375 275.204 405.777 282.117 405.777C289.038 405.777 294.643 411.375 294.643 418.286" stroke="white" stroke-opacity="0.15" stroke-miterlimit="10"/>
<path opacity="0.3" d="M169.59 226.122C169.59 219.211 175.204 213.613 182.116 213.613C189.029 213.613 194.643 219.211 194.643 226.122" stroke="white" stroke-opacity="0.15" stroke-miterlimit="10"/>
<path opacity="0.3" d="M37.7729 124.532C37.7729 117.621 43.3552 112.023 50.2445 112.023C57.1337 112.023 62.716 117.621 62.716 124.532" stroke="white" stroke-opacity="0.15" stroke-miterlimit="10"/>
<path opacity="0.3" d="M353.592 145.021C346.671 145.021 341.065 139.447 341.065 132.567C341.065 125.688 346.671 120.113 353.592 120.113" stroke="white" stroke-opacity="0.15" stroke-miterlimit="10"/>
<path opacity="0.3" d="M51.8977 436.928C44.977 436.928 39.3711 431.354 39.3711 424.474C39.3711 417.594 44.977 412.02 51.8977 412.02" stroke="white" stroke-opacity="0.15" stroke-miterlimit="10"/>
<path opacity="0.3" d="M186.344 39.0208C179.424 39.0208 173.818 33.4464 173.818 26.5668C173.818 19.6872 179.424 14.1128 186.344 14.1128" stroke="white" stroke-opacity="0.15" stroke-miterlimit="10"/>
<path opacity="0.3" d="M58.1651 305.335C58.1651 312.246 52.5592 317.844 45.6384 317.844C38.7177 317.844 33.1118 312.246 33.1118 305.335C33.1118 298.424 38.7256 292.826 45.6384 292.826C52.5513 292.826 58.1651 298.424 58.1651 305.335Z" stroke="white" stroke-opacity="0.15" stroke-miterlimit="10"/>
<path opacity="0.3" d="M444.53 319.621C444.53 326.532 438.924 332.13 432.003 332.13C425.083 332.13 419.477 326.532 419.477 319.621C419.477 312.71 425.083 307.112 432.003 307.112C438.916 307.112 444.53 312.718 444.53 319.621Z" stroke="white" stroke-opacity="0.15" stroke-miterlimit="10"/>
<path opacity="0.3" d="M434.791 120.121H409.871V145.006H434.791V120.121Z" stroke="white" stroke-opacity="0.15" stroke-miterlimit="10"/>
<path opacity="0.3" d="M153.009 132.567H128.089V157.452H153.009V132.567Z" stroke="white" stroke-opacity="0.15" stroke-miterlimit="10"/>
<path opacity="0.3" d="M151.757 291.458H126.837V316.343H151.757V291.458Z" stroke="white" stroke-opacity="0.15" stroke-miterlimit="10"/>
<path opacity="0.3" d="M434.791 412.036H409.871V436.92H434.791V412.036Z" stroke="white" stroke-opacity="0.15" stroke-miterlimit="10"/>
<path opacity="0.3" d="M331.405 14.1206H306.485V39.0051H331.405V14.1206Z" stroke="white" stroke-opacity="0.15" stroke-miterlimit="10"/>
<g opacity="0.3">
<path opacity="0.3" d="M270.677 267.179C265.236 267.179 266.173 257.548 259.229 257.548" stroke="white" stroke-opacity="0.15" stroke-miterlimit="10"/>
<path opacity="0.3" d="M293.565 267.179C288.124 267.179 289.061 257.548 282.117 257.548" stroke="white" stroke-opacity="0.15" stroke-miterlimit="10"/>
<path opacity="0.3" d="M270.677 267.179C276.117 267.179 275.181 257.548 282.125 257.548" stroke="white" stroke-opacity="0.15" stroke-miterlimit="10"/>
<path opacity="0.3" d="M293.565 267.179C299.005 267.179 298.068 257.548 305.013 257.548" stroke="white" stroke-opacity="0.15" stroke-miterlimit="10"/>
</g>
<g opacity="0.3">
<path opacity="0.3" d="M335.885 446.622C330.444 446.622 331.381 436.983 324.437 436.983" stroke="white" stroke-opacity="0.15" stroke-miterlimit="10"/>
<path opacity="0.3" d="M358.773 446.622C353.332 446.622 354.269 436.991 347.325 436.991" stroke="white" stroke-opacity="0.15" stroke-miterlimit="10"/>
<path opacity="0.3" d="M335.885 446.622C341.325 446.622 340.388 436.991 347.333 436.991" stroke="white" stroke-opacity="0.15" stroke-miterlimit="10"/>
<path opacity="0.3" d="M358.773 446.622C364.213 446.622 363.276 436.983 370.221 436.991" stroke="white" stroke-opacity="0.15" stroke-miterlimit="10"/>
</g>
<g opacity="0.3">
<path opacity="0.3" d="M367.095 187.918C361.654 187.918 362.591 178.287 355.647 178.287" stroke="white" stroke-opacity="0.15" stroke-miterlimit="10"/>
<path opacity="0.3" d="M389.983 187.918C384.542 187.918 385.479 178.287 378.535 178.287" stroke="white" stroke-opacity="0.15" stroke-miterlimit="10"/>
<path opacity="0.3" d="M367.095 187.918C372.535 187.918 371.598 178.287 378.543 178.287" stroke="white" stroke-opacity="0.15" stroke-miterlimit="10"/>
<path opacity="0.3" d="M389.983 187.918C395.424 187.918 394.487 178.287 401.431 178.287" stroke="white" stroke-opacity="0.15" stroke-miterlimit="10"/>
</g>
<g opacity="0.3">
<path opacity="0.3" d="M48.7878 176.274C43.3473 176.274 44.2842 166.643 37.3398 166.643" stroke="white" stroke-opacity="0.15" stroke-miterlimit="10"/>
<path opacity="0.3" d="M71.676 176.274C66.2354 176.274 67.1724 166.643 60.228 166.643" stroke="white" stroke-opacity="0.15" stroke-miterlimit="10"/>
<path opacity="0.3" d="M48.7878 176.274C54.2284 176.274 53.2914 166.643 60.2358 166.643" stroke="white" stroke-opacity="0.15" stroke-miterlimit="10"/>
<path opacity="0.3" d="M71.6758 176.274C77.1163 176.274 76.1794 166.643 83.1237 166.643" stroke="white" stroke-opacity="0.15" stroke-miterlimit="10"/>
</g>
<g opacity="0.3">
<path opacity="0.3" d="M272.574 47.292C272.574 52.7249 262.929 51.7893 262.929 58.7239" stroke="white" stroke-opacity="0.15" stroke-miterlimit="10"/>
<path opacity="0.3" d="M272.574 24.4361C272.574 29.869 262.929 28.9333 262.929 35.868" stroke="white" stroke-opacity="0.15" stroke-miterlimit="10"/>
<path opacity="0.3" d="M272.574 47.292C272.574 41.8591 262.929 42.7947 262.929 35.8601" stroke="white" stroke-opacity="0.15" stroke-miterlimit="10"/>
<path opacity="0.3" d="M272.574 24.4361C272.574 19.0032 262.929 19.9388 262.929 13.0042" stroke="white" stroke-opacity="0.15" stroke-miterlimit="10"/>
</g>
<g opacity="0.3">
<path opacity="0.3" d="M202.391 166.855C202.391 172.288 192.746 171.352 192.746 178.287" stroke="white" stroke-opacity="0.15" stroke-miterlimit="10"/>
<path opacity="0.3" d="M202.391 143.999C202.391 149.432 192.746 148.497 192.746 155.431" stroke="white" stroke-opacity="0.15" stroke-miterlimit="10"/>
<path opacity="0.3" d="M202.391 166.855C202.391 161.422 192.746 162.358 192.746 155.423" stroke="white" stroke-opacity="0.15" stroke-miterlimit="10"/>
<path opacity="0.3" d="M202.391 143.999C202.391 138.566 192.746 139.502 192.746 132.567" stroke="white" stroke-opacity="0.15" stroke-miterlimit="10"/>
</g>
<g opacity="0.3">
<path opacity="0.3" d="M392.636 357.856C392.636 363.289 382.991 362.353 382.991 369.288" stroke="white" stroke-opacity="0.15" stroke-miterlimit="10"/>
<path opacity="0.3" d="M392.636 335C392.636 340.433 382.991 339.497 382.991 346.432" stroke="white" stroke-opacity="0.15" stroke-miterlimit="10"/>
<path opacity="0.3" d="M392.636 357.856C392.636 352.423 382.991 353.359 382.991 346.424" stroke="white" stroke-opacity="0.15" stroke-miterlimit="10"/>
<path opacity="0.3" d="M392.636 335C392.636 329.567 382.991 330.503 382.991 323.568" stroke="white" stroke-opacity="0.15" stroke-miterlimit="10"/>
</g>
<g opacity="0.3">
<path opacity="0.3" d="M156.583 375.869C156.583 381.302 146.938 380.366 146.938 387.301" stroke="white" stroke-opacity="0.15" stroke-miterlimit="10"/>
<path opacity="0.3" d="M156.583 353.013C156.583 358.446 146.938 357.51 146.938 364.445" stroke="white" stroke-opacity="0.15" stroke-miterlimit="10"/>
<path opacity="0.3" d="M156.583 375.869C156.583 370.436 146.938 371.371 146.938 364.437" stroke="white" stroke-opacity="0.15" stroke-miterlimit="10"/>
<path opacity="0.3" d="M156.583 353.013C156.583 347.58 146.938 348.515 146.938 341.581" stroke="white" stroke-opacity="0.15" stroke-miterlimit="10"/>
</g>
<path opacity="0.3" d="M298.1 292.826H326.342" stroke="white" stroke-opacity="0.15" stroke-miterlimit="10"/>
<path opacity="0.3" d="M20.467 211.333H48.709" stroke="white" stroke-opacity="0.15" stroke-miterlimit="10"/>
<path opacity="0.3" d="M300.21 80.2432H328.452" stroke="white" stroke-opacity="0.15" stroke-miterlimit="10"/>
<path opacity="0.3" d="M411.533 16.5972H439.775" stroke="white" stroke-opacity="0.15" stroke-miterlimit="10"/>
<path opacity="0.3" d="M133.049 436.928H161.291" stroke="white" stroke-opacity="0.15" stroke-miterlimit="10"/>
<path opacity="0.3" d="M205.571 382.449L225.538 362.503" stroke="white" stroke-opacity="0.15" stroke-miterlimit="10"/>
<path opacity="0.3" d="M40.2607 36.5362L60.2278 16.5972" stroke="white" stroke-opacity="0.15" stroke-miterlimit="10"/>
<path opacity="0.3" d="M425.657 240.966L445.624 221.027" stroke="white" stroke-opacity="0.15" stroke-miterlimit="10"/>
</g>
<path d="M259.631 349.089C257.324 350.536 254.277 349.844 252.828 347.541C251.371 345.237 252.072 342.194 254.371 340.747C256.678 339.301 259.725 339.993 261.174 342.296C262.63 344.6 261.938 347.643 259.631 349.089Z" stroke="white" stroke-opacity="0.15" stroke-width="5" stroke-miterlimit="10" stroke-linecap="round" stroke-linejoin="round"/>
<path d="M220.744 213.534C218.437 214.981 215.39 214.289 213.941 211.985C212.492 209.682 213.185 206.639 215.484 205.192C217.791 203.745 220.838 204.437 222.287 206.741C223.743 209.037 223.05 212.08 220.744 213.534Z" stroke="white" stroke-opacity="0.15" stroke-width="5" stroke-miterlimit="10" stroke-linecap="round" stroke-linejoin="round"/>
<path d="M42.8906 255.22C40.5837 256.667 37.5367 255.975 36.088 253.672C34.6393 251.368 35.3321 248.325 37.6312 246.878C39.9381 245.432 42.9851 246.124 44.4338 248.427C45.8904 250.723 45.1975 253.766 42.8906 255.22Z" stroke="white" stroke-opacity="0.15" stroke-width="5" stroke-miterlimit="10" stroke-linecap="round" stroke-linejoin="round"/>
<path d="M93.4538 100.104C91.1469 101.55 88.0999 100.858 86.6512 98.5547C85.2025 96.251 85.8953 93.2083 88.1944 91.7616C90.5013 90.3149 93.5483 91.0068 94.997 93.3105C96.4536 95.6142 95.7607 98.6569 93.4538 100.104Z" stroke="white" stroke-opacity="0.15" stroke-width="5" stroke-miterlimit="10" stroke-linecap="round" stroke-linejoin="round"/>
<path d="M364.914 97.6584C362.607 99.1051 359.56 98.4132 358.111 96.1095C356.663 93.8058 357.355 90.7631 359.655 89.3164C361.961 87.8697 365.008 88.5616 366.457 90.8653C367.914 93.1611 367.221 96.2038 364.914 97.6584Z" stroke="white" stroke-opacity="0.15" stroke-width="5" stroke-miterlimit="10" stroke-linecap="round" stroke-linejoin="round"/>
<path d="M434.633 273.225C432.326 274.672 429.279 273.98 427.831 271.676C426.382 269.373 427.075 266.33 429.374 264.883C431.681 263.437 434.728 264.129 436.176 266.432C437.625 268.736 436.932 271.779 434.633 273.225Z" stroke="white" stroke-opacity="0.15" stroke-width="5" stroke-miterlimit="10" stroke-linecap="round" stroke-linejoin="round"/>
</svg>
