<svg width="9" height="8" viewBox="0 0 9 8" fill="none" xmlns="http://www.w3.org/2000/svg">
<path d="M8.38108 4.00006L7.45154 2.93719L7.58107 1.53145L6.20581 1.21907L5.4858 0L4.19054 0.556199L2.89528 0L2.17527 1.21526L0.800012 1.52383L0.929538 2.93338L0 4.00006L0.929538 5.06293L0.800012 6.47248L2.17527 6.78487L2.89528 8.00012L4.19054 7.44011L5.4858 7.99631L6.20581 6.78106L7.58107 6.46867L7.45154 5.06293L8.38108 4.00006ZM3.19243 5.5277L2.28575 4.6134C2.25043 4.57816 2.22241 4.5363 2.2033 4.49021C2.18418 4.44413 2.17434 4.39472 2.17434 4.34483C2.17434 4.29493 2.18418 4.24553 2.2033 4.19945C2.22241 4.15336 2.25043 4.1115 2.28575 4.07625L2.31242 4.04959C2.46099 3.90101 2.7048 3.90101 2.85338 4.04959L3.46672 4.66674L5.42865 2.70099C5.57723 2.55242 5.82104 2.55242 5.96961 2.70099L5.99628 2.72766C6.14485 2.87623 6.14485 3.11624 5.99628 3.26481L3.74101 5.5277C3.58482 5.67628 3.34481 5.67628 3.19243 5.5277V5.5277Z" fill="#5386E4"/>
</svg>
