<svg width="23" height="23" viewBox="0 0 23 23" fill="none" xmlns="http://www.w3.org/2000/svg">
<path d="M21.85 6.3249C21.85 7.6974 21.3048 9.01368 20.3343 9.98418C19.3638 10.9547 18.0475 11.4999 16.675 11.4999C15.3025 11.4999 13.9862 10.9547 13.0157 9.98418C12.0452 9.01368 11.5 7.6974 11.5 6.3249C11.5 4.95241 12.0452 3.63613 13.0157 2.66562C13.9862 1.69512 15.3025 1.1499 16.675 1.1499C18.0475 1.1499 19.3638 1.69512 20.3343 2.66562C21.3048 3.63613 21.85 4.95241 21.85 6.3249V6.3249ZM17.25 4.0249C17.25 3.8724 17.1894 3.72615 17.0816 3.61832C16.9737 3.51048 16.8275 3.4499 16.675 3.4499C16.5225 3.4499 16.3762 3.51048 16.2684 3.61832C16.1606 3.72615 16.1 3.8724 16.1 4.0249V5.7499H14.375C14.2225 5.7499 14.0762 5.81048 13.9684 5.91832C13.8606 6.02615 13.8 6.1724 13.8 6.3249C13.8 6.4774 13.8606 6.62366 13.9684 6.73149C14.0762 6.83932 14.2225 6.8999 14.375 6.8999H16.1V8.6249C16.1 8.7774 16.1606 8.92366 16.2684 9.03149C16.3762 9.13932 16.5225 9.1999 16.675 9.1999C16.8275 9.1999 16.9737 9.13932 17.0816 9.03149C17.1894 8.92366 17.25 8.7774 17.25 8.6249V6.8999H18.975C19.1275 6.8999 19.2737 6.83932 19.3816 6.73149C19.4894 6.62366 19.55 6.4774 19.55 6.3249C19.55 6.1724 19.4894 6.02615 19.3816 5.91832C19.2737 5.81048 19.1275 5.7499 18.975 5.7499H17.25V4.0249ZM16.675 12.6499C17.2582 12.6505 17.8387 12.5704 18.4 12.4119V20.1249C18.3999 20.2309 18.3705 20.3348 18.315 20.4252C18.2596 20.5155 18.1802 20.5888 18.0857 20.6369C17.9912 20.685 17.8853 20.706 17.7796 20.6976C17.6739 20.6893 17.5726 20.6518 17.4869 20.5895L11.5 16.2356L5.51308 20.5895C5.42733 20.6518 5.32601 20.6893 5.22033 20.6976C5.11464 20.706 5.00871 20.685 4.91422 20.6369C4.81973 20.5888 4.74038 20.5155 4.68492 20.4252C4.62946 20.3348 4.60007 20.2309 4.59998 20.1249V5.1749C4.59998 4.4124 4.90288 3.68114 5.44204 3.14197C5.98121 2.6028 6.71248 2.2999 7.47498 2.2999H11.7955C11.0322 3.22521 10.5477 4.34851 10.3986 5.53875C10.2495 6.72898 10.442 7.93707 10.9535 9.02208C11.465 10.1071 12.2745 11.0243 13.2876 11.6666C14.3006 12.309 15.4754 12.65 16.675 12.6499V12.6499Z" fill="white"/>
</svg>
