<svg width="375" height="324" viewBox="0 0 375 324" fill="none" xmlns="http://www.w3.org/2000/svg">
<mask id="mask0_208_98" style="mask-type:alpha" maskUnits="userSpaceOnUse" x="0" y="0" width="375" height="324">
<path d="M0 0H375V283.837C375 306.755 355.782 324.987 332.895 323.782L37.8954 308.239C16.6513 307.12 0 289.568 0 268.294V0Z" fill="#34A853"/>
</mask>
<g mask="url(#mask0_208_98)">
<g opacity="0.06">
<path d="M100.581 173.461L108.139 161.509L110.9 171.491L119.939 168.95L121.538 178.208L131.739 176.407L124.198 188.358L100.581 173.461Z" fill="white"/>
<path d="M124.198 189.537C123.979 189.537 123.761 189.469 123.575 189.351L99.9753 174.454C99.4198 174.1 99.2683 173.377 99.605 172.821L107.146 160.87C107.399 160.482 107.853 160.264 108.308 160.331C108.762 160.398 109.149 160.735 109.267 161.189L111.708 170.044L119.62 167.822C119.939 167.738 120.293 167.788 120.562 167.956C120.848 168.142 121.034 168.428 121.101 168.748L122.498 176.844L131.538 175.245C131.992 175.161 132.463 175.363 132.716 175.75C132.968 176.137 132.985 176.642 132.733 177.029L125.191 188.981C124.973 189.335 124.585 189.537 124.198 189.537ZM102.214 173.09L123.828 186.725L129.316 178.023L121.741 179.369C121.438 179.42 121.118 179.352 120.865 179.167C120.613 178.982 120.428 178.713 120.377 178.41L118.997 170.431L111.203 172.619C110.9 172.703 110.58 172.67 110.311 172.518C110.042 172.367 109.84 172.114 109.755 171.811L107.702 164.388L102.214 173.09Z" fill="white"/>
<path d="M28.333 33.9977C28.1142 33.5432 27.9964 32.5501 27.9964 32.5501L26.2289 8.61328L43.1799 25.598L43.1462 25.6148C43.5166 25.9515 43.8532 26.3386 44.0721 26.7931C45.3514 29.5706 42.8601 33.4422 38.5171 35.4286C34.1573 37.4149 29.5955 36.7752 28.333 33.9977Z" fill="white"/>
<path d="M33.5011 37.7683C30.6226 37.7683 28.2491 36.6237 27.2728 34.4859C27.0034 33.8967 26.8688 32.9709 26.8351 32.6847L25.0508 8.69741C25.0171 8.20924 25.2865 7.73791 25.741 7.53591C26.1955 7.33392 26.7173 7.41808 27.0708 7.77158L44.0218 24.7563C44.0891 24.8236 44.1396 24.8909 44.1901 24.9751C44.611 25.3959 44.914 25.8336 45.1328 26.3049C45.924 28.0219 45.6546 30.0587 44.3753 32.045C43.2138 33.863 41.2948 35.4454 38.9887 36.489C37.1034 37.3643 35.218 37.7683 33.5011 37.7683ZM29.4106 33.4927C30.3869 35.6305 34.3259 36.0345 38.0124 34.3512C39.9145 33.4759 41.4632 32.2134 42.389 30.7657C43.2138 29.4864 43.4326 28.2407 42.9781 27.2813C42.8603 27.0288 42.6583 26.7594 42.3385 26.4733C42.2543 26.3891 42.1702 26.2881 42.1028 26.1871L27.6263 11.6769L29.1581 32.4322C29.2086 32.7689 29.3264 33.3244 29.4106 33.4927Z" fill="white"/>
<path d="M33.8885 25.3623C38.2314 23.376 42.7764 24.0156 44.0557 26.7931C45.335 29.5706 42.8437 33.4422 38.5008 35.4285C34.1578 37.4148 29.6128 36.7752 28.3335 33.9977C27.0542 31.2034 29.5455 27.3486 33.8885 25.3623Z" fill="white"/>
<path d="M33.5011 37.7516C33.0129 37.7516 32.5416 37.7179 32.0871 37.6506C29.7641 37.3139 28.0303 36.1861 27.256 34.4691C26.4648 32.7521 26.7342 30.7153 28.0135 28.729C29.175 26.911 31.094 25.3287 33.4001 24.285C38.4164 21.9957 43.5674 22.8879 45.1328 26.305C46.6983 29.7221 44.005 34.1998 38.9887 36.4891C37.1708 37.3307 35.2686 37.7516 33.5011 37.7516ZM34.3764 26.4397C32.4743 27.315 30.9256 28.5775 29.9998 30.0251C29.175 31.3045 28.9562 32.5501 29.4107 33.5096C29.8483 34.4691 30.9256 35.1256 32.4406 35.3444C34.1408 35.5801 36.1271 35.2434 38.0124 34.3681C41.6989 32.6848 43.9714 29.4528 42.995 27.2981C42.0019 25.1435 38.0629 24.7563 34.3764 26.4397Z" fill="white"/>
<path d="M353.567 271.06L342.103 267.188L339.73 255.337L348.786 247.358L360.25 251.213L362.64 263.064L353.567 271.06Z" fill="white"/>
<path d="M353.567 272.238C353.432 272.238 353.315 272.221 353.197 272.171L341.733 268.316C341.329 268.181 341.043 267.844 340.959 267.424L338.569 255.573C338.485 255.152 338.636 254.731 338.939 254.462L348.012 246.466C348.332 246.18 348.77 246.096 349.174 246.231L360.637 250.085C361.041 250.22 361.327 250.557 361.411 250.978L363.802 262.828C363.886 263.249 363.734 263.67 363.431 263.939L354.358 271.935C354.123 272.137 353.836 272.238 353.567 272.238ZM343.13 266.296L353.298 269.73L361.344 262.643L359.223 252.122L349.056 248.688L341.01 255.775L343.13 266.296Z" fill="white"/>
<path d="M353.567 272.238C353.012 272.238 352.524 271.851 352.406 271.295L350.15 260.118L339.343 256.482C338.721 256.28 338.401 255.607 338.603 254.984C338.805 254.361 339.478 254.041 340.101 254.243L351.564 258.098C351.968 258.233 352.254 258.57 352.339 258.99L354.729 270.841C354.864 271.481 354.443 272.103 353.803 272.221C353.719 272.221 353.635 272.238 353.567 272.238Z" fill="white"/>
<path d="M351.177 260.388C350.857 260.388 350.52 260.253 350.285 259.984C349.847 259.495 349.898 258.755 350.386 258.317L359.459 250.321C359.947 249.9 360.688 249.934 361.125 250.422C361.563 250.91 361.512 251.651 361.024 252.089L351.951 260.085C351.732 260.287 351.463 260.388 351.177 260.388Z" fill="white"/>
<path d="M211.512 215.746L211.529 215.78C211.663 215.628 211.798 215.477 211.95 215.342C212.152 215.157 212.354 214.988 212.606 214.854C212.808 214.753 213.094 214.669 213.363 214.601C213.481 214.568 213.616 214.534 213.734 214.517C213.852 214.483 213.953 214.467 213.953 214.467L214.508 214.483C214.592 214.483 214.676 214.483 214.777 214.5L229.894 215.022L221.746 227.765C221.696 227.849 221.645 227.916 221.595 228L221.292 228.472L221.275 228.438C221.14 228.59 221.006 228.741 220.854 228.876C220.652 229.061 220.45 229.229 220.198 229.364C219.996 229.465 219.693 229.549 219.423 229.616C219.306 229.65 219.188 229.684 219.053 229.701C218.935 229.734 218.834 229.751 218.834 229.751L218.279 229.734C218.195 229.734 218.11 229.734 218.009 229.717L202.893 229.196L211.041 216.453C211.091 216.369 211.142 216.301 211.192 216.217L211.512 215.746Z" fill="white"/>
<path d="M218.851 230.896C218.834 230.896 218.818 230.896 218.818 230.896L218.262 230.879C218.094 230.879 217.993 230.879 217.892 230.862L202.893 230.357C202.473 230.34 202.085 230.105 201.883 229.734C201.681 229.364 201.698 228.909 201.934 228.556L210.081 215.813C210.081 215.796 210.182 215.662 210.182 215.662L210.519 215.123C210.603 214.988 210.721 214.871 210.839 214.786C210.94 214.685 211.041 214.568 211.158 214.483C211.327 214.315 211.63 214.063 212.034 213.844C212.034 213.844 212.051 213.844 212.051 213.827C212.303 213.692 212.623 213.574 213.077 213.473C213.296 213.406 213.448 213.372 213.582 213.356L213.717 213.322C213.801 213.305 213.919 213.288 213.986 213.305L214.542 213.322C214.71 213.322 214.811 213.322 214.895 213.339L229.911 213.861C230.331 213.877 230.719 214.113 230.921 214.483C231.123 214.854 231.106 215.308 230.87 215.662L222.723 228.388C222.723 228.388 222.672 228.472 222.622 228.556L222.285 229.078C222.201 229.212 222.083 229.33 221.965 229.414C221.864 229.532 221.763 229.633 221.646 229.734C221.393 229.987 221.124 230.189 220.821 230.34C220.787 230.357 220.753 230.374 220.737 230.391C220.501 230.509 220.181 230.626 219.743 230.744C219.525 230.812 219.39 230.828 219.238 230.862L219.087 230.896C219.003 230.896 218.919 230.896 218.851 230.896ZM205.031 228.068L218.077 228.522L218.296 229.717L218.329 228.539L218.75 228.556L219.036 228.489C219.424 228.388 219.575 228.337 219.626 228.303C219.642 228.287 219.659 228.287 219.676 228.27C219.777 228.219 219.895 228.118 220.046 227.984C220.181 227.866 220.265 227.765 220.349 227.664C220.383 227.63 220.417 227.58 220.45 227.546L220.585 227.344L220.686 227.378C220.737 227.344 220.804 227.31 220.871 227.293L220.703 227.192L227.773 216.116L214.727 215.662L214.508 214.467L214.475 215.645L214.054 215.628L213.768 215.695C213.347 215.796 213.195 215.864 213.162 215.881C213.162 215.881 213.145 215.881 213.145 215.897C213.027 215.965 212.909 216.049 212.758 216.2C212.623 216.318 212.539 216.419 212.455 216.52C212.421 216.554 212.387 216.604 212.354 216.638L212.219 216.84L212.135 216.806C212.067 216.84 212.017 216.874 211.95 216.891L212.135 217.008L205.031 228.068Z" fill="white"/>
<path d="M218.514 230.912C217.454 230.912 216.343 230.593 215.215 229.953C213.431 228.943 211.832 227.209 210.704 225.071C209.593 222.934 209.071 220.644 209.239 218.591C209.425 216.352 210.418 214.652 212.034 213.81C212.606 213.507 213.33 213.726 213.633 214.298C213.936 214.87 213.717 215.594 213.145 215.897C211.966 216.52 211.68 217.985 211.613 218.793C211.478 220.392 211.899 222.243 212.808 223.977C213.717 225.711 214.996 227.108 216.394 227.899C217.101 228.303 218.481 228.893 219.659 228.27C220.231 227.967 220.938 228.186 221.258 228.775C221.561 229.347 221.342 230.054 220.77 230.374C220.063 230.744 219.306 230.912 218.514 230.912Z" fill="white"/>
<path d="M21.7514 234.027L28.1144 211.066L19.1086 214.483L17.4758 201.454L11.0287 224.129L19.8493 220.779L21.7514 234.027Z" fill="white"/>
<path d="M21.7515 235.205C21.7178 235.205 21.701 235.205 21.6673 235.205C21.1118 235.171 20.6573 234.751 20.5731 234.195L18.8898 222.412L11.4327 225.24C11.0119 225.408 10.5406 225.307 10.2207 225.004C9.90089 224.701 9.76623 224.247 9.88406 223.809L16.348 201.135C16.4995 200.596 17.0213 200.242 17.5768 200.276C18.1323 200.327 18.5868 200.747 18.6541 201.303L20.085 212.851L27.6936 209.972C28.1144 209.821 28.5857 209.905 28.9056 210.208C29.2254 210.511 29.3601 210.965 29.2422 211.403L22.8793 234.363C22.7446 234.852 22.2733 235.205 21.7515 235.205ZM19.8493 219.601C20.0513 219.601 20.2701 219.651 20.4553 219.769C20.7583 219.954 20.9771 220.257 21.0276 220.611L22.1218 228.287L26.3638 213.002L19.5126 215.594C19.176 215.729 18.7888 215.679 18.4858 215.51C18.1828 215.325 17.964 215.005 17.9303 214.652L17.0213 207.38L12.7962 222.21L19.4285 219.702C19.5631 219.634 19.7146 219.601 19.8493 219.601Z" fill="white"/>
<path d="M172.072 187.348C172.072 187.348 170.574 183.392 168.301 177.736C165.928 171.845 168.806 167.771 172.459 167.014C176.566 166.155 179.091 169.64 179.63 173.276C182.98 171.71 187.272 171.912 188.821 175.817C190.201 179.302 188.383 183.931 182.172 185.21C176.196 186.422 172.072 187.348 172.072 187.348Z" fill="white"/>
<path d="M172.072 188.527C171.584 188.527 171.146 188.224 170.978 187.769C170.978 187.769 169.479 183.813 167.207 178.174C165.944 175.026 165.944 171.996 167.224 169.623C168.267 167.67 170.085 166.307 172.223 165.852C174.058 165.465 175.809 165.802 177.273 166.812C178.788 167.855 179.916 169.589 180.505 171.677C182.559 171.02 184.629 171.02 186.346 171.693C187.996 172.35 189.242 173.629 189.932 175.38C190.74 177.417 190.605 179.689 189.545 181.625C188.265 183.999 185.723 185.665 182.407 186.355C176.465 187.567 172.341 188.493 172.341 188.51C172.24 188.527 172.156 188.527 172.072 188.527ZM173.688 168.057C173.368 168.057 173.031 168.091 172.695 168.158C171.247 168.461 170.001 169.404 169.294 170.734C168.352 172.485 168.385 174.824 169.395 177.299C171.011 181.305 172.24 184.47 172.812 185.985C174.378 185.631 177.694 184.908 181.936 184.049C184.562 183.51 186.515 182.265 187.474 180.514C188.198 179.184 188.282 177.636 187.743 176.255C187.289 175.111 186.531 174.319 185.471 173.899C184.006 173.309 182.02 173.478 180.135 174.353C179.798 174.505 179.411 174.505 179.074 174.319C178.755 174.151 178.519 173.831 178.468 173.461C178.165 171.424 177.206 169.657 175.91 168.764C175.253 168.293 174.513 168.057 173.688 168.057Z" fill="white"/>
<path d="M123.306 122.338C118.004 122.338 113.627 118.096 113.492 112.76C113.358 107.34 117.667 102.845 123.07 102.711C125.713 102.627 128.188 103.603 130.073 105.421C131.975 107.222 133.052 109.663 133.12 112.289C133.254 117.709 128.962 122.204 123.542 122.338C123.474 122.338 123.39 122.338 123.306 122.338ZM123.306 105.067C123.239 105.067 123.188 105.067 123.121 105.067C121.134 105.118 119.266 105.943 117.903 107.374C116.522 108.821 115.798 110.707 115.849 112.71C115.95 116.817 119.333 120.1 123.491 119.982C127.598 119.881 130.864 116.447 130.763 112.339C130.679 108.283 127.346 105.067 123.306 105.067Z" fill="white"/>
<path d="M77.6878 151.022C77.4858 151.022 77.2838 150.972 77.0986 150.871C74.2706 149.255 72.2338 146.645 71.3585 143.498C70.5 140.35 70.904 137.067 72.5031 134.239C74.1191 131.411 76.7283 129.375 79.8761 128.499C83.0239 127.624 86.3064 128.045 89.1343 129.644C89.7067 129.964 89.8918 130.688 89.572 131.243C89.2522 131.815 88.5283 132.001 87.9729 131.681C85.6835 130.385 83.0239 130.048 80.4989 130.755C77.9739 131.462 75.8529 133.095 74.5568 135.384C71.8803 140.097 73.53 146.124 78.2601 148.8C78.8324 149.12 79.0176 149.844 78.6978 150.399C78.4958 150.803 78.0918 151.022 77.6878 151.022Z" fill="white"/>
<path d="M144.516 232.074C144.381 232.074 144.246 232.057 144.112 232.007C143.506 231.788 143.186 231.115 143.405 230.492C145.021 225.997 148.303 222.395 152.629 220.358C156.955 218.321 161.82 218.103 166.315 219.719C166.921 219.937 167.241 220.611 167.022 221.234C166.803 221.84 166.13 222.159 165.507 221.941C161.601 220.543 157.376 220.729 153.623 222.496C149.869 224.264 147.024 227.394 145.61 231.3C145.442 231.771 145.004 232.074 144.516 232.074Z" fill="white"/>
<path d="M360.317 28.6616C359.93 28.6616 359.543 28.4596 359.324 28.1061L346.009 7.11515C345.656 6.55965 345.824 5.83582 346.38 5.48233C346.935 5.12883 347.659 5.29716 348.012 5.85266L361.327 26.8437C361.681 27.3991 361.513 28.123 360.957 28.4765C360.755 28.6111 360.536 28.6616 360.317 28.6616Z" fill="white"/>
<path d="M78.5968 206.252C78.4116 206.252 78.2264 206.201 78.0413 206.117L58.9524 195.899C58.3801 195.596 58.1613 194.873 58.4643 194.3C58.7673 193.728 59.4911 193.509 60.0634 193.812L79.1523 204.03C79.7246 204.333 79.9434 205.057 79.6404 205.629C79.4216 206.016 79.0176 206.252 78.5968 206.252Z" fill="white"/>
<path d="M63.9355 210.679C63.7504 210.679 63.5652 210.629 63.38 210.544C62.8077 210.241 62.5889 209.518 62.8919 208.945L73.1096 189.856C73.4126 189.284 74.1364 189.065 74.7088 189.368C75.2811 189.671 75.4999 190.395 75.1969 190.967L64.9792 210.056C64.7604 210.443 64.3564 210.679 63.9355 210.679Z" fill="white"/>
<path d="M107.163 232.31C106.877 232.31 106.608 232.209 106.372 232.007C105.884 231.569 105.85 230.828 106.271 230.34L110.244 225.896C110.681 225.408 111.422 225.357 111.91 225.795C112.398 226.233 112.432 226.973 112.011 227.462L108.038 231.906C107.82 232.175 107.483 232.31 107.163 232.31Z" fill="white"/>
<path d="M94.0164 247.039C93.7303 247.039 93.4609 246.938 93.2253 246.736C92.7371 246.298 92.7034 245.557 93.1243 245.069L97.0969 240.625C97.5346 240.137 98.2752 240.103 98.7634 240.524C99.2516 240.962 99.2852 241.702 98.8644 242.191L94.8918 246.635C94.6561 246.904 94.3363 247.039 94.0164 247.039Z" fill="white"/>
<path d="M115.159 240.07C115.075 240.07 114.991 240.07 114.923 240.053L109.082 238.841C108.443 238.706 108.039 238.084 108.173 237.444C108.308 236.804 108.931 236.4 109.57 236.535L115.411 237.747C116.051 237.882 116.455 238.504 116.32 239.144C116.203 239.683 115.714 240.07 115.159 240.07Z" fill="white"/>
<path d="M95.8343 236.047C95.7501 236.047 95.666 236.047 95.5986 236.03L89.7575 234.818C89.1178 234.683 88.7138 234.06 88.8485 233.421C88.9832 232.781 89.606 232.377 90.2457 232.512L96.0868 233.724C96.7264 233.858 97.1304 234.481 96.9958 235.121C96.8779 235.66 96.3898 236.047 95.8343 236.047Z" fill="white"/>
<path d="M106.607 249.665C106.119 249.665 105.648 249.345 105.48 248.857L103.611 243.184C103.409 242.561 103.746 241.905 104.369 241.703C104.991 241.501 105.648 241.837 105.85 242.46L107.718 248.133C107.92 248.756 107.584 249.412 106.961 249.614C106.843 249.631 106.725 249.665 106.607 249.665Z" fill="white"/>
<path d="M100.43 230.913C99.9416 230.913 99.4703 230.593 99.302 230.105L97.4335 224.432C97.2315 223.809 97.5681 223.152 98.191 222.95C98.8138 222.748 99.4703 223.085 99.6723 223.708L101.541 229.381C101.743 230.004 101.406 230.66 100.783 230.862C100.665 230.896 100.548 230.913 100.43 230.913Z" fill="white"/>
<path d="M51.4786 103.3C51.445 103.3 51.4113 103.3 51.3777 103.3C50.738 103.233 50.2498 102.66 50.3172 102.021L51.8658 85.1708L34.999 83.6221C34.3593 83.5548 33.8711 82.9824 33.9385 82.3428C34.0058 81.6863 34.5613 81.2149 35.2178 81.2823L53.2461 82.9319C53.8858 82.9993 54.374 83.5716 54.3066 84.2113L52.657 102.24C52.6065 102.846 52.0846 103.3 51.4786 103.3Z" fill="white"/>
<path d="M300.476 72.4449C300.375 72.4449 300.274 72.4281 300.173 72.4112L286.706 68.8426C286.319 68.7416 286.016 68.4554 285.881 68.0683C285.763 67.698 285.831 67.2771 286.083 66.9573L292.917 58.3892L281.185 55.2751C280.562 55.1067 280.175 54.4671 280.343 53.8274C280.511 53.2046 281.134 52.8174 281.791 52.9857L295.257 56.5544C295.644 56.6554 295.947 56.9415 296.082 57.3287C296.2 57.699 296.133 58.1199 295.88 58.4397L289.046 67.0078L300.779 70.1219C301.401 70.2903 301.789 70.9299 301.62 71.5696C301.469 72.0914 300.997 72.4449 300.476 72.4449Z" fill="white"/>
<path d="M166.736 139.912C166.466 139.912 166.197 139.828 165.978 139.643L156.501 131.748C155.996 131.327 155.929 130.587 156.35 130.082C156.77 129.577 157.511 129.509 158.016 129.93L166.584 137.084L173.738 128.516C174.159 128.011 174.9 127.944 175.405 128.365L183.973 135.519L191.127 126.951C191.548 126.446 192.288 126.378 192.793 126.799C193.298 127.22 193.366 127.961 192.945 128.466L185.05 137.943C184.629 138.448 183.889 138.515 183.384 138.094L174.816 130.94L167.661 139.508C167.409 139.778 167.072 139.912 166.736 139.912Z" fill="white"/>
<path d="M12.7961 176.979C12.2406 176.979 11.7524 176.592 11.6346 176.036C11.5 175.397 11.9208 174.774 12.5604 174.656L23.4515 172.485L21.28 161.593C21.1454 160.954 21.5662 160.331 22.2059 160.213L33.0969 158.042L30.9255 147.151C30.7908 146.511 31.2116 145.888 31.8513 145.77L42.7424 143.599L40.5709 132.708C40.4362 132.068 40.857 131.445 41.4967 131.327C42.1364 131.193 42.7592 131.614 42.877 132.253L45.2842 144.306C45.4188 144.945 44.998 145.568 44.3583 145.686L33.4673 147.858L35.6387 158.749C35.7734 159.388 35.3526 160.011 34.7129 160.129L23.8218 162.3L25.9933 173.192C26.128 173.831 25.7072 174.454 25.0675 174.572L13.0149 176.979C12.9476 176.979 12.8803 176.979 12.7961 176.979Z" fill="white"/>
<path d="M244.455 173.074C244.354 173.074 244.253 173.057 244.152 173.04L227.807 168.697C227.184 168.529 226.797 167.889 226.965 167.249L231.308 150.904C231.392 150.601 231.594 150.349 231.864 150.181C232.133 150.029 232.453 149.979 232.756 150.063L249.101 154.406C249.724 154.574 250.111 155.214 249.942 155.853L245.599 172.198C245.448 172.737 244.977 173.074 244.455 173.074ZM229.557 166.711L243.63 170.448L247.367 156.375L233.294 152.638L229.557 166.711Z" fill="white"/>
<path d="M323.89 228.741C323.52 228.741 323.15 228.657 322.813 228.472C321.668 227.866 321.231 226.452 321.82 225.307C322.106 224.751 322.594 224.348 323.2 224.162C323.806 223.977 324.429 224.028 324.985 224.314C325.54 224.6 325.944 225.088 326.129 225.694C326.314 226.283 326.264 226.923 325.978 227.478C325.557 228.286 324.749 228.741 323.89 228.741ZM323.89 226.384V226.401L324.934 226.923L323.89 226.384Z" fill="white"/>
<path d="M337.997 80.6764L327.493 71.1657L337.811 70.1388L336.835 60.7459H346.228L346.161 50.3262L356.665 59.8369L337.997 80.6764Z" fill="white"/>
<path d="M337.997 81.8547C337.71 81.8547 337.424 81.7537 337.205 81.5517L326.702 72.041C326.348 71.7211 326.23 71.233 326.365 70.7953C326.516 70.3576 326.904 70.0378 327.375 69.9873L336.498 69.0783L335.64 60.8637C335.606 60.5271 335.707 60.2072 335.943 59.9547C336.162 59.7022 336.482 59.5676 336.818 59.5676H345.033L344.982 50.3261C344.982 49.8548 345.252 49.434 345.689 49.2488C346.11 49.0636 346.615 49.131 346.952 49.4508L357.456 58.9616C357.944 59.3992 357.978 60.1399 357.54 60.6281L338.872 81.4675C338.67 81.7032 338.367 81.8379 338.047 81.8547C338.047 81.8547 338.03 81.8547 337.997 81.8547ZM330.253 72.0746L337.912 79.0099L354.998 59.9211L347.356 52.9858L347.406 60.7291C347.406 61.0489 347.288 61.3519 347.07 61.5707C346.851 61.7895 346.548 61.9242 346.228 61.9242H338.148L338.99 70.021C339.023 70.3408 338.922 70.6438 338.737 70.8963C338.535 71.132 338.249 71.3003 337.946 71.3171L330.253 72.0746Z" fill="white"/>
<path d="M362.001 195.967C361.933 195.967 361.883 195.967 361.816 195.95L346.161 193.425C345.723 193.358 345.353 193.038 345.218 192.617L340.421 177.501C340.303 177.114 340.387 176.676 340.656 176.373C340.926 176.07 341.33 175.918 341.734 175.986L357.388 178.528C357.826 178.595 358.18 178.915 358.314 179.336L363.112 194.452C363.23 194.839 363.145 195.277 362.876 195.58C362.674 195.815 362.337 195.967 362.001 195.967ZM347.255 191.22L360.301 193.324L356.294 180.716L343.249 178.612L347.255 191.22Z" fill="white"/>
<path d="M237.923 31.3718L263.409 28.0893C265.193 27.8537 266.927 29.9241 267.28 32.7185C267.634 35.4959 266.489 37.9536 264.705 38.1724L239.219 41.4549C237.435 41.6905 235.701 39.6201 235.348 36.8258C234.994 34.0483 236.139 31.6075 237.923 31.3718Z" fill="white"/>
<path d="M238.95 42.6669C236.644 42.6669 234.607 40.2765 234.17 36.9941C233.968 35.4286 234.17 33.8799 234.759 32.6511C235.415 31.2708 236.509 30.3786 237.772 30.2103L263.257 26.9278C265.732 26.6248 268.004 29.0825 268.459 32.5669C268.661 34.1324 268.459 35.6811 267.87 36.9099C267.213 38.2902 266.119 39.1824 264.856 39.3507L239.371 42.6332C239.236 42.65 239.085 42.6669 238.95 42.6669ZM263.678 29.2508C263.644 29.2508 263.594 29.2508 263.56 29.2508L238.075 32.5333C237.637 32.5838 237.199 32.9878 236.896 33.6443C236.509 34.4691 236.375 35.5633 236.509 36.6742C236.795 38.8962 238.092 40.3944 239.068 40.2934L264.553 37.0109C264.991 36.9604 265.429 36.5564 265.732 35.8999C266.119 35.0751 266.254 33.9809 266.119 32.8699C265.85 30.7321 264.638 29.2508 263.678 29.2508Z" fill="white"/>
<path d="M267.297 32.7185C267.65 35.5128 266.506 37.9536 264.721 38.1724C262.937 38.4081 261.203 36.3376 260.85 33.5433C260.496 30.749 261.641 28.3082 263.425 28.0894C265.209 27.8705 266.943 29.941 267.297 32.7185Z" fill="white"/>
<path d="M264.452 39.3844C263.324 39.3844 262.213 38.8121 261.338 37.7684C260.463 36.7247 259.874 35.2771 259.672 33.7116C259.47 32.1461 259.672 30.5975 260.261 29.3686C260.917 27.9883 262.011 27.0962 263.274 26.9278C265.748 26.6248 268.021 29.0825 268.475 32.5669C268.677 34.1324 268.475 35.6811 267.886 36.9099C267.23 38.2902 266.136 39.1824 264.873 39.3507C264.738 39.3676 264.587 39.3844 264.452 39.3844ZM263.678 29.2508C263.644 29.2508 263.594 29.2508 263.56 29.2508C263.122 29.3013 262.685 29.7053 262.382 30.3618C261.995 31.1866 261.86 32.2808 261.995 33.3918C262.146 34.5028 262.55 35.5296 263.139 36.2366C263.594 36.7921 264.132 37.0782 264.553 37.0109C264.991 36.9604 265.429 36.5564 265.732 35.8999C266.119 35.0751 266.253 33.9809 266.119 32.8699C265.849 30.7321 264.637 29.2508 263.678 29.2508Z" fill="white"/>
<path d="M296.469 150.854C296.907 150.601 297.883 150.416 297.883 150.416L321.483 146.847L305.912 164.96L305.896 164.926C305.593 165.33 305.239 165.684 304.785 165.919C302.125 167.384 298.102 165.212 295.812 161.055C293.523 156.897 293.809 152.335 296.469 150.854Z" fill="white"/>
<path d="M302.95 167.552C302.394 167.552 301.805 167.468 301.216 167.3C298.758 166.593 296.351 164.472 294.786 161.627C292.126 156.83 292.614 151.645 295.897 149.827C296.452 149.524 297.378 149.322 297.647 149.255L321.298 145.686C321.786 145.619 322.274 145.854 322.51 146.275C322.746 146.713 322.695 147.235 322.375 147.622L306.805 165.734C306.737 165.802 306.67 165.869 306.603 165.919C306.215 166.374 305.811 166.711 305.357 166.946C304.633 167.35 303.825 167.552 302.95 167.552ZM297.041 151.897C294.988 153.042 294.904 156.964 296.856 160.499C298.119 162.788 300.038 164.522 301.889 165.061C302.512 165.246 303.421 165.364 304.246 164.909C304.498 164.775 304.734 164.556 304.987 164.219C305.071 164.118 305.155 164.034 305.256 163.967L318.537 148.514L298.085 151.611C297.748 151.645 297.21 151.796 297.041 151.897Z" fill="white"/>
<path d="M305.458 155.719C307.764 159.876 307.461 164.438 304.801 165.92C302.141 167.384 298.118 165.213 295.829 161.055C293.523 156.897 293.826 152.335 296.486 150.854C299.128 149.389 303.151 151.561 305.458 155.719Z" fill="white"/>
<path d="M302.95 167.552C302.394 167.552 301.805 167.468 301.216 167.3C298.758 166.593 296.351 164.472 294.786 161.627C292.126 156.83 292.614 151.645 295.897 149.827C297.546 148.918 299.6 149.019 301.654 150.147C303.539 151.174 305.256 152.958 306.485 155.163C309.144 159.961 308.656 165.145 305.374 166.963C304.633 167.35 303.825 167.552 302.95 167.552ZM298.321 151.578C297.849 151.578 297.412 151.679 297.041 151.898C294.988 153.025 294.904 156.964 296.839 160.499C298.102 162.789 300.021 164.523 301.872 165.061C302.495 165.246 303.404 165.364 304.229 164.91C306.283 163.782 306.367 159.843 304.431 156.308C303.421 154.49 302.041 153.042 300.543 152.234C299.751 151.797 298.994 151.578 298.321 151.578Z" fill="white"/>
<path d="M127.077 52.9854L139.416 52.127L146.317 62.3784L140.914 73.4883L128.575 74.3468L121.656 64.0954L127.077 52.9854Z" fill="white"/>
<path d="M128.575 75.5252C128.188 75.5252 127.817 75.3232 127.598 75.0033L120.68 64.7519C120.444 64.3984 120.411 63.9608 120.596 63.5736L126.016 52.4637C126.201 52.0765 126.572 51.8409 126.992 51.8072L139.331 50.9487C139.769 50.915 140.156 51.117 140.392 51.4705L147.31 61.7219C147.546 62.0754 147.579 62.5131 147.394 62.9003L141.974 74.0102C141.789 74.3973 141.419 74.633 140.998 74.6667L128.659 75.5252C128.625 75.5252 128.608 75.5252 128.575 75.5252ZM123.02 63.9944L129.181 73.118L140.156 72.3437L144.987 62.4458L138.826 53.3222L127.851 54.0965L123.02 63.9944Z" fill="white"/>
<path d="M133.995 64.4155C133.608 64.4155 133.238 64.2135 133.019 63.8936L126.1 53.6422C125.73 53.1036 125.881 52.3629 126.42 52.0094C126.959 51.6559 127.699 51.7906 128.053 52.3292L134.584 62.0083L146.233 61.2003C146.889 61.1498 147.445 61.638 147.495 62.2945C147.546 62.951 147.058 63.5065 146.401 63.557L134.062 64.4155C134.046 64.4155 134.012 64.4155 133.995 64.4155Z" fill="white"/>
<path d="M128.575 75.5253C128.406 75.5253 128.221 75.4917 128.053 75.4075C127.464 75.1213 127.228 74.4143 127.514 73.8252L132.934 62.7153C133.221 62.1261 133.928 61.8904 134.517 62.1766C135.106 62.4628 135.342 63.1698 135.055 63.7589L129.635 74.8688C129.433 75.2897 129.012 75.5253 128.575 75.5253Z" fill="white"/>
<path d="M1.13042 116.733L1.09675 116.699C1.02942 116.884 0.945255 117.053 0.844256 117.221C0.709591 117.44 0.574924 117.659 0.389759 117.844C0.23826 117.995 -0.014239 118.164 -0.233071 118.298C-0.33407 118.366 -0.435067 118.433 -0.552899 118.483C-0.653898 118.534 -0.738065 118.584 -0.738065 118.584L-1.24306 118.719C-1.32723 118.736 -1.39456 118.77 -1.49556 118.786L-15.3998 122.523L-11.5281 108.653C-11.5113 108.569 -11.4776 108.485 -11.4608 108.4L-11.3261 107.895L-11.2925 107.929C-11.2251 107.744 -11.141 107.576 -11.04 107.407C-10.9053 107.188 -10.7707 106.97 -10.5855 106.784C-10.434 106.633 -10.1815 106.465 -9.96266 106.33C-9.86166 106.263 -9.76066 106.195 -9.64283 106.145C-9.52499 106.094 -9.44083 106.061 -9.44083 106.061L-8.93583 105.926C-8.85167 105.909 -8.78433 105.875 -8.70017 105.859L5.20405 102.122L1.33242 115.992C1.31558 116.076 1.28192 116.16 1.26509 116.245L1.13042 116.733Z" fill="white"/>
<path d="M-15.3995 123.702C-15.7025 123.702 -16.0055 123.584 -16.2412 123.348C-16.5442 123.045 -16.6452 122.608 -16.5442 122.204L-12.6725 108.333C-12.6725 108.316 -12.622 108.165 -12.622 108.148L-12.4705 107.576C-12.42 107.424 -12.3527 107.289 -12.2685 107.172C-12.2012 107.037 -12.1339 106.919 -12.0665 106.801C-11.8982 106.498 -11.6962 106.229 -11.4774 105.993C-11.4605 105.976 -11.4437 105.96 -11.4437 105.943C-11.2417 105.741 -10.9724 105.556 -10.602 105.32C-10.4169 105.202 -10.299 105.135 -10.1812 105.084L-10.0634 105.017C-9.97921 104.966 -9.89504 104.933 -9.81088 104.916L-9.30588 104.781C-9.15439 104.731 -9.07022 104.714 -8.96922 104.697L4.834 100.977C5.238 100.876 5.67566 100.994 5.97866 101.28C6.28165 101.583 6.38265 102.021 6.28165 102.425L2.41002 116.295C2.41002 116.312 2.35952 116.464 2.35952 116.48L2.19119 117.053C2.14069 117.204 2.07336 117.339 1.98919 117.457C1.92186 117.591 1.85452 117.709 1.78719 117.827C1.61886 118.13 1.41686 118.399 1.19803 118.618C1.1812 118.635 1.16436 118.652 1.14753 118.669C0.945533 118.854 0.693035 119.056 0.305872 119.292C0.120706 119.409 0.00287408 119.477 -0.114958 119.544L-0.182293 119.628C-0.266459 119.679 -0.350624 119.712 -0.43479 119.729L-0.939788 119.864C-1.09129 119.914 -1.17545 119.931 -1.27645 119.948L-15.0797 123.668C-15.1807 123.685 -15.2817 123.702 -15.3995 123.702ZM-10.5515 108.855L-10.3664 108.905L-13.6993 120.857L-1.79828 117.659L-1.24278 118.736L-1.54578 117.591L-0.939788 117.356C-0.619957 117.154 -0.48529 117.07 -0.451623 117.036L-0.43479 117.019C-0.350624 116.935 -0.266458 116.817 -0.165459 116.649C-0.0812931 116.514 -0.0307924 116.396 0.0197071 116.278C0.0365403 116.228 0.0533719 116.194 0.0870382 116.144L0.154373 115.925L0.238537 115.942C0.289037 115.891 0.322703 115.841 0.373203 115.807L0.188037 115.757L3.52101 103.805L-9.23855 107.289C-9.57521 107.491 -9.69305 107.592 -9.72671 107.626L-9.74355 107.643C-9.82771 107.727 -9.91188 107.845 -10.0129 108.013C-10.097 108.148 -10.1475 108.266 -10.198 108.384C-10.2149 108.434 -10.2317 108.468 -10.2654 108.518L-10.3327 108.737L-10.4169 108.72C-10.4505 108.771 -10.501 108.821 -10.5515 108.855Z" fill="white"/>
<path d="M0.390086 119.039C0.0870888 119.039 -0.215909 118.921 -0.451573 118.686C-0.90607 118.231 -0.90607 117.474 -0.451573 117.019C0.423753 116.144 0.289087 114.763 0.120756 114.006C-0.199075 112.525 -1.09123 110.976 -2.40422 109.646C-3.71721 108.333 -5.24903 107.407 -6.73035 107.088C-7.48785 106.919 -8.86817 106.768 -9.7435 107.643C-10.2148 108.098 -10.9555 108.098 -11.41 107.643C-11.8645 107.189 -11.8645 106.431 -11.41 105.977C-10.1643 104.748 -8.32951 104.327 -6.20853 104.798C-4.28954 105.236 -2.33689 106.364 -0.720904 107.997C0.895082 109.629 2.02291 111.599 2.4269 113.518C2.8814 115.639 2.44374 117.474 1.19808 118.702C0.979247 118.921 0.693084 119.039 0.390086 119.039Z" fill="white"/>
<path d="M248.478 78.5552L232.957 95.6072L242.249 96.5835L237.957 108.552L253.427 91.7692L244.337 90.8266L248.478 78.5552Z" fill="white"/>
<path d="M237.957 109.73C237.755 109.73 237.536 109.68 237.351 109.562C236.863 109.276 236.661 108.687 236.846 108.165L240.633 97.6104L232.84 96.7856C232.402 96.7351 232.015 96.449 231.863 96.0281C231.712 95.6073 231.796 95.1528 232.099 94.8161L247.619 77.7641C247.989 77.3433 248.612 77.2591 249.084 77.5453C249.572 77.8314 249.791 78.4038 249.605 78.9424L245.936 89.8167L253.561 90.6247C253.999 90.6752 254.386 90.9613 254.538 91.3822C254.689 91.803 254.605 92.2743 254.302 92.5942L238.832 109.36C238.597 109.596 238.277 109.73 237.957 109.73ZM235.398 94.6815L242.367 95.4221C242.721 95.4558 243.057 95.6578 243.243 95.9608C243.428 96.2638 243.478 96.651 243.36 96.9876L241.037 103.485L250.986 92.6952L244.236 91.9882C243.882 91.9545 243.562 91.7525 243.36 91.4495C243.158 91.1465 243.125 90.7762 243.243 90.4395L245.582 83.5042L235.398 94.6815Z" fill="white"/>
<path d="M101.103 294.205C101.103 294.205 97.265 291.899 91.6932 288.684C85.8857 285.334 85.5996 280.082 88.1414 277.069C90.9862 273.669 95.3628 274.914 98.1908 277.591C99.9583 274.106 103.645 271.464 107.466 273.702C110.883 275.689 112.398 280.722 108.072 285.839C103.931 290.738 101.103 294.205 101.103 294.205Z" fill="white"/>
<path d="M101.103 295.384C100.901 295.384 100.682 295.333 100.497 295.215C100.463 295.199 96.6086 292.876 91.121 289.711C88.0405 287.944 86.071 285.435 85.5829 282.641C85.1789 280.369 85.7849 278.062 87.2662 276.312C88.5287 274.797 90.1783 273.955 92.03 273.837C93.9658 273.719 96.0531 274.426 97.9048 275.79C99.1841 273.888 100.901 272.507 102.77 271.969C104.554 271.447 106.389 271.683 108.089 272.676C110.058 273.82 111.422 275.79 111.809 278.062C112.28 280.857 111.287 283.87 108.981 286.597C104.874 291.428 102.046 294.912 102.012 294.946C101.793 295.232 101.44 295.384 101.103 295.384ZM92.4172 276.194C92.333 276.194 92.232 276.194 92.1478 276.194C90.9358 276.261 89.8922 276.817 89.0505 277.827C88.0237 279.039 87.6029 280.655 87.889 282.237C88.2594 284.324 89.8248 286.243 92.2825 287.674C96.272 289.964 99.3861 291.815 100.834 292.674C101.894 291.378 104.217 288.566 107.18 285.065C109.015 282.894 109.84 280.554 109.469 278.466C109.2 276.884 108.257 275.521 106.877 274.713C105.732 274.039 104.571 273.888 103.409 274.224C101.793 274.696 100.245 276.16 99.2514 278.113C99.0831 278.45 98.7633 278.668 98.4098 278.736C98.0394 278.803 97.6691 278.685 97.3998 278.433C95.868 277.019 94.0331 276.194 92.4172 276.194Z" fill="white"/>
<path d="M6.85414 49.7369C6.78681 49.7369 6.71948 49.7369 6.65215 49.7201C1.85469 48.8953 -2.33678 46.2525 -5.14793 42.2798C-7.95907 38.3072 -9.05323 33.4761 -8.2284 28.6618C-8.11057 28.0221 -7.50457 27.5845 -6.86491 27.7023C-6.22525 27.8201 -5.78759 28.4261 -5.90542 29.0658C-6.62924 33.2404 -5.66975 37.4487 -3.21211 40.9164C-0.75446 44.384 2.88151 46.6733 7.07298 47.3971C7.71264 47.515 8.1503 48.121 8.03247 48.7606C7.91463 49.3329 7.40964 49.7369 6.85414 49.7369Z" fill="white"/>
<path d="M299.465 23.3929C298.977 23.3929 298.506 23.0731 298.354 22.5849C298.152 21.9621 298.489 21.3056 299.095 21.0868C301.536 20.2788 303.505 18.5618 304.65 16.2725C305.794 13.9831 305.98 11.374 305.172 8.93319C304.364 6.49238 302.647 4.52289 300.357 3.37824C298.068 2.23358 295.459 2.04841 293.018 2.85641C292.395 3.0584 291.739 2.72174 291.537 2.11575C291.335 1.49292 291.671 0.836423 292.277 0.617591C295.307 -0.392401 298.556 -0.156736 301.418 1.27409C304.279 2.70491 306.4 5.16255 307.41 8.19253C308.42 11.2225 308.185 14.4713 306.754 17.333C305.323 20.1946 302.865 22.3156 299.836 23.3256C299.718 23.3761 299.583 23.3929 299.465 23.3929Z" fill="white"/>
<path d="M129.921 24.9752C129.618 24.9752 129.332 24.8574 129.097 24.6385C128.625 24.184 128.625 23.4434 129.08 22.972L146.99 4.52287C147.445 4.05154 148.185 4.05154 148.657 4.50603C149.128 4.96053 149.128 5.70119 148.674 6.17252L130.763 24.6217C130.544 24.8405 130.224 24.9752 129.921 24.9752Z" fill="white"/>
<path d="M28.3666 320.229C28.1646 319.775 28.0299 318.782 28.0299 318.782L26.2793 294.979L43.1293 311.88L43.0957 311.897C43.466 312.234 43.8027 312.621 44.0046 313.075C45.2671 315.836 42.7927 319.691 38.4665 321.66C34.1572 323.63 29.6291 322.99 28.3666 320.229Z" fill="white"/>
<path d="M33.5007 324C30.6391 324 28.2656 322.855 27.2893 320.718C27.0199 320.145 26.8853 319.203 26.8516 318.933L25.0841 295.081C25.0505 294.592 25.3198 294.121 25.7743 293.919C26.2288 293.717 26.7506 293.818 27.1041 294.155L43.9541 311.055C44.0215 311.123 44.072 311.19 44.1225 311.274C44.5433 311.695 44.8463 312.133 45.0651 312.587C46.6306 315.987 43.9373 320.448 38.9547 322.737C37.103 323.579 35.2177 324 33.5007 324ZM29.4439 319.741C30.4202 321.879 34.3256 322.266 37.9952 320.583C41.648 318.916 43.9205 315.701 42.9441 313.563C42.8263 313.311 42.6243 313.058 42.3045 312.772C42.2203 312.688 42.1362 312.587 42.0688 312.486L27.6764 298.06L29.2083 318.698C29.2588 319.017 29.3598 319.573 29.4439 319.741Z" fill="white"/>
<path d="M33.9048 311.644C38.231 309.675 42.7423 310.315 44.0216 313.075C45.2841 315.836 42.8096 319.674 38.4835 321.66C34.1573 323.63 29.646 322.99 28.3667 320.229C27.1042 317.469 29.5787 313.614 33.9048 311.644Z" fill="white"/>
<path d="M33.5176 323.983C33.0463 323.983 32.575 323.95 32.1205 323.882C29.7975 323.562 28.0973 322.435 27.3062 320.718C26.515 319.001 26.7843 316.981 28.0637 314.994C29.2251 313.193 31.1273 311.611 33.4166 310.567C38.3992 308.295 43.5334 309.17 45.082 312.587C45.8732 314.304 45.6038 316.324 44.3245 318.31C43.163 320.112 41.2609 321.694 38.9716 322.738C37.1704 323.546 35.2851 323.983 33.5176 323.983ZM38.8874 311.678C37.5071 311.678 35.9248 312.015 34.3929 312.722C32.5076 313.58 30.959 314.843 30.0331 316.29C29.2083 317.57 29.0063 318.799 29.444 319.758C29.8816 320.718 30.9421 321.357 32.4403 321.576C34.1236 321.812 36.0931 321.475 37.9784 320.6C39.8637 319.741 41.4124 318.479 42.3382 317.031C43.163 315.769 43.365 314.54 42.9274 313.58C42.3719 312.335 40.8064 311.678 38.8874 311.678Z" fill="white"/>
<path d="M360.621 315.449C360.233 315.449 359.846 315.247 359.627 314.893L345.706 292.926C345.353 292.37 345.521 291.647 346.077 291.293C346.632 290.94 347.356 291.108 347.709 291.663L361.631 313.631C361.984 314.186 361.816 314.91 361.26 315.264C361.058 315.398 360.839 315.449 360.621 315.449Z" fill="white"/>
<path d="M299.448 310.433C298.96 310.433 298.489 310.113 298.337 309.625C298.135 309.002 298.472 308.345 299.078 308.143C304.498 306.342 307.444 300.451 305.643 295.03C304.768 292.404 302.916 290.266 300.441 289.038C297.967 287.792 295.156 287.59 292.53 288.465C291.907 288.667 291.25 288.331 291.048 287.725C290.846 287.102 291.183 286.445 291.789 286.243C295.004 285.166 298.455 285.419 301.502 286.934C304.549 288.449 306.804 291.074 307.882 294.29C308.959 297.522 308.707 300.956 307.192 304.002C305.677 307.049 303.051 309.305 299.835 310.382C299.701 310.416 299.566 310.433 299.448 310.433Z" fill="white"/>
<path d="M129.888 311.308C129.585 311.308 129.299 311.19 129.063 310.971C128.592 310.517 128.592 309.776 129.046 309.305L147.024 290.788C147.478 290.317 148.219 290.3 148.69 290.771C149.162 291.226 149.162 291.966 148.707 292.438L130.729 310.954C130.494 311.19 130.191 311.308 129.888 311.308Z" fill="white"/>
<path d="M197.59 51.4201C197.254 51.4201 196.934 51.2854 196.698 50.9993L192.911 46.5385C192.49 46.0503 192.557 45.2928 193.045 44.872C193.55 44.4511 194.291 44.5185 194.712 45.0066L198.499 49.4674C198.92 49.9556 198.853 50.7131 198.365 51.1339C198.129 51.3191 197.86 51.4201 197.59 51.4201Z" fill="white"/>
<path d="M185.05 36.6574C184.713 36.6574 184.393 36.5227 184.158 36.2366L180.37 31.7758C179.949 31.2876 180.017 30.5301 180.505 30.1093C180.993 29.6884 181.75 29.7558 182.171 30.2439L185.959 34.7047C186.38 35.1929 186.312 35.9504 185.824 36.3712C185.588 36.5732 185.319 36.6574 185.05 36.6574Z" fill="white"/>
<path d="M185.185 53.676C185.05 53.676 184.915 53.6591 184.781 53.6086C184.175 53.3898 183.855 52.7165 184.074 52.1105L186.043 46.606C186.262 46 186.935 45.6802 187.541 45.899C188.147 46.1179 188.467 46.7912 188.248 47.3972L186.279 52.9016C186.127 53.3898 185.673 53.676 185.185 53.676Z" fill="white"/>
<path d="M191.699 35.4455C191.565 35.4455 191.43 35.4287 191.295 35.3782C190.689 35.1593 190.369 34.486 190.588 33.88L192.558 28.3756C192.777 27.7696 193.45 27.4497 194.056 27.6686C194.662 27.8874 194.982 28.5607 194.763 29.1667L192.793 34.6712C192.625 35.1425 192.171 35.4455 191.699 35.4455Z" fill="white"/>
<path d="M177.021 44.081C176.465 44.081 175.96 43.677 175.859 43.1215C175.741 42.4818 176.162 41.859 176.802 41.758L182.559 40.7144C183.198 40.5965 183.821 41.0173 183.922 41.657C184.04 42.2967 183.619 42.9195 182.98 43.0205L177.223 44.0642C177.155 44.0642 177.088 44.081 177.021 44.081Z" fill="white"/>
<path d="M196.076 40.5964C195.52 40.5964 195.015 40.1924 194.914 39.6369C194.797 38.9972 195.218 38.3744 195.857 38.2734L201.614 37.2297C202.254 37.1119 202.877 37.5327 202.978 38.1724C203.095 38.8121 202.675 39.4349 202.035 39.5359L196.278 40.5795C196.211 40.5964 196.143 40.5964 196.076 40.5964Z" fill="white"/>
<path d="M280.276 203.66C279.855 203.66 279.451 203.441 279.232 203.054L270.95 187.887C270.63 187.315 270.849 186.608 271.422 186.288C271.994 185.968 272.701 186.187 273.021 186.759L280.747 200.882L294.87 193.156C295.442 192.836 296.149 193.055 296.469 193.627C296.789 194.199 296.57 194.906 295.998 195.226L280.831 203.508C280.663 203.609 280.461 203.66 280.276 203.66Z" fill="white"/>
<path d="M236.375 286.277C236.358 286.277 236.358 286.277 236.375 286.277C235.718 286.277 235.196 285.738 235.196 285.082L235.331 270.454C235.331 270.05 235.533 269.679 235.87 269.477C236.206 269.259 236.627 269.242 236.997 269.393L247.569 274.157L247.686 261.33C247.686 260.691 248.225 260.169 248.865 260.169C248.865 260.169 248.865 260.169 248.882 260.169C249.538 260.169 250.06 260.707 250.043 261.364L249.908 276.009C249.908 276.413 249.706 276.783 249.37 276.985C249.033 277.204 248.612 277.238 248.242 277.069L237.671 272.305L237.553 285.132C237.536 285.755 237.014 286.277 236.375 286.277Z" fill="white"/>
<path d="M293.085 121.059C292.816 121.059 292.564 120.975 292.345 120.807L283.221 113.501C282.716 113.097 282.632 112.356 283.036 111.851C283.44 111.346 284.181 111.262 284.686 111.666L292.883 118.248L299.415 110.084C299.617 109.831 299.903 109.68 300.206 109.646C300.509 109.613 300.829 109.697 301.064 109.899L309.262 116.481L315.793 108.316C316.197 107.811 316.938 107.727 317.443 108.131C317.948 108.535 318.032 109.276 317.628 109.781L310.356 118.871C310.154 119.106 309.868 119.275 309.565 119.308C309.262 119.342 308.942 119.258 308.707 119.056L300.509 112.474L293.978 120.638C293.776 120.891 293.489 121.042 293.186 121.076C293.17 121.059 293.119 121.059 293.085 121.059Z" fill="white"/>
<path d="M303.068 250.809C302.63 250.809 302.226 250.574 302.007 250.153L297.126 240.457L287.413 245.338C286.824 245.625 286.117 245.389 285.831 244.817L280.949 235.104L271.236 239.986C270.647 240.272 269.94 240.053 269.654 239.464L264.772 229.768L255.059 234.649C254.47 234.936 253.763 234.717 253.477 234.128C253.191 233.555 253.41 232.831 253.999 232.545L264.755 227.125C265.328 226.822 266.052 227.058 266.338 227.647L271.219 237.36L280.932 232.478C281.504 232.175 282.228 232.411 282.514 233L287.396 242.696L297.109 237.814C297.698 237.511 298.388 237.747 298.691 238.336L304.111 249.092C304.398 249.665 304.179 250.388 303.59 250.675C303.438 250.776 303.253 250.809 303.068 250.809Z" fill="white"/>
<path d="M41.5638 268.619C40.6548 268.619 39.7458 268.417 38.8873 268.013C37.3555 267.289 36.2109 266.026 35.6217 264.444C35.4029 263.838 35.7227 263.148 36.3287 262.929C36.9347 262.71 37.608 263.03 37.8437 263.636C38.1972 264.629 38.921 265.42 39.8805 265.875C40.84 266.329 41.9173 266.38 42.9105 266.01C44.9641 265.269 46.0246 262.996 45.2839 260.943C45.0651 260.337 45.3849 259.647 45.9909 259.428C46.5969 259.209 47.2703 259.529 47.5059 260.135C48.6843 263.417 46.9841 267.036 43.7185 268.215C43.0115 268.484 42.2876 268.619 41.5638 268.619Z" fill="white"/>
<path d="M46.395 261.717C45.9068 261.717 45.4523 261.414 45.284 260.943C44.1898 257.913 41.7659 256.583 39.9142 255.977C37.3051 255.136 34.2414 255.27 31.2956 256.331C30.6896 256.55 30.0163 256.23 29.7806 255.624C29.5618 255.018 29.8816 254.344 30.4876 254.109C33.9216 252.863 37.5239 252.728 40.638 253.722C43.9542 254.782 46.395 257.055 47.506 260.118C47.7248 260.724 47.405 261.414 46.799 261.633C46.6643 261.701 46.5297 261.717 46.395 261.717Z" fill="white"/>
<path d="M36.7329 265.219C36.2448 265.219 35.7903 264.915 35.622 264.444C34.511 261.381 34.9318 258.064 36.8003 255.135C38.5509 252.392 41.4126 250.186 44.8465 248.958C45.4525 248.739 46.1259 249.059 46.3615 249.665C46.5804 250.271 46.2605 250.961 45.6545 251.18C42.7087 252.24 40.2679 254.109 38.7866 256.415C37.7429 258.048 36.7329 260.623 37.8271 263.653C38.0459 264.259 37.7261 264.949 37.1201 265.168C37.0023 265.185 36.8676 265.219 36.7329 265.219Z" fill="white"/>
<path d="M45.2504 251.23C44.7622 251.23 44.3077 250.927 44.1394 250.456C43.9206 249.85 44.2404 249.176 44.8464 248.941C46.5634 248.318 48.3645 248.032 50.1657 248.065C50.8222 248.082 51.3272 248.621 51.3272 249.261C51.3103 249.917 50.7885 250.422 50.132 250.422C48.617 250.388 47.0852 250.641 45.6544 251.163C45.5197 251.213 45.385 251.23 45.2504 251.23Z" fill="white"/>
<path d="M27.2053 273.803C26.2963 273.803 25.3873 273.601 24.5288 273.197C22.997 272.474 21.8523 271.211 21.2632 269.629C21.0443 269.023 21.3642 268.333 21.9702 268.114C22.5762 267.895 23.2495 268.215 23.4852 268.821C23.8387 269.814 24.5625 270.605 25.522 271.06C26.4815 271.514 27.5588 271.565 28.5519 271.194C30.6056 270.454 31.6661 268.181 30.9254 266.127C30.7066 265.521 31.0264 264.848 31.6324 264.612C32.2384 264.394 32.9286 264.713 33.1474 265.319C34.3257 268.602 32.6256 272.221 29.3599 273.399C28.6529 273.669 27.9291 273.803 27.2053 273.803Z" fill="white"/>
<path d="M32.0361 266.919C31.5479 266.919 31.0934 266.616 30.9251 266.144C29.831 263.114 27.407 261.785 25.5553 261.179C22.9462 260.337 19.8825 260.472 16.9367 261.532C16.3307 261.751 15.6574 261.431 15.4217 260.825C15.2029 260.219 15.5227 259.546 16.1287 259.31C19.5627 258.065 23.165 257.93 26.2792 258.923C29.5953 259.983 32.0361 262.256 33.1471 265.32C33.3659 265.926 33.0461 266.616 32.4401 266.835C32.3054 266.885 32.1708 266.919 32.0361 266.919Z" fill="white"/>
<path d="M22.3742 270.403C21.886 270.403 21.4315 270.1 21.2632 269.629C20.1522 266.565 20.573 263.249 22.4415 260.32C24.1922 257.576 27.0538 255.371 30.4878 254.142C31.0938 253.924 31.7671 254.243 32.0028 254.849C32.2216 255.455 31.9018 256.146 31.2958 256.364C28.35 257.425 25.9091 259.293 24.4278 261.6C23.3842 263.232 22.3742 265.808 23.4683 268.838C23.6872 269.444 23.3673 270.134 22.7613 270.353C22.6435 270.386 22.5088 270.403 22.3742 270.403Z" fill="white"/>
<path d="M12.2576 264.124C11.9209 264.124 11.6011 263.99 11.3654 263.72C10.9446 263.232 10.9951 262.492 11.4833 262.054C12.8636 260.859 14.4291 259.95 16.1461 259.327C16.7521 259.108 17.4422 259.428 17.6611 260.034C17.8799 260.64 17.5601 261.313 16.9541 261.549C15.5232 262.071 14.2102 262.845 13.0319 263.838C12.7963 264.023 12.5269 264.124 12.2576 264.124Z" fill="white"/>
<path d="M207.102 114.965C206.866 114.965 206.647 114.932 206.412 114.864C205.2 114.477 204.526 113.181 204.913 111.969C205.301 110.757 206.58 110.084 207.792 110.471C209.004 110.858 209.677 112.154 209.29 113.366C208.987 114.343 208.078 114.965 207.102 114.965ZM207.119 112.609C207.102 112.609 207.068 112.626 207.068 112.642L206.782 113.737L207.119 112.609Z" fill="white"/>
<path d="M203.146 278.567C202.91 278.567 202.675 278.534 202.439 278.45C201.21 278.062 200.52 276.733 200.907 275.504C201.092 274.898 201.513 274.41 202.069 274.123C202.624 273.837 203.264 273.787 203.853 273.972C204.442 274.157 204.93 274.578 205.233 275.133C205.519 275.689 205.57 276.329 205.385 276.918C205.2 277.524 204.779 278.012 204.223 278.298C203.887 278.483 203.516 278.567 203.146 278.567ZM203.146 276.211L202.792 277.339L203.146 276.211Z" fill="white"/>
<path d="M82.9401 93.941C82.7045 93.941 82.4688 93.9073 82.25 93.84C81.6608 93.6548 81.1895 93.2508 80.9033 92.7122C80.6171 92.1735 80.5667 91.5507 80.7518 90.9615C80.937 90.3724 81.341 89.901 81.8796 89.6149C82.4183 89.3287 83.0411 89.2782 83.6303 89.4634C84.2195 89.6485 84.6908 90.0525 84.9769 90.5912C85.2631 91.1299 85.3136 91.7527 85.1284 92.3418C84.9433 92.931 84.5393 93.4023 84.0006 93.6885C83.664 93.8568 83.2936 93.941 82.9401 93.941ZM82.9401 91.5843C82.9065 91.5843 82.8896 91.6012 82.8728 91.6348L82.957 91.6012C82.9401 91.5843 82.9401 91.5843 82.9401 91.5843Z" fill="white"/>
<path d="M364.105 126.597H344.107C343.45 126.597 342.929 126.075 342.929 125.419C342.929 124.762 343.45 124.24 344.107 124.24H364.105C364.761 124.24 365.283 124.762 365.283 125.419C365.283 126.075 364.744 126.597 364.105 126.597Z" fill="white"/>
<path d="M354.106 136.596C353.449 136.596 352.928 136.074 352.928 135.418V115.42C352.928 114.764 353.449 114.242 354.106 114.242C354.762 114.242 355.284 114.764 355.284 115.42V135.418C355.284 136.074 354.746 136.596 354.106 136.596Z" fill="white"/>
<path d="M182.879 261.785H163.319C162.662 261.785 162.14 261.263 162.14 260.606C162.14 259.95 162.662 259.428 163.319 259.428H182.879C183.535 259.428 184.057 259.95 184.057 260.606C184.057 261.246 183.535 261.785 182.879 261.785Z" fill="white"/>
<path d="M173.098 271.565C172.442 271.565 171.92 271.043 171.92 270.386V250.826C171.92 250.17 172.442 249.648 173.098 249.648C173.755 249.648 174.277 250.17 174.277 250.826V270.386C174.277 271.043 173.738 271.565 173.098 271.565Z" fill="white"/>
<path d="M178.064 90.2208C177.761 90.2208 177.458 90.103 177.222 89.8673C176.768 89.4128 176.768 88.6553 177.222 88.2008L191.211 74.2125C191.665 73.758 192.423 73.758 192.877 74.2125C193.332 74.667 193.332 75.4244 192.877 75.8789L178.889 89.8673C178.67 90.103 178.367 90.2208 178.064 90.2208Z" fill="white"/>
<path d="M192.053 90.2208C191.75 90.2208 191.447 90.103 191.211 89.8673L177.222 75.8789C176.768 75.4244 176.768 74.667 177.222 74.2125C177.677 73.758 178.434 73.758 178.889 74.2125L192.877 88.2008C193.332 88.6553 193.332 89.4128 192.877 89.8673C192.659 90.103 192.356 90.2208 192.053 90.2208Z" fill="white"/>
<path d="M75.4999 59.0625C75.18 59.0625 74.8939 58.9446 74.6582 58.709L63.4136 47.4644C62.9591 47.0099 62.9591 46.2524 63.4136 45.7979L74.6582 34.5533C75.0959 34.1157 75.887 34.1157 76.3247 34.5533L87.5693 45.7979C88.0238 46.2524 88.0238 47.0099 87.5693 47.4644L76.3247 58.709C76.1059 58.9278 75.8029 59.0625 75.4999 59.0625ZM65.9049 46.6227L75.483 56.2008L85.0611 46.6227L75.4999 37.0447L65.9049 46.6227Z" fill="white"/>
</g>
</g>
</svg>
