<svg width="21" height="21" viewBox="0 0 21 21" fill="none" xmlns="http://www.w3.org/2000/svg">
<path d="M10.5 19.9062C15.6949 19.9062 19.9062 15.6949 19.9062 10.5C19.9062 5.30507 15.6949 1.09375 10.5 1.09375C5.30507 1.09375 1.09375 5.30507 1.09375 10.5C1.09375 15.6949 5.30507 19.9062 10.5 19.9062Z" stroke="#95969D" stroke-width="1.5" stroke-linecap="round" stroke-linejoin="round"/>
<path d="M12.6656 8.33454C11.4695 7.13841 5.7356 5.73535 5.7356 5.73535C5.7356 5.73535 7.13866 11.4697 8.33435 12.6658C8.9087 13.2401 9.6877 13.5628 10.5 13.5628C11.3122 13.5628 12.0912 13.2401 12.6656 12.6658C13.24 12.0914 13.5626 11.3124 13.5626 10.5002C13.5626 9.6879 13.24 8.9089 12.6656 8.33454V8.33454Z" stroke="#95969D" stroke-width="1.5" stroke-linecap="round" stroke-linejoin="round"/>
</svg>
