<svg width="17" height="20" viewBox="0 0 17 20" fill="none" xmlns="http://www.w3.org/2000/svg">
<path d="M12.1406 9.7806L12.1405 9.78065L8.01551 13.5307L8.01547 13.5307C7.95643 13.5845 7.88605 13.6274 7.80825 13.6568C7.73044 13.6861 7.64688 13.7013 7.5624 13.7013C7.47792 13.7013 7.39436 13.6861 7.31655 13.6568C7.23874 13.6274 7.16836 13.5845 7.10933 13.5307L7.10928 13.5307L5.04678 11.6556C4.98769 11.6019 4.9411 11.5384 4.90942 11.4689C4.87775 11.3994 4.86152 11.3251 4.86152 11.2501C4.86152 11.1752 4.87775 11.1009 4.90942 11.0314C4.9411 10.9619 4.98769 10.8984 5.04678 10.8446C5.16621 10.7361 5.32913 10.6744 5.49989 10.6744C5.58435 10.6744 5.66789 10.6895 5.7457 10.7188C5.82351 10.7481 5.89392 10.7909 5.95301 10.8446L7.52875 12.2784L7.56239 12.309L7.59604 12.2784L11.2343 8.96963L11.2343 8.9696C11.2934 8.91579 11.3637 8.87288 11.4416 8.84353C11.5194 8.81418 11.6029 8.79902 11.6874 8.79902C11.7719 8.79902 11.8554 8.81418 11.9333 8.84353C12.0111 8.87288 12.0814 8.91579 12.1405 8.9696L12.1742 8.93264L12.1406 8.96968C12.1997 9.02334 12.2464 9.08683 12.2781 9.15636C12.3099 9.22588 12.3261 9.30021 12.3261 9.37514C12.3261 9.45007 12.3099 9.52441 12.2781 9.59392C12.2464 9.66346 12.1997 9.72694 12.1406 9.7806Z" fill="#95969D" stroke="white" stroke-width="0.1"/>
<path d="M2.35715 1.71675H3.48572V2.88112H2.35715C2.03013 2.88112 1.71728 3.02051 1.4872 3.26735C1.25722 3.51407 1.12857 3.84799 1.12857 4.19549V17.4714C1.12857 17.8189 1.25722 18.1528 1.4872 18.3995C1.71728 18.6464 2.03013 18.7857 2.35715 18.7857H14.1429C14.4699 18.7857 14.7827 18.6464 15.0128 18.3995C15.2428 18.1528 15.3715 17.8189 15.3715 17.4714V4.19549C15.3715 3.84799 15.2428 3.51407 15.0128 3.26735C14.7827 3.02051 14.4699 2.88112 14.1429 2.88112H13.0143V1.71675H14.1429C14.7536 1.71675 15.3401 1.97698 15.7731 2.44149C16.2062 2.90612 16.45 3.537 16.45 4.19549V17.4714C16.45 18.1299 16.2062 18.7607 15.7731 19.2254C15.3401 19.6899 14.7536 19.9501 14.1429 19.9501H2.35715C1.74643 19.9501 1.15996 19.6899 0.726967 19.2254C0.293867 18.7607 0.05 18.1299 0.05 17.4714V4.19549C0.05 3.537 0.293867 2.90612 0.726967 2.44149C1.15996 1.97698 1.74643 1.71675 2.35715 1.71675Z" fill="#95969D" stroke="white" stroke-width="0.1"/>
<path d="M10.8323 1.39606C10.6937 1.27007 10.5067 1.2 10.3125 1.2H6.1875C5.99336 1.2 5.80633 1.27007 5.66773 1.39606C5.52898 1.5222 5.45 1.69436 5.45 1.875V3.12501C5.45 3.30565 5.52898 3.47781 5.66773 3.60395C5.80633 3.72994 5.99336 3.80001 6.1875 3.80001H10.3125C10.5067 3.80001 10.6937 3.72994 10.8323 3.60395C10.971 3.47781 11.05 3.30565 11.05 3.12501V1.875C11.05 1.69436 10.971 1.5222 10.8323 1.39606ZM4.76273 0.586173C5.13986 0.243325 5.6523 0.05 6.1875 0.05H10.3125C10.8477 0.05 11.3602 0.243325 11.7373 0.586173C12.1143 0.928876 12.325 1.3926 12.325 1.875V3.12501C12.325 3.60741 12.1143 4.07113 11.7373 4.41384C11.3602 4.75668 10.8477 4.95001 10.3125 4.95001H6.1875C5.6523 4.95001 5.13986 4.75668 4.76273 4.41384C4.38575 4.07113 4.175 3.60741 4.175 3.12501V1.875C4.175 1.3926 4.38575 0.928876 4.76273 0.586173Z" fill="#95969D" stroke="white" stroke-width="0.1"/>
</svg>
