<svg width="449" height="450" viewBox="0 0 449 450" fill="none" xmlns="http://www.w3.org/2000/svg">
<path d="M292.006 89.7646L304.013 78.5214" stroke="#0D0D26" stroke-opacity="0.09" stroke-width="5" stroke-miterlimit="10" stroke-linecap="round" stroke-linejoin="round"/>
<path d="M303.643 90.1419L292.376 78.144" stroke="#0D0D26" stroke-opacity="0.09" stroke-width="5" stroke-miterlimit="10" stroke-linecap="round" stroke-linejoin="round"/>
<path d="M278.204 262.297L290.219 251.046" stroke="#0D0D26" stroke-opacity="0.09" stroke-width="5" stroke-miterlimit="10" stroke-linecap="round" stroke-linejoin="round"/>
<path d="M289.841 262.666L278.582 250.676" stroke="#0D0D26" stroke-opacity="0.09" stroke-width="5" stroke-miterlimit="10" stroke-linecap="round" stroke-linejoin="round"/>
<path d="M424.327 358.689L436.334 347.438" stroke="#0D0D26" stroke-opacity="0.09" stroke-width="5" stroke-miterlimit="10" stroke-linecap="round" stroke-linejoin="round"/>
<path d="M435.964 359.059L424.705 347.069" stroke="#0D0D26" stroke-opacity="0.09" stroke-width="5" stroke-miterlimit="10" stroke-linecap="round" stroke-linejoin="round"/>
<path d="M429.571 73.348L441.578 62.1047" stroke="#0D0D26" stroke-opacity="0.09" stroke-width="5" stroke-miterlimit="10" stroke-linecap="round" stroke-linejoin="round"/>
<path d="M441.207 73.7253L429.948 61.7352" stroke="#0D0D26" stroke-opacity="0.09" stroke-width="5" stroke-miterlimit="10" stroke-linecap="round" stroke-linejoin="round"/>
<path d="M2.49983 89.4737L14.5068 78.2226" stroke="#0D0D26" stroke-opacity="0.09" stroke-width="5" stroke-miterlimit="10" stroke-linecap="round" stroke-linejoin="round"/>
<path d="M14.1367 89.8432L2.87761 77.8531" stroke="#0D0D26" stroke-opacity="0.09" stroke-width="5" stroke-miterlimit="10" stroke-linecap="round" stroke-linejoin="round"/>
<path d="M144.175 150.643L156.182 139.4" stroke="#0D0D26" stroke-opacity="0.09" stroke-width="5" stroke-miterlimit="10" stroke-linecap="round" stroke-linejoin="round"/>
<path d="M155.811 151.02L144.545 139.03" stroke="#0D0D26" stroke-opacity="0.09" stroke-width="5" stroke-miterlimit="10" stroke-linecap="round" stroke-linejoin="round"/>
<path d="M85.6277 284.154L97.6347 272.911" stroke="#0D0D26" stroke-opacity="0.09" stroke-width="5" stroke-miterlimit="10" stroke-linecap="round" stroke-linejoin="round"/>
<path d="M97.2646 284.531L85.9977 272.541" stroke="#0D0D26" stroke-opacity="0.09" stroke-width="5" stroke-miterlimit="10" stroke-linecap="round" stroke-linejoin="round"/>
<path d="M94.95 392.914L106.957 381.671" stroke="#0D0D26" stroke-opacity="0.09" stroke-width="5" stroke-miterlimit="10" stroke-linecap="round" stroke-linejoin="round"/>
<path d="M106.587 393.292L95.3279 381.301" stroke="#0D0D26" stroke-opacity="0.09" stroke-width="5" stroke-miterlimit="10" stroke-linecap="round" stroke-linejoin="round"/>
<path d="M202.769 107.769L211.036 93.4835L219.279 107.777L227.523 122.063L211.012 122.047L194.502 122.04L202.769 107.769Z" stroke="#0D0D26" stroke-opacity="0.09" stroke-width="5" stroke-miterlimit="10" stroke-linecap="round" stroke-linejoin="round"/>
<path d="M230.105 282.314L238.372 268.036L246.616 282.322L254.859 296.608L238.349 296.6L221.838 296.592L230.105 282.314Z" stroke="#0D0D26" stroke-opacity="0.09" stroke-width="5" stroke-miterlimit="10" stroke-linecap="round" stroke-linejoin="round"/>
<path d="M135.348 335.912L143.615 321.634L151.859 335.92L160.11 350.214L143.6 350.198L127.081 350.19L135.348 335.912Z" stroke="#0D0D26" stroke-opacity="0.09" stroke-width="5" stroke-miterlimit="10" stroke-linecap="round" stroke-linejoin="round"/>
<path d="M80.8487 226.287L76.5813 210.35L92.5328 214.635L108.484 218.912L96.8002 230.564L85.1161 242.224L80.8487 226.287Z" stroke="#0D0D26" stroke-opacity="0.09" stroke-width="5" stroke-miterlimit="10" stroke-linecap="round" stroke-linejoin="round"/>
<path d="M352.427 41.293L348.159 25.356L364.103 29.6409L380.062 33.9181L368.37 45.5701L356.686 57.23L352.427 41.293Z" stroke="#0D0D26" stroke-opacity="0.09" stroke-width="5" stroke-miterlimit="10" stroke-linecap="round" stroke-linejoin="round"/>
<path d="M363.733 385.594L359.474 369.657L375.417 373.942L391.369 378.22L379.685 389.872L368.001 401.531L363.733 385.594Z" stroke="#0D0D26" stroke-opacity="0.09" stroke-width="5" stroke-miterlimit="10" stroke-linecap="round" stroke-linejoin="round"/>
<path d="M64.1177 59.0934L49.8195 50.8379L64.1255 42.606L78.4394 34.3662L78.4237 50.8536L78.4158 67.3489L64.1177 59.0934Z" stroke="#0D0D26" stroke-opacity="0.09" stroke-width="5" stroke-miterlimit="10" stroke-linecap="round" stroke-linejoin="round"/>
<path d="M364.103 223.849L349.797 215.594L364.111 207.362L378.417 199.122L378.401 215.618L378.393 232.105L364.103 223.849Z" stroke="#0D0D26" stroke-opacity="0.09" stroke-width="5" stroke-miterlimit="10" stroke-linecap="round" stroke-linejoin="round"/>
<path d="M174.857 196.85C174.857 203.761 180.463 209.359 187.384 209.359C194.305 209.359 199.911 203.761 199.911 196.85C199.911 189.939 194.305 184.341 187.384 184.341C180.463 184.341 174.857 189.939 174.857 196.85Z" stroke="#0D0D26" stroke-opacity="0.09" stroke-width="5" stroke-miterlimit="10" stroke-linecap="round" stroke-linejoin="round"/>
<path d="M238.16 57.23C238.16 64.141 243.765 69.739 250.686 69.739C257.607 69.739 263.213 64.141 263.213 57.23C263.213 50.319 257.599 44.7209 250.686 44.7209C243.773 44.7131 238.16 50.319 238.16 57.23Z" stroke="#0D0D26" stroke-opacity="0.09" stroke-width="5" stroke-miterlimit="10" stroke-linecap="round" stroke-linejoin="round"/>
<path d="M230.168 426.487C230.168 433.398 235.774 438.996 242.695 438.996C249.616 438.996 255.222 433.398 255.222 426.487C255.222 419.576 249.608 413.978 242.695 413.978C235.774 413.97 230.168 419.576 230.168 426.487Z" stroke="#0D0D26" stroke-opacity="0.09" stroke-width="5" stroke-miterlimit="10" stroke-linecap="round" stroke-linejoin="round"/>
<path d="M196.659 407.782C196.659 400.871 191.045 395.273 184.133 395.273C177.212 395.273 171.606 400.871 171.606 407.782" stroke="#0D0D26" stroke-opacity="0.09" stroke-width="5" stroke-miterlimit="10" stroke-linecap="round" stroke-linejoin="round"/>
<path d="M296.659 215.618C296.659 208.707 291.045 203.109 284.132 203.109C277.22 203.109 271.606 208.707 271.606 215.618" stroke="#0D0D26" stroke-opacity="0.09" stroke-width="5" stroke-miterlimit="10" stroke-linecap="round" stroke-linejoin="round"/>
<path d="M428.476 114.028C428.476 107.117 422.894 101.519 416.005 101.519C409.116 101.519 403.533 107.117 403.533 114.028" stroke="#0D0D26" stroke-opacity="0.09" stroke-width="5" stroke-miterlimit="10" stroke-linecap="round" stroke-linejoin="round"/>
<path d="M112.657 134.517C119.578 134.517 125.184 128.943 125.184 122.063C125.184 115.184 119.578 109.609 112.657 109.609" stroke="#0D0D26" stroke-opacity="0.09" stroke-width="5" stroke-miterlimit="10" stroke-linecap="round" stroke-linejoin="round"/>
<path d="M414.351 426.424C421.272 426.424 426.878 420.849 426.878 413.97C426.878 407.09 421.264 401.516 414.351 401.516" stroke="#0D0D26" stroke-opacity="0.09" stroke-width="5" stroke-miterlimit="10" stroke-linecap="round" stroke-linejoin="round"/>
<path d="M279.904 28.5166C286.825 28.5166 292.431 22.9422 292.431 16.0626C292.431 9.18305 286.825 3.60863 279.904 3.60863" stroke="#0D0D26" stroke-opacity="0.09" stroke-width="5" stroke-miterlimit="10" stroke-linecap="round" stroke-linejoin="round"/>
<path d="M408.084 294.831C408.084 301.742 413.69 307.34 420.611 307.34C427.532 307.34 433.138 301.742 433.138 294.831C433.138 287.92 427.524 282.322 420.611 282.322C413.698 282.322 408.084 287.92 408.084 294.831Z" stroke="#0D0D26" stroke-opacity="0.09" stroke-width="5" stroke-miterlimit="10" stroke-linecap="round" stroke-linejoin="round"/>
<path d="M21.7193 309.125C21.7193 316.036 27.3251 321.634 34.2458 321.634C41.1666 321.634 46.7724 316.036 46.7724 309.125C46.7724 302.214 41.1666 296.616 34.2458 296.616C27.3251 296.608 21.7193 302.214 21.7193 309.125Z" stroke="#0D0D26" stroke-opacity="0.09" stroke-width="5" stroke-miterlimit="10" stroke-linecap="round" stroke-linejoin="round"/>
<path d="M31.4507 109.617H56.3701V134.501H31.4507V109.617Z" stroke="#0D0D26" stroke-opacity="0.09" stroke-width="5" stroke-miterlimit="10" stroke-linecap="round" stroke-linejoin="round"/>
<path d="M313.241 122.063H338.16V146.948H313.241V122.063Z" stroke="#0D0D26" stroke-opacity="0.09" stroke-width="5" stroke-miterlimit="10" stroke-linecap="round" stroke-linejoin="round"/>
<path d="M314.485 280.954H339.404V305.838H314.485V280.954Z" stroke="#0D0D26" stroke-opacity="0.09" stroke-width="5" stroke-miterlimit="10" stroke-linecap="round" stroke-linejoin="round"/>
<path d="M31.4507 401.531H56.3701V426.416H31.4507V401.531Z" stroke="#0D0D26" stroke-opacity="0.09" stroke-width="5" stroke-miterlimit="10" stroke-linecap="round" stroke-linejoin="round"/>
<path d="M134.837 3.61646H159.756V28.5009H134.837V3.61646Z" stroke="#0D0D26" stroke-opacity="0.09" stroke-width="5" stroke-miterlimit="10" stroke-linecap="round" stroke-linejoin="round"/>
<path d="M195.572 256.675C201.013 256.675 200.076 247.044 207.02 247.044" stroke="#0D0D26" stroke-opacity="0.09" stroke-width="5" stroke-miterlimit="10" stroke-linecap="round" stroke-linejoin="round"/>
<path d="M172.684 256.675C178.125 256.675 177.188 247.044 184.132 247.044" stroke="#0D0D26" stroke-opacity="0.09" stroke-width="5" stroke-miterlimit="10" stroke-linecap="round" stroke-linejoin="round"/>
<path d="M195.573 256.675C190.132 256.675 191.069 247.044 184.125 247.044" stroke="#0D0D26" stroke-opacity="0.09" stroke-width="5" stroke-miterlimit="10" stroke-linecap="round" stroke-linejoin="round"/>
<path d="M172.685 256.675C167.244 256.675 168.181 247.044 161.237 247.044" stroke="#0D0D26" stroke-opacity="0.09" stroke-width="5" stroke-miterlimit="10" stroke-linecap="round" stroke-linejoin="round"/>
<path d="M130.365 436.118C135.805 436.118 134.868 426.479 141.812 426.479" stroke="#0D0D26" stroke-opacity="0.09" stroke-width="5" stroke-miterlimit="10" stroke-linecap="round" stroke-linejoin="round"/>
<path d="M107.476 436.118C112.917 436.118 111.98 426.487 118.924 426.487" stroke="#0D0D26" stroke-opacity="0.09" stroke-width="5" stroke-miterlimit="10" stroke-linecap="round" stroke-linejoin="round"/>
<path d="M130.365 436.118C124.924 436.118 125.861 426.487 118.917 426.487" stroke="#0D0D26" stroke-opacity="0.09" stroke-width="5" stroke-miterlimit="10" stroke-linecap="round" stroke-linejoin="round"/>
<path d="M107.477 436.118C102.036 436.118 102.973 426.479 96.0286 426.487" stroke="#0D0D26" stroke-opacity="0.09" stroke-width="5" stroke-miterlimit="10" stroke-linecap="round" stroke-linejoin="round"/>
<path d="M99.1545 177.414C104.595 177.414 103.658 167.783 110.603 167.783" stroke="#0D0D26" stroke-opacity="0.09" stroke-width="5" stroke-miterlimit="10" stroke-linecap="round" stroke-linejoin="round"/>
<path d="M76.2586 177.414C81.6991 177.414 80.7622 167.783 87.7065 167.783" stroke="#0D0D26" stroke-opacity="0.09" stroke-width="5" stroke-miterlimit="10" stroke-linecap="round" stroke-linejoin="round"/>
<path d="M99.1548 177.414C93.7142 177.414 94.6511 167.783 87.7068 167.783" stroke="#0D0D26" stroke-opacity="0.09" stroke-width="5" stroke-miterlimit="10" stroke-linecap="round" stroke-linejoin="round"/>
<path d="M76.2588 177.414C70.8182 177.414 71.7552 167.783 64.8108 167.783" stroke="#0D0D26" stroke-opacity="0.09" stroke-width="5" stroke-miterlimit="10" stroke-linecap="round" stroke-linejoin="round"/>
<path d="M417.462 165.77C422.902 165.77 421.965 156.139 428.91 156.139" stroke="#0D0D26" stroke-opacity="0.09" stroke-width="5" stroke-miterlimit="10" stroke-linecap="round" stroke-linejoin="round"/>
<path d="M394.573 165.77C400.014 165.77 399.077 156.139 406.021 156.139" stroke="#0D0D26" stroke-opacity="0.09" stroke-width="5" stroke-miterlimit="10" stroke-linecap="round" stroke-linejoin="round"/>
<path d="M417.462 165.77C412.021 165.77 412.958 156.139 406.014 156.139" stroke="#0D0D26" stroke-opacity="0.09" stroke-width="5" stroke-miterlimit="10" stroke-linecap="round" stroke-linejoin="round"/>
<path d="M394.574 165.77C389.133 165.77 390.07 156.139 383.126 156.139" stroke="#0D0D26" stroke-opacity="0.09" stroke-width="5" stroke-miterlimit="10" stroke-linecap="round" stroke-linejoin="round"/>
<path d="M193.675 36.7878C193.675 42.2207 203.32 41.2851 203.32 48.2197" stroke="#0D0D26" stroke-opacity="0.09" stroke-width="5" stroke-miterlimit="10" stroke-linecap="round" stroke-linejoin="round"/>
<path d="M193.675 13.9319C193.675 19.3648 203.32 18.4292 203.32 25.3638" stroke="#0D0D26" stroke-opacity="0.09" stroke-width="5" stroke-miterlimit="10" stroke-linecap="round" stroke-linejoin="round"/>
<path d="M193.675 36.7878C193.675 31.3549 203.32 32.2906 203.32 25.356" stroke="#0D0D26" stroke-opacity="0.09" stroke-width="5" stroke-miterlimit="10" stroke-linecap="round" stroke-linejoin="round"/>
<path d="M193.675 13.9319C193.675 8.499 203.32 9.43462 203.32 2.5" stroke="#0D0D26" stroke-opacity="0.09" stroke-width="5" stroke-miterlimit="10" stroke-linecap="round" stroke-linejoin="round"/>
<path d="M263.858 156.351C263.858 161.784 273.503 160.848 273.503 167.783" stroke="#0D0D26" stroke-opacity="0.09" stroke-width="5" stroke-miterlimit="10" stroke-linecap="round" stroke-linejoin="round"/>
<path d="M263.858 133.495C263.858 138.928 273.503 137.992 273.503 144.927" stroke="#0D0D26" stroke-opacity="0.09" stroke-width="5" stroke-miterlimit="10" stroke-linecap="round" stroke-linejoin="round"/>
<path d="M263.858 156.351C263.858 150.918 273.503 151.854 273.503 144.919" stroke="#0D0D26" stroke-opacity="0.09" stroke-width="5" stroke-miterlimit="10" stroke-linecap="round" stroke-linejoin="round"/>
<path d="M263.858 133.495C263.858 128.062 273.503 128.998 273.503 122.063" stroke="#0D0D26" stroke-opacity="0.09" stroke-width="5" stroke-miterlimit="10" stroke-linecap="round" stroke-linejoin="round"/>
<path d="M73.6128 347.352C73.6128 352.785 83.2578 351.849 83.2578 358.784" stroke="#0D0D26" stroke-opacity="0.09" stroke-width="5" stroke-miterlimit="10" stroke-linecap="round" stroke-linejoin="round"/>
<path d="M73.6128 324.496C73.6128 329.929 83.2578 328.993 83.2578 335.928" stroke="#0D0D26" stroke-opacity="0.09" stroke-width="5" stroke-miterlimit="10" stroke-linecap="round" stroke-linejoin="round"/>
<path d="M73.6128 347.352C73.6128 341.919 83.2578 342.854 83.2578 335.92" stroke="#0D0D26" stroke-opacity="0.09" stroke-width="5" stroke-miterlimit="10" stroke-linecap="round" stroke-linejoin="round"/>
<path d="M73.6128 324.496C73.6128 319.063 83.2578 319.999 83.2578 313.064" stroke="#0D0D26" stroke-opacity="0.09" stroke-width="5" stroke-miterlimit="10" stroke-linecap="round" stroke-linejoin="round"/>
<path d="M309.658 365.364C309.658 370.797 319.303 369.862 319.303 376.796" stroke="#0D0D26" stroke-opacity="0.09" stroke-width="5" stroke-miterlimit="10" stroke-linecap="round" stroke-linejoin="round"/>
<path d="M309.658 342.509C309.658 347.941 319.303 347.006 319.303 353.94" stroke="#0D0D26" stroke-opacity="0.09" stroke-width="5" stroke-miterlimit="10" stroke-linecap="round" stroke-linejoin="round"/>
<path d="M309.658 365.365C309.658 359.932 319.303 360.867 319.303 353.933" stroke="#0D0D26" stroke-opacity="0.09" stroke-width="5" stroke-miterlimit="10" stroke-linecap="round" stroke-linejoin="round"/>
<path d="M309.658 342.509C309.658 337.076 319.303 338.011 319.303 331.077" stroke="#0D0D26" stroke-opacity="0.09" stroke-width="5" stroke-miterlimit="10" stroke-linecap="round" stroke-linejoin="round"/>
<path d="M168.142 282.322H139.9" stroke="#0D0D26" stroke-opacity="0.09" stroke-width="5" stroke-miterlimit="10" stroke-linecap="round" stroke-linejoin="round"/>
<path d="M445.782 200.829H417.54" stroke="#0D0D26" stroke-opacity="0.09" stroke-width="5" stroke-miterlimit="10" stroke-linecap="round" stroke-linejoin="round"/>
<path d="M166.031 69.739H137.789" stroke="#0D0D26" stroke-opacity="0.09" stroke-width="5" stroke-miterlimit="10" stroke-linecap="round" stroke-linejoin="round"/>
<path d="M54.709 6.09309H26.4669" stroke="#0D0D26" stroke-opacity="0.09" stroke-width="5" stroke-miterlimit="10" stroke-linecap="round" stroke-linejoin="round"/>
<path d="M333.192 426.424H304.95" stroke="#0D0D26" stroke-opacity="0.09" stroke-width="5" stroke-miterlimit="10" stroke-linecap="round" stroke-linejoin="round"/>
<path d="M260.678 371.945L240.711 351.998" stroke="#0D0D26" stroke-opacity="0.09" stroke-width="5" stroke-miterlimit="10" stroke-linecap="round" stroke-linejoin="round"/>
<path d="M425.988 26.0321L406.013 6.09309" stroke="#0D0D26" stroke-opacity="0.09" stroke-width="5" stroke-miterlimit="10" stroke-linecap="round" stroke-linejoin="round"/>
<path d="M40.5918 230.462L20.6248 210.523" stroke="#0D0D26" stroke-opacity="0.09" stroke-width="5" stroke-miterlimit="10" stroke-linecap="round" stroke-linejoin="round"/>
<g opacity="0.3">
<path opacity="0.3" d="M184.801 118.274L193.069 103.988L201.312 118.274L209.563 132.567L193.053 132.552L176.534 132.544L184.801 118.274Z" stroke="#0D0D26" stroke-opacity="0.09" stroke-miterlimit="10"/>
<path opacity="0.3" d="M212.138 292.818L220.405 278.532L228.648 292.826L236.9 307.112L220.389 307.104L203.871 307.096L212.138 292.818Z" stroke="#0D0D26" stroke-opacity="0.09" stroke-miterlimit="10"/>
<path opacity="0.3" d="M117.381 346.416L125.648 332.138L133.892 346.424L142.143 360.718L125.632 360.702L109.114 360.694L117.381 346.416Z" stroke="#0D0D26" stroke-opacity="0.09" stroke-miterlimit="10"/>
<path opacity="0.3" d="M62.8892 236.791L58.6218 220.854L74.5655 225.139L90.5171 229.416L78.8329 241.068L67.1487 252.728L62.8892 236.791Z" stroke="#0D0D26" stroke-opacity="0.09" stroke-miterlimit="10"/>
<path opacity="0.3" d="M334.459 51.7972L330.2 35.8601L346.144 40.1451L362.095 44.4222L350.411 56.0743L338.727 67.7263L334.459 51.7972Z" stroke="#0D0D26" stroke-opacity="0.09" stroke-miterlimit="10"/>
<path opacity="0.3" d="M345.774 396.099L341.506 380.162L357.45 384.447L373.402 388.724L361.718 400.376L350.033 412.036L345.774 396.099Z" stroke="#0D0D26" stroke-opacity="0.09" stroke-miterlimit="10"/>
<path opacity="0.3" d="M46.1504 69.5975L31.8523 61.342L46.1583 53.1101L60.4722 44.8704L60.4564 61.3578L60.4485 77.853L46.1504 69.5975Z" stroke="#0D0D26" stroke-opacity="0.09" stroke-miterlimit="10"/>
<path opacity="0.3" d="M346.136 234.354L331.838 226.098L346.144 217.866L360.457 209.627L360.442 226.114L360.434 242.609L346.136 234.354Z" stroke="#0D0D26" stroke-opacity="0.09" stroke-miterlimit="10"/>
<path opacity="0.3" d="M156.89 207.354C156.89 214.265 162.496 219.863 169.417 219.863C176.337 219.863 181.943 214.265 181.943 207.354C181.943 200.443 176.337 194.845 169.417 194.845C162.504 194.837 156.89 200.443 156.89 207.354Z" stroke="#0D0D26" stroke-opacity="0.09" stroke-miterlimit="10"/>
<path opacity="0.3" d="M220.201 67.7263C220.201 74.6373 225.806 80.2354 232.727 80.2354C239.648 80.2354 245.254 74.6373 245.254 67.7263C245.254 60.8153 239.64 55.2173 232.727 55.2173C225.806 55.2173 220.201 60.8231 220.201 67.7263Z" stroke="#0D0D26" stroke-opacity="0.09" stroke-miterlimit="10"/>
<path opacity="0.3" d="M212.201 436.991C212.201 443.902 217.807 449.5 224.728 449.5C231.648 449.5 237.254 443.902 237.254 436.991C237.254 430.08 231.641 424.482 224.728 424.482C217.815 424.474 212.201 430.08 212.201 436.991Z" stroke="#0D0D26" stroke-opacity="0.09" stroke-miterlimit="10"/>
<path opacity="0.3" d="M178.691 418.286C178.691 411.375 173.078 405.777 166.165 405.777C159.244 405.777 153.638 411.375 153.638 418.286" stroke="#0D0D26" stroke-opacity="0.09" stroke-miterlimit="10"/>
<path opacity="0.3" d="M278.692 226.122C278.692 219.211 273.078 213.613 266.165 213.613C259.252 213.613 253.639 219.211 253.639 226.122" stroke="#0D0D26" stroke-opacity="0.09" stroke-miterlimit="10"/>
<path opacity="0.3" d="M410.509 124.532C410.509 117.621 404.927 112.023 398.038 112.023C391.148 112.023 385.566 117.621 385.566 124.532" stroke="#0D0D26" stroke-opacity="0.09" stroke-miterlimit="10"/>
<path opacity="0.3" d="M94.6902 145.021C101.611 145.021 107.217 139.447 107.217 132.567C107.217 125.688 101.611 120.113 94.6902 120.113" stroke="#0D0D26" stroke-opacity="0.09" stroke-miterlimit="10"/>
<path opacity="0.3" d="M396.384 436.928C403.305 436.928 408.911 431.354 408.911 424.474C408.911 417.594 403.305 412.02 396.384 412.02" stroke="#0D0D26" stroke-opacity="0.09" stroke-miterlimit="10"/>
<path opacity="0.3" d="M261.937 39.0208C268.858 39.0208 274.464 33.4464 274.464 26.5668C274.464 19.6872 268.858 14.1128 261.937 14.1128" stroke="#0D0D26" stroke-opacity="0.09" stroke-miterlimit="10"/>
<path opacity="0.3" d="M390.117 305.335C390.117 312.246 395.723 317.844 402.644 317.844C409.564 317.844 415.17 312.246 415.17 305.335C415.17 298.424 409.557 292.826 402.644 292.826C395.731 292.826 390.117 298.424 390.117 305.335Z" stroke="#0D0D26" stroke-opacity="0.09" stroke-miterlimit="10"/>
<path opacity="0.3" d="M3.75188 319.621C3.75188 326.532 9.35775 332.13 16.2785 332.13C23.1993 332.13 28.8052 326.532 28.8052 319.621C28.8052 312.71 23.1993 307.112 16.2785 307.112C9.36562 307.112 3.75188 312.718 3.75188 319.621Z" stroke="#0D0D26" stroke-opacity="0.09" stroke-miterlimit="10"/>
<path opacity="0.3" d="M13.4913 120.121H38.4106V145.006H13.4913V120.121Z" stroke="#0D0D26" stroke-opacity="0.09" stroke-miterlimit="10"/>
<path opacity="0.3" d="M295.273 132.567H320.193V157.452H295.273V132.567Z" stroke="#0D0D26" stroke-opacity="0.09" stroke-miterlimit="10"/>
<path opacity="0.3" d="M296.525 291.458H321.445V316.343H296.525V291.458Z" stroke="#0D0D26" stroke-opacity="0.09" stroke-miterlimit="10"/>
<path opacity="0.3" d="M13.4913 412.036H38.4106V436.92H13.4913V412.036Z" stroke="#0D0D26" stroke-opacity="0.09" stroke-miterlimit="10"/>
<path opacity="0.3" d="M116.877 14.1206H141.797V39.0051H116.877V14.1206Z" stroke="#0D0D26" stroke-opacity="0.09" stroke-miterlimit="10"/>
<g opacity="0.3">
<path opacity="0.3" d="M177.605 267.179C183.046 267.179 182.109 257.548 189.053 257.548" stroke="#0D0D26" stroke-opacity="0.09" stroke-miterlimit="10"/>
<path opacity="0.3" d="M154.717 267.179C160.158 267.179 159.221 257.548 166.165 257.548" stroke="#0D0D26" stroke-opacity="0.09" stroke-miterlimit="10"/>
<path opacity="0.3" d="M177.605 267.179C172.165 267.179 173.102 257.548 166.157 257.548" stroke="#0D0D26" stroke-opacity="0.09" stroke-miterlimit="10"/>
<path opacity="0.3" d="M154.717 267.179C149.277 267.179 150.214 257.548 143.269 257.548" stroke="#0D0D26" stroke-opacity="0.09" stroke-miterlimit="10"/>
</g>
<g opacity="0.3">
<path opacity="0.3" d="M112.397 446.622C117.838 446.622 116.901 436.983 123.845 436.983" stroke="#0D0D26" stroke-opacity="0.09" stroke-miterlimit="10"/>
<path opacity="0.3" d="M89.509 446.622C94.9496 446.622 94.0126 436.991 100.957 436.991" stroke="#0D0D26" stroke-opacity="0.09" stroke-miterlimit="10"/>
<path opacity="0.3" d="M112.397 446.622C106.957 446.622 107.894 436.991 100.95 436.991" stroke="#0D0D26" stroke-opacity="0.09" stroke-miterlimit="10"/>
<path opacity="0.3" d="M89.5093 446.622C84.0687 446.622 85.0056 436.983 78.0613 436.991" stroke="#0D0D26" stroke-opacity="0.09" stroke-miterlimit="10"/>
</g>
<g opacity="0.3">
<path opacity="0.3" d="M81.1872 187.918C86.6278 187.918 85.6909 178.287 92.6352 178.287" stroke="#0D0D26" stroke-opacity="0.09" stroke-miterlimit="10"/>
<path opacity="0.3" d="M58.2991 187.918C63.7396 187.918 62.8027 178.287 69.7471 178.287" stroke="#0D0D26" stroke-opacity="0.09" stroke-miterlimit="10"/>
<path opacity="0.3" d="M81.187 187.918C75.7464 187.918 76.6834 178.287 69.739 178.287" stroke="#0D0D26" stroke-opacity="0.09" stroke-miterlimit="10"/>
<path opacity="0.3" d="M58.2993 187.918C52.8588 187.918 53.7957 178.287 46.8513 178.287" stroke="#0D0D26" stroke-opacity="0.09" stroke-miterlimit="10"/>
</g>
<g opacity="0.3">
<path opacity="0.3" d="M399.494 176.274C404.935 176.274 403.998 166.643 410.942 166.643" stroke="#0D0D26" stroke-opacity="0.09" stroke-miterlimit="10"/>
<path opacity="0.3" d="M376.606 176.274C382.047 176.274 381.11 166.643 388.054 166.643" stroke="#0D0D26" stroke-opacity="0.09" stroke-miterlimit="10"/>
<path opacity="0.3" d="M399.495 176.274C394.054 176.274 394.991 166.643 388.047 166.643" stroke="#0D0D26" stroke-opacity="0.09" stroke-miterlimit="10"/>
<path opacity="0.3" d="M376.606 176.274C371.166 176.274 372.103 166.643 365.158 166.643" stroke="#0D0D26" stroke-opacity="0.09" stroke-miterlimit="10"/>
</g>
<g opacity="0.3">
<path opacity="0.3" d="M175.708 47.292C175.708 52.7249 185.352 51.7893 185.352 58.7239" stroke="#0D0D26" stroke-opacity="0.09" stroke-miterlimit="10"/>
<path opacity="0.3" d="M175.708 24.4361C175.708 29.869 185.352 28.9333 185.352 35.868" stroke="#0D0D26" stroke-opacity="0.09" stroke-miterlimit="10"/>
<path opacity="0.3" d="M175.708 47.292C175.708 41.8591 185.352 42.7947 185.352 35.8601" stroke="#0D0D26" stroke-opacity="0.09" stroke-miterlimit="10"/>
<path opacity="0.3" d="M175.708 24.4361C175.708 19.0032 185.352 19.9388 185.352 13.0042" stroke="#0D0D26" stroke-opacity="0.09" stroke-miterlimit="10"/>
</g>
<g opacity="0.3">
<path opacity="0.3" d="M245.891 166.855C245.891 172.288 255.536 171.352 255.536 178.287" stroke="#0D0D26" stroke-opacity="0.09" stroke-miterlimit="10"/>
<path opacity="0.3" d="M245.891 143.999C245.891 149.432 255.536 148.497 255.536 155.431" stroke="#0D0D26" stroke-opacity="0.09" stroke-miterlimit="10"/>
<path opacity="0.3" d="M245.891 166.855C245.891 161.422 255.536 162.358 255.536 155.423" stroke="#0D0D26" stroke-opacity="0.09" stroke-miterlimit="10"/>
<path opacity="0.3" d="M245.891 143.999C245.891 138.566 255.536 139.502 255.536 132.567" stroke="#0D0D26" stroke-opacity="0.09" stroke-miterlimit="10"/>
</g>
<g opacity="0.3">
<path opacity="0.3" d="M55.6456 357.856C55.6456 363.289 65.2905 362.353 65.2905 369.288" stroke="#0D0D26" stroke-opacity="0.09" stroke-miterlimit="10"/>
<path opacity="0.3" d="M55.6456 335C55.6456 340.433 65.2905 339.497 65.2905 346.432" stroke="#0D0D26" stroke-opacity="0.09" stroke-miterlimit="10"/>
<path opacity="0.3" d="M55.6456 357.856C55.6456 352.423 65.2905 353.359 65.2905 346.424" stroke="#0D0D26" stroke-opacity="0.09" stroke-miterlimit="10"/>
<path opacity="0.3" d="M55.6456 335C55.6456 329.567 65.2905 330.503 65.2905 323.568" stroke="#0D0D26" stroke-opacity="0.09" stroke-miterlimit="10"/>
</g>
<g opacity="0.3">
<path opacity="0.3" d="M291.699 375.869C291.699 381.302 301.344 380.366 301.344 387.301" stroke="#0D0D26" stroke-opacity="0.09" stroke-miterlimit="10"/>
<path opacity="0.3" d="M291.699 353.013C291.699 358.446 301.344 357.51 301.344 364.445" stroke="#0D0D26" stroke-opacity="0.09" stroke-miterlimit="10"/>
<path opacity="0.3" d="M291.699 375.869C291.699 370.436 301.344 371.371 301.344 364.437" stroke="#0D0D26" stroke-opacity="0.09" stroke-miterlimit="10"/>
<path opacity="0.3" d="M291.699 353.013C291.699 347.58 301.344 348.515 301.344 341.581" stroke="#0D0D26" stroke-opacity="0.09" stroke-miterlimit="10"/>
</g>
<path opacity="0.3" d="M150.182 292.826H121.94" stroke="#0D0D26" stroke-opacity="0.09" stroke-miterlimit="10"/>
<path opacity="0.3" d="M427.815 211.333H399.573" stroke="#0D0D26" stroke-opacity="0.09" stroke-miterlimit="10"/>
<path opacity="0.3" d="M148.072 80.2432H119.83" stroke="#0D0D26" stroke-opacity="0.09" stroke-miterlimit="10"/>
<path opacity="0.3" d="M36.7495 16.5972H8.50751" stroke="#0D0D26" stroke-opacity="0.09" stroke-miterlimit="10"/>
<path opacity="0.3" d="M315.233 436.928H286.991" stroke="#0D0D26" stroke-opacity="0.09" stroke-miterlimit="10"/>
<path opacity="0.3" d="M242.71 382.449L222.743 362.503" stroke="#0D0D26" stroke-opacity="0.09" stroke-miterlimit="10"/>
<path opacity="0.3" d="M408.021 36.5362L388.054 16.5972" stroke="#0D0D26" stroke-opacity="0.09" stroke-miterlimit="10"/>
<path opacity="0.3" d="M22.6245 240.966L2.6575 221.027" stroke="#0D0D26" stroke-opacity="0.09" stroke-miterlimit="10"/>
</g>
<path d="M188.651 349.089C190.958 350.536 194.005 349.844 195.454 347.541C196.911 345.237 196.21 342.194 193.911 340.747C191.604 339.301 188.557 339.993 187.108 342.296C185.652 344.6 186.345 347.643 188.651 349.089Z" stroke="#0D0D26" stroke-opacity="0.09" stroke-width="5" stroke-miterlimit="10" stroke-linecap="round" stroke-linejoin="round"/>
<path d="M227.538 213.534C229.845 214.981 232.892 214.289 234.341 211.985C235.79 209.682 235.097 206.639 232.798 205.192C230.491 203.745 227.444 204.437 225.995 206.741C224.539 209.037 225.231 212.08 227.538 213.534Z" stroke="#0D0D26" stroke-opacity="0.09" stroke-width="5" stroke-miterlimit="10" stroke-linecap="round" stroke-linejoin="round"/>
<path d="M405.391 255.22C407.698 256.667 410.745 255.975 412.194 253.672C413.643 251.368 412.95 248.325 410.651 246.878C408.344 245.432 405.297 246.124 403.848 248.427C402.391 250.723 403.084 253.766 405.391 255.22Z" stroke="#0D0D26" stroke-opacity="0.09" stroke-width="5" stroke-miterlimit="10" stroke-linecap="round" stroke-linejoin="round"/>
<path d="M354.828 100.104C357.135 101.55 360.182 100.858 361.631 98.5547C363.08 96.251 362.387 93.2083 360.088 91.7616C357.781 90.3149 354.734 91.0068 353.285 93.3105C351.828 95.6142 352.521 98.6569 354.828 100.104Z" stroke="#0D0D26" stroke-opacity="0.09" stroke-width="5" stroke-miterlimit="10" stroke-linecap="round" stroke-linejoin="round"/>
<path d="M83.3679 97.6584C85.6748 99.1051 88.7218 98.4132 90.1705 96.1095C91.6193 93.8058 90.9264 90.7631 88.6274 89.3164C86.3204 87.8697 83.2734 88.5616 81.8247 90.8653C80.3681 93.1611 81.061 96.2038 83.3679 97.6584Z" stroke="#0D0D26" stroke-opacity="0.09" stroke-width="5" stroke-miterlimit="10" stroke-linecap="round" stroke-linejoin="round"/>
<path d="M13.6487 273.225C15.9556 274.672 19.0026 273.98 20.4513 271.676C21.9 269.373 21.2072 266.33 18.9082 264.883C16.6013 263.437 13.5542 264.129 12.1055 266.432C10.6568 268.736 11.3497 271.779 13.6487 273.225Z" stroke="#0D0D26" stroke-opacity="0.09" stroke-width="5" stroke-miterlimit="10" stroke-linecap="round" stroke-linejoin="round"/>
</svg>
