<svg width="327" height="52" viewBox="0 0 327 52" fill="none" xmlns="http://www.w3.org/2000/svg">
<rect x="0.5" y="0.5" width="326" height="51" rx="11.5" stroke="#0D0D26"/>
<path fill-rule="evenodd" clip-rule="evenodd" d="M37.6117 18.292H30.3876C27.8701 18.292 26.2917 20.0745 26.2917 22.597V29.4037C26.2917 31.9262 27.8626 33.7087 30.3876 33.7087H37.6109C40.1367 33.7087 41.7084 31.9262 41.7084 29.4037V22.597C41.7084 20.0745 40.1367 18.292 37.6117 18.292Z" stroke="#0D0D26" stroke-linecap="round" stroke-linejoin="round"/>
<path fill-rule="evenodd" clip-rule="evenodd" d="M32.9076 26.0004C32.9076 26.8529 32.2168 27.5437 31.3643 27.5437C30.5118 27.5437 29.8209 26.8529 29.8209 26.0004C29.8209 25.1479 30.5118 24.457 31.3643 24.457H31.3668C32.2176 24.4579 32.9076 25.1487 32.9076 26.0004Z" stroke="#0D0D26" stroke-linecap="round" stroke-linejoin="round"/>
<path d="M32.91 26.0005H38.175V27.5438" stroke="#0D0D26" stroke-linecap="round" stroke-linejoin="round"/>
<path d="M35.8182 27.5438V26.0005" stroke="#0D0D26" stroke-linecap="round" stroke-linejoin="round"/>
<path d="M292 29C293.657 29 295 27.6569 295 26C295 24.3431 293.657 23 292 23C290.343 23 289 24.3431 289 26C289 27.6569 290.343 29 292 29Z" fill="#E4E5E7"/>
<path d="M303.008 25.1844C301.768 23.2663 300.159 21.6369 298.355 20.472C296.359 19.182 294.156 18.5 291.984 18.5C289.991 18.5 288.031 19.0695 286.159 20.1927C284.25 21.3378 282.52 23.0108 281.018 25.1647C280.848 25.4081 280.755 25.6965 280.749 25.9931C280.744 26.2897 280.827 26.5813 280.988 26.8306C282.226 28.768 283.819 30.3997 285.595 31.5486C287.594 32.8437 289.745 33.5 291.984 33.5C294.174 33.5 296.381 32.8236 298.368 31.5444C300.171 30.3833 301.777 28.7478 303.013 26.8137C303.168 26.5702 303.25 26.2872 303.249 25.9984C303.248 25.7096 303.165 25.4271 303.008 25.1844V25.1844ZM292 30.5C291.11 30.5 290.24 30.2361 289.5 29.7416C288.76 29.2471 288.183 28.5443 287.843 27.7221C287.502 26.8998 287.413 25.995 287.586 25.1221C287.76 24.2492 288.189 23.4474 288.818 22.818C289.447 22.1887 290.249 21.7601 291.122 21.5865C291.995 21.4128 292.9 21.5019 293.722 21.8425C294.544 22.1831 295.247 22.7599 295.742 23.4999C296.236 24.24 296.5 25.11 296.5 26C296.499 27.1931 296.024 28.3369 295.18 29.1805C294.337 30.0241 293.193 30.4986 292 30.5V30.5Z" fill="#E4E5E7"/>
<circle cx="59" cy="25" r="4" fill="#0D0D26"/>
<circle cx="71" cy="25" r="4" fill="#0D0D26"/>
<circle cx="83" cy="25" r="4" fill="#0D0D26"/>
<circle cx="107" cy="25" r="4" fill="#0D0D26"/>
<circle cx="131" cy="25" r="4" fill="#0D0D26"/>
<circle cx="155" cy="25" r="4" fill="#0D0D26"/>
<circle cx="95" cy="25" r="4" fill="#0D0D26"/>
<circle cx="119" cy="25" r="4" fill="#0D0D26"/>
<circle cx="143" cy="25" r="4" fill="#0D0D26"/>
<circle cx="167" cy="25" r="4" fill="#0D0D26"/>
</svg>
