<svg width="89" height="72" viewBox="0 0 89 72" fill="none" xmlns="http://www.w3.org/2000/svg">
<mask id="mask0_342_5845" style="mask-type:alpha" maskUnits="userSpaceOnUse" x="0" y="0" width="89" height="73">
<path d="M88.7799 0H1.67923e-06V72.4444H88.7799V0Z" fill="#34A853"/>
</mask>
<g mask="url(#mask0_342_5845)">
<g opacity="0.06">
<path d="M64.9663 38.547L63.1769 35.8911L62.5234 38.1093L60.3833 37.5444L60.0047 39.6018L57.5897 39.2016L59.3751 41.8575L64.9663 38.547Z" fill="#0D0D26"/>
<path d="M59.3757 42.1191C59.4275 42.1191 59.4793 42.1041 59.5232 42.0779L65.1104 38.7674C65.2419 38.6888 65.2778 38.528 65.1981 38.4045L63.4127 35.7486C63.353 35.6626 63.2454 35.614 63.1378 35.6289C63.0302 35.6439 62.9385 35.7187 62.9106 35.8197L62.3327 37.7873L60.4597 37.2935C60.384 37.2748 60.3003 37.2861 60.2365 37.3235C60.1688 37.3646 60.1249 37.4282 60.109 37.4993L59.7782 39.2986L57.6382 38.9432C57.5306 38.9245 57.419 38.9694 57.3592 39.0554C57.2994 39.1415 57.2955 39.2537 57.3552 39.3397L59.1406 41.9956C59.1924 42.0742 59.2841 42.1191 59.3757 42.1191ZM64.5804 38.4644L59.4634 41.4944L58.1642 39.5604L59.9576 39.8597C60.0293 39.8709 60.105 39.8559 60.1648 39.8148C60.2246 39.7736 60.2684 39.7138 60.2804 39.6465L60.6072 37.8734L62.4523 38.3596C62.524 38.3784 62.5998 38.3709 62.6635 38.3372C62.7273 38.3035 62.7751 38.2474 62.795 38.1801L63.2812 36.5304L64.5804 38.4644Z" fill="#0D0D26"/>
<path d="M82.0717 7.55586C82.1236 7.45484 82.1515 7.23411 82.1515 7.23411L82.57 1.91408L78.5563 5.68898L78.5643 5.69272C78.4766 5.76755 78.3969 5.8536 78.3451 5.95461C78.0421 6.57191 78.632 7.4324 79.6604 7.87386C80.6927 8.31532 81.7728 8.17316 82.0717 7.55586Z" fill="#0D0D26"/>
<path d="M80.8481 8.39299C81.5296 8.39299 82.0915 8.13862 82.3226 7.66355C82.3864 7.53263 82.4183 7.32689 82.4262 7.2633L82.8487 1.93279C82.8566 1.82431 82.7929 1.71957 82.6853 1.67468C82.5777 1.62979 82.4541 1.6485 82.3704 1.72705L78.3573 5.50142C78.3414 5.51639 78.3294 5.53135 78.3175 5.55005C78.2179 5.64357 78.1461 5.74083 78.0943 5.84557C77.907 6.22712 77.9708 6.67975 78.2737 7.12115C78.5486 7.52515 79.0029 7.87677 79.5489 8.1087C79.9953 8.30321 80.4416 8.39299 80.8481 8.39299ZM81.8165 7.44285C81.5853 7.91792 80.6528 8.0077 79.7801 7.63363C79.3297 7.43911 78.9631 7.15856 78.7439 6.83686C78.5486 6.55256 78.4968 6.27575 78.6044 6.06253C78.6323 6.00642 78.6801 5.94657 78.7559 5.88298C78.7758 5.86427 78.7957 5.84183 78.8117 5.81938L82.2389 2.5949L81.8763 7.20719C81.8643 7.282 81.8364 7.40544 81.8165 7.44285Z" fill="#0D0D26"/>
<path d="M80.7558 5.63608C79.7274 5.19462 78.6513 5.33678 78.3484 5.95409C78.0455 6.57139 78.6353 7.43187 79.6637 7.87334C80.692 8.3148 81.7681 8.17263 82.0711 7.55533C82.374 6.93429 81.7841 6.07755 80.7558 5.63608Z" fill="#0D0D26"/>
<path d="M80.8474 8.38965C80.963 8.38965 81.0746 8.38217 81.1822 8.3672C81.7323 8.29238 82.1428 8.04172 82.3262 7.66011C82.5135 7.27851 82.4497 6.82582 82.1468 6.38435C81.8718 5.9803 81.4174 5.62863 80.8714 5.39667C79.6836 4.88786 78.464 5.08615 78.0933 5.84562C77.7226 6.60509 78.3603 7.60025 79.5481 8.10906C79.9785 8.29612 80.4289 8.38965 80.8474 8.38965ZM80.6402 5.87555C81.0906 6.07009 81.4573 6.35068 81.6765 6.67243C81.8718 6.95676 81.9236 7.23361 81.816 7.44686C81.7124 7.66011 81.4573 7.80602 81.0985 7.85466C80.696 7.90703 80.2257 7.83221 79.7793 7.63766C78.9064 7.26354 78.3683 6.54523 78.5995 6.06635C78.8346 5.58747 79.7673 5.50142 80.6402 5.87555Z" fill="#0D0D26"/>
<path d="M5.07219 60.2362L7.78649 59.3757L8.34848 56.7419L6.20415 54.9685L3.48985 55.8253L2.92387 58.4591L5.07219 60.2362Z" fill="#0D0D26"/>
<path d="M5.0729 60.4981C5.10478 60.4981 5.13269 60.4943 5.16059 60.4831L7.87488 59.6264C7.97054 59.5964 8.03829 59.5216 8.05822 59.4281L8.6242 56.7943C8.64413 56.7007 8.60825 56.6072 8.53651 56.5473L6.38819 54.7703C6.31246 54.7067 6.20884 54.688 6.11318 54.7179L3.39888 55.5746C3.30322 55.6046 3.23547 55.6794 3.21554 55.7729L2.64956 58.4067C2.62963 58.5003 2.6655 58.5938 2.73725 58.6537L4.88557 60.4307C4.94137 60.4756 5.00913 60.4981 5.0729 60.4981ZM7.54406 59.1774L5.13667 59.9406L3.23148 58.3656L3.73369 56.0273L6.14108 55.2641L8.04627 56.8392L7.54406 59.1774Z" fill="#0D0D26"/>
<path d="M5.07204 60.4979C5.20357 60.4979 5.31915 60.4119 5.34705 60.2884L5.88114 57.8043L8.44 56.9961C8.58747 56.9513 8.6632 56.8016 8.61537 56.6632C8.56754 56.5248 8.40811 56.4537 8.26064 56.4986L5.54634 57.3553C5.45068 57.3852 5.38292 57.4601 5.36299 57.5536L4.79702 60.1874C4.76513 60.3296 4.86478 60.468 5.01624 60.4942C5.03616 60.4942 5.05609 60.4979 5.07204 60.4979Z" fill="#0D0D26"/>
<path d="M5.63904 57.8642C5.71477 57.8642 5.79449 57.8343 5.85029 57.7744C5.95392 57.6659 5.94196 57.5013 5.82637 57.404L3.67805 55.627C3.56247 55.5334 3.38709 55.5409 3.28346 55.6494C3.17983 55.7579 3.19179 55.9225 3.30738 56.0198L5.4557 57.7969C5.50751 57.8418 5.57128 57.8642 5.63904 57.8642Z" fill="#0D0D26"/>
<path d="M38.707 47.9436L38.703 47.9511C38.6711 47.9174 38.6392 47.8838 38.6034 47.8538C38.5555 47.8127 38.5077 47.7753 38.4479 47.7453C38.4001 47.7229 38.3323 47.7042 38.2686 47.6892C38.2407 47.6817 38.2088 47.6743 38.1809 47.6705C38.153 47.663 38.129 47.6593 38.129 47.6593L37.9975 47.663C37.9776 47.663 37.9577 47.663 37.9337 47.6668L34.3545 47.7827L36.2836 50.6149C36.2956 50.6336 36.3076 50.6485 36.3195 50.6672L36.3913 50.772L36.3952 50.7645C36.4271 50.7982 36.459 50.8319 36.4949 50.8618C36.5427 50.9029 36.5906 50.9403 36.6503 50.9703C36.6982 50.9927 36.7699 51.0114 36.8337 51.0264C36.8616 51.0339 36.8895 51.0414 36.9214 51.0451C36.9493 51.0526 36.9732 51.0563 36.9732 51.0563L37.1047 51.0526C37.1246 51.0526 37.1446 51.0526 37.1685 51.0488L40.7477 50.9329L38.8186 48.1008C38.8066 48.082 38.7947 48.0671 38.7827 48.0484L38.707 47.9436Z" fill="#0D0D26"/>
<path d="M36.9687 51.3102C36.9727 51.3102 36.9767 51.3102 36.9767 51.3102L37.1082 51.3065C37.148 51.3065 37.1719 51.3065 37.1959 51.3027L40.7467 51.1905C40.8463 51.1868 40.938 51.1344 40.9858 51.0521C41.0336 50.9698 41.0296 50.8688 40.9738 50.7903L39.045 47.9586C39.045 47.9548 39.0211 47.9249 39.0211 47.9249L38.9414 47.8052C38.9214 47.7753 38.8935 47.7491 38.8657 47.7304C38.8417 47.7079 38.8178 47.6817 38.7899 47.663C38.7501 47.6256 38.6783 47.5695 38.5827 47.5209C38.5827 47.5209 38.5787 47.5209 38.5787 47.5171C38.5189 47.4872 38.4432 47.461 38.3356 47.4386C38.2838 47.4236 38.2479 47.4161 38.2161 47.4124L38.1842 47.4049C38.1643 47.4012 38.1364 47.3974 38.1204 47.4012L37.9889 47.4049C37.9491 47.4049 37.9251 47.4049 37.9052 47.4087L34.3504 47.5246C34.2508 47.5284 34.1591 47.5807 34.1113 47.663C34.0635 47.7453 34.0675 47.8463 34.1233 47.9249L36.0521 50.7529C36.0521 50.7529 36.0641 50.7716 36.076 50.7903L36.1557 50.9062C36.1756 50.9362 36.2035 50.9623 36.2314 50.981C36.2553 51.0072 36.2793 51.0297 36.3072 51.0521C36.3669 51.1082 36.4307 51.1531 36.5024 51.1868C36.5104 51.1905 36.5184 51.1943 36.5224 51.198C36.5781 51.2242 36.6539 51.2504 36.7575 51.2766C36.8093 51.2915 36.8412 51.2953 36.877 51.3027L36.9129 51.3102C36.9328 51.3102 36.9528 51.3102 36.9687 51.3102ZM40.2405 50.6818L37.152 50.7828L37.1002 51.0484L37.0922 50.7865L36.9926 50.7903L36.9249 50.7753C36.8332 50.7529 36.7973 50.7416 36.7854 50.7342C36.7814 50.7304 36.7774 50.7304 36.7734 50.7267C36.7495 50.7155 36.7216 50.693 36.6857 50.6631C36.6539 50.6369 36.6339 50.6145 36.614 50.592C36.606 50.5845 36.5981 50.5733 36.5901 50.5658L36.5582 50.5209L36.5343 50.5284C36.5224 50.5209 36.5064 50.5135 36.4905 50.5097L36.5303 50.4873L34.8565 48.0259L37.9451 47.9249L37.9969 47.6593L38.0048 47.9211L38.1045 47.9174L38.1722 47.9324C38.2719 47.9548 38.3077 47.9698 38.3157 47.9735C38.3157 47.9735 38.3197 47.9735 38.3197 47.9773C38.3476 47.9922 38.3755 48.0109 38.4113 48.0446C38.4432 48.0708 38.4631 48.0932 38.4831 48.1157C38.491 48.1231 38.499 48.1344 38.507 48.1418L38.5389 48.1867L38.5588 48.1793C38.5747 48.1867 38.5867 48.1942 38.6026 48.198L38.5588 48.2241L40.2405 50.6818Z" fill="#0D0D26"/>
<path d="M37.0484 51.3143C37.2995 51.3143 37.5626 51.2432 37.8296 51.1011C38.2521 50.8766 38.6308 50.4912 38.8978 50.0161C39.1609 49.541 39.2844 49.0322 39.2446 48.5757C39.2007 48.0782 38.9656 47.7003 38.5829 47.5132C38.4474 47.4459 38.276 47.4945 38.2043 47.6217C38.1326 47.7489 38.1844 47.9098 38.3199 47.9771C38.5989 48.1156 38.6666 48.441 38.6826 48.6206C38.7145 48.976 38.6148 49.3876 38.3996 49.7729C38.1844 50.1583 37.8814 50.4688 37.5506 50.6446C37.3832 50.7344 37.0564 50.8654 36.7774 50.7269C36.6419 50.6596 36.4745 50.7082 36.3988 50.8392C36.327 50.9664 36.3788 51.1235 36.5143 51.1946C36.6817 51.2769 36.8611 51.3143 37.0484 51.3143Z" fill="#0D0D26"/>
<path d="M83.6308 52.0058L82.1244 46.9035L84.2565 47.6628L84.643 44.7675L86.1694 49.8063L84.0811 49.0619L83.6308 52.0058Z" fill="#0D0D26"/>
<path d="M83.6319 52.2676C83.6399 52.2676 83.6439 52.2676 83.6518 52.2676C83.7833 52.2602 83.8909 52.1666 83.9109 52.0432L84.3094 49.4247L86.0748 50.0531C86.1745 50.0905 86.286 50.0681 86.3618 50.0008C86.4375 49.9334 86.4694 49.8324 86.4415 49.7352L84.9111 44.6964C84.8753 44.5767 84.7517 44.4982 84.6202 44.5057C84.4887 44.5169 84.3811 44.6104 84.3652 44.7338L84.0264 47.3L82.2251 46.6603C82.1255 46.6266 82.0139 46.6454 81.9382 46.7127C81.8625 46.78 81.8306 46.881 81.8585 46.9783L83.3649 52.0806C83.3968 52.1891 83.5084 52.2676 83.6319 52.2676ZM84.0822 48.8C84.0344 48.8 83.9826 48.8112 83.9388 48.8374C83.867 48.8786 83.8152 48.9459 83.8033 49.0244L83.5442 50.7302L82.54 47.3336L84.1619 47.9097C84.2416 47.9396 84.3333 47.9284 84.405 47.891C84.4768 47.8499 84.5286 47.7788 84.5365 47.7002L84.7517 46.0842L85.752 49.3798L84.1819 48.8224C84.15 48.8075 84.1141 48.8 84.0822 48.8Z" fill="#0D0D26"/>
<path d="M48.0422 41.6336C48.0422 41.6336 48.3969 40.7544 48.935 39.4973C49.497 38.1879 48.8154 37.2825 47.9505 37.1142C46.978 36.9234 46.3801 37.6978 46.2526 38.5059C45.4594 38.158 44.4431 38.2029 44.0764 39.0708C43.7495 39.8453 44.18 40.8741 45.6507 41.1584C47.0657 41.4278 48.0422 41.6336 48.0422 41.6336Z" fill="#0D0D26"/>
<path d="M48.0419 41.8955C48.1575 41.8955 48.2611 41.8282 48.301 41.7271C48.301 41.7271 48.6557 40.8479 49.1938 39.5946C49.4927 38.895 49.4927 38.2216 49.1898 37.6941C48.9427 37.2601 48.5122 36.9571 48.006 36.8561C47.5716 36.77 47.1571 36.8448 46.8103 37.0693C46.4516 37.3013 46.1845 37.6866 46.045 38.1505C45.5588 38.0046 45.0685 38.0046 44.662 38.1543C44.2714 38.3002 43.9764 38.5845 43.813 38.9736C43.6217 39.4263 43.6536 39.9313 43.9047 40.3616C44.2076 40.8891 44.8094 41.2595 45.5946 41.4129C47.0016 41.6822 47.9781 41.888 47.9781 41.8918C48.002 41.8955 48.022 41.8955 48.0419 41.8955ZM47.6593 37.3462C47.735 37.3462 47.8147 37.3536 47.8944 37.3686C48.2372 37.436 48.5321 37.6455 48.6995 37.941C48.9227 38.3301 48.9148 38.8501 48.6756 39.4001C48.293 40.2905 48.002 40.9939 47.8665 41.3306C47.4958 41.252 46.7107 41.0911 45.7062 40.9003C45.0845 40.7806 44.6221 40.5038 44.3949 40.1147C44.2235 39.8191 44.2036 39.4749 44.3312 39.1681C44.4388 38.9137 44.6181 38.7379 44.8692 38.6444C45.216 38.5134 45.6863 38.5508 46.1327 38.7454C46.2124 38.7791 46.3041 38.7791 46.3838 38.7379C46.4595 38.7005 46.5153 38.6294 46.5273 38.5471C46.599 38.0944 46.8262 37.7016 47.1331 37.5033C47.2886 37.3985 47.464 37.3462 47.6593 37.3462Z" fill="#0D0D26"/>
<path d="M59.5871 27.187C60.8426 27.187 61.8789 26.2442 61.9107 25.0582C61.9426 23.8536 60.9223 22.8546 59.6429 22.8247C59.0171 22.806 58.4312 23.023 57.9848 23.427C57.5344 23.8274 57.2793 24.3698 57.2634 24.9535C57.2315 26.1581 58.2478 27.1571 59.5313 27.187C59.5472 27.187 59.5671 27.187 59.5871 27.187ZM59.5871 23.3485C59.603 23.3485 59.615 23.3485 59.6309 23.3485C60.1012 23.3597 60.5436 23.543 60.8665 23.861C61.1933 24.1828 61.3647 24.6018 61.3527 25.047C61.3288 25.9599 60.5277 26.6894 59.5432 26.6632C58.5707 26.6408 57.7975 25.8776 57.8214 24.9647C57.8413 24.0631 58.6305 23.3485 59.5871 23.3485Z" fill="#0D0D26"/>
<path d="M70.3863 33.5611C70.4341 33.5611 70.482 33.5499 70.5258 33.5275C71.1954 33.1683 71.6777 32.5884 71.8849 31.8888C72.0882 31.1892 71.9926 30.4596 71.6139 29.8311C71.2313 29.2026 70.6135 28.7499 69.8682 28.5554C69.1228 28.3608 68.3456 28.4544 67.676 28.8098C67.5405 28.8809 67.4966 29.0417 67.5724 29.1652C67.6481 29.2924 67.8195 29.3335 67.951 29.2625C68.4931 28.9744 69.1228 28.8996 69.7207 29.0567C70.3185 29.2138 70.8208 29.5767 71.1277 30.0855C71.7614 31.1331 71.3708 32.4724 70.2508 33.0673C70.1153 33.1384 70.0714 33.2992 70.1472 33.4227C70.195 33.5125 70.2906 33.5611 70.3863 33.5611Z" fill="#0D0D26"/>
<path d="M54.5656 51.5724C54.5975 51.5724 54.6294 51.5687 54.6613 51.5575C54.8048 51.5088 54.8805 51.3592 54.8287 51.2208C54.446 50.2219 53.6688 49.4212 52.6445 48.9685C51.6201 48.5159 50.4683 48.4672 49.4041 48.8264C49.2606 48.875 49.1848 49.0247 49.2367 49.1631C49.2885 49.2978 49.4479 49.3689 49.5954 49.3202C50.5201 49.0097 51.5205 49.0509 52.4093 49.4437C53.2981 49.8365 53.9717 50.5324 54.3065 51.4003C54.3464 51.5051 54.45 51.5724 54.5656 51.5724Z" fill="#0D0D26"/>
<path d="M3.47436 6.36998C3.56603 6.36998 3.6577 6.32508 3.70952 6.24651L6.86225 1.5812C6.94595 1.45774 6.90609 1.29687 6.77456 1.21831C6.64303 1.13974 6.47164 1.17715 6.38794 1.30061L3.23522 5.96592C3.15152 6.08938 3.19137 6.25026 3.3229 6.32882C3.37073 6.35875 3.42254 6.36998 3.47436 6.36998Z" fill="#0D0D26"/>
<path d="M70.1712 45.834C70.215 45.834 70.2589 45.8228 70.3027 45.8041L74.8226 43.5331C74.9581 43.4658 75.0099 43.3049 74.9381 43.1777C74.8664 43.0505 74.695 43.0019 74.5595 43.0692L70.0396 45.3401C69.9041 45.4075 69.8523 45.5684 69.9241 45.6956C69.9759 45.7816 70.0715 45.834 70.1712 45.834Z" fill="#0D0D26"/>
<path d="M73.6424 46.8181C73.6863 46.8181 73.7301 46.8069 73.7739 46.7882C73.9095 46.7208 73.9613 46.56 73.8895 46.4328L71.4702 42.1902C71.3984 42.063 71.227 42.0144 71.0915 42.0817C70.956 42.1491 70.9042 42.3099 70.9759 42.4371L73.3953 46.6797C73.4471 46.7657 73.5428 46.8181 73.6424 46.8181Z" fill="#0D0D26"/>
<path d="M63.4072 51.6244C63.475 51.6244 63.5388 51.602 63.5946 51.5571C63.7102 51.4598 63.7181 51.2952 63.6185 51.1867L62.6779 50.199C62.5742 50.0905 62.3989 50.0793 62.2833 50.1766C62.1677 50.2738 62.1597 50.4384 62.2594 50.5469L63.2 51.5346C63.2518 51.5945 63.3315 51.6244 63.4072 51.6244Z" fill="#0D0D26"/>
<path d="M66.5201 54.8976C66.5879 54.8976 66.6516 54.8752 66.7074 54.8303C66.823 54.733 66.831 54.5684 66.7313 54.4599L65.7907 53.4722C65.6871 53.3637 65.5117 53.3563 65.3961 53.4498C65.2805 53.5471 65.2726 53.7117 65.3722 53.8202L66.3128 54.8079C66.3686 54.8677 66.4444 54.8976 66.5201 54.8976Z" fill="#0D0D26"/>
<path d="M61.5158 53.3489C61.5357 53.3489 61.5557 53.3489 61.5716 53.3452L62.9546 53.0758C63.1061 53.0459 63.2018 52.9074 63.1699 52.7653C63.138 52.6231 62.9905 52.5333 62.8391 52.5632L61.456 52.8326C61.3046 52.8625 61.2089 53.001 61.2408 53.1431C61.2687 53.2629 61.3843 53.3489 61.5158 53.3489Z" fill="#0D0D26"/>
<path d="M66.0924 52.4548C66.1123 52.4548 66.1322 52.4548 66.1482 52.451L67.5312 52.1816C67.6827 52.1517 67.7784 52.0133 67.7465 51.8711C67.7146 51.729 67.5671 51.6392 67.4157 51.6691L66.0326 51.9385C65.8811 51.9684 65.7855 52.1068 65.8174 52.249C65.8453 52.3687 65.9609 52.4548 66.0924 52.4548Z" fill="#0D0D26"/>
<path d="M63.5399 55.4814C63.6555 55.4814 63.7671 55.4103 63.807 55.3018L64.2494 54.041C64.2972 53.9026 64.2175 53.7567 64.07 53.7118C63.9225 53.6669 63.7671 53.7417 63.7193 53.8802L63.2768 55.1409C63.229 55.2794 63.3087 55.4253 63.4562 55.4702C63.4841 55.4739 63.512 55.4814 63.5399 55.4814Z" fill="#0D0D26"/>
<path d="M65.0021 51.3142C65.1177 51.3142 65.2293 51.2432 65.2691 51.1347L65.7116 49.8739C65.7594 49.7354 65.6797 49.5895 65.5322 49.5446C65.3847 49.4997 65.2293 49.5746 65.1814 49.713L64.739 50.9738C64.6912 51.1122 64.7709 51.2581 64.9184 51.303C64.9463 51.3105 64.9742 51.3142 65.0021 51.3142Z" fill="#0D0D26"/>
<path d="M76.5909 22.9562C76.5988 22.9562 76.6068 22.9562 76.6148 22.9562C76.7662 22.9412 76.8818 22.814 76.8659 22.6718L76.4992 18.9269L80.4929 18.5827C80.6444 18.5677 80.76 18.4405 80.744 18.2983C80.7281 18.1524 80.5965 18.0477 80.4411 18.0627L76.1723 18.4293C76.0209 18.4443 75.9053 18.5715 75.9212 18.7136L76.3119 22.7205C76.3238 22.8552 76.4474 22.9562 76.5909 22.9562Z" fill="#0D0D26"/>
<path d="M17.6423 16.0994C17.6663 16.0994 17.6902 16.0957 17.7141 16.0919L20.9027 15.2988C20.9944 15.2763 21.0661 15.2127 21.098 15.1267C21.1259 15.0444 21.1099 14.9508 21.0502 14.8798L19.4319 12.9755L22.21 12.2834C22.3575 12.2459 22.4492 12.1038 22.4093 11.9616C22.3694 11.8232 22.222 11.7371 22.0665 11.7745L18.8779 12.5677C18.7863 12.5901 18.7145 12.6537 18.6826 12.7398C18.6547 12.8221 18.6707 12.9156 18.7305 12.9867L20.3487 14.891L17.5706 15.5831C17.4231 15.6205 17.3315 15.7627 17.3713 15.9049C17.4072 16.0208 17.5188 16.0994 17.6423 16.0994Z" fill="#0D0D26"/>
<path d="M49.3058 31.0917C49.3696 31.0917 49.4334 31.073 49.4852 31.0319L51.7288 29.2775C51.8484 29.184 51.8643 29.0194 51.7647 28.9071C51.6651 28.7949 51.4897 28.78 51.3702 28.8735L49.3417 30.4633L47.648 28.5593C47.5484 28.447 47.373 28.4321 47.2535 28.5256L45.225 30.1154L43.5313 28.2114C43.4317 28.0992 43.2563 28.0842 43.1367 28.1777C43.0172 28.2712 43.0013 28.4358 43.1009 28.548L44.9699 30.6541C45.0696 30.7663 45.2449 30.7812 45.3645 30.6877L47.3929 29.0979L49.0866 31.0019C49.1464 31.0618 49.2261 31.0917 49.3058 31.0917Z" fill="#0D0D26"/>
<path d="M85.7497 39.3286C85.8812 39.3286 85.9967 39.2426 86.0246 39.1191C86.0565 38.977 85.9569 38.8386 85.8055 38.8124L83.227 38.3299L83.7411 35.9096C83.773 35.7675 83.6734 35.6291 83.5219 35.6029L80.9435 35.1203L81.4576 32.7001C81.4895 32.5579 81.3899 32.4195 81.2384 32.3934L78.66 31.9108L79.1741 29.4906C79.206 29.3484 79.1063 29.21 78.9549 29.1838C78.8035 29.1539 78.656 29.2474 78.6281 29.3896L78.0582 32.0679C78.0263 32.2101 78.126 32.3485 78.2774 32.3747L80.8558 32.8572L80.3417 35.2774C80.3099 35.4196 80.4095 35.558 80.5609 35.5842L83.1394 36.0667L82.6253 38.487C82.5934 38.6291 82.693 38.7675 82.8444 38.7937L85.6979 39.3286C85.7138 39.3286 85.7297 39.3286 85.7497 39.3286Z" fill="#0D0D26"/>
<path d="M30.9054 38.4616C30.9293 38.4616 30.9532 38.4578 30.9772 38.4541L34.8473 37.4888C34.9948 37.4514 35.0865 37.3093 35.0466 37.1671L34.0183 33.5344C33.9984 33.467 33.9505 33.4109 33.8868 33.3735C33.823 33.3398 33.7472 33.3286 33.6755 33.3473L29.8053 34.3125C29.6579 34.3499 29.5662 34.4921 29.6061 34.6343L30.6344 38.267C30.6703 38.3867 30.7819 38.4616 30.9054 38.4616ZM34.4328 37.0474L31.1007 37.8779L30.2159 34.7503L33.548 33.9197L34.4328 37.0474Z" fill="#0D0D26"/>
<path d="M12.099 50.8314C12.1867 50.8314 12.2744 50.8127 12.3541 50.7715C12.6251 50.6369 12.7288 50.3226 12.5893 50.0682C12.5215 49.9447 12.4059 49.8549 12.2624 49.8138C12.1189 49.7726 11.9715 49.7839 11.8399 49.8475C11.7084 49.9111 11.6127 50.0196 11.5689 50.1542C11.5251 50.2852 11.537 50.4274 11.6048 50.5508C11.7044 50.7304 11.8957 50.8314 12.099 50.8314ZM12.099 50.3076V50.3114L11.8519 50.4274L12.099 50.3076Z" fill="#0D0D26"/>
<path d="M8.76027 17.9281L11.247 15.8146L8.80411 15.5864L9.03524 13.4991H6.81151L6.82745 11.1836L4.34068 13.2971L8.76027 17.9281Z" fill="#0D0D26"/>
<path d="M8.76072 18.1899C8.82847 18.1899 8.89621 18.1674 8.94802 18.1225L11.4348 16.009C11.5185 15.938 11.5464 15.8295 11.5145 15.7322C11.4786 15.635 11.387 15.5639 11.2754 15.5527L9.1154 15.3507L9.31864 13.5252C9.32661 13.4504 9.3027 13.3793 9.24691 13.3232C9.1951 13.2671 9.11938 13.2372 9.03968 13.2372H7.0949L7.10686 11.1835C7.10686 11.0788 7.04309 10.9853 6.93948 10.9441C6.83985 10.903 6.72029 10.9179 6.64059 10.989L4.15383 13.1025C4.03825 13.1998 4.03029 13.3644 4.1339 13.4728L8.55349 18.1038C8.60131 18.1562 8.67304 18.1861 8.74876 18.1899C8.74876 18.1899 8.75275 18.1899 8.76072 18.1899ZM10.5939 16.0165L8.78064 17.5577L4.73567 13.3157L6.54494 11.7746L6.53299 13.4953C6.53299 13.5664 6.56089 13.6337 6.6127 13.6823C6.6645 13.7309 6.73624 13.7609 6.81196 13.7609H8.72485L8.52559 15.5601C8.51762 15.6312 8.54153 15.6986 8.58537 15.7547C8.63319 15.807 8.70094 15.8444 8.77267 15.8482L10.5939 16.0165Z" fill="#0D0D26"/>
<path d="M3.07745 43.5487C3.0934 43.5487 3.10535 43.5487 3.1213 43.545L6.82805 42.9838C6.93168 42.9688 7.01936 42.8977 7.05125 42.8042L8.18719 39.4446C8.21509 39.3585 8.19516 39.2613 8.13139 39.1939C8.06762 39.1266 7.97196 39.0929 7.8763 39.1079L4.16955 39.6728C4.06592 39.6878 3.98222 39.7589 3.95033 39.8524L2.81439 43.212C2.78649 43.2981 2.80643 43.3953 2.8702 43.4627C2.91803 43.515 2.99774 43.5487 3.07745 43.5487ZM6.56898 42.4937L3.48002 42.9613L4.42862 40.1592L7.51758 39.6915L6.56898 42.4937Z" fill="#0D0D26"/>
<path d="M32.4519 6.97147L26.4183 6.24203C25.9958 6.18966 25.5854 6.64977 25.5017 7.27073C25.418 7.88794 25.689 8.43409 26.1114 8.48272L32.145 9.21215C32.5674 9.26452 32.9779 8.80442 33.0616 8.18346C33.1453 7.56624 32.8743 7.02384 32.4519 6.97147Z" fill="#0D0D26"/>
<path d="M32.2091 9.48149C32.7551 9.48149 33.2373 8.95031 33.3409 8.22087C33.3887 7.87299 33.3409 7.52884 33.2014 7.25577C33.046 6.94903 32.787 6.75077 32.4881 6.71337L26.4545 5.98393C25.8687 5.9166 25.3307 6.46274 25.2231 7.23707C25.1753 7.58495 25.2231 7.9291 25.3626 8.20217C25.518 8.50891 25.777 8.70716 26.0759 8.74457L32.1095 9.47401C32.1414 9.47775 32.1772 9.48149 32.2091 9.48149ZM26.3549 6.50015C26.3628 6.50015 26.3748 6.50015 26.3828 6.50015L32.4164 7.22958C32.52 7.24081 32.6236 7.33058 32.6953 7.47647C32.787 7.65977 32.8189 7.90291 32.787 8.1498C32.7192 8.64357 32.4124 8.9765 32.1812 8.95405L26.1476 8.22461C26.044 8.21339 25.9404 8.12361 25.8687 7.97773C25.777 7.79443 25.7451 7.55129 25.777 7.3044C25.8408 6.82933 26.1277 6.50015 26.3549 6.50015Z" fill="#0D0D26"/>
<path d="M25.4989 7.27083C25.4152 7.89187 25.6862 8.43435 26.1087 8.48298C26.5312 8.53536 26.9417 8.07519 27.0254 7.45415C27.1091 6.8331 26.8381 6.29062 26.4156 6.24199C25.9931 6.19335 25.5826 6.65352 25.4989 7.27083Z" fill="#0D0D26"/>
<path d="M26.1727 8.75244C26.4397 8.75244 26.7028 8.62524 26.9101 8.39328C27.1173 8.16133 27.2568 7.83958 27.3047 7.49165C27.3525 7.14371 27.3047 6.79952 27.1652 6.52641C27.0097 6.21963 26.7506 6.02134 26.4517 5.98393C25.8658 5.91659 25.3277 6.46281 25.2201 7.23724C25.1723 7.58518 25.2201 7.92937 25.3596 8.20248C25.5151 8.50926 25.7741 8.70755 26.0731 8.74496C26.1049 8.7487 26.1408 8.75244 26.1727 8.75244ZM26.356 6.50022C26.364 6.50022 26.376 6.50022 26.384 6.50022C26.4876 6.51144 26.5912 6.60123 26.663 6.74714C26.7546 6.93046 26.7865 7.17364 26.7546 7.42056C26.7188 7.66748 26.6231 7.8957 26.4836 8.05283C26.376 8.17629 26.2484 8.23989 26.1488 8.22493C26.0452 8.2137 25.9415 8.12391 25.8698 7.97801C25.7781 7.79468 25.7462 7.55151 25.7781 7.30458C25.8419 6.82945 26.1289 6.50022 26.356 6.50022Z" fill="#0D0D26"/>
<path d="M18.5933 33.5232C18.4896 33.4671 18.2585 33.4259 18.2585 33.4259L12.6705 32.6328L16.3573 36.6583L16.3613 36.6509C16.433 36.7407 16.5167 36.8192 16.6243 36.8716C17.2541 37.1971 18.2067 36.7145 18.7487 35.7904C19.2908 34.8663 19.223 33.8524 18.5933 33.5232Z" fill="#0D0D26"/>
<path d="M17.059 37.2339C17.1905 37.2339 17.33 37.2152 17.4695 37.1778C18.0513 37.0206 18.6212 36.5493 18.9918 35.9171C19.6215 34.851 19.5059 33.6989 18.7288 33.2949C18.5973 33.2276 18.3781 33.1827 18.3144 33.1677L12.7152 32.3747C12.5996 32.3597 12.484 32.4121 12.4282 32.5056C12.3724 32.6029 12.3844 32.7188 12.4601 32.8049L16.1464 36.8299C16.1624 36.8448 16.1783 36.8598 16.1942 36.871C16.2859 36.972 16.3815 37.0468 16.4891 37.0992C16.6605 37.189 16.8518 37.2339 17.059 37.2339ZM18.4578 33.755C18.944 34.0094 18.9639 34.881 18.5017 35.6665C18.2028 36.1752 17.7485 36.5605 17.3101 36.6802C17.1626 36.7214 16.9474 36.7476 16.7522 36.6466C16.6924 36.6166 16.6366 36.568 16.5768 36.4932C16.5569 36.4708 16.537 36.4521 16.513 36.4371L13.3687 33.0031L18.2107 33.6914C18.2904 33.6989 18.418 33.7326 18.4578 33.755Z" fill="#0D0D26"/>
<path d="M16.4654 34.6043C15.9194 35.5284 15.9911 36.5423 16.6209 36.8715C17.2506 37.197 18.2032 36.7144 18.7453 35.7903C19.2913 34.8662 19.2196 33.8523 18.5898 33.5231C17.9641 33.1976 17.0115 33.6802 16.4654 34.6043Z" fill="#0D0D26"/>
<path d="M17.0587 37.2345C17.1902 37.2345 17.3297 37.2158 17.4692 37.1784C18.0511 37.0213 18.6211 36.5499 18.9918 35.9176C19.6215 34.8513 19.5059 33.699 18.7287 33.295C18.3381 33.093 17.8519 33.1154 17.3656 33.3661C16.9192 33.5943 16.5126 33.9909 16.2217 34.481C15.5919 35.5472 15.7075 36.6995 16.4847 37.1036C16.6601 37.1896 16.8514 37.2345 17.0587 37.2345ZM18.1548 33.6841C18.2664 33.6841 18.37 33.7065 18.4577 33.7552C18.944 34.0058 18.9639 34.8813 18.5055 35.6669C18.2066 36.1757 17.7522 36.5611 17.3138 36.6808C17.1663 36.722 16.9511 36.7481 16.7558 36.6471C16.2695 36.3965 16.2496 35.521 16.7079 34.7354C16.9471 34.3313 17.2739 34.0096 17.6287 33.83C17.816 33.7327 17.9953 33.6841 18.1548 33.6841Z" fill="#0D0D26"/>
<path d="M58.6948 11.7746L55.7733 11.5838L54.1391 13.8622L55.4186 16.3314L58.3401 16.5222L59.9783 14.2438L58.6948 11.7746Z" fill="#0D0D26"/>
<path d="M58.3402 16.7842C58.4319 16.7842 58.5196 16.7393 58.5714 16.6682L60.2096 14.3898C60.2654 14.3112 60.2733 14.2139 60.2295 14.1279L58.9461 11.6587C58.9022 11.5726 58.8145 11.5202 58.7149 11.5128L55.7933 11.322C55.6897 11.3145 55.598 11.3594 55.5422 11.4379L53.9041 13.7163C53.8483 13.7949 53.8403 13.8922 53.8842 13.9782L55.1676 16.4474C55.2114 16.5335 55.2991 16.5859 55.3988 16.5934L58.3203 16.7842C58.3283 16.7842 58.3323 16.7842 58.3402 16.7842ZM59.6555 14.2214L58.1968 16.2492L55.598 16.0771L54.4541 13.8772L55.9129 11.8495L58.5116 12.0216L59.6555 14.2214Z" fill="#0D0D26"/>
<path d="M57.0549 14.3149C57.1465 14.3149 57.2342 14.27 57.286 14.1989L58.9242 11.9205C59.0119 11.8008 58.976 11.6362 58.8485 11.5576C58.7209 11.479 58.5455 11.509 58.4618 11.6287L56.9154 13.7799L54.1572 13.6003C54.0018 13.5891 53.8703 13.6976 53.8583 13.8435C53.8463 13.9894 53.9619 14.1128 54.1174 14.1241L57.0389 14.3149C57.0429 14.3149 57.0509 14.3149 57.0549 14.3149Z" fill="#0D0D26"/>
<path d="M58.3423 16.7837C58.3822 16.7837 58.426 16.7762 58.4659 16.7575C58.6054 16.6939 58.6612 16.5368 58.5934 16.4058L57.31 13.9366C57.2422 13.8057 57.0748 13.7533 56.9353 13.8169C56.7958 13.8805 56.74 14.0376 56.8078 14.1686L58.0912 16.6378C58.139 16.7313 58.2387 16.7837 58.3423 16.7837Z" fill="#0D0D26"/>
<path d="M88.5115 25.9413L88.5195 25.9338C88.5354 25.9749 88.5554 26.0124 88.5793 26.0498C88.6112 26.0984 88.643 26.147 88.6869 26.1882C88.7228 26.2219 88.7825 26.2593 88.8344 26.2892C88.8583 26.3042 88.8822 26.3191 88.9101 26.3304C88.934 26.3416 88.9539 26.3528 88.9539 26.3528L89.0735 26.3827C89.0934 26.3865 89.1094 26.394 89.1333 26.3977L92.4255 27.2283L91.5088 24.1455C91.5048 24.1268 91.4968 24.1081 91.4929 24.0894L91.461 23.9771L91.453 23.9846C91.4371 23.9435 91.4171 23.906 91.3932 23.8686C91.3613 23.82 91.3294 23.7714 91.2856 23.7302C91.2497 23.6965 91.1899 23.6591 91.1381 23.6292C91.1142 23.6142 91.0903 23.5993 91.0624 23.588C91.0345 23.5768 91.0146 23.5693 91.0146 23.5693L90.895 23.5394C90.8751 23.5357 90.8591 23.5282 90.8392 23.5244L87.547 22.6939L88.4637 25.7767C88.4677 25.7954 88.4756 25.8141 88.4796 25.8328L88.5115 25.9413Z" fill="#0D0D26"/>
<path d="M92.4267 27.4901C92.4984 27.4901 92.5702 27.4639 92.626 27.4115C92.6977 27.3442 92.7216 27.2469 92.6977 27.1571L91.781 24.0744C91.781 24.0706 91.769 24.037 91.769 24.0332L91.7331 23.906C91.7212 23.8723 91.7052 23.8424 91.6853 23.8162C91.6694 23.7863 91.6534 23.7601 91.6375 23.7339C91.5976 23.6666 91.5498 23.6067 91.498 23.5543C91.494 23.5506 91.49 23.5469 91.49 23.5431C91.4422 23.4982 91.3784 23.4571 91.2907 23.4047C91.2469 23.3785 91.219 23.3635 91.1911 23.3523L91.1632 23.3373C91.1433 23.3261 91.1233 23.3186 91.1034 23.3149L90.9838 23.285C90.948 23.2737 90.928 23.27 90.9041 23.2663L87.6358 22.4395C87.5401 22.417 87.4365 22.4432 87.3648 22.5068C87.293 22.5741 87.2691 22.6714 87.293 22.7612L88.2097 25.844C88.2097 25.8477 88.2217 25.8814 88.2217 25.8851L88.2616 26.0123C88.2735 26.046 88.2895 26.0759 88.3094 26.1021C88.3253 26.132 88.3413 26.1582 88.3572 26.1844C88.3971 26.2518 88.4449 26.3116 88.4967 26.3603C88.5007 26.364 88.5047 26.3677 88.5087 26.3715C88.5565 26.4126 88.6163 26.4575 88.708 26.5099C88.7518 26.5361 88.7797 26.5511 88.8076 26.566L88.8235 26.5847C88.8435 26.596 88.8634 26.6034 88.8833 26.6072L89.0029 26.6371C89.0388 26.6483 89.0587 26.6521 89.0826 26.6558L92.3509 27.4826C92.3749 27.4864 92.3988 27.4901 92.4267 27.4901ZM91.2788 24.1904L91.2349 24.2016L92.0241 26.8578L89.2062 26.147L89.0746 26.3864L89.1464 26.132L89.0029 26.0797C88.9272 26.0348 88.8953 26.0161 88.8873 26.0086L88.8833 26.0048C88.8634 25.9861 88.8435 25.9599 88.8196 25.9225C88.7996 25.8926 88.7877 25.8664 88.7757 25.8402C88.7717 25.829 88.7677 25.8215 88.7598 25.8103L88.7438 25.7617L88.7239 25.7654C88.7119 25.7542 88.704 25.743 88.692 25.7355L88.7359 25.7243L87.9467 23.068L90.9679 23.8424C91.0476 23.8873 91.0755 23.9098 91.0835 23.9172L91.0875 23.921C91.1074 23.9397 91.1273 23.9659 91.1512 24.0033C91.1712 24.0332 91.1831 24.0594 91.1951 24.0856C91.1991 24.0968 91.203 24.1043 91.211 24.1155L91.227 24.1642L91.2469 24.1604C91.2549 24.1716 91.2668 24.1829 91.2788 24.1904Z" fill="#0D0D26"/>
<path d="M88.6866 26.4535C88.7583 26.4535 88.83 26.4273 88.8858 26.375C88.9935 26.274 88.9935 26.1056 88.8858 26.0046C88.6786 25.81 88.7105 25.5033 88.7503 25.3349C88.8261 25.0057 89.0373 24.6615 89.3482 24.3659C89.6591 24.0741 90.0218 23.8683 90.3725 23.7973C90.5519 23.7599 90.8787 23.7262 91.086 23.9207C91.1976 24.0217 91.3729 24.0217 91.4806 23.9207C91.5882 23.8197 91.5882 23.6514 91.4806 23.5503C91.1856 23.2772 90.7512 23.1837 90.249 23.2885C89.7946 23.3857 89.3322 23.6364 88.9496 23.9993C88.567 24.3622 88.2999 24.7999 88.2043 25.2264C88.0967 25.6978 88.2003 26.1056 88.4952 26.3787C88.547 26.4273 88.6148 26.4535 88.6866 26.4535Z" fill="#0D0D26"/>
<path d="M29.9526 17.4567L33.6274 21.2466L31.4273 21.4635L32.4436 24.1236L28.7807 20.3936L30.933 20.184L29.9526 17.4567Z" fill="#0D0D26"/>
<path d="M32.4431 24.3846C32.4909 24.3846 32.5427 24.3734 32.5866 24.3472C32.7021 24.2836 32.7499 24.1527 32.7061 24.0367L31.8094 21.6913L33.6546 21.508C33.7582 21.4968 33.8499 21.4332 33.8857 21.3397C33.9216 21.2461 33.9017 21.1451 33.8299 21.0703L30.1556 17.281C30.0679 17.1875 29.9205 17.1688 29.8089 17.2324C29.6933 17.296 29.6415 17.4231 29.6853 17.5429L30.5541 19.9593L28.7488 20.1389C28.6452 20.1501 28.5535 20.2137 28.5177 20.3072C28.4818 20.4007 28.5017 20.5055 28.5735 20.5766L32.2359 24.3023C32.2916 24.3547 32.3674 24.3846 32.4431 24.3846ZM33.0488 21.0404L31.399 21.205C31.3153 21.2125 31.2356 21.2574 31.1917 21.3247C31.1479 21.392 31.1359 21.4781 31.1638 21.5529L31.7138 22.9968L29.3585 20.599L30.9566 20.4419C31.0403 20.4344 31.116 20.3895 31.1638 20.3222C31.2117 20.2549 31.2196 20.1726 31.1917 20.0978L30.6378 18.5566L33.0488 21.0404Z" fill="#0D0D26"/>
<path d="M64.8441 65.3795C64.8441 65.3795 65.7528 64.867 67.0721 64.1524C68.4472 63.4079 68.5149 62.2406 67.9131 61.5709C67.2395 60.8152 66.2032 61.0921 65.5336 61.6869C65.1151 60.9125 64.2422 60.3251 63.3375 60.8227C62.5284 61.2642 62.1696 62.3828 63.194 63.5201C64.1745 64.6088 64.8441 65.3795 64.8441 65.3795Z" fill="#0D0D26"/>
<path d="M64.8433 65.6414C64.8912 65.6414 64.943 65.6302 64.9868 65.604C64.9948 65.6003 65.9075 65.084 67.2069 64.3806C67.9363 63.9878 68.4026 63.4303 68.5182 62.8093C68.6138 62.3042 68.4704 61.7917 68.1196 61.4026C67.8207 61.0659 67.4301 60.8788 66.9916 60.8526C66.5333 60.8264 66.0391 60.9836 65.6006 61.2866C65.2977 60.8639 64.8912 60.5571 64.4487 60.4374C64.0262 60.3214 63.5918 60.3738 63.1892 60.5945C62.7229 60.8489 62.4001 61.2866 62.3084 61.7917C62.1968 62.4127 62.4319 63.0824 62.978 63.6885C63.9505 64.7622 64.6201 65.5367 64.6281 65.5441C64.6799 65.6077 64.7636 65.6414 64.8433 65.6414ZM66.9 61.3764C66.9199 61.3764 66.9438 61.3764 66.9637 61.3764C67.2507 61.3914 67.4978 61.5148 67.6971 61.7393C67.9403 62.0087 68.0399 62.3678 67.9721 62.7195C67.8845 63.1834 67.5138 63.6099 66.9319 63.9279C65.9872 64.4367 65.2499 64.8483 64.9071 65.0391C64.656 64.751 64.106 64.1262 63.4045 63.348C62.97 62.8654 62.7747 62.3454 62.8624 61.8815C62.9262 61.5298 63.1494 61.2268 63.4762 61.0472C63.7472 60.8975 64.0223 60.8639 64.2973 60.9387C64.6799 61.0434 65.0466 61.3689 65.2818 61.8029C65.3216 61.8777 65.3973 61.9264 65.481 61.9413C65.5687 61.9563 65.6564 61.9301 65.7202 61.874C66.0829 61.5597 66.5173 61.3764 66.9 61.3764Z" fill="#0D0D26"/>
<path d="M87.1559 11.0533C87.1718 11.0533 87.1878 11.0533 87.2037 11.0495C88.3396 10.8662 89.3321 10.2788 89.9977 9.39592C90.6633 8.51299 90.9224 7.43925 90.7271 6.36926C90.6992 6.2271 90.5557 6.12983 90.4043 6.15601C90.2528 6.1822 90.1492 6.31689 90.1771 6.45905C90.3485 7.38688 90.1213 8.32218 89.5394 9.09288C88.9574 9.86357 88.0965 10.3724 87.1041 10.5332C86.9526 10.5594 86.849 10.6941 86.8769 10.8363C86.9048 10.9635 87.0243 11.0533 87.1559 11.0533Z" fill="#0D0D26"/>
<path d="M17.8835 5.19914C17.9991 5.19914 18.1107 5.12806 18.1466 5.01956C18.1944 4.88114 18.1147 4.73523 17.9712 4.6866C17.3933 4.50702 16.9269 4.12541 16.6559 3.6166C16.3849 3.1078 16.341 2.52791 16.5324 1.98543C16.7237 1.44295 17.1302 1.00523 17.6723 0.750823C18.2143 0.496419 18.8321 0.455266 19.4101 0.634845C19.5575 0.67974 19.713 0.604915 19.7608 0.470231C19.8086 0.331805 19.7289 0.185897 19.5854 0.137261C18.868 -0.0872122 18.0987 -0.034835 17.4212 0.283169C16.7436 0.601174 16.2414 1.14739 16.0022 1.82081C15.7631 2.49424 15.8189 3.21629 16.1577 3.8523C16.4965 4.48831 17.0784 4.95971 17.7958 5.18418C17.8237 5.1954 17.8556 5.19914 17.8835 5.19914Z" fill="#0D0D26"/>
<path d="M58.0203 5.55072C58.092 5.55072 58.1598 5.52453 58.2156 5.4759C58.3272 5.37488 58.3272 5.21027 58.2196 5.10551L53.9787 1.00513C53.8711 0.900376 53.6957 0.900376 53.5841 1.00139C53.4725 1.1024 53.4725 1.26702 53.5801 1.37177L57.821 5.47215C57.8728 5.52079 57.9485 5.55072 58.0203 5.55072Z" fill="#0D0D26"/>
<path d="M82.0637 71.1629C82.1115 71.0618 82.1434 70.8411 82.1434 70.8411L82.5579 65.551L78.5682 69.3072L78.5762 69.311C78.4885 69.3858 78.4088 69.4718 78.3609 69.5728C78.062 70.1864 78.6479 71.0431 79.6722 71.4809C80.6926 71.9186 81.7648 71.7764 82.0637 71.1629Z" fill="#0D0D26"/>
<path d="M80.8486 72C81.526 72 82.088 71.7457 82.3191 71.2706C82.3829 71.1434 82.4147 70.9339 82.4227 70.8741L82.8412 65.5735C82.8491 65.465 82.7854 65.3603 82.6778 65.3154C82.5702 65.2705 82.4466 65.2929 82.3629 65.3678L78.3738 69.1234C78.3578 69.1384 78.3459 69.1533 78.3339 69.172C78.2343 69.2656 78.1625 69.3628 78.1107 69.4638C77.7401 70.2194 78.3777 71.2107 79.5574 71.7195C79.9957 71.9065 80.4421 72 80.8486 72ZM81.809 71.0536C81.5779 71.5287 80.6533 71.6147 79.7845 71.2407C78.9197 70.8703 78.3817 70.1559 78.6129 69.6808C78.6408 69.6247 78.6886 69.5686 78.7643 69.505C78.7842 69.4863 78.8042 69.4638 78.8201 69.4414L82.2274 66.2356L81.8648 70.8217C81.8528 70.8928 81.8289 71.0162 81.809 71.0536Z" fill="#0D0D26"/>
<path d="M80.7529 69.2541C79.7285 68.8164 78.6604 68.9586 78.3574 69.5721C78.0585 70.1857 78.6444 71.0387 79.6687 71.4802C80.6931 71.9179 81.7613 71.7757 82.0642 71.1622C82.3631 70.5486 81.7772 69.6919 80.7529 69.2541Z" fill="#0D0D26"/>
<path d="M80.8445 71.9965C80.9561 71.9965 81.0677 71.989 81.1753 71.9741C81.7253 71.903 82.1279 71.6523 82.3152 71.2707C82.5026 70.8891 82.4388 70.4402 82.1359 69.9987C81.8609 69.5984 81.4105 69.2467 80.8684 69.0148C79.6886 68.5097 78.473 68.7042 78.1063 69.4637C77.9189 69.8453 77.9827 70.2943 78.2856 70.7357C78.5606 71.136 79.011 71.4877 79.5531 71.7197C79.9796 71.8992 80.426 71.9965 80.8445 71.9965ZM79.573 69.2617C79.8999 69.2617 80.2745 69.3365 80.6372 69.4936C81.0836 69.6844 81.4503 69.965 81.6695 70.2868C81.8648 70.5711 81.9127 70.8442 81.809 71.0575C81.7054 71.2707 81.4543 71.4129 81.0996 71.4615C80.701 71.5139 80.2347 71.4391 79.7883 71.2445C79.3419 71.0537 78.9752 70.7731 78.756 70.4514C78.5606 70.1708 78.5128 69.8977 78.6164 69.6844C78.748 69.4076 79.1187 69.2617 79.573 69.2617Z" fill="#0D0D26"/>
<path d="M3.40435 70.1003C3.49602 70.1003 3.58769 70.0554 3.63951 69.9769L6.93573 65.0946C7.01943 64.9711 6.97957 64.8102 6.84804 64.7317C6.71651 64.6531 6.54512 64.6905 6.46142 64.814L3.1652 69.6963C3.0815 69.8197 3.12136 69.9806 3.25289 70.0592C3.30072 70.0891 3.35254 70.1003 3.40435 70.1003Z" fill="#0D0D26"/>
<path d="M17.888 68.9857C18.0036 68.9857 18.1152 68.9146 18.1511 68.8061C18.1989 68.6676 18.1192 68.5217 17.9757 68.4768C16.6923 68.0765 15.9948 66.7671 16.4213 65.5624C16.6285 64.9788 17.0669 64.5037 17.6529 64.2306C18.2388 63.9537 18.9044 63.9088 19.5262 64.1034C19.6736 64.1482 19.8291 64.0734 19.8769 63.9387C19.9247 63.8003 19.845 63.6544 19.7015 63.6095C18.9403 63.3701 18.1232 63.4262 17.4018 63.7629C16.6803 64.0996 16.1462 64.6832 15.8912 65.3978C15.6361 66.1161 15.6958 66.8793 16.0546 67.5565C16.4133 68.2337 17.0351 68.735 17.7963 68.9744C17.8282 68.9819 17.8601 68.9857 17.888 68.9857Z" fill="#0D0D26"/>
<path d="M58.0284 69.1802C58.1002 69.1802 58.1679 69.154 58.2237 69.1054C58.3353 69.0044 58.3353 68.8398 58.2277 68.735L53.9709 64.6197C53.8633 64.5149 53.688 64.5112 53.5764 64.6159C53.4648 64.7169 53.4648 64.8815 53.5724 64.9863L57.8292 69.1016C57.885 69.154 57.9567 69.1802 58.0284 69.1802Z" fill="#0D0D26"/>
<path d="M41.9991 11.427C42.0788 11.427 42.1545 11.397 42.2103 11.3334L43.1071 10.342C43.2068 10.2335 43.1908 10.0652 43.0752 9.97164C42.9557 9.87811 42.7803 9.89307 42.6806 10.0016L41.7838 10.993C41.6842 11.1015 41.7001 11.2698 41.8157 11.3634C41.8715 11.4045 41.9353 11.427 41.9991 11.427Z" fill="#0D0D26"/>
<path d="M44.9688 8.14635C45.0485 8.14635 45.1242 8.11642 45.18 8.05282L46.0768 7.0614C46.1764 6.9529 46.1605 6.78455 46.0449 6.69102C45.9293 6.59748 45.75 6.61245 45.6503 6.72094L44.7535 7.71237C44.6539 7.82087 44.6698 7.98922 44.7854 8.08275C44.8412 8.12765 44.905 8.14635 44.9688 8.14635Z" fill="#0D0D26"/>
<path d="M44.9405 11.9283C44.9724 11.9283 45.0042 11.9246 45.0361 11.9134C45.1796 11.8647 45.2553 11.7151 45.2035 11.5804L44.7372 10.357C44.6854 10.2223 44.5259 10.1512 44.3825 10.1999C44.239 10.2485 44.1632 10.3982 44.2151 10.5328L44.6814 11.7562C44.7173 11.8647 44.8249 11.9283 44.9405 11.9283Z" fill="#0D0D26"/>
<path d="M43.3975 7.8771C43.4294 7.8771 43.4613 7.87336 43.4932 7.86213C43.6366 7.8135 43.7124 7.66385 43.6606 7.52916L43.1942 6.30578C43.1424 6.1711 42.983 6.10002 42.8395 6.14865C42.696 6.19729 42.6203 6.34694 42.6721 6.48162L43.1384 7.705C43.1783 7.80976 43.2859 7.8771 43.3975 7.8771Z" fill="#0D0D26"/>
<path d="M46.8724 9.7959C47.0039 9.7959 47.1235 9.70611 47.1474 9.58265C47.1753 9.44049 47.0757 9.30206 46.9242 9.27961L45.5611 9.04766C45.4096 9.02147 45.2621 9.115 45.2382 9.25717C45.2103 9.39933 45.31 9.53776 45.4614 9.56021L46.8246 9.79216C46.8405 9.79216 46.8564 9.7959 46.8724 9.7959Z" fill="#0D0D26"/>
<path d="M42.359 9.02162C42.4905 9.02162 42.6101 8.93183 42.634 8.80837C42.6619 8.66621 42.5623 8.52778 42.4108 8.50533L41.0477 8.27338C40.8962 8.24719 40.7487 8.34072 40.7248 8.48289C40.6969 8.62505 40.7966 8.76348 40.948 8.78593L42.3112 9.01788C42.3271 9.02162 42.343 9.02162 42.359 9.02162Z" fill="#0D0D26"/>
<path d="M22.4258 45.2581C22.5255 45.2581 22.6211 45.2095 22.6729 45.1234L24.6339 41.7526C24.7097 41.6254 24.6578 41.4682 24.5223 41.3971C24.3868 41.3261 24.2194 41.3747 24.1437 41.5019L22.3142 44.6408L18.9702 42.9236C18.8347 42.8525 18.6673 42.9011 18.5915 43.0283C18.5158 43.1555 18.5676 43.3127 18.7031 43.3837L22.2943 45.2244C22.3342 45.2469 22.382 45.2581 22.4258 45.2581Z" fill="#0D0D26"/>
<path d="M32.8187 63.6177C32.8227 63.6177 32.8227 63.6177 32.8187 63.6177C32.9742 63.6177 33.0977 63.498 33.0977 63.3521L33.0659 60.101C33.0659 60.0112 33.018 59.9289 32.9383 59.884C32.8586 59.8354 32.759 59.8316 32.6713 59.8653L30.1682 60.924L30.1403 58.0732C30.1403 57.9311 30.0128 57.8151 29.8613 57.8151C29.8613 57.8151 29.8613 57.8151 29.8573 57.8151C29.7019 57.8151 29.5783 57.9348 29.5823 58.0807L29.6142 61.3356C29.6142 61.4254 29.662 61.5077 29.7417 61.5526C29.8214 61.6012 29.9211 61.6087 30.0088 61.5713L32.5118 60.5125L32.5397 63.3633C32.5437 63.5018 32.6673 63.6177 32.8187 63.6177Z" fill="#0D0D26"/>
<path d="M19.3921 26.9019C19.4558 26.9019 19.5156 26.8832 19.5674 26.8458L21.7274 25.2224C21.847 25.1326 21.8669 24.968 21.7712 24.8558C21.6756 24.7435 21.5003 24.7248 21.3807 24.8146L19.4399 26.2772L17.8937 24.463C17.8458 24.4069 17.7781 24.3732 17.7063 24.3657C17.6346 24.3583 17.5589 24.377 17.5031 24.4218L15.5623 25.8845L14.0161 24.0702C13.9204 23.958 13.7451 23.9393 13.6255 24.0291C13.5059 24.1189 13.486 24.2834 13.5817 24.3957L15.3033 26.4156C15.3511 26.468 15.4188 26.5054 15.4906 26.5129C15.5623 26.5204 15.638 26.5017 15.6938 26.4568L17.6346 24.9942L19.1809 26.8084C19.2287 26.8645 19.2964 26.8982 19.3682 26.9057C19.3722 26.9019 19.3841 26.9019 19.3921 26.9019Z" fill="#0D0D26"/>
<path d="M17.0286 55.7353C17.1322 55.7353 17.2278 55.6829 17.2796 55.5894L18.4353 53.4348L20.7348 54.5196C20.8743 54.5832 21.0416 54.5308 21.1094 54.4036L22.2651 52.2452L24.5646 53.33C24.704 53.3936 24.8714 53.345 24.9392 53.2141L26.0949 51.0594L28.3943 52.1442C28.5338 52.2078 28.7012 52.1592 28.7689 52.0282C28.8367 51.9011 28.7849 51.7402 28.6454 51.6766L26.0989 50.4721C25.9634 50.4048 25.792 50.4571 25.7243 50.5881L24.5686 52.7465L22.2691 51.6617C22.1336 51.5943 21.9622 51.6467 21.8945 51.7776L20.7388 53.9323L18.4393 52.8475C18.2998 52.7801 18.1364 52.8325 18.0647 52.9634L16.7815 55.3537C16.7137 55.4809 16.7655 55.6418 16.905 55.7054C16.9409 55.7278 16.9847 55.7353 17.0286 55.7353Z" fill="#0D0D26"/>
<path d="M78.9408 59.6933C79.156 59.6933 79.3712 59.6484 79.5745 59.5586C79.9372 59.3978 80.2082 59.1172 80.3477 58.7655C80.3995 58.6308 80.3238 58.4774 80.1803 58.4288C80.0368 58.3801 79.8774 58.4512 79.8216 58.5859C79.7379 58.8066 79.5665 58.9825 79.3393 59.0835C79.1121 59.1845 78.8571 59.1957 78.6219 59.1134C78.1356 58.9488 77.8845 58.4437 78.0599 57.9873C78.1117 57.8526 78.036 57.6992 77.8925 57.6506C77.749 57.602 77.5896 57.673 77.5338 57.8077C77.2548 58.5373 77.6573 59.3416 78.4306 59.6035C78.598 59.6634 78.7694 59.6933 78.9408 59.6933Z" fill="#0D0D26"/>
<path d="M77.7967 58.1597C77.9122 58.1597 78.0199 58.0924 78.0597 57.9876C78.3188 57.3142 78.8927 57.0187 79.3312 56.884C79.949 56.6969 80.6744 56.7269 81.3719 56.9626C81.5154 57.0112 81.6748 56.9401 81.7306 56.8054C81.7824 56.6707 81.7067 56.5211 81.5632 56.4687C80.7501 56.1919 79.8971 56.1619 79.1598 56.3827C78.3746 56.6184 77.7967 57.1234 77.5336 57.8043C77.4818 57.939 77.5575 58.0924 77.701 58.141C77.7329 58.156 77.7648 58.1597 77.7967 58.1597Z" fill="#0D0D26"/>
<path d="M80.0832 58.9379C80.1988 58.9379 80.3064 58.8705 80.3463 58.7658C80.6093 58.0849 80.5097 57.3478 80.0673 56.6969C79.6527 56.087 78.9752 55.5969 78.1621 55.3238C78.0186 55.2752 77.8591 55.3463 77.8033 55.481C77.7515 55.6156 77.8273 55.769 77.9707 55.8177C78.6683 56.0534 79.2462 56.4686 79.5969 56.9812C79.844 57.3441 80.0832 57.9165 79.8241 58.5899C79.7723 58.7246 79.848 58.878 79.9915 58.9266C80.0194 58.9304 80.0513 58.9379 80.0832 58.9379Z" fill="#0D0D26"/>
<path d="M78.0684 55.8289C78.184 55.8289 78.2916 55.7616 78.3314 55.6568C78.3833 55.5222 78.3075 55.3725 78.164 55.3201C77.7575 55.1817 77.331 55.1181 76.9045 55.1256C76.7491 55.1293 76.6295 55.2491 76.6295 55.3912C76.6335 55.5371 76.7571 55.6494 76.9125 55.6494C77.2712 55.6419 77.6339 55.698 77.9727 55.814C78.0046 55.8252 78.0365 55.8289 78.0684 55.8289Z" fill="#0D0D26"/>
<path d="M82.3391 60.8454C82.5543 60.8454 82.7696 60.8005 82.9728 60.7107C83.3355 60.5498 83.6066 60.2692 83.7461 59.9176C83.7979 59.7829 83.7222 59.6295 83.5787 59.5809C83.4352 59.5322 83.2758 59.6033 83.22 59.738C83.1362 59.9587 82.9649 60.1346 82.7377 60.2356C82.5105 60.3366 82.2554 60.3478 82.0202 60.2655C81.534 60.1009 81.2829 59.5958 81.4582 59.1394C81.5101 59.0047 81.4343 58.8551 81.2908 58.8027C81.1474 58.7541 80.9839 58.8251 80.9321 58.9598C80.6531 59.6894 81.0557 60.4937 81.8289 60.7556C81.9963 60.8155 82.1677 60.8454 82.3391 60.8454Z" fill="#0D0D26"/>
<path d="M81.1951 59.3155C81.3107 59.3155 81.4183 59.2482 81.4581 59.1434C81.7172 58.47 82.2911 58.1744 82.7296 58.0398C83.3474 57.8527 84.0728 57.8826 84.7703 58.1183C84.9138 58.167 85.0732 58.0959 85.129 57.9612C85.1808 57.8265 85.1051 57.6769 84.9616 57.6245C84.1485 57.3476 83.2956 57.3177 82.5582 57.5384C81.773 57.7741 81.1951 58.2792 80.932 58.9601C80.8802 59.0948 80.9559 59.2482 81.0994 59.2968C81.1313 59.308 81.1632 59.3155 81.1951 59.3155Z" fill="#0D0D26"/>
<path d="M83.4833 60.0899C83.5989 60.0899 83.7065 60.0226 83.7464 59.9178C84.0094 59.2369 83.9098 58.4999 83.4674 57.8489C83.0529 57.2391 82.3753 56.749 81.5622 56.4759C81.4187 56.4273 81.2593 56.4984 81.2035 56.633C81.1517 56.7677 81.2274 56.9211 81.3709 56.9698C82.0684 57.2055 82.6463 57.6207 82.9971 58.1333C83.2442 58.4962 83.4833 59.0686 83.2243 59.742C83.1724 59.8767 83.2482 60.0301 83.3917 60.0787C83.4196 60.0862 83.4514 60.0899 83.4833 60.0899Z" fill="#0D0D26"/>
<path d="M85.8773 58.6945C85.957 58.6945 86.0327 58.6646 86.0885 58.6047C86.1882 58.4962 86.1762 58.3316 86.0606 58.2343C85.7338 57.9687 85.3631 57.7667 84.9566 57.6282C84.8131 57.5796 84.6497 57.6507 84.5979 57.7854C84.546 57.9201 84.6218 58.0697 84.7653 58.1221C85.1041 58.2381 85.4149 58.4102 85.6939 58.6309C85.7497 58.672 85.8135 58.6945 85.8773 58.6945Z" fill="#0D0D26"/>
<path d="M39.7488 25.5479C39.8046 25.5479 39.8564 25.5404 39.9122 25.5255C40.1992 25.4394 40.3586 25.1514 40.2669 24.882C40.1753 24.6126 39.8723 24.463 39.5854 24.549C39.2984 24.6351 39.139 24.9231 39.2306 25.1925C39.3024 25.4095 39.5176 25.5479 39.7488 25.5479ZM39.7448 25.0242C39.7488 25.0242 39.7568 25.0279 39.7568 25.0316L39.8245 25.2748L39.7448 25.0242Z" fill="#0D0D26"/>
<path d="M40.6838 61.9038C40.7396 61.9038 40.7954 61.8963 40.8512 61.8776C41.1422 61.7915 41.3056 61.496 41.2139 61.2229C41.1701 61.0882 41.0705 60.9797 40.9389 60.9161C40.8074 60.8525 40.6559 60.8413 40.5164 60.8824C40.3769 60.9236 40.2613 61.0171 40.1896 61.1406C40.1218 61.264 40.1099 61.4062 40.1537 61.5371C40.1976 61.6718 40.2972 61.7803 40.4288 61.8439C40.5085 61.8851 40.5962 61.9038 40.6838 61.9038ZM40.6838 61.38L40.7675 61.6307L40.6838 61.38Z" fill="#0D0D26"/>
<path d="M69.1414 20.8758C69.1972 20.8758 69.253 20.8684 69.3048 20.8534C69.4444 20.8122 69.556 20.7224 69.6237 20.6027C69.6915 20.483 69.7034 20.3446 69.6596 20.2136C69.6157 20.0827 69.5201 19.9779 69.3925 19.9143C69.265 19.8507 69.1175 19.8395 68.978 19.8807C68.8385 19.9218 68.7269 20.0116 68.6592 20.1313C68.5914 20.2511 68.5794 20.3895 68.6233 20.5204C68.6671 20.6514 68.7628 20.7561 68.8903 20.8197C68.97 20.8571 69.0577 20.8758 69.1414 20.8758ZM69.1414 20.3521C69.1494 20.3521 69.1534 20.3558 69.1574 20.3633L69.1374 20.3558C69.1414 20.3521 69.1414 20.3521 69.1414 20.3521Z" fill="#0D0D26"/>
<path d="M2.57796 28.1328H7.31304C7.46848 28.1328 7.59204 28.0168 7.59204 27.8709C7.59204 27.725 7.46848 27.6091 7.31304 27.6091H2.57796C2.42252 27.6091 2.29896 27.725 2.29896 27.8709C2.29896 28.0168 2.42651 28.1328 2.57796 28.1328Z" fill="#0D0D26"/>
<path d="M4.94463 30.3553C5.10007 30.3553 5.22363 30.2393 5.22363 30.0934V25.6488C5.22363 25.5029 5.10007 25.3869 4.94463 25.3869C4.78919 25.3869 4.66563 25.5029 4.66563 25.6488V30.0934C4.66563 30.2393 4.79317 30.3553 4.94463 30.3553Z" fill="#0D0D26"/>
<path d="M45.4823 58.1743H50.1138C50.2692 58.1743 50.3928 58.0583 50.3928 57.9124C50.3928 57.7665 50.2692 57.6505 50.1138 57.6505H45.4823C45.3269 57.6505 45.2033 57.7665 45.2033 57.9124C45.2033 58.0546 45.3269 58.1743 45.4823 58.1743Z" fill="#0D0D26"/>
<path d="M47.7993 60.3483C47.9547 60.3483 48.0783 60.2324 48.0783 60.0865V55.7391C48.0783 55.5932 47.9547 55.4773 47.7993 55.4773C47.6438 55.4773 47.5203 55.5932 47.5203 55.7391V60.0865C47.5203 60.2324 47.6478 60.3483 47.7993 60.3483Z" fill="#0D0D26"/>
<path d="M46.6235 20.0495C46.6952 20.0495 46.767 20.0234 46.8228 19.971C46.9304 19.87 46.9304 19.7016 46.8228 19.6006L43.5106 16.4916C43.403 16.3906 43.2236 16.3906 43.116 16.4916C43.0084 16.5927 43.0084 16.761 43.116 16.862L46.4282 19.971C46.48 20.0234 46.5517 20.0495 46.6235 20.0495Z" fill="#0D0D26"/>
<path d="M43.3113 20.0495C43.3831 20.0495 43.4548 20.0234 43.5106 19.971L46.8228 16.862C46.9304 16.761 46.9304 16.5927 46.8228 16.4916C46.7152 16.3906 46.5358 16.3906 46.4282 16.4916L43.116 19.6006C43.0084 19.7016 43.0084 19.87 43.116 19.971C43.1678 20.0234 43.2396 20.0495 43.3113 20.0495Z" fill="#0D0D26"/>
<path d="M70.9052 13.1257C70.9809 13.1257 71.0487 13.0995 71.1045 13.0471L73.767 10.548C73.8746 10.447 73.8746 10.2786 73.767 10.1776L71.1045 7.67844C71.0009 7.58117 70.8135 7.58117 70.7099 7.67844L68.0474 10.1776C67.9398 10.2786 67.9398 10.447 68.0474 10.548L70.7099 13.0471C70.7617 13.0957 70.8335 13.1257 70.9052 13.1257ZM73.1771 10.3609L70.9092 12.4897L68.6413 10.3609L70.9052 8.23215L73.1771 10.3609Z" fill="#0D0D26"/>
</g>
</g>
</svg>
