<svg width="24" height="24" viewBox="0 0 24 24" fill="none" xmlns="http://www.w3.org/2000/svg">
<path d="M12 15C13.6569 15 15 13.6569 15 12C15 10.3431 13.6569 9 12 9C10.3431 9 9 10.3431 9 12C9 13.6569 10.3431 15 12 15Z" fill="#E4E5E7"/>
<path d="M23.0082 11.1844C21.7678 9.26625 20.1586 7.63688 18.3549 6.47203C16.3594 5.18203 14.1563 4.5 11.9841 4.5C9.99096 4.5 8.03112 5.06953 6.15893 6.19266C4.24971 7.33781 2.52002 9.01078 1.01768 11.1647C0.848075 11.4081 0.754669 11.6965 0.749327 11.9931C0.743985 12.2897 0.826949 12.5813 0.987676 12.8306C2.22565 14.768 3.81893 16.3997 5.59455 17.5486C7.59377 18.8437 9.74534 19.5 11.9841 19.5C14.1736 19.5 16.3814 18.8236 18.3685 17.5444C20.1713 16.3833 21.7772 14.7478 23.0128 12.8137C23.168 12.5702 23.2501 12.2872 23.2492 11.9984C23.2484 11.7096 23.1647 11.4271 23.0082 11.1844V11.1844ZM12 16.5C11.11 16.5 10.24 16.2361 9.49996 15.7416C8.75994 15.2471 8.18316 14.5443 7.84257 13.7221C7.50197 12.8998 7.41286 11.995 7.58649 11.1221C7.76012 10.2492 8.18871 9.44736 8.81804 8.81802C9.44738 8.18868 10.2492 7.7601 11.1221 7.58647C11.995 7.41283 12.8998 7.50195 13.7221 7.84254C14.5444 8.18314 15.2472 8.75991 15.7416 9.49993C16.2361 10.24 16.5 11.11 16.5 12C16.4987 13.1931 16.0241 14.3369 15.1805 15.1805C14.3369 16.0241 13.1931 16.4986 12 16.5V16.5Z" fill="#E4E5E7"/>
</svg>
