<svg width="40" height="40" viewBox="0 0 40 40" fill="none" xmlns="http://www.w3.org/2000/svg">
<path d="M20 1.32812C30.3125 1.32812 38.6562 9.67188 38.6562 19.9688C38.6562 30.2656 30.3125 38.625 20 38.625C9.6875 38.625 1.34375 30.2813 1.34375 19.9844C1.34375 9.6875 9.6875 1.32812 20 1.32812Z" fill="#E74D89"/>
<path d="M20 39.9531C8.96875 39.9531 0 31 0 19.9844C0 8.95313 8.96875 0 20 0C31.0312 0 40 8.95313 40 19.9688C40 30.9844 31.0312 39.9531 20 39.9531ZM36.8594 22.7031C36.2812 22.5156 31.5781 21.125 26.2188 21.9688C28.4531 28.0938 29.3594 33.0937 29.5312 34.125C33.375 31.5469 36.1094 27.4531 36.8594 22.7031ZM26.6719 35.7031C26.4219 34.2031 25.4219 28.9844 23.0312 22.7656C23 22.7812 22.9531 22.7969 22.9219 22.7969C13.2812 26.1562 9.82813 32.8281 9.51563 33.4531C12.4063 35.7031 16.0469 37.0469 20 37.0469C22.3594 37.0625 24.625 36.5781 26.6719 35.7031V35.7031ZM7.3125 31.4062C7.70312 30.75 12.3906 23 21.2031 20.1406C21.4219 20.0625 21.6563 20 21.875 19.9375C21.4531 18.9687 20.9844 18 20.4844 17.0469C11.9531 19.5937 3.67188 19.4844 2.92188 19.4687C2.92188 19.6406 2.90625 19.8125 2.90625 19.9844C2.92188 24.375 4.57812 28.375 7.3125 31.4062V31.4062ZM3.28125 16.5C4.04688 16.5156 11.0781 16.5469 19.0781 14.4219C16.25 9.39063 13.1875 5.17188 12.75 4.5625C7.95312 6.8125 4.39062 11.2187 3.28125 16.5ZM16 3.40625C16.4688 4.03125 19.5781 8.25 22.375 13.3906C28.4531 11.1094 31.0156 7.67187 31.3281 7.23437C28.3125 4.5625 24.3437 2.9375 20 2.9375C18.625 2.9375 17.2813 3.10937 16 3.40625V3.40625ZM33.2188 9.20313C32.8594 9.6875 30 13.3594 23.6875 15.9375C24.0781 16.75 24.4687 17.5781 24.8281 18.4063C24.9531 18.7031 25.0781 19 25.2031 19.2813C30.8906 18.5625 36.5312 19.7188 37.0937 19.8281C37.0469 15.8125 35.6094 12.1094 33.2188 9.20313V9.20313Z" fill="#B2215A"/>
</svg>
