<svg width="26" height="26" viewBox="0 0 26 26" fill="none" xmlns="http://www.w3.org/2000/svg">
<path d="M21.125 15.8435C21.125 15.1971 20.8682 14.5771 20.4111 14.12C19.954 13.6629 19.334 13.406 18.6875 13.406H7.3125C6.66603 13.406 6.04605 13.6629 5.58893 14.12C5.13181 14.5771 4.875 15.1971 4.875 15.8435V16.656C4.875 19.8589 7.8975 23.156 13 23.156C18.1025 23.156 21.125 19.8589 21.125 16.656V15.8435ZM6.5 15.8435C6.5 15.6281 6.5856 15.4214 6.73798 15.269C6.89035 15.1166 7.09701 15.031 7.3125 15.031H18.6875C18.903 15.031 19.1097 15.1166 19.262 15.269C19.4144 15.4214 19.5 15.6281 19.5 15.8435V16.656C19.5 18.9928 17.173 21.531 13 21.531C8.827 21.531 6.5 18.9928 6.5 16.656V15.8435ZM17.4688 7.3123C17.4688 6.34891 17.1575 5.4113 16.5813 4.63922C16.0051 3.86715 15.1948 3.30196 14.2713 3.0279C13.3477 2.75384 12.3602 2.78558 11.4562 3.11841C10.5521 3.45123 9.7798 4.0673 9.25438 4.8748H6.5C6.28451 4.8748 6.07785 4.9604 5.92548 5.11277C5.7731 5.26515 5.6875 5.47181 5.6875 5.6873V8.9373C5.6875 8.9633 5.6875 8.98767 5.69075 9.01205H5.6875V10.5623C5.6875 11.2088 5.94431 11.8287 6.40143 12.2859C6.85855 12.743 7.47853 12.9998 8.125 12.9998H8.75388C8.92134 12.9997 9.08608 12.9574 9.23286 12.8767C9.37964 12.7961 9.50372 12.6798 9.59363 12.5385C9.68354 12.3972 9.73638 12.2355 9.74726 12.0684C9.75814 11.9013 9.72672 11.7341 9.65589 11.5824C9.58506 11.4306 9.47712 11.2992 9.34204 11.2002C9.20696 11.1012 9.0491 11.0379 8.88306 11.016C8.71702 10.9942 8.54816 11.0146 8.39208 11.0753C8.23601 11.136 8.09776 11.2351 7.99012 11.3634C7.8007 11.3315 7.6287 11.2336 7.50465 11.0869C7.3806 10.9402 7.31252 10.7544 7.3125 10.5623V9.7498H7.71875C8.20137 9.7498 8.6515 9.60842 9.03013 9.3663C9.49006 10.2562 10.2357 10.9658 11.1473 11.3811C12.0588 11.7964 13.0835 11.8934 14.0569 11.6565C15.0302 11.4196 15.8957 10.8625 16.5144 10.0747C17.1332 9.28689 17.4692 8.31404 17.4688 7.3123V7.3123ZM10.1562 7.3123C10.1562 6.55809 10.4559 5.83477 10.9892 5.30146C11.5225 4.76816 12.2458 4.46855 13 4.46855C13.7542 4.46855 14.4775 4.76816 15.0108 5.30146C15.5441 5.83477 15.8438 6.55809 15.8438 7.3123C15.8438 8.06651 15.5441 8.78982 15.0108 9.32313C14.4775 9.85644 13.7542 10.156 13 10.156C12.2458 10.156 11.5225 9.85644 10.9892 9.32313C10.4559 8.78982 10.1562 8.06651 10.1562 7.3123ZM8.53125 7.3123C8.53125 7.52778 8.44565 7.73445 8.29327 7.88682C8.1409 8.03919 7.93424 8.1248 7.71875 8.1248H7.3125V6.4998H8.53125V7.3123Z" fill="#95969D"/>
</svg>
