<svg width="375" height="70" viewBox="0 0 375 70" fill="none" xmlns="http://www.w3.org/2000/svg">
<rect width="375" height="70" fill="white"/>
<path d="M65.1348 34.7733V31.7156C65.1348 30.9351 65.7722 30.3023 66.5584 30.3023H69.4326C69.8102 30.3023 70.1723 30.4512 70.4393 30.7163C70.7063 30.9813 70.8563 31.3408 70.8563 31.7156V34.7733C70.8539 35.0978 70.9821 35.4099 71.2124 35.6402C71.4427 35.8705 71.756 36 72.0829 36H74.0438C74.9596 36.0023 75.8388 35.6428 76.4872 35.0008C77.1356 34.3588 77.5 33.487 77.5 32.5778V23.8669C77.5 23.1325 77.1721 22.4358 76.6046 21.9647L69.934 16.6759C68.7737 15.7486 67.1111 15.7785 65.9854 16.747L59.467 21.9647C58.8727 22.422 58.5176 23.1206 58.5 23.8669V32.5689C58.5 34.4639 60.0474 36 61.9562 36H63.8723C64.5512 36 65.103 35.4562 65.1079 34.7822L65.1348 34.7733Z" fill="#CACBCE"/>
<path d="M154.351 16.25C155.804 16.25 157.201 16.8242 158.229 17.8544C159.258 18.8825 159.834 20.2692 159.834 21.7208V30.2792C159.834 33.3017 157.374 35.75 154.351 35.75H143.649C140.625 35.75 138.167 33.3017 138.167 30.2792V21.7208C138.167 18.6983 140.614 16.25 143.649 16.25H154.351ZM155.576 21.8833C155.349 21.8714 155.132 21.9483 154.968 22.1L150.084 26C149.455 26.5211 148.555 26.5211 147.917 26L143.042 22.1C142.705 21.8508 142.239 21.8833 141.959 22.1758C141.666 22.4683 141.634 22.9342 141.882 23.2592L142.024 23.4L146.953 27.2458C147.559 27.7225 148.295 27.9825 149.065 27.9825C149.833 27.9825 150.582 27.7225 151.188 27.2458L156.074 23.335L156.161 23.2483C156.42 22.9342 156.42 22.4792 156.149 22.165C155.999 22.0036 155.792 21.905 155.576 21.8833Z" fill="#CACBCE"/>
<path d="M234.25 35.9981C234.067 35.9987 233.889 35.9351 233.752 35.8196L229.439 32.1674C228.32 31.2201 226.68 31.2201 225.561 32.1674L221.248 35.8196C221.14 35.9112 221.006 35.971 220.863 35.9918C220.72 36.0126 220.574 35.9936 220.442 35.9369C220.31 35.8803 220.198 35.7885 220.12 35.6726C220.041 35.5568 220 35.4218 220 35.2839V18.8569C220.001 18.0994 220.317 17.3733 220.88 16.8377C221.442 16.3021 222.205 16.0008 223 16H232C232.795 16.0008 233.558 16.3021 234.12 16.8377C234.683 17.3733 234.999 18.0994 235 18.8569V35.2839C235 35.4733 234.921 35.655 234.78 35.789C234.64 35.9229 234.449 35.9981 234.25 35.9981Z" fill="#CACBCE"/>
<circle cx="305" cy="44" r="2" fill="#0E9D57"/>
<path d="M300.58 27.5921C302.107 27.5921 303.332 28.8282 303.332 30.3665V34.0596C303.332 35.5871 302.107 36.833 300.58 36.833H296.918C295.402 36.833 294.167 35.5871 294.167 34.0596V30.3665C294.167 28.8282 295.402 27.5921 296.918 27.5921H300.58ZM313.082 27.5921C314.598 27.5921 315.833 28.8282 315.833 30.3665V34.0596C315.833 35.5871 314.598 36.833 313.082 36.833H309.42C307.892 36.833 306.668 35.5871 306.668 34.0596V30.3665C306.668 28.8282 307.892 27.5921 309.42 27.5921H313.082ZM300.58 15.1666C302.107 15.1666 303.332 16.4125 303.332 17.941V21.6341C303.332 23.1725 302.107 24.4075 300.58 24.4075H296.918C295.402 24.4075 294.167 23.1725 294.167 21.6341V17.941C294.167 16.4125 295.402 15.1666 296.918 15.1666H300.58ZM313.082 15.1666C314.598 15.1666 315.833 16.4125 315.833 17.941V21.6341C315.833 23.1725 314.598 24.4075 313.082 24.4075H309.42C307.892 24.4075 306.668 23.1725 306.668 21.6341V17.941C306.668 16.4125 307.892 15.1666 309.42 15.1666H313.082Z" fill="#0E9D57"/>
<rect x="121" y="57" width="134" height="5" rx="2.5" fill="black"/>
</svg>
