<svg width="161" height="104" viewBox="0 0 161 104" fill="none" xmlns="http://www.w3.org/2000/svg">
<g opacity="0.06">
<path d="M51.007 55.5212L53.5843 51.6957L54.5257 54.8908L57.6082 54.0772L58.1535 57.0406L61.632 56.4641L59.0604 60.2895L51.007 55.5212Z" fill="#0D0D26"/>
<path d="M59.0609 60.6665C58.9863 60.6665 58.9117 60.645 58.8485 60.6073L50.8009 55.8389C50.6115 55.7258 50.5598 55.4941 50.6746 55.3163L53.2462 51.4909C53.3323 51.3669 53.4873 51.2969 53.6423 51.3184C53.7972 51.34 53.9293 51.4478 53.9694 51.5932L54.8018 54.4273L57.4996 53.7161C57.6087 53.6891 57.7292 53.7053 57.8211 53.7592C57.9186 53.8184 57.9818 53.91 58.0047 54.0124L58.4812 56.604L61.5636 56.0922C61.7186 56.0652 61.8793 56.1299 61.9654 56.2538C62.0515 56.3777 62.0573 56.5394 61.9712 56.6633L59.3996 60.4887C59.325 60.6019 59.1929 60.6665 59.0609 60.6665ZM51.5643 55.4025L58.9346 59.7667L60.8059 56.9812L58.2229 57.4122C58.1195 57.4284 58.0105 57.4068 57.9244 57.3476C57.8383 57.2883 57.7751 57.2021 57.7579 57.1051L57.2872 54.5512L54.6296 55.2516C54.5262 55.2786 54.4172 55.2678 54.3253 55.2193C54.2335 55.1708 54.1646 55.09 54.1359 54.993L53.4356 52.6169L51.5643 55.4025Z" fill="#0D0D26"/>
<path d="M3.15754 91.1893C3.04273 91.1893 2.93367 91.1408 2.85331 91.06C2.76147 90.963 2.73277 90.823 2.77295 90.699L4.37444 85.8984C4.42036 85.7637 4.5409 85.6613 4.69014 85.6397L9.97678 84.8154C10.1145 84.7938 10.2523 84.8423 10.3441 84.9393C10.436 85.0363 10.4647 85.1764 10.4245 85.3003L8.82302 90.101C8.7771 90.2357 8.65656 90.338 8.50731 90.3596L3.22068 91.1839C3.19772 91.1893 3.17476 91.1893 3.15754 91.1893ZM5.06325 86.3456L3.73155 90.338L8.12847 89.6484L9.46017 85.6559L5.06325 86.3456Z" fill="#0D0D26"/>
<path d="M10.132 58.657L1.8031 54.7669C1.21761 54.4975 1.11429 53.5816 1.56776 52.7249C2.02123 51.8682 2.85928 51.3995 3.44477 51.6689L11.7737 55.559C12.3592 55.8337 12.4625 56.7443 12.009 57.601C11.5555 58.4577 10.7175 58.9318 10.132 58.657Z" fill="#0D0D26"/>
<path d="M10.4937 59.115C10.31 59.115 10.1263 59.0772 9.95409 58.9964L1.62519 55.1063C0.833059 54.7346 0.649376 53.6193 1.20617 52.5632C1.7687 51.5072 2.82488 50.9684 3.62275 51.3401L11.9516 55.2302C12.3535 55.4188 12.6175 55.8175 12.6806 56.3294C12.7323 56.7874 12.6232 57.2992 12.3707 57.7788C11.9287 58.6031 11.1767 59.115 10.4937 59.115ZM10.31 58.3229C10.6372 58.4792 11.2686 58.1505 11.6474 57.4393C11.8311 57.0945 11.9115 56.7173 11.877 56.4102C11.8483 56.1624 11.745 55.9792 11.59 55.9037L3.26112 52.0136C2.93394 51.8574 2.30253 52.1861 1.92368 52.8973C1.54483 53.6085 1.64815 54.2766 1.97534 54.4328L10.31 58.3229Z" fill="#0D0D26"/>
<path d="M1.56776 52.7303C2.02123 51.8736 2.85928 51.4049 3.44477 51.6742C4.03026 51.9436 4.13358 52.8596 3.68012 53.7163C3.22665 54.573 2.38859 55.0417 1.8031 54.7723C1.21761 54.4975 1.11429 53.5816 1.56776 52.7303Z" fill="#0D0D26"/>
<path d="M2.15889 55.2249C1.96946 55.2249 1.78578 55.1872 1.61932 55.1117C0.827181 54.74 0.643497 53.6247 1.20029 52.5686C1.45285 52.0891 1.82022 51.7012 2.24499 51.4641C2.71568 51.1893 3.21507 51.1516 3.61687 51.3348C4.01868 51.5234 4.28272 51.9221 4.34587 52.4339C4.39753 52.8919 4.28847 53.4038 4.0359 53.8833C3.78334 54.3628 3.41023 54.7508 2.9912 54.9878C2.71568 55.1441 2.42867 55.2249 2.15889 55.2249ZM1.92354 52.8973C1.54469 53.6085 1.64802 54.2766 1.98094 54.4329C2.13592 54.5029 2.35405 54.4706 2.58365 54.3413C2.87066 54.1796 3.1347 53.8941 3.31839 53.5492C3.50207 53.2044 3.58243 52.8273 3.54799 52.5201C3.51929 52.2723 3.41597 52.0891 3.26099 52.0137C3.106 51.9436 2.88788 51.976 2.65827 52.1053C2.37701 52.2615 2.10722 52.5525 1.92354 52.8973Z" fill="#0D0D26"/>
<path d="M26.3709 10.8822C26.2963 10.7367 26.2561 10.4189 26.2561 10.4189L25.6534 2.75718L31.4337 8.19363L31.4222 8.19902C31.5485 8.30678 31.6633 8.4307 31.7379 8.57617C32.1741 9.46519 31.3246 10.7044 29.8436 11.3402C28.357 11.976 26.8014 11.7712 26.3709 10.8822Z" fill="#0D0D26"/>
<path d="M28.1332 12.089C27.1516 12.089 26.3422 11.7226 26.0093 11.0383C25.9175 10.8498 25.8716 10.5534 25.8601 10.4618L25.2516 2.78399C25.2401 2.62774 25.332 2.47688 25.487 2.41222C25.642 2.34757 25.8199 2.37451 25.9404 2.48765L31.7207 7.9241C31.7437 7.94565 31.7609 7.9672 31.7781 7.99414C31.9216 8.12884 32.025 8.26893 32.0996 8.41979C32.3694 8.96936 32.2775 9.6213 31.8413 10.2571C31.4452 10.839 30.7908 11.3454 30.0044 11.6795C29.3615 11.9597 28.7187 12.089 28.1332 12.089ZM26.7383 10.7204C27.0712 11.4047 28.4144 11.534 29.6715 10.9952C30.3201 10.7151 30.8482 10.311 31.1639 9.8476C31.4452 9.43811 31.5198 9.0394 31.3648 8.73229C31.3247 8.65147 31.2558 8.56526 31.1467 8.47367C31.118 8.44673 31.0893 8.4144 31.0664 8.38207L26.1299 3.73766L26.6522 10.381C26.6694 10.4888 26.7096 10.6666 26.7383 10.7204Z" fill="#0D0D26"/>
<path d="M28.2646 8.11795C29.7456 7.48217 31.2954 7.68691 31.7316 8.57592C32.1679 9.46494 31.3184 10.7042 29.8374 11.3399C28.3565 11.9757 26.8066 11.771 26.3704 10.882C25.9341 9.98757 26.7837 8.75373 28.2646 8.11795Z" fill="#0D0D26"/>
<path d="M28.1327 12.0834C27.9663 12.0834 27.8055 12.0726 27.6506 12.0511C26.8584 11.9433 26.2672 11.5823 26.0031 11.0327C25.7334 10.4832 25.8252 9.83122 26.2615 9.19544C26.6575 8.61354 27.3119 8.10707 28.0983 7.77302C29.8088 7.04026 31.5653 7.32582 32.0991 8.41957C32.633 9.51333 31.7146 10.9465 30.004 11.6793C29.3841 11.9487 28.7354 12.0834 28.1327 12.0834ZM28.4312 8.46268C27.7826 8.74285 27.2545 9.14695 26.9388 9.61031C26.6575 10.0198 26.5829 10.4185 26.7379 10.7256C26.8871 11.0327 27.2545 11.2429 27.7711 11.3129C28.3509 11.3883 29.0282 11.2806 29.6711 11.0004C30.9282 10.4616 31.7031 9.42712 31.3701 8.73746C31.0315 8.04781 29.6883 7.92388 28.4312 8.46268Z" fill="#0D0D26"/>
<path d="M137.275 86.7607L133.366 85.5215L132.557 81.7284L135.645 79.1745L139.554 80.4083L140.369 84.2014L137.275 86.7607Z" fill="#0D0D26"/>
<path d="M137.275 87.1378C137.229 87.1378 137.189 87.1324 137.149 87.1162L133.24 85.8824C133.102 85.8393 133.004 85.7315 132.976 85.5968L132.161 81.8037C132.132 81.669 132.184 81.5343 132.287 81.4481L135.381 78.8888C135.49 78.7972 135.639 78.7703 135.777 78.8134L139.686 80.0472C139.824 80.0903 139.921 80.1981 139.95 80.3328L140.765 84.1259C140.794 84.2606 140.742 84.3953 140.639 84.4815L137.545 87.0408C137.465 87.1054 137.367 87.1378 137.275 87.1378ZM133.716 85.2358L137.183 86.335L139.927 84.0666L139.204 80.6992L135.737 79.6L132.993 81.8683L133.716 85.2358Z" fill="#0D0D26"/>
<path d="M137.275 87.1377C137.086 87.1377 136.919 87.0138 136.879 86.836L136.11 83.2584L132.425 82.0946C132.213 82.03 132.103 81.8144 132.172 81.6151C132.241 81.4157 132.471 81.3134 132.683 81.378L136.592 82.6119C136.73 82.655 136.828 82.7627 136.856 82.8974L137.671 86.6905C137.717 86.8953 137.574 87.0946 137.356 87.1324C137.327 87.1324 137.298 87.1377 137.275 87.1377Z" fill="#0D0D26"/>
<path d="M136.46 83.3446C136.351 83.3446 136.236 83.3015 136.155 83.2153C136.006 83.0591 136.023 82.822 136.19 82.6819L139.284 80.1227C139.45 79.988 139.703 79.9987 139.852 80.155C140.001 80.3112 139.984 80.5483 139.818 80.6884L136.724 83.2477C136.649 83.3123 136.557 83.3446 136.46 83.3446Z" fill="#0D0D26"/>
<path d="M88.8339 69.0557L88.8397 69.0664C88.8856 69.0179 88.9315 68.9695 88.9832 68.9263C89.052 68.8671 89.1209 68.8132 89.207 68.7701C89.2759 68.7378 89.3735 68.7108 89.4653 68.6893C89.5055 68.6785 89.5514 68.6677 89.5916 68.6623C89.6318 68.6516 89.6662 68.6462 89.6662 68.6462L89.8557 68.6516C89.8844 68.6516 89.9131 68.6516 89.9475 68.6569L95.1021 68.824L92.3239 72.9027C92.3067 72.9296 92.2895 72.9512 92.2722 72.9781L92.1689 73.129L92.1632 73.1182C92.1173 73.1667 92.0713 73.2152 92.0197 73.2583C91.9508 73.3175 91.8819 73.3714 91.7958 73.4145C91.7269 73.4468 91.6236 73.4738 91.5318 73.4953C91.4916 73.5061 91.4514 73.5169 91.4055 73.5223C91.3653 73.533 91.3309 73.5384 91.3309 73.5384L91.1414 73.5331C91.1127 73.5331 91.084 73.5331 91.0496 73.5277L85.895 73.3606L88.6732 69.282C88.6904 69.255 88.7076 69.2335 88.7249 69.2065L88.8339 69.0557Z" fill="#0D0D26"/>
<path d="M91.3368 73.9048C91.331 73.9048 91.3253 73.9048 91.3253 73.9048L91.1359 73.8994C91.0785 73.8994 91.044 73.8994 91.0096 73.894L85.8952 73.7324C85.7517 73.727 85.6196 73.6515 85.5507 73.533C85.4819 73.4145 85.4876 73.269 85.568 73.1559L88.3462 69.0772C88.3462 69.0718 88.3806 69.0287 88.3806 69.0287L88.4954 68.8563C88.5241 68.8132 88.5643 68.7754 88.6045 68.7485C88.6389 68.7162 88.6734 68.6785 88.7135 68.6515C88.7709 68.5976 88.8743 68.5168 89.012 68.4468C89.012 68.4468 89.0178 68.4468 89.0178 68.4414C89.1039 68.3983 89.2129 68.3606 89.3679 68.3282C89.4425 68.3067 89.4942 68.2959 89.5401 68.2905L89.586 68.2798C89.6147 68.2744 89.6549 68.269 89.6779 68.2744L89.8673 68.2798C89.9247 68.2798 89.9592 68.2798 89.9879 68.2851L95.108 68.4522C95.2515 68.4576 95.3835 68.533 95.4524 68.6515C95.5213 68.7701 95.5156 68.9155 95.4352 69.0287L92.657 73.102C92.657 73.102 92.6398 73.1289 92.6226 73.1559L92.5078 73.3229C92.4791 73.366 92.4389 73.4037 92.3987 73.4306C92.3643 73.4683 92.3298 73.5007 92.2896 73.533C92.2035 73.6138 92.1117 73.6785 92.0084 73.727C91.9969 73.7324 91.9854 73.7377 91.9797 73.7431C91.8993 73.7809 91.7902 73.8186 91.641 73.8563C91.5664 73.8778 91.5205 73.8832 91.4688 73.894L91.4171 73.9048C91.3884 73.9048 91.3597 73.9048 91.3368 73.9048ZM86.6241 72.9996L91.0727 73.1451L91.1473 73.5276L91.1588 73.1505L91.3023 73.1559L91.3999 73.1343C91.5319 73.102 91.5836 73.0858 91.6008 73.075C91.6066 73.0696 91.6123 73.0696 91.618 73.0643C91.6525 73.0481 91.6927 73.0158 91.7443 72.9727C91.7902 72.9349 91.8189 72.9026 91.8476 72.8703C91.8591 72.8595 91.8706 72.8433 91.8821 72.8326L91.928 72.7679L91.9624 72.7787C91.9797 72.7679 92.0026 72.7571 92.0256 72.7518L91.9682 72.7194L94.379 69.1742L89.9304 69.0287L89.8558 68.6461L89.8443 69.0233L89.7008 69.0179L89.6033 69.0395C89.4598 69.0718 89.4081 69.0933 89.3966 69.0987C89.3966 69.0987 89.3909 69.0987 89.3909 69.1041C89.3507 69.1257 89.3105 69.1526 89.2589 69.2011C89.2129 69.2388 89.1842 69.2711 89.1555 69.3035C89.1441 69.3142 89.1326 69.3304 89.1211 69.3412L89.0752 69.4058L89.0465 69.3951C89.0235 69.4058 89.0063 69.4166 88.9833 69.422L89.0465 69.4597L86.6241 72.9996Z" fill="#0D0D26"/>
<path d="M91.222 73.9102C90.8603 73.9102 90.4815 73.8079 90.0969 73.6031C89.4885 73.2798 88.9431 72.7249 88.5586 72.0406C88.1797 71.3563 88.0018 70.6236 88.0592 69.9662C88.1223 69.2496 88.461 68.7055 89.012 68.4361C89.2072 68.3391 89.454 68.4091 89.5573 68.5923C89.6607 68.7755 89.586 69.0072 89.3909 69.1042C88.9891 69.3035 88.8915 69.7723 88.8685 70.0309C88.8226 70.5427 88.9661 71.1354 89.2761 71.6904C89.586 72.2453 90.0223 72.6925 90.4987 72.9458C90.7398 73.0751 91.2105 73.2637 91.6123 73.0643C91.8075 72.9673 92.0485 73.0374 92.1576 73.2259C92.2609 73.4091 92.1863 73.6354 91.9911 73.7378C91.7501 73.8563 91.4917 73.9102 91.222 73.9102Z" fill="#0D0D26"/>
<path d="M24.1256 74.9069L26.2954 67.5578L23.2244 68.6515L22.6677 64.4813L20.4692 71.7388L23.477 70.6666L24.1256 74.9069Z" fill="#0D0D26"/>
<path d="M24.1257 75.2842C24.1142 75.2842 24.1085 75.2842 24.097 75.2842C23.9076 75.2735 23.7526 75.1388 23.7239 74.961L23.1499 71.1894L20.607 72.0946C20.4635 72.1485 20.3028 72.1161 20.1937 72.0191C20.0846 71.9222 20.0387 71.7767 20.0789 71.6366L22.2831 64.379C22.3348 64.2066 22.5127 64.0935 22.7021 64.1042C22.8916 64.1204 23.0465 64.2551 23.0695 64.4329L23.5574 68.129L26.1519 67.2077C26.2954 67.1592 26.4562 67.1862 26.5652 67.2831C26.6743 67.3801 26.7202 67.5256 26.68 67.6657L24.5103 75.0148C24.4643 75.1711 24.3036 75.2842 24.1257 75.2842ZM23.477 70.2896C23.5459 70.2896 23.6205 70.3058 23.6837 70.3435C23.787 70.4028 23.8616 70.4997 23.8789 70.6129L24.252 73.0698L25.6985 68.1775L23.3622 69.0073C23.2474 69.0504 23.1154 69.0342 23.0121 68.9803C22.9088 68.9211 22.8342 68.8187 22.8227 68.7056L22.5127 66.378L21.0719 71.1247L23.3335 70.3219C23.3795 70.3004 23.4311 70.2896 23.477 70.2896Z" fill="#0D0D26"/>
<path d="M75.385 59.9663C75.385 59.9663 74.8742 58.7001 74.0993 56.8898C73.2899 55.004 74.2715 53.7001 75.5171 53.4577C76.9177 53.1829 77.7787 54.2982 77.9624 55.462C79.1046 54.9609 80.5684 55.0256 81.0965 56.2756C81.5671 57.3909 80.9472 58.8726 78.8291 59.282C76.7914 59.67 75.385 59.9663 75.385 59.9663Z" fill="#0D0D26"/>
<path d="M75.3854 60.3435C75.219 60.3435 75.0697 60.2465 75.0123 60.101C75.0123 60.101 74.5015 58.8348 73.7265 57.0299C73.296 56.0223 73.296 55.0525 73.7323 54.2928C74.0882 53.6678 74.7081 53.2314 75.4371 53.0859C76.0628 52.962 76.6597 53.0697 77.1591 53.393C77.6757 53.727 78.0603 54.282 78.2612 54.9501C78.9615 54.74 79.6675 54.74 80.253 54.9555C80.8156 55.1656 81.2403 55.5751 81.4757 56.1355C81.7512 56.7874 81.7053 57.5148 81.3437 58.1344C80.9074 58.8941 80.0407 59.4275 78.9099 59.6484C76.8836 60.0363 75.4773 60.3327 75.4773 60.3381C75.4428 60.3435 75.4141 60.3435 75.3854 60.3435ZM75.9365 53.7917C75.8274 53.7917 75.7126 53.8025 75.5978 53.824C75.1042 53.921 74.6794 54.2227 74.4383 54.6484C74.1169 55.2087 74.1284 55.9577 74.4728 56.7497C75.0238 58.032 75.4428 59.045 75.638 59.5299C76.1718 59.4167 77.3026 59.185 78.7491 58.9103C79.6446 58.7378 80.3104 58.3391 80.6376 57.7788C80.8845 57.3531 80.9132 56.8574 80.7295 56.4156C80.5745 56.0493 80.3162 55.796 79.9546 55.6613C79.4552 55.4727 78.7778 55.5266 78.1349 55.8068C78.0201 55.8553 77.8881 55.8553 77.7733 55.796C77.6643 55.7421 77.5839 55.6398 77.5667 55.5212C77.4634 54.8693 77.1362 54.3036 76.6942 54.018C76.4703 53.8671 76.2177 53.7917 75.9365 53.7917Z" fill="#0D0D26"/>
<path d="M58.7557 39.158C56.9476 39.158 55.4552 37.8003 55.4093 36.0923C55.3633 34.3574 56.8328 32.9188 58.6754 32.8757C59.5766 32.8487 60.4204 33.1612 61.0633 33.7431C61.7119 34.3197 62.0793 35.1009 62.1022 35.9414C62.1482 37.6763 60.6844 39.1149 58.8361 39.158C58.8131 39.158 58.7844 39.158 58.7557 39.158ZM58.7557 33.63C58.7328 33.63 58.7156 33.63 58.6926 33.63C58.0153 33.6462 57.3781 33.9102 56.9132 34.3681C56.4425 34.8315 56.1957 35.435 56.2129 36.0761C56.2473 37.3908 57.4011 38.4414 58.8189 38.4037C60.2195 38.3714 61.3331 37.2723 61.2986 35.9576C61.2699 34.6591 60.1334 33.63 58.7557 33.63Z" fill="#0D0D26"/>
<path d="M43.2008 48.3391C43.132 48.3391 43.0631 48.323 42.9999 48.2906C42.0356 47.7734 41.341 46.9383 41.0426 45.9307C40.7498 44.9232 40.8876 43.8725 41.4329 42.9673C41.9839 42.0622 42.8736 41.4102 43.947 41.13C45.0204 40.8499 46.1398 40.9846 47.1041 41.4964C47.2993 41.5988 47.3624 41.8305 47.2534 42.0083C47.1443 42.1915 46.8975 42.2507 46.708 42.1484C45.9274 41.7335 45.0205 41.6257 44.1594 41.852C43.2984 42.0783 42.5752 42.601 42.1332 43.3337C41.2205 44.8423 41.783 46.7712 43.396 47.6279C43.5912 47.7303 43.6543 47.962 43.5452 48.1398C43.4764 48.2691 43.3386 48.3391 43.2008 48.3391Z" fill="#0D0D26"/>
<path d="M65.9887 74.282C65.9428 74.282 65.8969 74.2766 65.851 74.2604C65.6443 74.1904 65.5352 73.9749 65.6099 73.7755C66.1609 72.3369 67.2802 71.1839 68.7554 70.532C70.2307 69.88 71.8895 69.81 73.4222 70.3272C73.6288 70.3973 73.7379 70.6128 73.6632 70.8121C73.5886 71.0061 73.359 71.1085 73.1466 71.0384C71.8149 70.5912 70.3742 70.6505 69.0941 71.2162C67.8141 71.782 66.844 72.7841 66.3618 74.0341C66.3044 74.185 66.1552 74.282 65.9887 74.282Z" fill="#0D0D26"/>
<path d="M139.577 9.17405C139.445 9.17405 139.313 9.1094 139.238 8.99625L134.698 2.27747C134.577 2.09967 134.635 1.86799 134.824 1.75484C135.013 1.64169 135.26 1.69557 135.381 1.87338L139.921 8.59215C140.042 8.76996 139.984 9.00164 139.795 9.11479C139.726 9.15789 139.651 9.17405 139.577 9.17405Z" fill="#0D0D26"/>
<path d="M43.5105 66.0169C43.4474 66.0169 43.3842 66.0007 43.3211 65.9738L36.8118 62.7033C36.6166 62.6063 36.542 62.3747 36.6453 62.1915C36.7486 62.0083 36.9955 61.9382 37.1906 62.0352L43.6999 65.3057C43.8951 65.4027 43.9697 65.6344 43.8664 65.8176C43.7918 65.9415 43.654 66.0169 43.5105 66.0169Z" fill="#0D0D26"/>
<path d="M38.5111 67.4339C38.448 67.4339 38.3848 67.4178 38.3217 67.3908C38.1265 67.2938 38.0519 67.0622 38.1552 66.879L41.6395 60.769C41.7428 60.5858 41.9896 60.5158 42.1848 60.6128C42.3799 60.7098 42.4546 60.9414 42.3512 61.1246L38.867 67.2346C38.7924 67.3585 38.6546 67.4339 38.5111 67.4339Z" fill="#0D0D26"/>
<path d="M53.2509 74.3575C53.1533 74.3575 53.0615 74.3252 52.9811 74.2605C52.8146 74.1204 52.8031 73.8834 52.9466 73.7271L54.3013 72.3047C54.4506 72.1485 54.7031 72.1323 54.8696 72.2724C55.036 72.4125 55.0475 72.6495 54.904 72.8058L53.5494 74.2282C53.4747 74.3144 53.3599 74.3575 53.2509 74.3575Z" fill="#0D0D26"/>
<path d="M48.7682 79.0719C48.6707 79.0719 48.5788 79.0396 48.4985 78.9749C48.332 78.8348 48.3205 78.5978 48.464 78.4415L49.8187 77.0191C49.9679 76.8628 50.2205 76.8521 50.387 76.9868C50.5534 77.1269 50.5649 77.3639 50.4214 77.5202L49.0667 78.9426C48.9864 79.0288 48.8773 79.0719 48.7682 79.0719Z" fill="#0D0D26"/>
<path d="M55.9787 76.8413C55.95 76.8413 55.9213 76.8413 55.8983 76.8359L53.9065 76.448C53.6884 76.4049 53.5506 76.2055 53.5966 76.0008C53.6425 75.796 53.8549 75.6667 54.073 75.7098L56.0648 76.0978C56.2829 76.1409 56.4207 76.3402 56.3748 76.545C56.3346 76.7174 56.1681 76.8413 55.9787 76.8413Z" fill="#0D0D26"/>
<path d="M49.3885 75.5536C49.3598 75.5536 49.3311 75.5536 49.3081 75.5482L47.3163 75.1603C47.0982 75.1172 46.9604 74.9178 47.0064 74.7131C47.0523 74.5083 47.2647 74.379 47.4828 74.4221L49.4746 74.81C49.6927 74.8531 49.8305 75.0525 49.7846 75.2572C49.7444 75.4297 49.5779 75.5536 49.3885 75.5536Z" fill="#0D0D26"/>
<path d="M53.0618 79.9127C52.8953 79.9127 52.7346 79.8103 52.6772 79.654L52.04 77.8383C51.9711 77.639 52.0859 77.4288 52.2983 77.3642C52.5107 77.2995 52.7346 77.4073 52.8034 77.6066L53.4406 79.4224C53.5095 79.6217 53.3947 79.8318 53.1823 79.8965C53.1421 79.9019 53.1019 79.9127 53.0618 79.9127Z" fill="#0D0D26"/>
<path d="M50.9552 73.9104C50.7887 73.9104 50.628 73.808 50.5706 73.6517L49.9334 71.836C49.8645 71.6366 49.9794 71.4265 50.1917 71.3619C50.4041 71.2972 50.628 71.405 50.6969 71.6043L51.334 73.42C51.4029 73.6194 51.2881 73.8295 51.0757 73.8942C51.0355 73.905 50.9953 73.9104 50.9552 73.9104Z" fill="#0D0D26"/>
<path d="M34.2635 33.0642C34.2521 33.0642 34.2406 33.0642 34.2291 33.0642C34.011 33.0426 33.8445 32.8594 33.8675 32.6547L34.3956 27.2613L28.644 26.7656C28.4259 26.7441 28.2594 26.5609 28.2824 26.3562C28.3053 26.146 28.4947 25.9952 28.7186 26.0167L34.8663 26.5447C35.0844 26.5663 35.2508 26.7495 35.2279 26.9542L34.6654 32.7247C34.6481 32.9187 34.4702 33.0642 34.2635 33.0642Z" fill="#0D0D26"/>
<path d="M119.171 23.1881C119.136 23.1881 119.102 23.1827 119.067 23.1774L114.475 22.0351C114.343 22.0028 114.24 21.9112 114.194 21.7873C114.154 21.6687 114.177 21.534 114.263 21.4317L116.593 18.6892L112.592 17.6924C112.38 17.6385 112.248 17.4338 112.305 17.2291C112.363 17.0297 112.575 16.9058 112.799 16.9597L117.391 18.1019C117.523 18.1342 117.627 18.2258 117.672 18.3497C117.713 18.4683 117.69 18.603 117.604 18.7054L115.273 21.4478L119.274 22.4446C119.486 22.4985 119.618 22.7032 119.561 22.908C119.509 23.075 119.349 23.1881 119.171 23.1881Z" fill="#0D0D26"/>
<path d="M73.5658 44.7831C73.474 44.7831 73.3821 44.7562 73.3075 44.6969L70.0758 42.17C69.9036 42.0353 69.8807 41.7982 70.0242 41.6366C70.1677 41.4749 70.4202 41.4534 70.5925 41.5881L73.5142 43.8779L75.9537 41.1355C76.0972 40.9738 76.3498 40.9523 76.522 41.087L79.4437 43.3769L81.8832 40.6344C82.0267 40.4728 82.2793 40.4512 82.4515 40.5859C82.6237 40.7206 82.6467 40.9577 82.5032 41.1193L79.8111 44.1527C79.6676 44.3144 79.415 44.3359 79.2428 44.2012L76.3211 41.9113L73.8815 44.6538C73.7954 44.74 73.6806 44.7831 73.5658 44.7831Z" fill="#0D0D26"/>
<path d="M21.0727 56.6471C20.8833 56.6471 20.7168 56.5232 20.6767 56.3454C20.6307 56.1407 20.7742 55.9413 20.9924 55.9036L24.7062 55.2085L23.9657 51.7225C23.9198 51.5178 24.0633 51.3184 24.2814 51.2807L27.9953 50.5857L27.2548 47.0997C27.2089 46.8949 27.3524 46.6956 27.5705 46.6579L31.2844 45.9628L30.5439 42.4768C30.498 42.2721 30.6415 42.0727 30.8596 42.035C31.0777 41.9919 31.2901 42.1266 31.3303 42.3313L32.1511 46.1891C32.1971 46.3939 32.0536 46.5932 31.8354 46.6309L28.1216 47.326L28.8621 50.812C28.908 51.0167 28.7645 51.2161 28.5463 51.2538L24.8325 51.9488L25.573 55.4348C25.6189 55.6396 25.4754 55.8389 25.2573 55.8767L21.1474 56.6471C21.1244 56.6471 21.1014 56.6471 21.0727 56.6471Z" fill="#0D0D26"/>
<path d="M100.068 55.3973C100.033 55.3973 99.9986 55.3919 99.9642 55.3865L94.3906 53.9964C94.1782 53.9425 94.0462 53.7378 94.1036 53.5331L95.5845 48.3014C95.6132 48.2044 95.6821 48.1236 95.7739 48.0697C95.8658 48.0212 95.9748 48.005 96.0782 48.032L101.652 49.4221C101.864 49.4759 101.996 49.6807 101.939 49.8854L100.458 55.1171C100.406 55.2895 100.245 55.3973 100.068 55.3973ZM94.9875 53.3607L99.7863 54.5568L101.061 50.0524L96.2618 48.8563L94.9875 53.3607Z" fill="#0D0D26"/>
<path d="M127.155 73.2151C127.029 73.2151 126.903 73.1882 126.788 73.1289C126.398 72.935 126.249 72.4824 126.449 72.116C126.547 71.9382 126.713 71.8089 126.92 71.7496C127.127 71.6904 127.339 71.7065 127.529 71.7981C127.718 71.8897 127.856 72.046 127.919 72.2399C127.982 72.4285 127.965 72.6332 127.867 72.811C127.724 73.0697 127.448 73.2151 127.155 73.2151ZM127.155 72.4608V72.4662L127.511 72.6332L127.155 72.4608Z" fill="#0D0D26"/>
<path d="M131.965 25.8228L128.383 22.7786L131.902 22.4499L131.569 19.4435H134.772L134.749 16.1083L138.331 19.1525L131.965 25.8228Z" fill="#0D0D26"/>
<path d="M131.966 26.1999C131.868 26.1999 131.77 26.1676 131.696 26.1029L128.114 23.0587C127.993 22.9564 127.953 22.8001 127.999 22.66C128.051 22.5199 128.183 22.4176 128.344 22.4014L131.455 22.1104L131.162 19.4811C131.151 19.3734 131.185 19.271 131.265 19.1902C131.34 19.1094 131.449 19.0663 131.564 19.0663H134.365L134.348 16.1083C134.348 15.9574 134.44 15.8227 134.589 15.7634C134.732 15.7042 134.905 15.7257 135.019 15.8281L138.601 18.8723C138.768 19.0124 138.779 19.2494 138.63 19.4057L132.264 26.076C132.195 26.1514 132.092 26.1945 131.983 26.1999C131.983 26.1999 131.977 26.1999 131.966 26.1999ZM129.325 23.0695L131.937 25.2893L137.763 19.1794L135.157 16.9596L135.174 19.438C135.174 19.5404 135.134 19.6374 135.06 19.7074C134.985 19.7775 134.882 19.8206 134.773 19.8206H132.017L132.304 22.4122C132.316 22.5145 132.281 22.6115 132.218 22.6923C132.149 22.7678 132.052 22.8217 131.948 22.827L129.325 23.0695Z" fill="#0D0D26"/>
<path d="M140.151 62.7249C140.128 62.7249 140.11 62.7249 140.087 62.7195L134.749 61.9113C134.6 61.8898 134.474 61.7874 134.428 61.6527L132.792 56.8143C132.752 56.6904 132.78 56.5503 132.872 56.4533C132.964 56.3563 133.102 56.3078 133.239 56.3294L138.578 57.143C138.727 57.1645 138.847 57.2669 138.893 57.4016L140.529 62.24C140.57 62.3639 140.541 62.504 140.449 62.601C140.38 62.6764 140.265 62.7249 140.151 62.7249ZM135.122 61.2055L139.571 61.879L138.205 57.8434L133.756 57.1699L135.122 61.2055Z" fill="#0D0D26"/>
<path d="M97.8404 10.0416L106.531 8.99095C107.139 8.91552 107.731 9.57823 107.851 10.4726C107.972 11.3616 107.581 12.1483 106.973 12.2183L98.2824 13.269C97.674 13.3444 97.0828 12.6817 96.9622 11.7873C96.8417 10.8983 97.232 10.117 97.8404 10.0416Z" fill="#0D0D26"/>
<path d="M98.1908 13.6569C97.4044 13.6569 96.7099 12.8918 96.5607 11.8411C96.4918 11.34 96.5607 10.8444 96.7616 10.451C96.9854 10.0092 97.3585 9.72366 97.789 9.66978L106.48 8.61913C107.323 8.52215 108.098 9.30879 108.253 10.4241C108.322 10.9252 108.253 11.4209 108.052 11.8142C107.828 12.256 107.455 12.5416 107.025 12.5954L98.3343 13.6461C98.2884 13.6515 98.2368 13.6569 98.1908 13.6569ZM106.623 9.36267C106.612 9.36267 106.594 9.36267 106.583 9.36267L97.8924 10.4133C97.7431 10.4295 97.5939 10.5588 97.4905 10.7689C97.3585 11.0329 97.3126 11.3832 97.3585 11.7388C97.4561 12.45 97.8981 12.9295 98.231 12.8972L106.922 11.8465C107.071 11.8304 107.22 11.701 107.323 11.4909C107.455 11.2269 107.501 10.8767 107.455 10.5211C107.364 9.83681 106.95 9.36267 106.623 9.36267Z" fill="#0D0D26"/>
<path d="M107.856 10.4726C107.977 11.367 107.587 12.1482 106.978 12.2183C106.37 12.2937 105.779 11.631 105.658 10.7366C105.537 9.84221 105.928 9.06095 106.536 8.99091C107.145 8.92087 107.736 9.58358 107.856 10.4726Z" fill="#0D0D26"/>
<path d="M106.887 12.6062C106.502 12.6062 106.123 12.423 105.825 12.089C105.526 11.7549 105.325 11.2916 105.256 10.7905C105.188 10.2894 105.256 9.79371 105.457 9.40039C105.681 8.95857 106.054 8.67301 106.485 8.61913C107.329 8.52215 108.104 9.30879 108.259 10.4241C108.327 10.9252 108.259 11.4209 108.058 11.8142C107.834 12.256 107.461 12.5416 107.03 12.5954C106.984 12.6008 106.933 12.6062 106.887 12.6062ZM106.623 9.36267C106.611 9.36267 106.594 9.36267 106.582 9.36267C106.433 9.37883 106.284 9.50814 106.181 9.71827C106.049 9.98228 106.003 10.3325 106.049 10.6881C106.1 11.0437 106.238 11.3724 106.439 11.5987C106.594 11.7765 106.778 11.8681 106.921 11.8465C107.07 11.8304 107.22 11.701 107.323 11.4909C107.455 11.2269 107.501 10.8767 107.455 10.5211C107.363 9.83681 106.95 9.36267 106.623 9.36267Z" fill="#0D0D26"/>
<path d="M117.804 48.2853C117.954 48.2044 118.287 48.1452 118.287 48.1452L126.334 47.0029L121.025 52.8004L121.019 52.7896C120.916 52.9189 120.795 53.032 120.64 53.1075C119.733 53.5762 118.361 52.8812 117.581 51.5504C116.8 50.2195 116.897 48.7594 117.804 48.2853Z" fill="#0D0D26"/>
<path d="M120.014 53.63C119.825 53.63 119.624 53.6031 119.423 53.5492C118.585 53.3229 117.764 52.644 117.23 51.7334C116.324 50.1979 116.49 48.5384 117.609 47.9565C117.799 47.8595 118.114 47.7949 118.206 47.7733L126.271 46.6311C126.438 46.6095 126.604 46.6849 126.684 46.8196C126.765 46.9597 126.748 47.1267 126.638 47.2507L121.329 53.0481C121.306 53.0697 121.283 53.0912 121.26 53.1074C121.128 53.2528 120.99 53.3606 120.835 53.436C120.588 53.5654 120.313 53.63 120.014 53.63ZM118 48.6192C117.299 48.9856 117.271 50.241 117.936 51.3725C118.367 52.1052 119.021 52.6602 119.653 52.8326C119.865 52.8919 120.175 52.9296 120.456 52.7841C120.542 52.741 120.623 52.671 120.709 52.5632C120.738 52.5309 120.766 52.5039 120.801 52.4824L125.33 47.5362L118.356 48.5276C118.241 48.5384 118.057 48.5869 118 48.6192Z" fill="#0D0D26"/>
<path d="M120.869 49.8421C121.656 51.1729 121.552 52.6331 120.645 53.1072C119.738 53.576 118.366 52.8809 117.586 51.5501C116.799 50.2193 116.903 48.7591 117.81 48.285C118.711 47.8163 120.083 48.5113 120.869 49.8421Z" fill="#0D0D26"/>
<path d="M120.014 53.63C119.825 53.63 119.624 53.603 119.423 53.5492C118.585 53.3229 117.764 52.644 117.23 51.7334C116.324 50.1979 116.49 48.5384 117.609 47.9565C118.172 47.6655 118.872 47.6978 119.572 48.0588C120.215 48.3875 120.801 48.9586 121.22 49.6644C122.127 51.2 121.96 52.8595 120.841 53.4414C120.588 53.5653 120.313 53.63 120.014 53.63ZM118.436 48.5168C118.275 48.5168 118.126 48.5491 118 48.6192C117.299 48.9802 117.271 50.241 117.931 51.3724C118.361 52.1052 119.016 52.6601 119.647 52.8326C119.859 52.8918 120.169 52.9295 120.451 52.7841C121.151 52.4231 121.18 51.1623 120.52 50.0308C120.175 49.4489 119.704 48.9856 119.194 48.7269C118.924 48.5869 118.665 48.5168 118.436 48.5168Z" fill="#0D0D26"/>
<path d="M60.0421 16.9595L64.2496 16.6847L66.6031 19.9659L64.7605 23.522L60.553 23.7968L58.1938 20.5155L60.0421 16.9595Z" fill="#0D0D26"/>
<path d="M60.5524 24.1741C60.4204 24.1741 60.2941 24.1094 60.2195 24.007L57.8603 20.7258C57.78 20.6126 57.7685 20.4725 57.8316 20.3486L59.6799 16.7926C59.7431 16.6686 59.8694 16.5932 60.0129 16.5824L64.2204 16.3076C64.3696 16.2969 64.5016 16.3615 64.582 16.4747L66.9412 19.7559C67.0215 19.8691 67.033 20.0092 66.9699 20.1331L65.1216 23.6891C65.0584 23.8131 64.9321 23.8885 64.7886 23.8993L60.5811 24.1741C60.5697 24.1741 60.5639 24.1741 60.5524 24.1741ZM58.6582 20.4833L60.7591 23.4036L64.5016 23.1557L66.149 19.9876L64.0482 17.0673L60.3056 17.3152L58.6582 20.4833Z" fill="#0D0D26"/>
<path d="M62.4015 20.618C62.2695 20.618 62.1432 20.5533 62.0686 20.4509L59.7094 17.1697C59.5832 16.9973 59.6348 16.7602 59.8185 16.647C60.0022 16.5339 60.2547 16.577 60.3753 16.7494L62.6024 19.8475L66.5746 19.5889C66.7985 19.5727 66.9879 19.729 67.0051 19.9391C67.0223 20.1492 66.8559 20.327 66.632 20.3432L62.4245 20.618C62.4188 20.618 62.4073 20.618 62.4015 20.618Z" fill="#0D0D26"/>
<path d="M60.5525 24.174C60.4951 24.174 60.432 24.1632 60.3746 24.1362C60.1737 24.0447 60.0933 23.8184 60.1909 23.6298L62.0392 20.0737C62.1368 19.8851 62.3779 19.8097 62.5788 19.9013C62.7797 19.9929 62.8601 20.2192 62.7625 20.4078L60.9142 23.9638C60.8453 24.0985 60.7018 24.174 60.5525 24.174Z" fill="#0D0D26"/>
<path d="M17.0947 37.3637L17.0832 37.3529C17.0602 37.4122 17.0315 37.466 16.9971 37.5199C16.9512 37.59 16.9053 37.66 16.8421 37.7193C16.7905 37.7678 16.7043 37.8216 16.6297 37.8647C16.5953 37.8863 16.5608 37.9079 16.5207 37.924C16.4862 37.9402 16.4575 37.9563 16.4575 37.9563L16.2853 37.9994C16.2566 38.0048 16.2337 38.0156 16.1992 38.021L11.4579 39.2171L12.7781 34.7775C12.7839 34.7505 12.7953 34.7236 12.8011 34.6966L12.847 34.535L12.8585 34.5458C12.8814 34.4865 12.9101 34.4326 12.9446 34.3787C12.9905 34.3087 13.0364 34.2387 13.0996 34.1794C13.1512 34.1309 13.2373 34.077 13.3119 34.0339C13.3464 34.0124 13.3808 33.9908 13.421 33.9746C13.4612 33.9585 13.4899 33.9477 13.4899 33.9477L13.6621 33.9046C13.6908 33.8992 13.7138 33.8884 13.7425 33.8831L18.4838 32.6869L17.1636 37.1266C17.1578 37.1535 17.1463 37.1805 17.1406 37.2074L17.0947 37.3637Z" fill="#0D0D26"/>
<path d="M11.4575 39.5943C11.3541 39.5943 11.2508 39.5566 11.1704 39.4812C11.0671 39.3842 11.0327 39.2441 11.0671 39.1148L12.3873 34.6751C12.3873 34.6698 12.4046 34.6213 12.4046 34.6159L12.4562 34.4327C12.4735 34.3842 12.4964 34.3411 12.5251 34.3034C12.5481 34.2603 12.571 34.2226 12.594 34.1848C12.6514 34.0879 12.7203 34.0016 12.7949 33.9262C12.8006 33.9208 12.8064 33.9154 12.8064 33.9101C12.8753 33.8454 12.9671 33.7861 13.0934 33.7107C13.1565 33.673 13.1967 33.6514 13.2369 33.6353L13.2771 33.6137C13.3058 33.5976 13.3345 33.5868 13.3632 33.5814L13.5354 33.5383C13.587 33.5221 13.6157 33.5167 13.6502 33.5113L18.3571 32.3206C18.4948 32.2883 18.6441 32.326 18.7474 32.4176C18.8507 32.5146 18.8851 32.6547 18.8507 32.784L17.5305 37.2236C17.5305 37.229 17.5133 37.2775 17.5133 37.2829L17.4559 37.4661C17.4386 37.5146 17.4157 37.5577 17.387 37.5954C17.364 37.6385 17.3411 37.6762 17.3181 37.7139C17.2607 37.8109 17.1918 37.8971 17.1172 37.9672C17.1115 37.9726 17.1057 37.978 17.1 37.9833C17.0311 38.0426 16.945 38.1073 16.813 38.1827C16.7498 38.2204 16.7096 38.242 16.6695 38.2635L16.6465 38.2905C16.6178 38.3066 16.5891 38.3174 16.5604 38.3228L16.3882 38.3659C16.3365 38.3821 16.3078 38.3874 16.2734 38.3928L11.5665 39.5836C11.5321 39.589 11.4976 39.5943 11.4575 39.5943ZM13.1106 34.8422L13.1737 34.8583L12.0372 38.6838L16.0955 37.6601L16.2849 38.0049L16.1816 37.6385L16.3882 37.5631C16.4973 37.4984 16.5432 37.4715 16.5547 37.4607L16.5604 37.4553C16.5891 37.4284 16.6178 37.3907 16.6522 37.3368C16.6809 37.2937 16.6982 37.256 16.7154 37.2183C16.7211 37.2021 16.7269 37.1913 16.7383 37.1752L16.7613 37.1051L16.79 37.1105C16.8072 37.0943 16.8187 37.0782 16.8359 37.0674L16.7728 37.0512L17.9093 33.2258L13.5583 34.3411C13.4435 34.4057 13.4033 34.4381 13.3919 34.4489L13.3861 34.4542C13.3574 34.4812 13.3287 34.5189 13.2943 34.5728C13.2656 34.6159 13.2484 34.6536 13.2311 34.6913C13.2254 34.7075 13.2197 34.7182 13.2082 34.7344L13.1852 34.8045L13.1565 34.7991C13.145 34.8152 13.1278 34.8314 13.1106 34.8422Z" fill="#0D0D26"/>
<path d="M16.8423 38.102C16.739 38.102 16.6357 38.0643 16.5553 37.9889C16.4003 37.8434 16.4003 37.6009 16.5553 37.4554C16.8538 37.1753 16.8079 36.7335 16.7505 36.491C16.6414 36.0169 16.3372 35.5212 15.8894 35.0955C15.4417 34.6753 14.9194 34.3789 14.4142 34.2766C14.1559 34.2227 13.6852 34.1742 13.3868 34.4544C13.226 34.5998 12.9735 34.5998 12.8185 34.4544C12.6635 34.3089 12.6635 34.0664 12.8185 33.921C13.2433 33.5276 13.8689 33.3929 14.5922 33.5438C15.2466 33.6839 15.9124 34.0449 16.4635 34.5675C17.0145 35.0901 17.3991 35.7205 17.5369 36.3348C17.6918 37.0136 17.5426 37.6009 17.1178 37.9942C17.0432 38.0643 16.9456 38.102 16.8423 38.102Z" fill="#0D0D26"/>
<path d="M101.44 25.1439L96.1477 30.6019L99.3162 30.9144L97.8525 34.7452L103.128 29.3734L100.028 29.0717L101.44 25.1439Z" fill="#0D0D26"/>
<path d="M97.8521 35.1224C97.7832 35.1224 97.7086 35.1062 97.6454 35.0685C97.479 34.9769 97.4101 34.7883 97.4732 34.6213L98.7647 31.243L96.1071 30.979C95.9578 30.9629 95.8258 30.8713 95.7741 30.7366C95.7225 30.6019 95.7512 30.4564 95.8545 30.3486L101.147 24.8906C101.273 24.756 101.486 24.729 101.646 24.8206C101.813 24.9122 101.887 25.0954 101.824 25.2678L100.573 28.7484L103.173 29.007C103.322 29.0232 103.454 29.1148 103.506 29.2495C103.558 29.3842 103.529 29.5351 103.426 29.6374L98.1506 35.0038C98.0702 35.0793 97.9611 35.1224 97.8521 35.1224ZM96.9796 30.3055L99.356 30.5426C99.4765 30.5534 99.5913 30.618 99.6545 30.715C99.7176 30.812 99.7348 30.9359 99.6946 31.0437L98.9025 33.1234L102.295 29.6698L99.9931 29.4435C99.8726 29.4327 99.7635 29.368 99.6946 29.2711C99.6258 29.1741 99.6143 29.0555 99.6545 28.9478L100.452 26.7279L96.9796 30.3055Z" fill="#0D0D26"/>
<path d="M51.1849 94.169C51.1849 94.169 49.8761 93.4309 47.9762 92.4018C45.9958 91.3296 45.8982 89.6485 46.765 88.6841C47.7351 87.5957 49.2275 87.9944 50.1918 88.8511C50.7946 87.7358 52.0516 86.8899 53.3546 87.6065C54.5199 88.2423 55.0365 89.8533 53.5613 91.4912C52.1492 93.0591 51.1849 94.169 51.1849 94.169Z" fill="#0D0D26"/>
<path d="M51.1852 94.5461C51.1164 94.5461 51.0417 94.53 50.9786 94.4922C50.9671 94.4869 49.6526 93.7433 47.7814 92.7304C46.7309 92.1647 46.0593 91.3618 45.8929 90.4674C45.7551 89.7401 45.9617 89.0019 46.4669 88.4416C46.8974 87.9567 47.4599 87.6873 48.0913 87.6495C48.7514 87.6118 49.4632 87.8381 50.0946 88.2745C50.5309 87.6657 51.1164 87.2239 51.7535 87.0515C52.362 86.8845 52.9876 86.9599 53.5674 87.2778C54.239 87.6442 54.7039 88.2745 54.8359 89.0019C54.9967 89.8963 54.658 90.8608 53.8716 91.7336C52.471 93.28 51.5067 94.3953 51.4952 94.406C51.4206 94.4976 51.3 94.5461 51.1852 94.5461ZM48.2233 88.4039C48.1946 88.4039 48.1602 88.4039 48.1315 88.4039C47.7182 88.4254 47.3623 88.6032 47.0753 88.9265C46.7252 89.3144 46.5817 89.8317 46.6793 90.3381C46.8055 91.0062 47.3394 91.6205 48.1774 92.0784C49.5378 92.8112 50.5997 93.4039 51.0934 93.6787C51.455 93.2638 52.2472 92.364 53.2574 91.2433C53.8831 90.5483 54.1644 89.7993 54.0381 89.1312C53.9462 88.6248 53.6248 88.1883 53.1541 87.9297C52.7638 87.7142 52.3677 87.6657 51.9716 87.7735C51.4206 87.9243 50.8925 88.3931 50.5538 89.0181C50.4964 89.1258 50.3874 89.1959 50.2668 89.2174C50.1405 89.239 50.0143 89.2013 49.9224 89.1204C49.4001 88.6679 48.7744 88.4039 48.2233 88.4039Z" fill="#0D0D26"/>
<path d="M7.76674 21.6955C7.7323 21.6955 7.69212 21.6901 7.65194 21.6794C7.43955 21.6201 7.31327 21.41 7.37641 21.2106C7.47399 20.8981 7.43381 20.5748 7.26735 20.2893C7.10089 20.0037 6.82536 19.799 6.49817 19.7128C6.16525 19.6212 5.82084 19.6589 5.51662 19.8151C5.21239 19.9714 4.99427 20.23 4.90243 20.5371C4.83928 20.7365 4.61542 20.855 4.40304 20.7957C4.19065 20.7365 4.07011 20.5263 4.12751 20.327C4.28249 19.8205 4.63838 19.4057 5.12629 19.1524C5.6142 18.8992 6.18247 18.8399 6.7163 18.9854C7.25587 19.1309 7.69786 19.4649 7.96764 19.9229C8.23743 20.3809 8.30057 20.9143 8.14559 21.4154C8.09966 21.5878 7.93894 21.6955 7.76674 21.6955Z" fill="#0D0D26"/>
<path d="M7.61173 24.9554C7.57729 24.9554 7.53711 24.9501 7.49693 24.9393C6.33743 24.6214 5.35013 24.0018 4.71298 23.1882C4.03565 22.3153 3.82326 21.3024 4.12175 20.3326C4.18489 20.1332 4.40875 20.0147 4.62114 20.074C4.83352 20.1332 4.9598 20.3434 4.89666 20.5427C4.60392 21.491 4.9885 22.2669 5.36161 22.7464C5.89544 23.4253 6.72776 23.9479 7.7208 24.2173C7.93318 24.2766 8.05946 24.4867 7.99632 24.686C7.9504 24.8477 7.78968 24.9554 7.61173 24.9554Z" fill="#0D0D26"/>
<path d="M4.29434 23.8509C3.77199 23.8509 3.22668 23.7808 2.67563 23.63C2.46325 23.5707 2.34271 23.3606 2.40011 23.1612C2.46325 22.9619 2.68711 22.8433 2.8995 22.9026C4.98316 23.4683 6.90609 22.741 7.37678 21.2162C7.43992 21.0168 7.66378 20.9037 7.87617 20.9576C8.08855 21.0168 8.21483 21.227 8.15169 21.4263C7.681 22.9403 6.1484 23.8509 4.29434 23.8509Z" fill="#0D0D26"/>
<path d="M2.79014 23.6407C2.7557 23.6407 2.71552 23.6354 2.67534 23.6246C2.10132 23.4683 1.56175 23.2151 1.08533 22.8757C0.907383 22.7517 0.872942 22.5147 1.00496 22.3476C1.13699 22.1806 1.38955 22.1483 1.5675 22.2722C1.9693 22.5578 2.41703 22.7679 2.8992 22.8972C3.11158 22.9565 3.23787 23.1666 3.17473 23.366C3.12306 23.533 2.96234 23.6407 2.79014 23.6407Z" fill="#0D0D26"/>
<path d="M12.5885 23.0102C12.5541 23.0102 12.5139 23.0048 12.4737 22.994C12.2613 22.9348 12.1408 22.7246 12.1982 22.5253C12.2958 22.2128 12.2556 21.8895 12.0891 21.6039C11.9226 21.3184 11.6471 21.1136 11.3199 21.0274C10.987 20.9358 10.6426 20.9735 10.3384 21.1298C10.0342 21.286 9.81603 21.5447 9.72419 21.8518C9.66105 22.0511 9.43718 22.1697 9.2248 22.1104C9.01242 22.0511 8.89187 21.841 8.94928 21.6417C9.10426 21.1352 9.46014 20.7203 9.94805 20.4671C10.436 20.2138 11.0042 20.1546 11.5381 20.3001C12.0776 20.4455 12.5196 20.7796 12.7894 21.2376C13.0592 21.6955 13.1223 22.2289 12.9673 22.73C12.9272 22.9024 12.7664 23.0102 12.5885 23.0102Z" fill="#0D0D26"/>
<path d="M12.4394 26.2645C12.3992 26.2645 12.3648 26.2591 12.3246 26.2484C9.80467 25.5641 8.35242 23.5813 8.95513 21.6417C9.01828 21.4423 9.24214 21.3292 9.45452 21.383C9.66691 21.4423 9.78745 21.6524 9.73005 21.8518C9.25936 23.382 10.4705 24.9606 12.5542 25.5264C12.7666 25.5856 12.8871 25.7958 12.8297 25.9951C12.7723 26.1568 12.6116 26.2645 12.4394 26.2645Z" fill="#0D0D26"/>
<path d="M9.09323 25.1548C8.57088 25.1548 8.03131 25.0847 7.50322 24.9392C7.29084 24.88 7.16455 24.6699 7.2277 24.4705C7.29084 24.2711 7.5147 24.158 7.72709 24.2119C8.71438 24.4813 9.7189 24.4597 10.557 24.1526C11.1482 23.9371 11.9116 23.4737 12.2044 22.5254C12.2675 22.3261 12.4914 22.2129 12.7038 22.2668C12.9161 22.3261 13.0367 22.5362 12.9793 22.7356C12.6808 23.7054 11.9231 24.4597 10.8554 24.853C10.3101 25.0524 9.71316 25.1548 9.09323 25.1548Z" fill="#0D0D26"/>
<path d="M13.6853 26.4315C13.2261 26.4315 12.7727 26.3723 12.3307 26.2483C12.1183 26.1891 11.9977 25.9789 12.0551 25.7796C12.1183 25.5802 12.3364 25.4617 12.5545 25.521C13.0367 25.6503 13.5361 25.6988 14.0355 25.6557C14.2536 25.6395 14.4488 25.7904 14.4717 26.0005C14.489 26.2106 14.3282 26.3884 14.1044 26.41C13.9609 26.4261 13.8231 26.4315 13.6853 26.4315Z" fill="#0D0D26"/>
<path d="M3.5536 74.8639C2.90496 74.8639 2.25059 74.6969 1.6651 74.3521C0.000470507 73.3715 -0.498919 71.3025 0.545781 69.7454C1.59048 68.1829 3.78894 67.7087 5.45357 68.6947C7.1182 69.6753 7.61759 71.7443 6.57289 73.3014C5.9013 74.309 4.7418 74.8639 3.5536 74.8639ZM3.56508 68.9372C2.64666 68.9372 1.7512 69.3682 1.22885 70.1495C0.419498 71.3564 0.809826 72.9566 2.09561 73.7163C2.72128 74.0827 3.45601 74.2012 4.17353 74.0503C4.89104 73.8941 5.50523 73.49 5.89556 72.9027C6.70492 71.6958 6.31459 70.0956 5.0288 69.3359C4.5696 69.0665 4.06447 68.9372 3.56508 68.9372Z" fill="#0D0D26"/>
<path d="M149.564 91.2163C149.45 91.2163 149.341 91.1678 149.26 91.087C149.168 90.99 149.14 90.8499 149.18 90.726L150.793 85.8822C150.839 85.7475 150.959 85.6451 151.109 85.6236L156.441 84.7884C156.579 84.7669 156.717 84.8154 156.809 84.9124C156.9 85.0093 156.929 85.1494 156.889 85.2734L155.276 90.1171C155.23 90.2518 155.109 90.3542 154.96 90.3757L149.628 91.2109C149.605 91.2163 149.587 91.2163 149.564 91.2163ZM151.487 86.3294L150.144 90.365L154.587 89.6699L155.93 85.6343L151.487 86.3294Z" fill="#0D0D26"/>
<path d="M156.367 58.4413L148.549 54.7937C148.004 54.5404 147.9 53.6837 148.325 52.8809C148.75 52.0781 149.536 51.6363 150.087 51.8896L157.905 55.5372C158.451 55.7904 158.554 56.6471 158.129 57.4499C157.699 58.2527 156.912 58.6999 156.367 58.4413Z" fill="#0D0D26"/>
<path d="M156.705 58.894C156.522 58.894 156.349 58.8563 156.189 58.7809L148.371 55.1332C147.986 54.9554 147.734 54.5729 147.676 54.0826C147.624 53.6516 147.728 53.1612 147.969 52.714C148.21 52.2615 148.56 51.8897 148.956 51.6688C149.404 51.4156 149.88 51.3778 150.265 51.5556L158.083 55.2033C158.468 55.3811 158.72 55.7636 158.778 56.2539C158.829 56.685 158.726 57.1753 158.485 57.6225C158.175 58.2098 157.675 58.657 157.147 58.824C156.998 58.8671 156.849 58.894 156.705 58.894ZM149.748 52.1968C149.634 52.1968 149.501 52.2345 149.369 52.3153C149.105 52.4662 148.859 52.7302 148.686 53.0535C148.52 53.3714 148.44 53.7216 148.474 54.0072C148.503 54.2335 148.595 54.4005 148.727 54.4597L156.545 58.1074C156.636 58.1505 156.757 58.1505 156.889 58.1074C157.216 58.005 157.549 57.6925 157.762 57.2884C157.928 56.9705 158.008 56.6203 157.974 56.3348C157.951 56.1085 157.853 55.9414 157.721 55.8822L149.903 52.2345C149.863 52.2076 149.806 52.1968 149.748 52.1968Z" fill="#0D0D26"/>
<path d="M148.331 52.8812C148.755 52.0784 149.542 51.6366 150.093 51.8898C150.638 52.143 150.742 52.9997 150.317 53.8025C149.892 54.6053 149.106 55.0471 148.555 54.7939C148.004 54.5407 147.906 53.684 148.331 52.8812Z" fill="#0D0D26"/>
<path d="M148.887 55.2411C148.709 55.2411 148.537 55.2034 148.371 55.128C147.986 54.9502 147.734 54.5676 147.676 54.0773C147.624 53.6463 147.728 53.156 147.969 52.7088C148.503 51.7066 149.513 51.1948 150.265 51.5504C151.023 51.906 151.201 52.9674 150.667 53.9696C150.253 54.7616 149.536 55.2411 148.887 55.2411ZM149.754 52.1969C149.438 52.1969 148.973 52.5094 148.692 53.0482C148.526 53.3661 148.445 53.7163 148.48 54.0019C148.508 54.2282 148.6 54.3952 148.732 54.4545C149.031 54.5946 149.616 54.2713 149.955 53.6355C150.294 52.9997 150.213 52.3639 149.915 52.2292C149.863 52.2077 149.811 52.1969 149.754 52.1969Z" fill="#0D0D26"/>
<path d="M154.208 21.6795C154.174 21.6795 154.134 21.6741 154.099 21.6633C153.887 21.6041 153.76 21.3939 153.824 21.1946C154.024 20.5426 153.623 19.8584 152.928 19.6698C152.234 19.4812 151.505 19.8584 151.304 20.5103C151.241 20.7097 151.022 20.8228 150.804 20.7689C150.592 20.7097 150.466 20.4995 150.529 20.3002C150.856 19.2495 152.033 18.6407 153.152 18.9478C154.271 19.2549 154.92 20.3541 154.593 21.4101C154.541 21.5717 154.38 21.6795 154.208 21.6795Z" fill="#0D0D26"/>
<path d="M154.054 24.977C154.019 24.977 153.979 24.9716 153.939 24.9608C152.768 24.6429 151.763 24.0125 151.12 23.1882C150.432 22.3046 150.219 21.2809 150.523 20.2949C150.587 20.0955 150.805 19.977 151.023 20.0362C151.235 20.0955 151.356 20.3056 151.298 20.505C151 21.4694 151.39 22.2561 151.769 22.741C152.309 23.4306 153.158 23.9641 154.163 24.2335C154.375 24.2927 154.501 24.5028 154.438 24.7022C154.386 24.8746 154.226 24.977 154.054 24.977Z" fill="#0D0D26"/>
<path d="M150.69 23.8616C150.162 23.8616 149.611 23.7862 149.048 23.6353C148.836 23.576 148.715 23.3659 148.773 23.1666C148.836 22.9672 149.054 22.8487 149.272 22.9079C151.385 23.4844 153.336 22.7463 153.818 21.1946C153.882 20.9952 154.1 20.8767 154.318 20.9359C154.53 20.9952 154.656 21.2053 154.593 21.4047C154.117 22.9403 152.561 23.8616 150.69 23.8616Z" fill="#0D0D26"/>
<path d="M149.163 23.6515C149.129 23.6515 149.089 23.6461 149.048 23.6354C148.469 23.4791 147.923 23.2205 147.436 22.8757C147.258 22.7517 147.223 22.5147 147.355 22.3476C147.487 22.1806 147.74 22.1483 147.918 22.2722C148.325 22.5632 148.779 22.7733 149.267 22.908C149.479 22.9672 149.6 23.1774 149.542 23.3767C149.496 23.5438 149.335 23.6515 149.163 23.6515Z" fill="#0D0D26"/>
<path d="M159.099 23.0103C159.065 23.0103 159.025 23.0049 158.984 22.9942C158.772 22.9349 158.651 22.7248 158.709 22.5254C158.91 21.8735 158.508 21.1892 157.813 21.0006C157.119 20.812 156.39 21.1892 156.189 21.8411C156.126 22.0405 155.908 22.159 155.69 22.0998C155.477 22.0405 155.357 21.8304 155.414 21.631C155.735 20.5804 156.918 19.9715 158.031 20.2786C158.577 20.4241 159.025 20.7636 159.294 21.2269C159.564 21.6903 159.627 22.2291 159.472 22.7355C159.432 22.9026 159.271 23.0103 159.099 23.0103Z" fill="#0D0D26"/>
<path d="M158.944 26.3078C158.909 26.3078 158.869 26.3024 158.829 26.2916C157.658 25.9738 156.653 25.3434 156.011 24.519C155.322 23.6354 155.109 22.6117 155.414 21.6257C155.477 21.4263 155.695 21.3078 155.913 21.3671C156.125 21.4263 156.246 21.6365 156.189 21.8358C155.89 22.8003 156.28 23.5869 156.659 24.0718C157.199 24.7615 158.048 25.2949 159.053 25.5643C159.265 25.6235 159.386 25.8337 159.328 26.033C159.277 26.2001 159.116 26.3078 158.944 26.3078Z" fill="#0D0D26"/>
<path d="M155.552 25.1817C155.023 25.1817 154.478 25.1062 153.939 24.9607C153.726 24.9015 153.606 24.6913 153.663 24.492C153.726 24.2926 153.944 24.1741 154.162 24.2334C155.167 24.5082 156.189 24.4866 157.033 24.1741C157.629 23.9532 158.41 23.4898 158.703 22.52C158.766 22.3206 158.99 22.2021 159.202 22.2614C159.415 22.3206 159.541 22.5308 159.478 22.7301C159.174 23.7107 158.41 24.4758 157.325 24.8745C156.786 25.0847 156.177 25.1817 155.552 25.1817Z" fill="#0D0D26"/>
<path d="M160.207 26.48C159.742 26.48 159.282 26.4208 158.835 26.2968C158.622 26.2376 158.502 26.0274 158.559 25.8281C158.622 25.6287 158.84 25.5102 159.059 25.5695C159.546 25.7042 160.052 25.7527 160.562 25.7095C160.781 25.6934 160.976 25.8442 160.999 26.0544C161.016 26.2645 160.855 26.4423 160.631 26.4639C160.488 26.4746 160.344 26.48 160.207 26.48Z" fill="#0D0D26"/>
<path d="M149.995 74.7022C149.381 74.7022 148.755 74.546 148.198 74.2173C146.62 73.2852 146.138 71.3186 147.131 69.8315C148.124 68.3444 150.219 67.8972 151.803 68.8293C153.387 69.7615 153.864 71.7281 152.871 73.2151C152.228 74.1742 151.12 74.7022 149.995 74.7022ZM148.623 73.5761C149.828 74.2873 151.43 73.9425 152.188 72.811C152.555 72.2615 152.67 71.6095 152.521 70.9791C152.366 70.3487 151.958 69.8099 151.373 69.4651C150.787 69.1203 150.092 69.0125 149.421 69.1526C148.749 69.2981 148.175 69.6806 147.808 70.2302C147.05 71.3671 147.418 72.8649 148.623 73.5761Z" fill="#0D0D26"/>
<path d="M19.0459 15.9196C19.0229 15.9196 19 15.9196 18.977 15.9142C17.3411 15.6502 15.9118 14.8043 14.9532 13.5328C13.9946 12.2612 13.6215 10.7149 13.9028 9.17392C13.9429 8.96917 14.1496 8.82909 14.3677 8.8668C14.5858 8.90452 14.7351 9.09848 14.6949 9.30323C14.4481 10.6394 14.7753 11.9864 15.6133 13.0963C16.4514 14.2063 17.6912 14.939 19.1205 15.1707C19.3386 15.2084 19.4879 15.4024 19.4477 15.6071C19.4075 15.7903 19.2353 15.9196 19.0459 15.9196Z" fill="#0D0D26"/>
<path d="M118.826 7.48758C118.66 7.48758 118.499 7.38521 118.447 7.22896C118.378 7.0296 118.493 6.81947 118.7 6.74943C119.532 6.49081 120.204 5.94124 120.594 5.20848C120.984 4.47571 121.048 3.64058 120.772 2.85933C120.496 2.07807 119.911 1.44768 119.13 1.0813C118.35 0.714922 117.46 0.655654 116.628 0.914276C116.415 0.978932 116.191 0.871172 116.123 0.677206C116.054 0.477852 116.168 0.267721 116.375 0.197678C117.408 -0.125599 118.516 -0.0501679 119.492 0.407808C120.468 0.865784 121.191 1.65243 121.535 2.62226C121.88 3.59209 121.799 4.63196 121.312 5.54792C120.824 6.46387 119.986 7.14275 118.952 7.46603C118.912 7.48219 118.866 7.48758 118.826 7.48758Z" fill="#0D0D26"/>
<path d="M61.0116 7.99396C60.9083 7.99396 60.8107 7.95624 60.7303 7.8862C60.5696 7.74072 60.5696 7.50365 60.7246 7.35279L66.832 1.4476C66.987 1.29673 67.2396 1.29673 67.4003 1.44221C67.561 1.58768 67.561 1.82475 67.4061 1.97561L61.2986 7.88081C61.224 7.95085 61.1149 7.99396 61.0116 7.99396Z" fill="#0D0D26"/>
<path d="M26.3818 102.499C26.3129 102.353 26.267 102.035 26.267 102.035L25.67 94.4166L31.4159 99.8261L31.4044 99.8315C31.5307 99.9393 31.6455 100.063 31.7144 100.209C32.1449 101.092 31.3011 102.326 29.8259 102.957C28.3564 103.587 26.8123 103.382 26.3818 102.499Z" fill="#0D0D26"/>
<path d="M28.1325 103.705C27.1566 103.705 26.3473 103.339 26.0144 102.655C25.9225 102.472 25.8766 102.17 25.8651 102.084L25.2624 94.449C25.2509 94.2927 25.3428 94.1419 25.4978 94.0772C25.6527 94.0126 25.8307 94.0449 25.9512 94.1527L31.6971 99.5622C31.72 99.5837 31.7372 99.6053 31.7545 99.6322C31.898 99.7669 32.0013 99.907 32.0759 100.052C32.6097 101.141 31.6913 102.569 29.9923 103.301C29.3608 103.571 28.718 103.705 28.1325 103.705ZM26.7491 102.342C27.082 103.027 28.4137 103.151 29.6651 102.612C30.9107 102.078 31.6856 101.049 31.3527 100.365C31.3125 100.284 31.2436 100.203 31.1345 100.112C31.1058 100.085 31.0771 100.052 31.0542 100.02L26.1464 95.4027L26.6687 102.008C26.686 102.111 26.7204 102.288 26.7491 102.342Z" fill="#0D0D26"/>
<path d="M28.2706 99.751C29.7458 99.1206 31.2841 99.3254 31.7204 100.209C32.1509 101.093 31.3071 102.321 29.8319 102.957C28.3567 103.587 26.8183 103.382 26.3821 102.499C25.9516 101.615 26.7954 100.381 28.2706 99.751Z" fill="#0D0D26"/>
<path d="M28.1389 103.7C27.9782 103.7 27.8174 103.69 27.6625 103.668C26.8703 103.566 26.2906 103.205 26.0208 102.655C25.751 102.105 25.8428 101.459 26.2791 100.823C26.6752 100.247 27.3238 99.7401 28.1044 99.4061C29.8035 98.6787 31.5542 98.9589 32.0823 100.053C32.3521 100.602 32.2603 101.249 31.824 101.885C31.428 102.461 30.7793 102.968 29.9987 103.302C29.3845 103.56 28.7416 103.7 28.1389 103.7ZM29.97 99.7617C29.4993 99.7617 28.9597 99.8695 28.4374 100.096C27.7945 100.371 27.2664 100.775 26.9507 101.238C26.6694 101.647 26.6005 102.041 26.7498 102.348C26.899 102.655 27.2606 102.86 27.7715 102.93C28.3455 103.005 29.0171 102.897 29.66 102.617C30.3029 102.343 30.831 101.938 31.1467 101.475C31.428 101.071 31.4968 100.678 31.3476 100.371C31.1582 99.9718 30.6243 99.7617 29.97 99.7617Z" fill="#0D0D26"/>
<path d="M139.681 100.969C139.549 100.969 139.417 100.904 139.342 100.791L134.595 93.7596C134.474 93.5818 134.532 93.3501 134.721 93.2369C134.911 93.1238 135.157 93.1777 135.278 93.3555L140.025 100.387C140.146 100.565 140.088 100.796 139.899 100.909C139.83 100.952 139.755 100.969 139.681 100.969Z" fill="#0D0D26"/>
<path d="M118.82 99.3631C118.654 99.3631 118.493 99.2607 118.441 99.1044C118.373 98.9051 118.487 98.695 118.694 98.6303C120.542 98.0538 121.547 96.168 120.933 94.4331C120.634 93.5926 120.003 92.9083 119.159 92.515C118.315 92.1163 117.357 92.0516 116.461 92.3318C116.249 92.3964 116.025 92.2887 115.956 92.0947C115.887 91.8954 116.002 91.6852 116.209 91.6206C117.305 91.2757 118.482 91.3566 119.521 91.8415C120.56 92.3264 121.329 93.1669 121.696 94.196C122.063 95.2305 121.977 96.3296 121.461 97.3049C120.944 98.2801 120.049 99.0021 118.952 99.3469C118.906 99.3577 118.86 99.3631 118.82 99.3631Z" fill="#0D0D26"/>
<path d="M61.0008 99.6432C60.8975 99.6432 60.7999 99.6055 60.7195 99.5354C60.5588 99.39 60.5588 99.1529 60.7138 99.002L66.8442 93.0753C66.9992 92.9244 67.2518 92.919 67.4125 93.0699C67.5732 93.2154 67.5732 93.4524 67.4182 93.6033L61.2878 99.5301C61.2074 99.6055 61.1041 99.6432 61.0008 99.6432Z" fill="#0D0D26"/>
<path d="M84.0876 16.4587C83.9728 16.4587 83.8638 16.4156 83.7834 16.324L82.4919 14.8962C82.3484 14.7399 82.3713 14.4975 82.5378 14.3628C82.71 14.2281 82.9626 14.2496 83.1061 14.4059L84.3976 15.8337C84.5411 15.9899 84.5181 16.2324 84.3517 16.3671C84.2713 16.4263 84.1795 16.4587 84.0876 16.4587Z" fill="#0D0D26"/>
<path d="M79.8108 11.7333C79.696 11.7333 79.5869 11.6902 79.5066 11.5986L78.215 10.1708C78.0715 10.0145 78.0945 9.77208 78.2609 9.63738C78.4274 9.50269 78.6857 9.52424 78.8292 9.68049L80.1207 11.1083C80.2642 11.2645 80.2413 11.507 80.0748 11.6417C79.9945 11.7064 79.9026 11.7333 79.8108 11.7333Z" fill="#0D0D26"/>
<path d="M79.8571 17.1805C79.8111 17.1805 79.7652 17.1751 79.7193 17.159C79.5127 17.0889 79.4036 16.8734 79.4782 16.6794L80.1498 14.9176C80.2244 14.7236 80.454 14.6212 80.6607 14.6913C80.8673 14.7613 80.9764 14.9768 80.9018 15.1708L80.2302 16.9327C80.1785 17.0889 80.0235 17.1805 79.8571 17.1805Z" fill="#0D0D26"/>
<path d="M82.0783 11.3453C82.0324 11.3453 81.9864 11.3399 81.9405 11.3237C81.7339 11.2537 81.6248 11.0382 81.6994 10.8442L82.371 9.08233C82.4457 8.88836 82.6753 8.78599 82.8819 8.85603C83.0885 8.92608 83.1976 9.14159 83.123 9.33556L82.4514 11.0974C82.394 11.2483 82.239 11.3453 82.0783 11.3453Z" fill="#0D0D26"/>
<path d="M77.0729 14.1093C76.8835 14.1093 76.7113 13.9799 76.6768 13.8021C76.6366 13.5974 76.7801 13.398 76.9983 13.3657L78.9614 13.0317C79.1795 12.994 79.3919 13.1287 79.4263 13.3334C79.4665 13.5381 79.323 13.7375 79.1049 13.7698L77.1418 14.1039C77.1188 14.1039 77.0959 14.1093 77.0729 14.1093Z" fill="#0D0D26"/>
<path d="M83.571 12.994C83.3816 12.994 83.2094 12.8647 83.1749 12.6869C83.1347 12.4821 83.2782 12.2828 83.4964 12.2505L85.4595 11.9164C85.6776 11.8787 85.89 12.0134 85.9244 12.2181C85.9646 12.4229 85.8211 12.6222 85.603 12.6545L83.6399 12.9886C83.6169 12.994 83.5939 12.994 83.571 12.994Z" fill="#0D0D26"/>
<path d="M112.283 65.1871C112.14 65.1871 112.002 65.1171 111.927 64.9932L109.103 60.1386C108.994 59.9554 109.069 59.7292 109.264 59.6268C109.459 59.5244 109.7 59.5945 109.809 59.7776L112.444 64.2981L117.26 61.8251C117.455 61.7227 117.696 61.7927 117.805 61.9759C117.914 62.1591 117.84 62.3854 117.644 62.4878L112.473 65.1387C112.415 65.171 112.346 65.1871 112.283 65.1871Z" fill="#0D0D26"/>
<path d="M97.3128 91.6312C97.307 91.6312 97.307 91.6312 97.3128 91.6312C97.0889 91.6312 96.911 91.4588 96.911 91.2487L96.9569 86.5665C96.9569 86.4372 97.0258 86.3187 97.1406 86.254C97.2554 86.184 97.3989 86.1786 97.5252 86.2271L101.13 87.7519L101.17 83.6463C101.17 83.4415 101.354 83.2745 101.572 83.2745C101.572 83.2745 101.572 83.2745 101.578 83.2745C101.802 83.2745 101.979 83.4469 101.974 83.657L101.928 88.3446C101.928 88.4739 101.859 88.5924 101.744 88.657C101.629 88.7271 101.486 88.7379 101.36 88.684L97.7548 87.1592L97.7146 91.2648C97.7089 91.4642 97.5309 91.6312 97.3128 91.6312Z" fill="#0D0D26"/>
<path d="M116.651 38.7485C116.559 38.7485 116.473 38.7216 116.398 38.6677L113.287 36.3293C113.115 36.2 113.086 35.963 113.224 35.8013C113.362 35.6397 113.614 35.6127 113.786 35.7421L116.582 37.8487L118.809 35.2356C118.878 35.1548 118.975 35.1063 119.079 35.0955C119.182 35.0847 119.291 35.1117 119.371 35.1763L122.167 37.283L124.394 34.6698C124.532 34.5082 124.784 34.4813 124.957 34.6106C125.129 34.7399 125.158 34.977 125.02 35.1386L122.54 38.0481C122.471 38.1235 122.374 38.1774 122.27 38.1882C122.167 38.199 122.058 38.172 121.977 38.1074L119.182 36.0007L116.955 38.6138C116.886 38.6947 116.788 38.7431 116.685 38.7539C116.679 38.7485 116.662 38.7485 116.651 38.7485Z" fill="#0D0D26"/>
<path d="M120.055 80.2787C119.906 80.2787 119.768 80.2033 119.694 80.0686L118.029 76.9652L114.717 78.5277C114.516 78.6193 114.275 78.5438 114.177 78.3606L112.513 75.2518L109.201 76.8143C109 76.9059 108.759 76.8358 108.661 76.6473L106.997 73.5438L103.685 75.1063C103.484 75.1979 103.243 75.1279 103.145 74.9393C103.047 74.7561 103.122 74.5244 103.323 74.4328L106.991 72.6979C107.186 72.6009 107.433 72.6763 107.53 72.8649L109.195 75.9738L112.507 74.4113C112.702 74.3143 112.949 74.3897 113.047 74.5783L114.711 77.6818L118.023 76.1192C118.224 76.0223 118.46 76.0977 118.563 76.2863L120.411 79.7292C120.509 79.9124 120.434 80.144 120.233 80.2356C120.182 80.268 120.118 80.2787 120.055 80.2787Z" fill="#0D0D26"/>
<path d="M30.8826 85.9792C30.5727 85.9792 30.2627 85.9146 29.9699 85.7853C29.4476 85.5536 29.0573 85.1495 28.8564 84.643C28.7817 84.449 28.8908 84.2281 29.0974 84.1581C29.3041 84.088 29.5337 84.1904 29.6141 84.3844C29.7346 84.7023 29.9814 84.9555 30.3086 85.101C30.6358 85.2465 31.0032 85.2626 31.3418 85.1441C32.0421 84.907 32.4037 84.1796 32.1512 83.5223C32.0766 83.3283 32.1856 83.1074 32.3923 83.0374C32.5989 82.9674 32.8285 83.0697 32.9089 83.2637C33.3107 84.3143 32.7309 85.4728 31.6174 85.8499C31.3763 85.9361 31.1294 85.9792 30.8826 85.9792Z" fill="#0D0D26"/>
<path d="M32.5299 83.7703C32.3634 83.7703 32.2085 83.6733 32.151 83.5224C31.7779 82.5526 30.9514 82.127 30.32 81.933C29.4302 81.6636 28.3855 81.7067 27.381 82.0461C27.1744 82.1162 26.9448 82.0138 26.8644 81.8198C26.7898 81.6259 26.8989 81.4104 27.1055 81.3349C28.2765 80.9362 29.5049 80.8931 30.5668 81.211C31.6976 81.5504 32.5299 82.2778 32.9087 83.2584C32.9834 83.4524 32.8743 83.6733 32.6677 83.7433C32.6217 83.7649 32.5758 83.7703 32.5299 83.7703Z" fill="#0D0D26"/>
<path d="M29.235 84.891C29.0685 84.891 28.9135 84.794 28.8561 84.6431C28.4773 83.6625 28.6208 82.6011 29.2579 81.6636C29.8549 80.7853 30.8307 80.0795 32.0017 79.6862C32.2083 79.6162 32.4379 79.7185 32.5183 79.9125C32.5929 80.1065 32.4839 80.3274 32.2772 80.3974C31.2727 80.7369 30.4404 81.3349 29.9353 82.0731C29.5794 82.5957 29.235 83.4201 29.6081 84.3899C29.6827 84.5839 29.5736 84.8048 29.367 84.8748C29.3268 84.8802 29.2809 84.891 29.235 84.891Z" fill="#0D0D26"/>
<path d="M32.1394 80.4136C31.9729 80.4136 31.8179 80.3166 31.7605 80.1658C31.6859 79.9718 31.795 79.7563 32.0016 79.6809C32.5871 79.4815 33.2013 79.3899 33.8155 79.4007C34.0393 79.4061 34.2115 79.5785 34.2115 79.7832C34.2058 79.9934 34.0279 80.155 33.804 80.155C33.2874 80.1442 32.765 80.225 32.2771 80.3921C32.2312 80.4082 32.1853 80.4136 32.1394 80.4136Z" fill="#0D0D26"/>
<path d="M25.9855 87.6388C25.6756 87.6388 25.3656 87.5741 25.0729 87.4448C24.5505 87.2131 24.1602 86.809 23.9593 86.3026C23.8847 86.1086 23.9937 85.8877 24.2004 85.8176C24.407 85.7476 24.6366 85.85 24.717 86.0439C24.8375 86.3618 25.0843 86.6151 25.4115 86.7605C25.7387 86.906 26.1061 86.9222 26.4447 86.8036C27.145 86.5666 27.5067 85.8392 27.2541 85.1819C27.1795 84.9879 27.2885 84.7724 27.4952 84.6969C27.7018 84.6269 27.9372 84.7293 28.0118 84.9232C28.4136 85.9739 27.8338 87.1323 26.7203 87.5095C26.4792 87.5957 26.2324 87.6388 25.9855 87.6388Z" fill="#0D0D26"/>
<path d="M27.6328 85.4352C27.4663 85.4352 27.3114 85.3382 27.254 85.1874C26.8809 84.2175 26.0543 83.7919 25.4229 83.5979C24.5332 83.3285 23.4885 83.3716 22.4839 83.7111C22.2773 83.7811 22.0477 83.6788 21.9673 83.4848C21.8927 83.2908 22.0018 83.0753 22.2084 82.9999C23.3794 82.6012 24.6078 82.5581 25.6697 82.8759C26.8005 83.2154 27.6328 83.9428 28.0117 84.9234C28.0863 85.1173 27.9772 85.3382 27.7706 85.4083C27.7247 85.4244 27.6787 85.4352 27.6328 85.4352Z" fill="#0D0D26"/>
<path d="M24.3389 86.5505C24.1724 86.5505 24.0174 86.4535 23.96 86.3027C23.5812 85.3221 23.7247 84.2606 24.3618 83.3231C24.9588 82.4449 25.9346 81.7391 27.1056 81.3458C27.3122 81.2757 27.5418 81.3781 27.6222 81.572C27.6968 81.766 27.5877 81.9869 27.3811 82.057C26.3766 82.3964 25.5443 82.9945 25.0391 83.7326C24.6833 84.2552 24.3388 85.0796 24.712 86.0494C24.7866 86.2434 24.6775 86.4643 24.4709 86.5344C24.4307 86.5451 24.3848 86.5505 24.3389 86.5505Z" fill="#0D0D26"/>
<path d="M20.8892 84.5406C20.7744 84.5406 20.6653 84.4975 20.585 84.4113C20.4415 84.2551 20.4587 84.018 20.6251 83.8779C21.0958 83.4954 21.6297 83.2044 22.2151 83.0051C22.4218 82.935 22.6571 83.0374 22.7318 83.2314C22.8064 83.4253 22.6973 83.6408 22.4907 83.7163C22.0028 83.8833 21.555 84.1311 21.1532 84.449C21.0729 84.5083 20.981 84.5406 20.8892 84.5406Z" fill="#0D0D26"/>
<path d="M87.3301 36.7979C87.2497 36.7979 87.1751 36.7872 87.0947 36.7656C86.6814 36.6417 86.4518 36.2268 86.5839 35.8389C86.7159 35.4509 87.1521 35.2354 87.5654 35.3594C87.9787 35.4833 88.2083 35.8981 88.0763 36.2861C87.973 36.5986 87.663 36.7979 87.3301 36.7979ZM87.3358 36.0436C87.3301 36.0436 87.3186 36.049 87.3186 36.0544L87.221 36.4046L87.3358 36.0436Z" fill="#0D0D26"/>
<path d="M15.4932 47.6655C15.4128 47.6655 15.3325 47.6547 15.2521 47.6278C14.8274 47.5039 14.592 47.0729 14.724 46.6741C14.7872 46.4802 14.9307 46.3239 15.1201 46.2323C15.3095 46.1407 15.5276 46.1192 15.7343 46.1838C15.9409 46.2431 16.1074 46.3778 16.205 46.5556C16.3026 46.7334 16.3198 46.9382 16.2566 47.1321C16.1533 47.4608 15.8319 47.6655 15.4932 47.6655Z" fill="#0D0D26"/>
<path d="M85.9818 89.1635C85.9015 89.1635 85.8211 89.1527 85.7408 89.1258C85.3217 89.0019 85.0864 88.5762 85.2184 88.1829C85.2816 87.9889 85.425 87.8327 85.6145 87.7411C85.8039 87.6495 86.022 87.6333 86.2229 87.6926C86.4238 87.7519 86.5903 87.8866 86.6936 88.0644C86.7912 88.2422 86.8084 88.4469 86.7453 88.6355C86.6821 88.8294 86.5386 88.9857 86.3492 89.0773C86.2344 89.1366 86.1081 89.1635 85.9818 89.1635ZM85.9818 88.4092L85.8613 88.7702L85.9818 88.4092Z" fill="#0D0D26"/>
<path d="M44.9914 30.0685C44.9111 30.0685 44.8307 30.0577 44.7561 30.0362C44.5552 29.9769 44.3945 29.8476 44.2969 29.6752C44.1993 29.5028 44.1821 29.3034 44.2452 29.1148C44.3084 28.9263 44.4461 28.7754 44.6298 28.6838C44.8135 28.5922 45.0259 28.576 45.2268 28.6353C45.4277 28.6946 45.5884 28.8239 45.686 28.9963C45.7836 29.1687 45.8008 29.3681 45.7377 29.5567C45.6745 29.7452 45.5367 29.8961 45.3531 29.9877C45.2383 30.0416 45.112 30.0685 44.9914 30.0685ZM44.9914 29.3142C44.98 29.3142 44.9742 29.3196 44.9685 29.3304L44.9972 29.3196C44.9914 29.3142 44.9914 29.3142 44.9914 29.3142Z" fill="#0D0D26"/>
<path d="M145.644 30.6882C145.564 30.6882 145.483 30.6774 145.397 30.6505C145.191 30.5912 145.019 30.4565 144.921 30.2733C144.823 30.0901 144.8 29.8854 144.869 29.6914C144.932 29.4974 145.076 29.3412 145.271 29.2442C145.466 29.1472 145.684 29.1311 145.891 29.1957C146.322 29.325 146.557 29.7507 146.419 30.1548C146.31 30.478 145.989 30.6882 145.644 30.6882ZM145.65 29.9231L145.638 29.9285C145.644 29.9339 145.65 29.9285 145.65 29.9231Z" fill="#0D0D26"/>
<path d="M140.868 40.5211H134.049C133.825 40.5211 133.647 40.3541 133.647 40.1439C133.647 39.9338 133.825 39.7668 134.049 39.7668H140.868C141.092 39.7668 141.27 39.9338 141.27 40.1439C141.27 40.3541 141.086 40.5211 140.868 40.5211Z" fill="#0D0D26"/>
<path d="M137.459 43.7217C137.235 43.7217 137.057 43.5547 137.057 43.3445V36.9436C137.057 36.7335 137.235 36.5665 137.459 36.5665C137.682 36.5665 137.86 36.7335 137.86 36.9436V43.3445C137.86 43.5547 137.677 43.7217 137.459 43.7217Z" fill="#0D0D26"/>
<path d="M79.0702 83.7917H72.4002C72.1763 83.7917 71.9983 83.6247 71.9983 83.4145C71.9983 83.2044 72.1763 83.0374 72.4002 83.0374H79.0702C79.294 83.0374 79.472 83.2044 79.472 83.4145C79.472 83.6193 79.294 83.7917 79.0702 83.7917Z" fill="#0D0D26"/>
<path d="M75.7354 86.9222C75.5116 86.9222 75.3336 86.7552 75.3336 86.5451V80.2843C75.3336 80.0741 75.5116 79.9071 75.7354 79.9071C75.9593 79.9071 76.1372 80.0741 76.1372 80.2843V86.5451C76.1372 86.7552 75.9535 86.9222 75.7354 86.9222Z" fill="#0D0D26"/>
<path d="M77.429 28.8778C77.3257 28.8778 77.2223 28.8401 77.142 28.7647C76.987 28.6192 76.987 28.3767 77.142 28.2313L81.912 23.7539C82.067 23.6084 82.3253 23.6084 82.4803 23.7539C82.6353 23.8993 82.6353 24.1418 82.4803 24.2873L77.7103 28.7647C77.6356 28.8401 77.5323 28.8778 77.429 28.8778Z" fill="#0D0D26"/>
<path d="M82.199 28.8778C82.0957 28.8778 81.9924 28.8401 81.912 28.7647L77.142 24.2873C76.987 24.1418 76.987 23.8993 77.142 23.7539C77.297 23.6084 77.5553 23.6084 77.7103 23.7539L82.4803 28.2313C82.6353 28.3767 82.6353 28.6192 82.4803 28.7647C82.4057 28.8401 82.3023 28.8778 82.199 28.8778Z" fill="#0D0D26"/>
<path d="M42.4541 18.9047C42.3451 18.9047 42.2475 18.867 42.1671 18.7915L38.3327 15.1924C38.1777 15.0469 38.1777 14.8045 38.3327 14.659L42.1671 11.0598C42.3164 10.9197 42.5861 10.9197 42.7354 11.0598L46.5698 14.659C46.7248 14.8045 46.7248 15.0469 46.5698 15.1924L42.7354 18.7915C42.6608 18.8616 42.5574 18.9047 42.4541 18.9047ZM39.1823 14.923L42.4484 17.9887L45.7145 14.923L42.4541 11.8572L39.1823 14.923Z" fill="#0D0D26"/>
</g>
</svg>
