<svg width="21" height="20" viewBox="0 0 21 20" fill="none" xmlns="http://www.w3.org/2000/svg">
<path d="M13.3571 3.61688C13.3571 3.61688 13.3571 0.5 10.5 0.5C7.64286 0.5 7.64286 3.61688 7.64286 3.61688M10.5 12.9675C15.1554 12.9675 18.8626 10.8988 20.0767 10.1321C20.3472 9.96125 20.5 9.66136 20.5 9.34142V4.61688C20.5 4.0646 20.0523 3.61688 19.5 3.61688H1.5C0.947715 3.61688 0.5 4.0646 0.5 4.61688V9.34142C0.5 9.66136 0.652825 9.96125 0.923336 10.1321C2.13744 10.8988 5.84464 12.9675 10.5 12.9675ZM10.5 14.526V11.4091V14.526ZM1.21429 11.6299V18.2013C1.21429 18.7536 1.662 19.2013 2.21429 19.2013H18.7857C19.338 19.2013 19.7857 18.7536 19.7857 18.2013V11.6299C19.7857 11.0776 19.338 10.6299 18.7857 10.6299H2.21429C1.662 10.6299 1.21429 11.0776 1.21429 11.6299Z" stroke="#95969D" stroke-linecap="round" stroke-linejoin="round"/>
</svg>
