<svg width="21" height="18" viewBox="0 0 21 18" fill="none" xmlns="http://www.w3.org/2000/svg">
<path d="M13.0002 13.0002V15.0836C13.0002 15.6361 12.7807 16.1661 12.39 16.5568C11.9993 16.9475 11.4694 17.167 10.9169 17.167H2.58338C2.03083 17.167 1.50092 16.9475 1.11021 16.5568C0.719506 16.1661 0.500009 15.6361 0.500009 15.0836V2.58338C0.500009 2.03083 0.719506 1.50092 1.11021 1.11021C1.50092 0.719506 2.03083 0.500009 2.58338 0.500009H10.5002C11.6507 0.500009 13.0002 1.43284 13.0002 2.58338V4.66675" stroke="#E30000" stroke-linecap="round" stroke-linejoin="round"/>
<path d="M16.3333 13.0001L20.5 8.83332L16.3333 4.66659" stroke="#E30000" stroke-linecap="round" stroke-linejoin="round"/>
<path d="M6.33312 8.83365H19.6667" stroke="#E30000" stroke-linecap="round" stroke-linejoin="round"/>
</svg>
