<svg width="26" height="26" viewBox="0 0 26 26" fill="none" xmlns="http://www.w3.org/2000/svg">
<path d="M18.351 3.25C19.8038 3.25 21.2013 3.82417 22.2293 4.85442C23.2585 5.8825 23.8338 7.26917 23.8338 8.72083V17.2792C23.8338 20.3017 21.3746 22.75 18.351 22.75H7.64877C4.62518 22.75 2.1671 20.3017 2.1671 17.2792V8.72083C2.1671 5.69833 4.61435 3.25 7.64877 3.25H18.351ZM19.5763 8.88333C19.3488 8.87142 19.1321 8.94833 18.9685 9.1L14.0838 13C13.4554 13.5211 12.5552 13.5211 11.9171 13L7.0421 9.1C6.70518 8.85083 6.23935 8.88333 5.95877 9.17583C5.66627 9.46833 5.63377 9.93417 5.88185 10.2592L6.02377 10.4L10.9529 14.2458C11.5596 14.7225 12.2952 14.9825 13.0654 14.9825C13.8335 14.9825 14.5821 14.7225 15.1877 14.2458L20.0746 10.335L20.1613 10.2483C20.4202 9.93417 20.4202 9.47917 20.1493 9.165C19.9988 9.00358 19.7918 8.905 19.5763 8.88333Z" fill="#CACBCE"/>
</svg>
